<svg width="1920" height="1396" viewBox="0 0 1920 1396" fill="none" xmlns="http://www.w3.org/2000/svg">
<g style="mix-blend-mode:overlay">
<path d="M1910.95 257.066C1903.84 246.639 1894.1 237.691 1884.35 229.82C1858.89 209.291 1828.58 195.824 1797.23 187.362C1779.2 182.492 1760.02 181.974 1742.14 187.894C1724.51 193.743 1709.42 205.05 1695.83 217.426C1681.64 230.373 1668.93 244.89 1654.5 257.592C1643.89 266.927 1630.27 277.456 1615.2 275.467C1592.78 272.499 1569.48 267.708 1547.08 273.338C1518 280.671 1496.39 304.041 1477.4 325.742C1456.51 349.582 1426.3 371.016 1392.77 365.188C1375.01 362.088 1359.07 352.192 1345.57 340.631C1325.21 323.211 1309.08 301.227 1295.37 278.465C1268.89 234.598 1244.42 188.579 1212.6 148.036C1186.07 114.241 1153.09 85.5165 1110.95 73.8231C1085.96 66.8831 1059.37 66.0372 1033.76 68.2328C982.108 72.6709 927.689 83.582 884.855 114.916C868.221 127.096 853.763 142.478 840.001 157.747C825.949 173.329 812.884 189.773 800.729 206.851C780.224 235.638 763.517 266.89 745.372 297.16C735.156 314.205 728.742 331.556 723.564 350.731C718.47 369.676 713.983 389.014 705.81 406.928C697.972 424.104 686.061 440.443 667.964 447.614C631.303 462.153 587.584 449.233 551.8 438C510.039 424.892 469.492 407.675 427.02 396.881C408.279 392.117 388.629 388.35 369.211 389.723C340.726 391.747 302.051 394.835 285.114 421.797C271.068 444.136 277.146 473.629 279.599 498.201C281.251 514.61 281.142 531.673 275.171 547.282C268.587 564.495 256.138 576.923 239.713 584.886C219.114 594.879 196.06 599.62 173.596 603.187C147.844 607.276 121.756 609.528 95.7172 610.484C58.2614 611.853 21.8385 602.838 -14.6117 595.471C-46.3769 589.059 -83.6181 581.985 -112.557 601.071" stroke="#184994" stroke-width="0.8" stroke-miterlimit="10"/>
<path d="M1911.41 270.972C1904.38 260.934 1894.76 252.387 1885.2 244.842C1859.98 224.973 1830.15 211.864 1799.25 203.938C1776.58 198.124 1753.93 201.434 1733.69 213.199C1712.25 225.655 1695.26 244.472 1678.47 262.377C1668.57 272.936 1658.68 283.845 1647.09 292.572C1638.54 298.992 1628.22 304.682 1617.14 303.303C1594.92 300.549 1571.89 295.854 1549.67 301.094C1521.54 307.715 1500.06 329.166 1480.58 349.039C1469.84 359.993 1457.49 369.644 1443.19 375.581C1421.75 384.5 1396.91 385.11 1375.46 375.854C1342.81 361.762 1318.51 332.009 1299.62 303.083C1265.1 250.216 1234.36 192.664 1190.94 146.19C1170.76 124.569 1147.43 105.711 1119.93 94.0998C1091.39 82.0514 1060.73 78.8282 1030.21 81.1575C988.738 84.3007 945.594 91.981 908.912 112.694C887.096 125.003 868.431 142.107 850.82 159.907C833.582 177.348 817.801 196.212 803.416 215.955C797.174 224.507 791.304 233.389 785.578 242.332C774.778 259.244 764.766 276.643 754.595 293.953C749.371 302.824 744.168 311.356 740.562 321.051C736.726 331.349 734.094 342.04 731.688 352.745C723.439 389.316 717.479 441.111 679.509 459.94C677.973 460.7 676.384 461.4 674.742 462.04C637.698 476.293 593.607 462.101 557.921 450.16C515.82 436.088 475.025 417.909 432.159 406.182C413.36 401.035 393.593 396.846 374.047 397.84C346.676 399.221 306.838 402.02 291.77 429.552C279.095 452.693 285.909 482.269 288.025 507.072C289.716 526.938 287.88 547.535 276.78 564.62C262.957 585.869 237.908 594.373 214.5 600.352C176.092 610.173 135.418 613.69 95.7844 615.211C58.5702 616.621 22.4301 608.096 -13.7941 600.743C-44.9846 594.416 -81.8264 586.966 -110.532 605.266" stroke="#184994" stroke-width="0.8" stroke-miterlimit="10"/>
<path d="M1911.8 285.228C1904.82 275.708 1895.3 267.717 1885.92 260.703C1860.8 241.917 1831.32 229.869 1800.9 223.011C1748.44 211.221 1711.55 255.036 1679.96 289.77C1670.17 300.519 1660.29 311.59 1648.61 320.364C1640.12 326.753 1629.86 332.299 1618.9 330.997C1596.88 328.364 1574.15 323.728 1552.04 328.308C1524.98 333.93 1503.6 353.018 1483.52 370.594C1472.5 380.257 1460.04 387.764 1446.02 392.123C1424.61 398.797 1399.35 399.502 1378.04 391.385C1347.01 379.564 1322.98 352.34 1304.2 326.156C1266.66 273.837 1233.87 216.837 1190.4 168.995C1169.34 145.831 1145.24 124.882 1116.77 111.129C1088.55 97.4865 1057.8 91.9902 1026.77 94.1604C986.613 96.9647 944.496 104.414 909.581 125.738C868.949 150.563 834.386 187.051 806.129 224.883C799.83 233.305 793.934 242.111 788.145 250.945C777.291 267.544 767.438 284.779 757.265 301.836C745.702 321.255 741.536 343.343 737.695 365.334C731.132 402.816 725.153 455.456 686.098 474.132C684.546 474.865 682.941 475.538 681.305 476.157C664.278 482.42 645.568 482.006 627.843 479.375C605.965 476.115 584.689 469.409 563.886 462.049C521.836 447.186 481.172 428.261 438.357 415.652C419.163 410.009 399 405.324 378.889 405.937C360.427 406.486 341.998 408.031 324.75 415.291C314.285 419.704 303.702 426.704 298.591 437.213C287.085 460.966 294.706 490.873 296.313 515.861C297.607 536.011 294.396 556.333 281.987 572.814C266.733 593.06 238.46 600.471 215.004 605.771C176.118 614.544 135.501 618.192 95.6343 619.811C58.7203 621.302 22.8414 613.26 -13.1198 605.955C-43.7412 599.734 -80.1412 591.92 -108.564 609.422" stroke="#184994" stroke-width="0.8" stroke-miterlimit="10"/>
<path d="M1912.18 299.711C1905.22 290.863 1895.76 283.622 1886.56 277.299C1861.38 260.015 1832.13 249.36 1802.33 244.025C1749.62 234.578 1712.67 282.994 1681.38 317.626C1671.71 328.339 1661.82 339.291 1650.1 347.87C1641.63 354.082 1631.42 359.274 1620.62 357.99C1598.77 355.404 1576.35 350.735 1554.3 354.481C1528.34 358.884 1507.08 375.293 1486.3 390.015C1474.75 398.205 1461.74 403.383 1448.02 406.901C1426.19 412.497 1401.23 413.1 1379.54 405.961C1349.59 396.107 1326.89 371.053 1308.43 346.769C1269.44 295.508 1233.82 240.464 1190.67 192.546C1147.88 145.001 1090.87 103.162 1023.86 107.554C984.821 110.108 944.598 117.697 911.152 139.368C871.546 164.996 837.401 196.404 808.85 233.789C802.482 242.124 796.555 250.876 790.697 259.623C785.144 267.923 779.861 276.411 774.681 284.948C769.328 293.785 763.362 302.595 759.077 311.992C749.652 332.696 747.301 356.074 744.273 378.374C739.05 416.858 732.714 469.632 692.429 488.094C690.861 488.8 689.235 489.468 687.589 490.038C670.432 496.013 651.668 495.286 633.974 492.365C612.054 488.749 590.778 481.699 569.997 474C527.766 458.353 487.018 438.624 443.976 425.15C424.573 419.084 404.202 413.975 383.737 414.195C357.402 414.451 319.309 418.2 306.019 445.358C300.993 455.637 300.849 467.935 301.23 479.133C301.743 494.387 303.937 509.54 304.477 524.778C305.183 544.976 300.582 565.685 286.685 581.032C278.694 589.852 266.798 595.489 255.91 599.766C242.746 604.903 228.949 608.286 215.135 611.044C175.946 618.887 135.403 622.691 95.3885 624.432C58.7475 626.019 23.1941 618.478 -12.4825 611.225C-42.4921 605.122 -78.4612 596.988 -106.58 613.698" stroke="#184994" stroke-width="0.8" stroke-miterlimit="10"/>
<path d="M1912.53 314.301C1905.56 306.164 1896.2 299.753 1887.14 294.203C1861.79 278.665 1832.77 269.979 1803.53 266.424C1750.85 259.998 1714.12 311.136 1682.67 345.356C1668.01 361.305 1646.76 386.699 1622.25 383.724C1600.55 381.086 1578.43 376.358 1556.41 379.033C1531.61 382.044 1510.39 395.478 1488.9 406.818C1476.38 413.414 1462.9 417.755 1449.03 420.749C1426.52 425.591 1402.4 425.82 1380.06 419.656C1351.08 411.67 1329 388.461 1311.24 365.556C1272.38 315.482 1234.41 263.483 1191.89 216.4C1168.49 190.494 1142.73 165.841 1112.51 147.827C1085.72 131.856 1053.28 119.614 1021.87 121.519C1001.06 122.772 979.953 125.715 959.781 131.711C943.429 136.569 928.037 143.935 913.436 152.64C873.781 176.301 839.914 206.245 811.563 242.535C805.121 250.804 799.141 259.496 793.21 268.177C782.157 284.401 769.486 301.778 762.996 320.441C755.093 343.183 753.878 367.898 751.359 391.645C747.136 431.545 739.988 482.976 698.416 501.438C696.8 502.154 695.125 502.831 693.441 503.369C675.954 509.118 656.922 508.021 639.046 504.752C617.293 500.767 596.199 493.467 575.621 485.523C533.197 469.136 492.339 448.62 449.11 434.383C429.637 427.977 408.793 422.144 388.609 422.347C363.329 422.61 325.935 426.155 313.788 453.504C309.102 464.058 309.133 475.875 309.646 487.177C310.334 502.639 312.416 518.037 312.403 533.54C312.395 553.571 306.362 575.596 290.197 588.683C269.388 605.558 240.527 611.387 214.87 615.983C175.479 623.036 135.056 626.988 95.0234 628.885C58.7141 630.606 23.4919 623.545 -11.9003 616.345C-41.3251 610.376 -76.7934 601.916 -104.587 617.84" stroke="#184994" stroke-width="0.8" stroke-miterlimit="10"/>
<path d="M1912.9 328.872C1905.91 321.51 1896.61 315.989 1887.73 311.292C1862.12 297.774 1833.28 291.341 1804.65 289.696C1752.42 286.674 1716.1 338.912 1684.01 372.454C1669.01 388.128 1648.17 410.784 1623.94 407.652C1602.26 404.836 1580.46 399.92 1558.47 401.363C1534.69 402.921 1512.2 412.592 1490.63 421.751C1477.43 427.34 1463.49 430.936 1449.38 433.57C1426.46 437.819 1402.46 438.308 1379.69 432.605C1351.52 425.548 1330.47 405.463 1312.96 383.337C1274.59 334.864 1236.1 285.78 1194.18 240.192C1149.67 191.773 1090.94 136.651 1021.39 136.69C985.377 136.699 947.787 147.842 916.015 165.32C876.24 187.204 842.512 215.852 814.317 251.219C807.779 259.417 801.75 268.118 795.733 276.776C783.687 294.136 771.965 311.399 767.034 332.225C761.385 356.076 761.04 380.887 758.97 405.19C755.501 446.05 747.095 496.685 704.133 514.246C702.431 514.939 700.724 515.562 698.965 516.125C681.433 521.701 662.282 520.274 644.457 516.812C622.768 512.591 601.779 505.067 581.292 496.872C538.819 479.897 497.992 458.746 454.711 443.761C435.426 437.082 414.843 430.792 394.252 431.138C368.814 431.566 333.001 434.178 321.782 461.753C317.355 472.629 317.586 484.729 318.203 496.243C319.032 511.604 320.815 526.922 320.119 542.312C319.18 563.334 310.926 583.868 293.033 595.941C270.213 611.313 240.927 616.5 214.371 620.763C174.921 627.089 134.673 631.249 94.6589 633.334C58.6969 635.217 23.7904 628.608 -11.2587 621.5C-40.0931 615.643 -75.0291 606.912 -102.492 622.029" stroke="#184994" stroke-width="0.8" stroke-miterlimit="10"/>
<path d="M1913.26 343.329C1906.21 336.779 1896.98 332.195 1888.28 328.395C1862.34 317.062 1833.68 313.114 1805.68 313.428C1780.97 313.685 1759.32 327.257 1741.01 342.87C1721.01 359.893 1704.11 380.111 1685.39 398.372C1669.9 413.5 1649.35 432.651 1625.7 429.216C1604.09 426.095 1582.45 421.014 1560.46 421.009C1536.64 421.022 1513.94 427.626 1491.68 435.245C1477.92 439.968 1463.63 443.036 1449.27 445.419C1426.08 449.297 1401.68 450.393 1378.6 445.089C1351.28 438.831 1330.96 421.515 1313.7 400.217C1276.14 353.84 1238.83 306.73 1197.6 263.302C1171.6 235.894 1144.25 209.024 1112.87 187.62C1086.52 169.654 1055.07 153.542 1022.6 153.05C1003.07 152.763 983.019 156.332 964.031 160.991C948.439 164.812 933.162 170.118 918.854 177.385C878.905 197.683 845.186 225.184 817.008 259.798C810.363 267.967 804.264 276.673 798.161 285.308C792.207 293.731 785.862 302.324 781.433 311.661C776.842 321.344 774.229 331.879 772.488 342.417C768.314 367.627 768.734 393.355 766.915 418.782C763.903 460.683 753.689 509.915 709.384 526.313C707.623 526.967 705.837 527.546 704.019 528.07C665.418 539.126 622.311 522.373 586.89 507.814C544.488 490.399 503.837 468.766 460.718 453.089C441.427 446.088 420.818 439.721 400.142 439.7C375.056 439.671 340.156 442.137 329.808 469.807C325.746 480.689 325.94 492.756 326.565 504.157C327.434 519.713 328.916 535.295 327.415 550.86C325.285 572.896 314.601 591.608 295.132 602.616C270.57 616.51 240.915 621.185 213.464 625.186C174.051 630.947 134.016 635.255 94.1425 637.585C58.5435 639.658 23.9583 633.479 -10.7633 626.436C-39.0073 620.691 -73.3685 611.7 -100.506 626.031" stroke="#184994" stroke-width="0.8" stroke-miterlimit="10"/>
<path d="M1913.66 357.539C1906.55 351.822 1897.38 348.219 1888.87 345.321C1862.55 336.346 1834.13 334.942 1806.72 337.14C1781.95 339.123 1760.63 353.772 1742.33 369.709C1723.06 386.491 1706.05 405.738 1686.93 422.56C1670.73 436.809 1650.57 451.676 1627.64 447.882C1606.01 444.319 1584.44 438.777 1562.45 437.485C1538.52 436.064 1515.2 440.941 1492.31 447.381C1478.07 451.381 1463.47 454.158 1448.87 456.429C1425.34 460.102 1400.8 461.826 1377.22 457.213C1350.64 452.007 1330.6 436.902 1313.58 416.469C1276.86 372.411 1241.07 327.016 1201.34 285.389C1174.83 257.618 1146.73 230.568 1115.29 208.276C1088.96 189.605 1058.49 172.625 1025.7 170.556C991.163 168.389 953.413 174.205 921.938 189.029C902.716 198.081 884.18 208.695 867.3 221.706C849.586 235.343 833.873 251.377 819.694 268.464C812.936 276.626 806.74 285.351 800.546 293.985C794.384 302.582 788.831 311.135 785.332 321.203C781.499 332.261 779.643 343.917 778.515 355.515C776.008 381.103 776.924 406.871 775.214 432.488C773.684 455.374 770.358 479.134 759.278 499.578C749.515 517.595 733.647 531.29 714.119 537.71C712.278 538.32 710.412 538.854 708.536 539.34C669.296 549.26 627.629 533.053 591.849 518.03C549.454 500.25 508.886 478.134 465.74 462.128C446.806 455.084 426.554 448.583 406.217 448.24C381.304 447.82 347.574 450.209 337.861 477.911C333.95 489.086 334.264 501.392 334.771 513.06C335.447 528.565 336.695 543.992 334.249 559.396C332.597 569.774 328.855 579.892 322.816 588.544C316.369 597.777 306.609 604.193 296.59 609C270.538 621.508 240.546 625.725 212.247 629.545C172.939 634.829 133.197 639.33 93.572 641.934C58.3674 644.25 24.0666 638.468 -10.3005 631.475C-37.9383 625.869 -71.7401 616.591 -98.5038 630.126" stroke="#184994" stroke-width="0.8" stroke-miterlimit="10"/>
<path d="M1914.12 371.445C1906.9 366.571 1897.85 363.966 1889.5 361.938C1862.8 355.411 1834.67 356.52 1807.8 360.493C1783.15 364.163 1762.2 379.416 1743.8 395.464C1725.3 411.602 1708.29 429.724 1688.73 444.499C1671.62 457.425 1652.2 467.044 1630.19 462.921C1608.31 458.81 1586.51 453.296 1564.27 451.365C1540.06 449.272 1516.26 452.687 1492.72 458.309C1478.08 461.812 1463.24 464.386 1448.39 466.728C1424.54 470.477 1399.81 472.816 1375.78 469.004C1364.67 467.247 1353.66 464.184 1343.77 458.712C1331.74 452.068 1321.68 442.528 1312.78 432.244C1276.69 390.467 1242.43 346.514 1204.26 306.318C1178.04 278.691 1150.26 251.981 1119.39 229.429C1092.88 210.066 1062.61 192.244 1029.66 187.605C995.33 182.781 957.203 186.314 925.214 200.311C905.927 208.749 887.314 218.791 870.308 231.331C852.412 244.529 836.543 260.291 822.302 277.178C815.404 285.349 809.051 294.147 802.829 302.796C781.353 332.634 785.015 375.701 784.775 410.763C784.535 446.859 784.45 488.212 761.965 518.56C751.176 533.109 735.553 543.4 718.214 548.339C716.299 548.883 714.352 549.373 712.374 549.808C672.677 558.434 631.759 542.174 595.698 526.916C553.899 509.226 513.908 487.357 471.482 471.153C452.695 463.987 432.631 457.215 412.411 456.605C387.682 455.843 354.991 458.212 345.833 485.902C342.138 497.043 342.401 509.197 342.672 520.802C343.043 536.5 344.089 552.425 340.534 567.854C335.151 591.224 319.145 606.122 297.417 615.009C270.11 626.194 239.791 630.093 210.756 633.739C171.664 638.644 132.268 643.399 92.9408 646.266C58.1149 648.798 24.141 643.426 -9.89302 636.475C-36.9346 630.96 -70.1514 621.471 -96.5627 634.205" stroke="#184994" stroke-width="0.8" stroke-miterlimit="10"/>
<path d="M1914.62 384.929C1907.26 380.936 1898.37 379.27 1890.2 378.047C1863.2 374.012 1835.45 377.475 1809 383.075C1760.79 393.261 1731.08 439.364 1690.93 463.604C1673.33 474.239 1653.58 478.971 1633.05 474.969C1610.8 470.642 1588.58 465.293 1565.97 463.055C1541.41 460.617 1517.13 462.985 1493.08 468.103C1478.15 471.273 1463.07 473.854 1447.99 476.365C1423.87 480.383 1398.98 483.463 1374.54 480.526C1363.27 479.187 1351.78 476.616 1341.58 471.542C1329.95 465.767 1320.16 457.104 1311.58 447.616C1275.85 408.117 1243.02 365.329 1206.43 326.29C1180.69 298.816 1153.41 272.308 1123.3 249.499C1096.82 229.432 1066.89 210.851 1034.03 203.964C999.745 196.761 961.506 197.966 928.741 211.342C909.36 219.272 890.583 228.812 873.433 240.945C855.296 253.757 839.279 269.296 824.944 286.02C817.955 294.189 811.077 302.8 805.994 312.26C797.595 327.84 795.004 346.191 793.901 363.792C792.635 384.06 793.446 404.379 793.483 424.674C793.558 460.28 792.581 501.187 768.56 529.976C756.585 544.322 739.672 553.763 721.659 558.13C719.642 558.624 717.649 559.033 715.651 559.371C675.877 566.138 635.689 550.327 599.628 535.069C558.593 517.698 519.333 496.277 477.812 480.04C459.049 472.697 439.005 465.678 418.763 464.808C394.071 463.735 362.644 466.19 353.821 493.831C350.17 505.236 350.413 517.638 350.411 529.492C350.41 545.205 350.456 561.001 346.216 576.154C339.641 599.688 320.033 612.933 297.811 620.745C269.454 630.706 238.815 634.337 209.169 637.865C170.383 642.485 131.397 647.51 92.4369 650.636C57.9841 653.406 24.3059 648.388 -9.37927 641.508C-35.8519 636.099 -68.4506 626.363 -94.4879 638.3" stroke="#184994" stroke-width="0.8" stroke-miterlimit="10"/>
<path d="M1915.18 397.943C1907.71 394.793 1898.97 394.039 1890.98 393.578C1863.76 392.011 1836.44 397.565 1810.34 404.57C1764.01 417.026 1736.53 461.314 1693.72 479.282C1675.31 487.013 1655.67 488.328 1636.1 484.606C1613.52 480.306 1590.7 475.141 1567.68 472.815C1542.77 470.306 1517.99 472.058 1493.51 476.97C1478.34 480.007 1463.04 482.713 1447.79 485.522C1423.43 489.984 1398.45 493.885 1373.63 491.906C1362.2 491.006 1350.6 488.842 1339.96 484.434C1328.42 479.645 1318.62 471.623 1310.1 462.749C1274.44 425.588 1242.85 383.66 1207.84 345.573C1182.69 318.212 1156.11 291.774 1126.82 268.705C1100.54 247.978 1071.11 228.658 1038.55 219.784C1004.21 210.405 966.108 209.19 932.424 222.137C912.905 229.639 893.92 238.755 876.571 250.514C858.181 262.983 841.963 278.33 827.495 294.949C820.196 303.333 814.696 312.291 810.53 322.617C803.786 339.397 802.25 358.1 801.785 376.147C801.269 396.961 802.428 417.786 802.489 438.593C802.588 474.022 800.223 514.534 773.967 541.369C760.833 554.808 743.109 563.159 724.76 566.379C722.708 566.749 720.603 567.059 718.515 567.304C678.451 572.064 639.566 557.566 603.171 542.265C562.622 525.231 523.867 504.151 482.942 488.005C464.55 480.738 444.936 473.742 425.069 472.674C400.446 471.344 370.125 473.957 361.584 501.49C358.063 512.839 358.098 525.07 357.748 536.853C357.273 552.877 356.486 568.954 351.013 584.076C342.511 607.599 320.433 619.08 297.542 626.048C268.324 634.929 237.453 638.313 207.263 641.81C168.852 646.232 130.306 651.674 91.8279 654.974C57.701 657.9 24.4357 653.315 -9.02353 646.449C-34.9214 641.125 -66.9295 631.156 -92.5872 642.277" stroke="#184994" stroke-width="0.8" stroke-miterlimit="10"/>
<path d="M1915.82 410.428C1908.23 408.122 1899.7 408.158 1891.85 408.377C1864.57 409.161 1837.67 416.482 1811.85 424.687C1788.62 432.069 1768.9 447.008 1749.68 461.551C1733.46 473.841 1716.86 486.581 1696.96 491.73C1678.09 496.606 1658.45 495.806 1639.38 492.215C1616.3 487.875 1592.99 483.175 1569.49 480.997C1544.19 478.66 1518.98 480.136 1494.13 485.133C1478.76 488.231 1463.28 491.208 1447.92 494.404C1423.44 499.498 1398.35 504.292 1373.21 503.33C1361.57 502.878 1349.91 501.112 1338.87 497.284C1327.2 493.241 1317.4 486.322 1308.62 477.837C1293.41 463.131 1279.55 446.67 1265.72 430.516C1246.8 408.405 1227.99 386.096 1208.55 364.466C1184.07 337.191 1158.29 310.762 1129.89 287.4C1103.8 265.944 1075.08 246.195 1043.08 235.402C1008.86 223.851 970.91 220.356 936.193 232.957C895.901 247.581 856.056 270.41 830.147 304.276C823.532 312.935 819.526 323.35 816.359 333.897C804.998 371.702 811.862 413.536 811.655 452.513C811.486 487.571 807.285 526.788 779.326 551.398C764.776 564.205 746.309 570.955 727.273 573.303C725.131 573.58 722.963 573.781 720.807 573.938C701.549 575.4 682.543 573.69 663.876 568.739C643.922 563.444 624.522 556.252 605.478 548.329C566.354 532.067 528.891 512 489.564 496.235C471.072 488.827 451.36 481.598 431.355 480.355C406.677 478.804 377.601 481.658 369.17 509.036C365.642 520.498 365.462 532.763 364.722 544.626C363.684 560.866 361.904 577.046 355.256 591.922C344.991 614.904 319.878 625.022 296.834 631.098C266.987 638.984 235.902 642.219 205.282 645.693C167.293 649.998 129.323 655.778 91.3465 659.35C57.5654 662.53 24.5642 658.245 -8.5776 651.395C-23.2113 648.374 -37.8333 644.966 -52.6984 643.238C-65.263 641.759 -78.6808 641.406 -90.6175 646.252" stroke="#184994" stroke-width="0.8" stroke-miterlimit="10"/>
<path d="M1916.55 422.294C1908.86 420.788 1900.55 421.549 1892.86 422.363C1865.65 425.28 1839.08 433.974 1813.64 443.176C1773.82 457.581 1742.94 494.826 1700.61 501.437C1681.91 504.356 1661.71 501.592 1642.95 498.18C1593.75 489.19 1544.58 482.187 1495.09 492.808C1479.56 496.141 1463.94 499.471 1448.5 503.171C1402.88 514.073 1346.14 527.05 1307.47 492.966C1291.99 479.337 1278.14 463.522 1264.51 447.905C1245.81 426.449 1227.54 404.537 1208.81 383.166C1184.98 355.95 1160.04 329.449 1132.58 305.742C1107.05 283.677 1078.97 263.249 1047.6 250.921C1013.32 237.475 975.888 231.474 940.114 243.815C920.239 250.671 900.733 259.073 882.812 270.22C864.527 281.613 845.168 296.074 834.412 314.537C828.875 324.059 825.97 334.998 823.524 345.853C814.722 384.918 821.837 426.245 821.036 465.981C820.306 501.073 813.723 538.802 783.63 560.911C767.9 572.46 748.498 577.467 729.293 578.989C727.088 579.157 724.846 579.292 722.636 579.389C703.251 580.127 683.554 578.508 664.802 573.443C645.601 568.257 626.851 561.469 608.452 553.971C569.974 538.296 533.158 518.815 494.585 503.413C476.483 496.178 457.237 489.097 437.676 487.743C412.881 486.023 385.093 489.221 376.621 516.406C372.976 528.134 372.559 540.681 371.315 552.799C369.65 569.148 366.735 585.276 358.964 599.713C347.289 621.354 318.219 630.711 295.728 635.924C265.4 642.946 234.161 646.071 203.277 649.589C165.8 653.87 128.448 659.999 91.0162 663.855C57.5322 667.298 24.7911 663.244 -8.07042 656.377C-22.3224 653.39 -36.5626 650.014 -51.01 648.1C-63.3944 646.462 -76.6816 645.708 -88.6023 650.236" stroke="#184994" stroke-width="0.8" stroke-miterlimit="10"/>
<path d="M1917.37 433.495C1909.63 432.78 1901.56 434.088 1893.98 435.437C1867.02 440.189 1840.94 449.957 1815.64 459.748C1778.22 474.22 1745.99 505.063 1704.67 508.499C1685.64 510.067 1665.6 506.218 1646.78 502.95C1596.91 494.288 1546.13 488.415 1496.4 500.212C1480.76 503.93 1465.03 507.76 1449.52 512.061C1404.3 524.584 1347.38 540.202 1306.86 508.267C1291 495.751 1276.92 480.611 1263.35 465.49C1244.66 444.707 1226.82 423.114 1208.66 401.92C1164.39 350.21 1114.96 294.683 1051.85 266.605C1017.69 251.394 980.714 242.807 943.991 254.917C905.421 267.658 857.677 287.202 840.293 325.876C835.71 336.044 833.687 347.38 831.791 358.497C825.03 398.177 832.149 438.977 830.346 479.019C828.776 514.162 819.268 550.626 786.88 569.547C770.02 579.393 749.953 582.935 730.712 583.735C728.432 583.837 726.143 583.89 723.887 583.907C704.716 584.013 684.506 582.509 665.926 577.489C647.325 572.464 629.112 566.073 611.223 558.987C573.535 544.052 537.504 525.333 499.849 510.36C482.009 503.264 463.063 496.263 443.821 494.834C430.075 493.82 414.877 493.68 402.23 500.15C392.754 504.988 386.888 513.596 383.741 523.551C375.118 550.786 380.299 583.624 361.598 606.875C345.689 626.647 318.469 635.534 294.177 640.519C263.522 646.786 232.219 649.894 201.172 653.507C164.287 657.808 127.58 664.363 90.7409 668.493C57.5484 672.22 25.0145 668.336 -7.58251 661.426C-21.7801 658.406 -35.9488 654.935 -50.3346 652.877C-62.2598 651.155 -75.075 650.183 -86.6435 654.254" stroke="#184994" stroke-width="0.8" stroke-miterlimit="10"/>
<path d="M1918.27 444.028C1910.55 444.007 1902.68 445.782 1895.22 447.531C1868.66 453.77 1843.11 464.251 1817.93 474.26C1782.37 488.402 1748.37 512.912 1708.97 513.807C1689.66 514.245 1669.94 510.138 1650.83 507.042C1600.27 498.816 1548.04 494.254 1498.15 507.712C1482.45 511.94 1466.67 516.377 1451.14 521.362C1405.65 535.975 1350.22 553.528 1307.24 523.921C1290.81 512.607 1276.31 498.09 1262.6 483.462C1243.74 463.343 1226.13 442.067 1208.43 420.993C1164.79 369.04 1117.49 313.189 1055.94 282.676C1022.08 265.893 985.4 254.56 947.899 266.484C927.585 272.924 907.432 280.647 888.822 291.196C869.211 302.304 855.279 317.091 847.77 338.192C843.976 348.847 842.621 360.431 841.132 371.749C835.834 411.545 842.739 451.851 839.581 491.806C836.824 526.746 823.998 560.667 790.441 576.404C772.235 584.925 751.527 587.514 731.628 587.678C729.302 587.699 726.987 587.677 724.656 587.627C699.511 586.961 674.38 583.405 650.305 575.995C627.167 568.86 604.589 560.06 582.353 550.501C559.33 540.617 536.698 529.872 513.541 520.319C493.282 511.956 471.779 503.351 449.838 501.614C436.357 500.555 421.406 500.436 409.033 506.91C399.599 511.851 393.839 520.579 390.606 530.511C381.504 558.331 385.149 591.331 363.387 613.396C345.091 631.954 317.344 639.804 292.255 644.851C261.601 651.027 230.117 653.696 199.127 657.439C162.881 661.842 126.883 668.839 90.7127 673.217C57.7745 677.196 25.3892 673.444 -6.98605 666.478C-20.8448 663.481 -34.6259 660.022 -48.6368 657.764C-60.376 655.863 -73.0666 654.51 -84.6076 658.221" stroke="#184994" stroke-width="0.8" stroke-miterlimit="10"/>
<path d="M1919.27 453.832C1911.62 454.426 1903.99 456.516 1896.63 458.59C1870.73 465.901 1845.83 476.603 1820.62 485.777C1785.35 498.621 1751.93 518.575 1713.41 518.075C1693.98 517.811 1674.36 513.894 1655.08 510.984C1603.85 503.29 1550.32 500.079 1500.39 515.592C1484.65 520.477 1468.83 525.57 1453.37 531.331C1406.93 548.652 1354.94 566.968 1308.93 540.019C1291.81 529.99 1276.66 516.173 1262.6 502.002C1243.34 482.603 1225.76 461.586 1208.33 440.586C1165.1 388.512 1119.91 332.055 1059.79 299.283C1026.48 281.11 989.819 266.907 951.719 278.58C931.619 284.732 910.074 291.394 892.072 302.587C873.852 313.907 862.501 331.246 856.694 351.309C853.53 362.271 852.669 373.986 851.392 385.453C844.237 450.299 872.78 552.796 792.836 582.49C773.571 589.647 752.445 591.389 732.046 590.937C729.693 590.882 727.326 590.799 724.969 590.674C700.292 589.375 675.096 585.893 651.333 578.774C628.802 572.031 606.738 563.805 585.026 554.777C562.527 545.424 540.383 535.177 517.79 526.005C497.994 517.973 477.061 509.727 455.669 507.999C442.42 506.933 427.726 506.883 415.606 513.356C406.17 518.389 400.505 527.279 397.121 537.171C392.98 549.295 391.394 562.172 388.454 574.618C386.62 582.328 384.394 589.957 381.37 597.303C377.646 606.323 371.762 613.11 364.438 619.351C344.106 636.675 315.899 644.012 289.957 648.899C259.293 654.682 228.012 657.451 197.098 661.421C161.544 665.987 126.293 673.459 90.8186 678.07C58.0804 682.332 25.7966 678.63 -6.36119 671.538C-20.2027 668.477 -33.9496 664.889 -47.9146 662.46C-59.1948 660.475 -71.4131 658.904 -82.6177 662.131" stroke="#184994" stroke-width="0.8" stroke-miterlimit="10"/>
<path d="M1920.32 463.232C1912.79 464.248 1905.35 466.552 1898.13 468.801C1872.96 476.629 1848.5 486.714 1823.59 495.209C1788.64 507.128 1755.58 522.814 1717.91 521.875C1698.4 521.384 1678.81 517.979 1659.44 515.32C1607.52 508.202 1552.94 506.341 1503.13 524.23C1487.42 529.879 1471.6 535.683 1456.24 542.324C1433.11 552.307 1409.84 562.342 1384.62 565.723C1360.24 568.984 1335.38 566.029 1313.11 555.84C1270.25 536.259 1238.29 496.688 1208.7 461.017C1165.47 408.92 1122.25 351.635 1063.44 316.71C1030.87 297.354 993.935 280.116 955.426 291.518C935.632 297.385 914.911 303.371 897.989 315.681C881.208 327.891 871.763 345.579 866.938 365.148C864.198 376.246 863.658 388.047 862.494 399.521C858.548 438.301 864.448 477.901 857.21 516.443C853.975 533.68 847.58 550.531 835.541 563.573C824.373 575.677 809.658 583.432 793.947 587.956C773.95 593.723 752.697 594.742 732.059 593.721C729.675 593.611 727.282 593.453 724.916 593.279C700.076 591.385 674.481 587.59 650.491 580.548C629.099 574.271 608.093 566.81 587.397 558.536C565.958 549.949 544.888 540.496 523.421 531.924C503.613 524.025 482.668 515.823 461.341 514.112C448.155 513.063 433.552 513.106 421.628 519.793C412.378 524.99 406.84 533.915 403.336 543.659C398.963 555.79 396.92 568.66 393.42 581.048C391.167 589.036 388.698 597.657 384.609 604.948C380.073 612.969 372.155 619.625 364.917 624.947C342.858 641.166 314.318 648.115 287.585 652.951C257.039 658.467 225.988 661.321 195.28 665.552C160.45 670.335 126.002 678.321 91.2575 683.127C58.6606 687.634 26.4468 683.927 -5.57934 676.687C-19.1192 673.614 -32.537 670 -46.1702 667.361C-57.3129 665.206 -69.4007 663.234 -80.5721 666.079" stroke="#184994" stroke-width="0.8" stroke-miterlimit="10"/>
<path d="M1921.42 472.325C1914.06 473.64 1906.84 476.001 1899.74 478.306C1875.24 486.199 1851.3 495.62 1826.75 503.313C1808.34 509.069 1790.24 515.986 1771.48 520.476C1755.38 524.321 1738.93 526.007 1722.42 525.792C1702.82 525.53 1683.27 523.009 1663.81 520.602C1611.25 514.092 1555.87 513.397 1506.37 533.939C1490.75 540.42 1475.16 547.18 1459.88 554.462C1415.92 575.409 1368 586.154 1320.98 569.432C1275.85 553.377 1240.21 518.59 1209.82 482.405C1166.17 430.425 1124.61 372.091 1066.89 335.069C1035.14 314.693 997.727 294.271 958.872 305.419C940.505 310.68 921.678 318.345 906.537 330.351C890.753 342.873 882.53 360.544 878.258 379.594C875.771 390.691 875.377 402.463 874.182 413.882C871.555 438.634 872.471 463.713 870.963 488.58C869.561 511.5 866.329 535.767 853.528 555.429C827.883 594.833 774.17 599.248 731.623 596.199C729.235 596.019 726.805 595.828 724.428 595.605C677.889 591.074 632.99 578.527 589.399 561.782C568.333 553.685 547.622 544.695 526.595 536.539C507.463 529.121 487.268 521.464 466.73 519.895C453.716 518.892 439.374 519.074 427.671 525.797C418.386 531.122 412.851 540.209 409.131 549.987C404.442 562.355 401.868 575.404 397.709 587.937C394.983 596.145 392.142 604.527 386.608 611.294C380.432 618.83 372.856 624.98 364.763 630.234C341.272 645.45 312.467 652.189 285.044 657.025C254.727 662.372 223.949 665.322 193.527 669.86C159.467 674.941 125.846 683.447 91.8628 688.41C59.3586 693.172 27.1251 689.368 -4.77363 681.91C-18.3334 678.739 -31.7812 674.979 -45.3941 672.093C-56.0934 669.827 -67.7309 667.631 -78.6087 669.98" stroke="#184994" stroke-width="0.8" stroke-miterlimit="10"/>
<path d="M1922.57 480.997C1915.4 482.568 1908.38 484.917 1901.4 487.207C1877.6 494.988 1854.11 503.701 1829.99 510.502C1811.97 515.602 1794.12 521.485 1775.74 525.249C1759.6 528.555 1743.19 530.021 1726.75 530.399C1707.05 530.847 1687.55 529.715 1667.97 527.553C1614.88 521.659 1558.96 521.875 1510 545.205C1495.25 552.216 1480.2 558.824 1465.25 565.482C1445.05 574.48 1424.05 582.044 1402.1 585.475C1378.48 589.168 1354.6 587.554 1331.71 581.106C1285.31 567.996 1246.53 537.561 1213.32 503.331C1165.62 454.126 1127.26 393.869 1070.21 354.613C1052.47 342.421 1033.7 330.552 1013.15 323.373C997.746 317.987 979.676 315.011 964.095 321.109C947.923 327.44 931.163 335.451 917.494 346.427C902.215 358.694 894.654 376.037 890.574 394.541C888.137 405.536 887.778 417.179 886.397 428.434C883.413 452.63 883.632 477.225 880.851 501.521C878.302 523.835 873.068 546.993 858.155 564.504C827.922 600.015 773.783 602.501 730.842 598.519C728.444 598.291 726.025 598.057 723.623 597.758C678.324 592.456 633.904 580.267 591.087 564.579C570.936 557.186 551.133 548.922 531.05 541.364C512.096 534.223 492.134 526.812 471.842 525.355C458.875 524.434 444.584 524.767 433.049 531.718C423.896 537.24 418.409 546.408 414.528 556.098C409.395 568.921 406.216 582.429 401.264 595.347C397.984 603.911 394.09 610.817 387.654 617.434C380.741 624.543 372.666 630.331 364.174 635.271C339.54 649.606 310.51 656.24 282.516 661.152C252.497 666.418 222.089 669.444 192.027 674.354C158.768 679.787 126.059 688.836 92.828 693.909C60.3151 698.875 28.0086 694.914 -3.82126 687.198C-17.288 683.938 -30.6098 680.05 -44.1109 676.919C-54.5442 674.517 -65.8854 671.986 -76.5998 673.897" stroke="#184994" stroke-width="0.8" stroke-miterlimit="10"/>
<path d="M1923.78 489.292C1893.23 497.058 1863.96 509.394 1833.35 517.121C1815.63 521.591 1798.04 526.622 1780.08 530.016C1763.86 533.073 1747.46 534.771 1731.04 536.097C1711.22 537.705 1691.75 538.652 1671.96 536.707C1646.1 534.172 1619.78 532.986 1593.8 535.267C1565.84 537.731 1539.86 545.686 1514.32 557.136C1500.48 563.334 1486.28 568.653 1472.28 574.509C1453.21 582.498 1433.55 589.481 1413.1 593.012C1390.28 596.966 1367.17 596.135 1344.7 591.083C1297.8 580.505 1257.43 554.307 1221.84 522.498C1195.28 498.73 1171.29 472.094 1147.15 445.783C1124.33 420.904 1101.2 395.622 1073.91 375.751C1056.58 363.119 1038.33 350.606 1018.21 342.601C1004.42 337.117 987.418 332.889 973.43 339.046C958.948 345.416 943.441 353.9 930.595 363.602C915.333 375.116 908.162 391.69 903.707 409.795C901.068 420.599 900.669 432.047 898.975 443.012C893.598 478.123 895.67 516.998 879.162 549.566C862.988 581.489 828.504 595.967 794.708 600.659C773.229 603.639 751.279 603.139 729.791 600.742C727.383 600.465 724.976 600.188 722.58 599.868C678.38 593.895 634.611 581.674 592.521 566.961C573.103 560.179 554.034 552.524 534.7 545.511C516.079 538.758 496.626 531.851 476.731 530.454C464.055 529.565 450.05 530.204 438.868 536.952C429.464 542.636 423.784 552.097 419.598 561.981C414.108 574.938 410.351 588.544 404.839 601.496C397.305 619.167 379.549 631.415 363.252 640.101C311.206 667.821 248.061 668.838 190.896 679.106C158.498 684.93 126.661 694.327 94.2788 699.834C61.8698 705.356 29.0164 700.605 -2.71739 692.617C-15.9567 689.279 -29.051 685.315 -42.2846 681.957C-52.6119 679.33 -63.8282 676.42 -74.5722 677.84" stroke="#184994" stroke-width="0.8" stroke-miterlimit="10"/>
<path d="M1925.01 497.384C1895.44 505.85 1866.8 516.791 1836.74 523.585C1819.28 527.526 1801.92 531.932 1784.32 535.283C1767.97 538.398 1751.48 540.783 1735.05 543.438C1715.38 546.604 1695.33 550.863 1675.39 548.927C1622.52 543.757 1569.9 547.431 1520 567.133C1506.9 572.309 1493.51 576.813 1480.42 582.016C1462.4 589.182 1443.98 595.74 1424.87 599.492C1403.03 603.801 1380.86 603.793 1359.06 599.888C1312.57 591.579 1271.28 569.154 1234.27 540.202C1206.35 518.371 1180.95 493.353 1155.93 468.163C1132.11 444.189 1108.58 419.374 1081.73 398.885C1064.84 386.002 1047.21 373.037 1027.71 364.164C1015.46 358.588 999.422 353.1 986.423 359.338C979.015 362.891 971.976 367.21 964.707 371.1C958.242 374.561 951.636 377.778 945.502 381.811C929.83 392.112 922.415 407.794 917.532 425.348C914.619 435.802 913.95 446.972 911.842 457.596C905.136 491.317 904.968 529.891 884.678 559.333C864.603 588.489 828.263 600.54 794.537 604.286C772.63 606.716 750.395 605.91 728.596 603.13C726.194 602.832 723.803 602.49 721.397 602.122C678.133 595.573 635.25 582.876 593.732 569.029C575.059 562.813 556.674 555.779 538.091 549.311C519.845 542.957 500.789 536.455 481.37 535.254C468.778 534.48 455.07 535.382 444.06 542.176C434.556 548.063 428.748 557.742 424.281 567.734C418.438 580.805 415.131 595.909 407.59 608.111C397.306 624.725 379.016 636.393 362.008 644.82C309.054 671.033 247.324 672.773 190.114 684.155C158.587 690.419 127.652 700.908 96.0226 706.179C63.2647 711.631 30.3446 706.357 -1.59335 698.015C-14.7611 694.582 -27.741 690.534 -40.8357 686.914C-50.9555 684.113 -61.8655 680.917 -72.4875 681.795" stroke="#184994" stroke-width="0.8" stroke-miterlimit="10"/>
<path d="M1926.27 505.327C1897.73 514.483 1869.53 524.14 1840.09 530.137C1806.3 537.036 1772.17 544.027 1738.83 552.678C1719.15 557.793 1698.92 565.267 1678.51 563.846C1652.93 562.053 1627.19 559.046 1601.23 560.461C1575.82 561.836 1550.9 566.859 1526.88 575.18C1514.42 579.517 1501.73 583.402 1489.42 588.08C1472.33 594.579 1455 600.966 1437.09 605.017C1416.3 609.721 1395.17 610.613 1374.16 607.723C1328.77 601.477 1287.08 582.185 1249.48 556.339C1193.06 517.551 1146.42 466.378 1093.95 422.698C1077.39 408.916 1059.98 394.996 1040.36 385.68C1029.15 380.358 1014.09 374.88 1002.14 381.147C988.907 388.103 974.992 393.728 961.777 400.689C945.427 409.316 937.33 423.942 931.697 440.951C928.392 450.979 927.288 461.802 924.653 471.986C916.184 504.57 912.964 542.097 888.93 568.102C864.538 594.494 827.515 604.892 792.757 607.856C770.936 609.711 748.855 608.671 727.2 605.609C724.831 605.273 722.425 604.905 720.067 604.526C677.581 597.473 635.757 583.911 594.734 570.794C576.779 565.069 559.063 558.627 541.172 552.666C523.302 546.711 504.658 540.641 485.726 539.685C473.099 539.039 459.473 540.239 448.598 547.299C439.138 553.451 433.263 563.296 428.591 573.279C422.223 586.852 418.305 602.436 408.811 614.207C396.092 629.962 378.674 640.945 360.599 649.408C307.225 674.36 246.747 676.918 189.862 689.489C159.042 696.287 128.837 707.569 97.8725 712.674C64.9646 718.086 31.6545 712.294 -0.408795 703.39C-13.4334 699.765 -26.2875 695.59 -39.2604 691.772C-49.2114 688.856 -59.7923 685.289 -70.3137 685.62" stroke="#184994" stroke-width="0.8" stroke-miterlimit="10"/>
<path d="M1927.53 513.244C1900.03 523.09 1872.13 531.659 1843.39 537.129C1809.14 543.628 1774.83 552.02 1742.27 564.302C1732.2 568.107 1722.24 572.749 1711.69 575.162C1702.05 577.381 1692.09 577.932 1682.28 576.891C1656.84 574.218 1631.76 570.124 1606.05 570.547C1581.81 570.951 1557.66 574.571 1534.52 581.701C1522.59 585.379 1510.49 588.8 1498.8 593.138C1482.49 599.203 1466.11 605.617 1449.23 610.079C1429.5 615.274 1409.43 617.115 1389.23 615.131C1345.43 610.829 1303.79 593.916 1266.33 571.185C1209.13 536.437 1161.12 488.988 1109.49 446.797C1092.82 433.169 1075.54 419.284 1056.2 409.466C1045.9 404.251 1031.07 397.846 1019.88 404.109C1006.93 411.349 992.812 414.899 979.085 420.253C961.9 426.933 952.793 440.094 946.08 456.676C942.257 466.151 940.581 476.615 937.289 486.256C926.395 518.282 919.374 552.494 892.385 575.802C864.587 599.812 826.612 609.128 790.738 611.541C769.047 612.994 747.189 611.807 725.732 608.522C723.369 608.165 721.017 607.765 718.665 607.365C676.758 599.869 636.166 585.052 595.521 572.496C578.244 567.159 561.159 561.276 543.937 555.816C526.443 550.261 508.213 544.623 489.761 543.934C477.335 543.479 464.082 544.917 453.434 551.9C443.653 558.31 437.534 568.549 432.486 578.822C425.577 592.871 420.885 607.397 410.249 619.231C396.218 634.818 377.871 645.667 358.967 654.138C305.615 678.062 246.296 681.528 190.042 695.347C159.787 702.779 130.315 714.67 99.6728 719.517C66.439 724.773 32.8833 718.525 0.706126 709.016C-12.2611 705.177 -25.0677 700.738 -37.9388 696.627C-47.6551 693.521 -57.9229 689.899 -68.2293 689.599" stroke="#184994" stroke-width="0.8" stroke-miterlimit="10"/>
<path d="M1928.77 521.204C1902.3 531.831 1874.61 539.559 1846.6 544.767C1811.15 551.358 1777.63 563.269 1745.4 578.441C1726.91 587.161 1707.17 590.24 1686.79 587.565C1661.87 584.27 1637.04 579.142 1611.68 578.693C1588.44 578.285 1565.06 580.825 1542.65 587.025C1531.13 590.214 1519.52 593.31 1508.37 597.447C1474.18 610.164 1440.96 624.615 1403.74 622.44C1361.75 619.998 1320.66 604.796 1283.85 584.879C1226.84 554.043 1178.09 510.625 1127.4 470.613C1110.53 457.3 1093.3 443.658 1074.18 433.623C1064.44 428.514 1049.74 421.476 1038.97 427.622C1025.98 435.012 1011.29 436.501 997.021 440.102C979.054 444.643 968.574 456.15 960.447 472.262C955.988 481.107 953.604 491.129 949.578 500.16C942.856 515.315 937.027 531.168 928.785 545.733C920.205 560.873 908.486 573.404 894.236 583.374C863.785 604.675 825.548 613.255 788.931 615.353C767.345 616.583 745.596 615.333 724.277 611.877C721.941 611.505 719.616 611.089 717.319 610.658C675.864 602.755 636.569 586.356 596.253 574.117C579.633 569.071 563.133 563.666 546.502 558.663C529.362 553.501 511.544 548.295 493.566 547.894C481.187 547.612 468.18 549.415 457.693 556.486C447.734 563.216 441.421 573.749 436.063 584.237C432.668 590.91 429.658 597.777 426.344 604.494C422.661 611.986 416.822 618.602 410.948 624.495C395.782 639.688 376.792 650.364 357.29 658.836C330.161 670.642 301.09 677.862 272.179 684.137C245.219 689.993 217.211 694.097 190.87 701.589C161.342 709.996 132.112 721.929 101.566 726.503C68.0231 731.538 34.1734 724.844 1.92101 714.671C-11.0045 710.591 -23.7478 705.917 -36.5429 701.435C-46.0831 698.1 -56.0719 694.209 -66.2177 693.308" stroke="#184994" stroke-width="0.8" stroke-miterlimit="10"/>
<path d="M1930.01 529.278C1904.61 540.811 1876.96 547.974 1849.71 553.27C1832.67 556.588 1815.87 561.396 1799.74 567.9C1782.29 574.92 1766.41 585.74 1748.98 592.125C1730.53 598.881 1711.29 599.772 1691.88 596.462C1667.36 592.286 1642.87 586.511 1617.82 585.298C1595.41 584.215 1572.71 585.904 1550.94 591.448C1539.74 594.287 1528.51 597.206 1517.75 601.312C1485.03 613.779 1452.62 628.723 1417.04 630.063C1399.97 630.711 1382.74 627.684 1366.33 622.992C1343.8 616.572 1321.9 608.068 1300.96 597.82C1244.86 570.374 1197.26 529.952 1146.64 493.866C1129.68 481.768 1112.67 469.265 1094.32 459.275C1084.83 454.116 1069.45 445.382 1058.66 451.269C1045.31 458.541 1029.88 458.247 1015.13 460.112C1007.86 461.035 1000.64 462.734 994.24 466.488C985.709 471.487 979.708 479.483 974.496 487.622C969.305 495.767 966.068 505.284 961.257 513.645C953.102 527.797 945.583 542.669 935.529 555.761C924.804 569.73 910.778 581.092 895.668 589.981C863.234 609.074 824.717 617.327 787.428 619.361C765.86 620.525 744.137 619.351 722.863 615.724C720.576 615.342 718.278 614.911 716.008 614.464C674.828 606.221 636.868 587.927 596.836 575.741C580.961 570.918 565.142 565.971 549.204 561.383C532.301 556.537 514.688 551.685 497.017 551.595C484.531 551.538 471.605 553.73 461.242 561.11C451.276 568.206 444.804 578.994 439.222 589.63C435.67 596.376 432.814 603.698 428.51 609.989C423.478 617.372 417.385 624.08 410.786 630.102C394.73 644.757 375.389 655.202 355.563 663.679C303.547 685.962 246.423 692.818 192.406 708.408C162.747 716.964 134.138 729.408 103.515 733.754C69.6265 738.536 35.4997 731.331 3.15068 720.49C-9.75462 716.162 -22.4235 711.209 -35.1367 706.336C-44.538 702.739 -54.2047 698.59 -64.2055 697.061" stroke="#184994" stroke-width="0.8" stroke-miterlimit="10"/>
<path d="M1931.22 537.549C1906.89 550.129 1879.18 557.07 1852.66 562.836C1835.48 566.577 1818.75 572.414 1803 580.351C1786.34 588.757 1771.07 599.188 1753.04 604.035C1734.72 608.963 1715.9 608.106 1697.3 604.185C1673.16 599.1 1648.96 592.738 1624.19 590.84C1602.49 589.166 1580.31 590.213 1559.13 595.319C1548.17 597.968 1537.18 600.838 1526.73 605.003C1494.69 617.815 1463.58 634.965 1428.63 638.405C1412.37 640.003 1395.75 637.713 1379.94 633.574C1358.28 627.89 1336.97 619.682 1316.67 610.435C1262.47 585.75 1215.4 549.465 1166.21 516.289C1149.14 504.781 1132.16 492.768 1113.98 482.986C1104.41 477.853 1089.19 469.137 1078.29 474.673C1064.33 481.735 1048.1 479.802 1032.91 480.034C1025.04 480.156 1017.09 481.014 1009.8 484.209C1000.84 488.151 994.024 495.17 987.989 502.607C981.993 509.984 977.758 518.936 972.092 526.54C962.313 539.636 952.9 553.427 940.983 564.895C927.578 577.801 911.917 588.404 895.272 596.676C861.204 613.632 822.555 621.688 784.717 623.713C763.618 624.842 742.367 623.794 721.556 620.154C719.317 619.761 717.063 619.341 714.841 618.885C673.791 610.332 637.173 589.939 597.377 577.472C581.88 572.612 566.321 567.896 550.663 563.636C534.276 559.18 517.193 554.837 500.104 555.064C487.905 555.222 475.432 557.696 465.325 564.892C454.793 572.388 447.949 583.788 441.923 594.971C438.013 602.195 434.456 609.215 429.357 615.73C423.802 622.835 417.497 629.303 410.622 635.159C393.741 649.547 373.93 660.027 353.71 668.606C302.614 690.285 246.873 698.154 194.429 715.681C165.153 725.466 135.976 737.114 105.326 741.132C71.0816 745.612 36.6779 737.896 4.22224 726.337C-8.65709 721.741 -21.2726 716.503 -33.8826 711.244C-43.1449 707.386 -52.5385 702.988 -62.3556 700.773" stroke="#184994" stroke-width="0.8" stroke-miterlimit="10"/>
<path d="M1932.4 546.023C1909.19 559.843 1881.24 566.974 1855.46 573.581C1837.85 578.079 1821.72 585.638 1806.02 594.83C1790.89 603.692 1774.84 611.64 1757.55 614.685C1739.2 617.906 1720.94 615.799 1702.94 611.279C1658.35 600.056 1613.05 588.089 1567.03 599.022C1556.18 601.608 1545.31 604.534 1535.09 608.896C1503.17 622.566 1472.89 642.099 1438.05 647.936C1401.08 654.121 1363.25 637.998 1330.12 623.295C1278.59 600.404 1232.77 567.855 1185.3 537.689C1168.23 526.849 1151.33 515.408 1133.4 505.991C1123.52 500.82 1108.57 492.453 1097.31 497.526C1082.65 504.124 1065.5 500.959 1049.99 499.678C1041.9 499.005 1033.66 498.981 1025.77 501.213C1015.94 504.026 1007.97 510.208 1000.76 517.146C993.919 523.723 988.554 532.005 981.969 538.835C970.027 551.168 958.075 563.453 944.242 573.925C928.969 585.481 912.381 595.17 894.804 602.802C859.574 618.091 820.859 626.222 782.602 628.525C761.883 629.779 741.01 628.947 720.587 625.318C718.392 624.937 716.207 624.513 714.034 624.047C692.019 619.325 671.094 611.22 650.532 602.017C633.171 594.246 616.166 585.49 598.076 579.499C582.877 574.466 567.527 569.829 552.032 565.819C536.13 561.7 519.533 557.855 503.026 558.399C490.689 558.818 478.299 561.75 468.289 569.271C457.701 577.235 450.701 588.961 444.428 600.377C424.695 636.24 388.634 658.153 352.085 673.732C325.389 685.126 297.309 693.278 269.299 701.08C244.865 707.888 220.872 715.364 196.88 723.438C167.408 733.354 138.182 745.012 107.338 748.725C72.7221 752.876 38.02 744.644 5.49063 732.33C-7.36273 727.465 -19.9466 721.937 -32.4689 716.265C-41.608 712.118 -50.7553 707.487 -60.3617 704.571" stroke="#184994" stroke-width="0.8" stroke-miterlimit="10"/>
<path d="M1933.54 554.805C1911.44 570.049 1883.21 577.837 1858.06 585.671C1824.92 595.983 1797.69 620.972 1762.26 624.56C1744.05 626.415 1726.12 623.318 1708.6 618.214C1665.05 605.523 1619.89 591.895 1574.39 602.895C1563.52 605.525 1552.68 608.617 1542.55 613.305C1510.13 628.333 1480.98 653.521 1444.79 659.089C1407.98 664.742 1373.53 652.396 1340.34 637.057C1292.24 614.832 1248.32 585.247 1202.92 557.98C1185.99 547.82 1169.31 536.991 1151.7 528.005C1141.37 522.735 1126.83 515.005 1115.01 519.492C1099.46 525.392 1081.69 521.462 1065.8 518.749C1057.34 517.311 1048.68 516.44 1040.16 517.859C1029.74 519.619 1020.74 524.836 1012.39 531.033C1004.63 536.788 998.061 544.312 990.505 550.307C960.857 573.845 929.475 594.759 893.752 608.629C857.595 622.66 818.623 631.066 779.949 633.809C759.922 635.225 739.695 634.728 719.906 631.222C717.78 630.837 715.638 630.425 713.508 629.969C691.752 625.226 671.265 616.686 651.293 606.906C633.982 598.436 617.046 588.389 598.895 581.854C584.079 576.509 568.982 571.871 553.694 568.031C538.127 564.117 521.815 560.67 505.701 561.549C493.338 562.237 481.135 565.586 471.278 573.309C460.231 581.954 453.779 594.126 446.618 605.855C425.074 641.096 387.348 663.137 350.573 679.047C324.243 690.446 296.69 698.946 269.203 707.371C257.085 711.088 244.947 714.8 232.952 718.918C221.618 722.799 210.698 727.71 199.37 731.57C169.837 741.63 140.334 753.122 109.339 756.45C74.3424 760.223 39.3477 751.453 6.72319 738.379C-15.4867 729.493 -36.1507 716.978 -58.3966 708.312" stroke="#184994" stroke-width="0.8" stroke-miterlimit="10"/>
<path d="M1934.63 563.895C1929.71 567.84 1924.08 570.998 1918.57 574.001C1900.03 584.11 1880.03 591.599 1860.48 599.138C1829.3 611.147 1801.77 632.679 1767.09 634.078C1748.97 634.81 1731.33 631.098 1714.15 625.489C1671.43 611.503 1626.25 595.943 1581.03 607.362C1570.01 610.134 1559.1 613.484 1549 618.592C1515.49 635.514 1485.98 664.372 1448.39 672.274C1433.46 675.422 1417.78 676.05 1402.6 673.687C1382.61 670.588 1364.24 661.766 1346.49 652.535C1302.51 629.711 1261.22 601.957 1218.25 577.222C1201.68 567.688 1185.42 557.453 1168.24 548.974C1157.32 543.592 1143.2 536.596 1130.82 540.449C1113.99 545.709 1096.33 540.43 1079.66 536.934C1070.9 535.092 1062.18 533.311 1053.15 533.925C1042.13 534.651 1032.17 538.9 1022.69 544.244C1013.98 549.149 1006.13 555.822 997.578 560.977C963.543 581.503 929.2 601.463 891.31 614.754C854.894 627.52 816.364 636.252 777.899 639.671C758.503 641.394 738.878 641.31 719.704 637.992C717.637 637.646 715.565 637.229 713.499 636.791C691.969 632.062 671.926 623.067 652.476 612.714C635.102 603.446 618.163 592.296 599.943 584.731C585.487 578.725 570.386 574.016 555.21 570.276C539.947 566.512 523.915 563.392 508.112 564.653C495.83 565.638 483.95 569.328 474.253 577.139C462.799 586.364 456.463 599.302 448.16 611.093C423.815 645.722 387.148 667.84 349.163 684.666C323.3 696.122 296.339 704.987 269.525 714.074C257.953 717.984 246.287 721.822 234.978 726.468C223.924 731.021 213.219 736.243 201.885 740.124C172.286 750.258 142.459 761.503 111.336 764.452C75.942 767.82 40.6388 758.485 7.94634 744.634C-14.3032 735.209 -34.7841 722.697 -56.4449 712.19" stroke="#184994" stroke-width="0.8" stroke-miterlimit="10"/>
<path d="M1935.68 573.344C1930.99 577.718 1925.44 581.286 1920.03 584.684C1901.98 595.979 1882.37 605.526 1862.76 613.786C1832.93 626.339 1804.92 643.514 1771.95 643.671C1754.07 643.756 1736.43 639.586 1719.53 633.545C1677.42 618.482 1632.06 600.76 1586.88 612.789C1575.6 615.788 1564.48 619.473 1554.29 625.085C1537.24 634.443 1521.55 646.601 1505.53 657.796C1488.19 669.878 1469.49 679.553 1448.82 684.038C1433.79 687.298 1418.06 688.484 1402.64 687.022C1383.17 685.164 1365.56 678.659 1348.47 669.535C1327.97 658.557 1308.87 644.991 1289.39 632.194C1270.04 619.481 1250.56 606.915 1230.43 595.507C1214.5 586.489 1198.86 576.765 1182.35 568.809C1171.06 563.351 1156.96 556.979 1144.17 560.266C1126.31 564.835 1108.41 558.734 1091.17 554.028C1082.44 551.643 1073.47 549.357 1064.34 549.189C1052.77 548.986 1041.9 552.234 1031.35 556.624C1021.55 560.708 1012.29 566.363 1002.68 570.865C965.211 588.405 928.904 607.632 889.319 620.561C852.7 632.538 814.468 641.786 776.139 646.16C757.506 648.294 738.609 648.75 720.062 645.669C718.038 645.334 716.025 644.956 714.072 644.525C672.382 635.525 638.617 608.085 601.442 588.486C587.707 581.249 572.117 576.478 557.102 572.735C541.98 568.963 525.992 566.107 510.35 567.71C497.75 569.024 485.811 573.363 476.154 581.714C464.972 591.379 458.313 604.667 449.522 616.305C423.622 650.563 386.514 672.954 348.059 690.504C322.771 702.045 296.472 711.271 270.432 721.071C259.162 725.314 248.09 729.679 237.308 735.017C226.662 740.277 215.776 745.059 204.54 748.921C174.854 759.124 144.688 770.002 113.469 772.535C51.9223 777.541 -2.88986 746.397 -54.3867 716.003" stroke="#184994" stroke-width="0.8" stroke-miterlimit="10"/>
<path d="M1936.68 583.167C1932.21 588.035 1926.74 592.084 1921.4 595.962C1903.99 608.555 1885.12 619.793 1865.23 627.86C1836.14 639.672 1808.57 654.324 1776.63 653.653C1758.81 653.27 1741.23 649.07 1724.5 642.708C1682.78 626.877 1636.98 606.784 1591.71 619.57C1580.02 622.875 1568.6 626.937 1558.2 633.138C1540.35 643.796 1524.52 657.917 1506.96 669.274C1488.96 680.904 1469.32 689.546 1448.37 693.725C1414.65 700.458 1378.96 698.373 1347.83 683.079C1328.15 673.401 1309.53 661.754 1291.64 648.946C1274.22 636.495 1257.13 623.744 1238.63 612.933C1223.69 604.201 1208.92 594.895 1193.29 587.357C1181.51 581.676 1167.71 576.144 1154.41 578.673C1135.57 582.29 1117.67 575.753 1099.95 569.838C1091.28 566.943 1082.37 564.26 1073.21 563.37C1061.16 562.19 1049.41 564.535 1037.98 567.93C1026.94 571.203 1016.35 576.27 1005.6 580.467C965.749 596.014 927.06 614.007 886.047 626.691C849.618 637.961 812.055 647.801 774.272 653.309C756.622 655.89 738.75 656.896 721.042 654.201C719.098 653.91 717.17 653.555 715.255 653.157C673.065 644.483 639.494 614.338 603.246 593.08C589.381 584.958 574.033 579.195 558.495 575.174C543.622 571.331 527.748 568.736 512.396 570.714C499.856 572.32 488.174 577.073 478.713 585.545C467.318 595.75 460.127 609.654 450.638 621.495C423.419 655.447 385.976 678.23 347.168 696.582C322.541 708.231 296.962 717.856 271.825 728.404C249.925 737.589 229.761 750.249 207.224 757.954C177.452 768.134 146.932 778.619 115.575 780.724C54.7539 784.822 -3.61626 754.265 -52.3756 719.825" stroke="#184994" stroke-width="0.8" stroke-miterlimit="10"/>
<path d="M1937.63 593.37C1933.33 598.768 1927.94 603.388 1922.67 607.79C1906.08 621.683 1888.01 633.317 1867.89 641.256C1839.42 652.497 1812.21 665.201 1781.13 664.302C1763.32 663.785 1745.69 659.847 1729.03 653.32C1687.49 637.077 1640.98 614.566 1595.49 628.097C1583.26 631.737 1571.43 636.266 1560.7 643.135C1542.81 654.589 1526.8 669.072 1508.22 679.858C1489.34 690.817 1468.88 698.46 1447.4 702.038C1414.33 707.544 1376.18 707.049 1345.13 693.086C1326.3 684.622 1308.13 674.797 1290.87 663.378C1274.42 652.472 1258.73 640.417 1242.08 629.847C1228.43 621.163 1214.96 611.997 1200.43 604.801C1188.3 598.796 1174.72 593.989 1161.03 595.769C1141.35 598.359 1123.66 591.557 1105.67 584.421C1097.16 581.039 1088.47 577.955 1079.39 576.42C1066.81 574.316 1054.25 575.803 1041.98 578.63C1030.18 581.351 1018.64 585.983 1007.1 589.785C965.376 603.497 924.752 620.306 882.598 632.96C846.667 643.743 810.127 654.225 773.247 661.169C756.594 664.316 739.659 666.032 722.778 663.764C720.913 663.518 719.05 663.18 717.215 662.827C674.433 654.476 640.928 621.34 605.412 598.463C579.518 581.791 545.542 569.044 514.26 573.788C501.78 575.686 490.349 580.873 481.075 589.51C469.482 600.283 461.732 614.726 451.561 626.798C423.194 660.488 385.609 683.716 346.554 702.99C322.646 714.785 297.89 724.769 273.731 736.129C263.35 741.001 253.733 747.225 243.598 752.553C232.74 758.262 221.521 763.345 209.901 767.265C180 777.41 149.137 787.459 117.675 789.099C81.0124 791.025 44.8056 780.001 11.9165 763.708C-10.1572 752.768 -31.4711 739.505 -50.4063 723.708" stroke="#184994" stroke-width="0.8" stroke-miterlimit="10"/>
<path d="M1938.51 603.966C1934.4 609.964 1929.05 615.194 1923.87 620.216C1908.56 635.003 1890.43 646.576 1870.67 654.29C1842.68 665.199 1815.74 676.552 1785.31 675.986C1767.47 675.668 1749.7 672.266 1733.01 665.755C1691.37 649.51 1643.92 624.701 1598.15 638.846C1585.42 642.79 1573.67 647.892 1562.71 655.435C1545.37 667.334 1528.38 680.224 1509.53 689.972C1489.69 700.214 1468.39 706.826 1446.3 709.597C1411.39 713.991 1373.68 712.007 1341 700.25C1322.84 693.736 1304.68 684.508 1287.75 674.532C1272.08 665.308 1257.32 654.716 1241.9 645.098C1217.63 629.918 1193.48 609.808 1163.34 611.341C1143 612.376 1126.04 606.345 1107.94 597.845C1099.63 593.944 1091.14 590.384 1082.15 588.415C1069.54 585.638 1056.56 586.848 1044.05 589.106C1031.66 591.349 1019.5 595.47 1007.35 598.88C964.249 610.959 922.094 626.623 879.151 639.388C844.001 649.828 808.802 660.968 773.168 669.693C757.458 673.529 741.505 676.036 725.314 674.367C723.482 674.175 721.666 673.919 719.846 673.592C698.486 669.942 679.477 658.628 662.239 646.02C643.89 632.585 626.575 617.773 607.957 604.657C581.934 586.319 548.675 571.237 516.005 576.965C503.271 579.208 491.867 585.069 482.676 594.164C471.23 605.505 462.978 620.021 452.353 632.155C423.031 665.636 385.422 689.386 346.238 709.658C323.222 721.555 298.671 731.202 276.203 744.141C255.333 756.176 235.651 769.01 212.602 776.739C182.562 786.802 151.389 796.377 119.773 797.563C82.6837 798.938 46.1416 787.364 13.2175 770.258C-8.73 758.847 -30.6484 745.008 -48.4268 727.637" stroke="#184994" stroke-width="0.8" stroke-miterlimit="10"/>
<path d="M1939.36 614.946C1925.08 638.944 1898.85 657.193 1873.51 667.134C1845.9 677.963 1819.1 688.569 1789.1 688.856C1771.18 689.021 1753.19 686.526 1736.36 680.206C1694.74 664.586 1646.31 637.677 1600.59 652.318C1588.22 656.29 1576.25 661.011 1565.27 667.929C1547.61 679.053 1530.21 691.097 1511.04 699.865C1490.22 709.386 1468.04 715.003 1445.3 716.934C1408.85 720.021 1370.67 716.484 1335.91 705.344C1301.44 694.301 1270.27 676.217 1239.13 657.843C1214.76 643.463 1192.09 624.896 1162.42 625.592C1151.8 625.851 1141.15 625.023 1130.95 621.742C1122.74 619.108 1115.26 614.946 1107.72 610.858C1100.01 606.682 1092.16 602.88 1083.68 600.543C1070.72 596.936 1057.64 597.547 1044.51 599.385C1031.7 601.169 1019 604.823 1006.37 607.854C962.252 618.419 918.966 633.069 875.508 646.132C841.118 656.477 807.301 668.377 773.066 679.177C758.284 683.835 743.499 687.045 727.928 685.634C726.111 685.47 724.268 685.229 722.464 684.93C677.419 677.651 645.333 638.094 610.924 611.769C584.816 591.777 551.84 573.577 517.666 580.373C486.473 586.589 472.672 615.999 453.063 637.744C422.995 671.094 385.419 695.404 346.256 716.716C324.039 728.803 300.419 739.091 279.333 753.135C259.26 766.485 238.336 778.895 215.332 786.453C185.117 796.399 153.662 805.485 121.903 806.174C84.3864 806.998 47.5201 794.832 14.5395 776.907C-7.33041 765.034 -29.8502 750.437 -46.4305 731.594" stroke="#184994" stroke-width="0.8" stroke-miterlimit="10"/>
<path d="M1940.15 626.275C1927.52 650.806 1901.1 669.924 1876.35 679.956C1849.01 691.016 1822.2 701.46 1792.46 703.103C1774.41 704.084 1756.17 702.693 1739 696.949C1696.74 682.788 1650.31 654.001 1603.9 666.504C1591.44 669.856 1579.35 673.972 1568.19 680.381C1550.16 690.74 1532.32 701.931 1512.86 709.816C1491.06 718.638 1467.97 723.416 1444.64 724.476C1406.4 726.209 1367.03 721.231 1330.52 709.642C1297.22 699.076 1265.31 684.7 1234.5 668.296C1222.69 662.011 1211.51 654.423 1199.53 648.367C1186.77 641.921 1173.54 638.493 1159.28 638.627C1148.54 638.739 1137.65 638.03 1127.36 634.565C1119.53 631.915 1112.5 627.669 1105.47 623.375C1098.24 618.959 1090.9 614.902 1082.79 612.317C1069.83 608.183 1056.94 608.087 1043.56 609.469C1030.43 610.822 1017.33 614.071 1004.37 616.735C959.255 626.025 914.772 639.825 870.808 653.489C837.95 663.692 806.347 676.162 774.546 689.199C760.321 695.04 746.019 698.333 730.553 697.134C728.73 696.991 726.903 696.777 725.071 696.494C679.208 689.524 647.794 647.804 614.399 619.751C588.545 598.036 554.845 576.104 519.312 583.938C506.466 586.771 494.737 593.763 486.4 603.96C475.596 617.195 465.344 630.854 453.748 643.441C423.084 676.7 385.67 701.605 346.656 723.991C324.983 736.453 303.139 748.089 282.525 762.259C262.472 776.051 241.317 788.721 218.126 796.206C187.79 806.005 156.009 814.59 124.08 814.797C86.1207 815.043 48.9344 802.355 15.9088 783.568C-5.872 771.19 -29.0184 755.759 -44.4022 735.537" stroke="#184994" stroke-width="0.8" stroke-miterlimit="10"/>
<path d="M1940.89 637.663C1928.9 662.549 1903.8 682.41 1879.15 692.95C1851.95 704.578 1824.99 715.488 1795.36 718.903C1777.36 720.978 1759.05 721.384 1741.8 715.504C1699.56 701.096 1654.63 670.897 1607.83 680.928C1595.25 683.626 1582.99 687.077 1571.58 692.981C1553.14 702.542 1534.86 712.972 1515.1 720.088C1492.37 728.248 1468.47 732.302 1444.47 732.657C1404.3 733.275 1363.47 726.804 1325.32 714.133C1292.72 703.292 1259.81 691.268 1228.59 676.822C1217.11 671.523 1206.27 664.829 1194.81 659.465C1181.9 653.436 1168.61 650.384 1154.42 650.514C1143.18 650.607 1131.63 650.065 1120.96 646.13C1113.95 643.543 1107.79 639.526 1101.65 635.355C1082.99 622.733 1063.89 617.92 1041.39 619.5C1028.03 620.452 1014.67 623.309 1001.45 625.651C956.049 633.714 911.026 646.611 867.234 660.918C849.483 666.711 831.906 673.057 814.856 680.692C801.696 686.588 789.352 693.898 776.406 700.196C762.907 706.76 748.14 709.814 733.16 708.86C731.331 708.738 729.499 708.546 727.683 708.29C705.857 705.181 686.846 692.672 670.303 678.756C651.842 663.247 635.574 645.384 617.985 628.936C592.733 605.315 557.959 578.983 520.971 587.875C507.461 591.128 497.563 598.747 488.711 609.151C477.285 622.564 466.501 636.494 454.437 649.37C423.37 682.59 386.119 708.089 347.463 731.628C336.176 738.508 324.78 745.198 313.556 752.188C303.911 758.175 295.051 765.176 285.784 771.724C265.746 785.888 244.383 798.733 220.941 806.127C190.37 815.771 158.382 823.841 126.268 823.539C87.893 823.191 50.3713 809.954 17.2892 790.348C-4.48826 777.443 -28.163 761.066 -42.3788 739.571" stroke="#184994" stroke-width="0.8" stroke-miterlimit="10"/>
<path d="M1941.68 648.785C1930.58 674.138 1906.23 694.938 1881.84 706.235C1854.61 718.842 1827.43 730.771 1797.74 736.355C1779.98 739.688 1762.29 740.352 1745.1 734.419C1702.86 719.849 1659.42 688.303 1612.3 695.701C1599.57 697.691 1587.08 700.461 1575.41 705.881C1556.52 714.632 1537.84 724.404 1517.79 730.87C1494.22 738.483 1469.64 741.918 1444.98 741.841C1402.89 741.696 1360.41 733.953 1320.84 719.757C1302 712.989 1283.53 705.129 1264.44 698.847C1250.19 694.158 1235.98 689.276 1222.02 683.838C1210.78 679.474 1200.07 673.713 1188.9 669.07C1175.83 663.642 1162.44 661.045 1148.31 661.284C1137.1 661.474 1125.4 661.215 1114.67 657.333C1107.99 654.902 1102.23 650.946 1096.55 646.76C1090.42 642.25 1084.18 638.006 1077.06 635.18C1064.78 630.308 1051.11 628.994 1038.1 629.531C1024.65 630.088 1011.09 632.57 997.74 634.625C952.422 641.586 907.144 653.634 863.824 668.756C846.716 674.722 829.826 681.503 813.838 690.066C801.924 696.457 791.221 704.849 779.24 711.061C765.739 718.061 750.906 721.534 735.703 720.727C733.869 720.626 732.036 720.434 730.214 720.199C708.401 717.301 689.49 704.589 673.236 690.452C654.784 674.393 638.7 655.844 621.475 638.552C596.622 613.613 561.112 582.214 522.654 592.137C508.729 595.738 499.574 604.613 490.301 615.134C478.508 628.541 467.402 642.477 455.126 655.456C423.763 688.666 386.803 714.795 348.639 739.499C337.851 746.49 326.81 753.229 316.316 760.666C307.016 767.252 298.257 774.648 289.026 781.32C268.966 795.823 247.408 808.798 223.698 816.075C192.877 825.538 160.704 833.099 128.405 832.287C89.5981 831.319 51.7565 817.56 18.6122 797.155C-3.20485 783.711 -27.3306 766.272 -40.4072 743.612" stroke="#184994" stroke-width="0.8" stroke-miterlimit="10"/>
<path d="M1942.55 659.721C1932.18 685.662 1908.61 707.519 1884.41 719.88C1857.36 733.707 1829.7 748.379 1799.92 754.995C1782.83 758.807 1765.43 759.363 1748.75 753.568C1706.5 738.879 1664.56 706.173 1617.35 710.836C1604.42 712.107 1591.71 714.172 1579.72 719.119C1560.4 727.088 1541.3 736.288 1521.02 742.254C1496.7 749.413 1471.47 752.563 1446.24 752.219C1402.42 751.608 1358.3 743.198 1317.51 727.247C1297.87 719.557 1279.01 710.075 1258.87 703.42C1244.43 698.658 1229.78 694.415 1215.35 689.771C1204.18 686.183 1193.43 681.354 1182.33 677.395C1169.05 672.669 1155.56 670.598 1141.5 671.016C1130.71 671.342 1119.37 671.476 1108.9 668.148C1101.98 665.949 1096.26 662.005 1090.6 657.551C1084.73 652.947 1078.87 648.646 1071.93 645.752C1059.93 640.794 1046.62 639.668 1033.93 639.533C1020.57 639.381 1006.79 641.848 993.45 643.607C948.618 649.526 903.375 660.757 860.998 676.821C844.553 683.056 828.376 690.35 813.635 700.005C802.792 707.118 793.245 715.912 781.808 722.155C768.409 729.458 753.588 733.232 738.311 732.612C736.471 732.533 734.632 732.363 732.805 732.149C697.646 727.769 670.891 698.691 648.232 673.971C623.985 647.54 599.891 616.762 566.381 601.589C553.281 595.67 538.582 592.977 524.509 596.791C510.96 600.447 501.028 611.113 491.885 621.232C479.775 634.623 468.376 648.618 455.948 661.74C424.46 694.985 387.824 721.707 350.292 747.568C339.977 754.685 329.448 761.654 319.695 769.588C310.706 776.9 301.686 784.157 292.36 791.011C272.268 805.803 250.504 818.862 226.554 826.005C195.467 835.259 163.103 842.332 130.618 841.012C91.3803 839.422 53.2073 825.184 20.0279 803.966C-1.88727 789.944 -26.3295 771.456 -38.3585 747.629" stroke="#184994" stroke-width="0.8" stroke-miterlimit="10"/>
<path d="M1943.44 670.551C1933.76 697.253 1910.86 720.299 1886.85 734.042C1860.01 749.417 1832.67 766.544 1802.48 773.922C1785.86 777.974 1768.9 778.65 1752.63 772.986C1710.36 758.249 1670.05 724.531 1622.87 726.513C1609.74 727.064 1596.78 728.421 1584.46 732.932C1564.69 740.139 1545.19 748.886 1524.67 754.536C1499.74 761.394 1473.99 764.54 1448.24 764.241C1402.92 763.714 1357.33 755.23 1315.6 737.536C1294.94 728.768 1275.53 717.092 1254.37 709.247C1239.55 703.741 1224.27 699.465 1209.06 695.304C1197.78 692.215 1186.78 688.167 1175.55 684.863C1162.02 680.897 1148.4 679.341 1134.33 680.033C1123.55 680.569 1112.11 681.068 1101.58 677.975C1094.87 675.996 1089.43 672.288 1084.1 667.919C1078.58 663.386 1073.13 659.124 1066.51 656.274C1054.71 651.162 1041.52 650.136 1028.89 649.856C1015.5 649.558 1001.96 651.399 988.637 652.911C944.223 657.954 898.754 668.481 857.441 685.979C842.464 692.308 827.784 699.934 815.101 710.231C805.146 718.318 795.877 726.933 784.662 733.373C771.273 741.069 756.36 745.187 740.876 744.741C739.03 744.684 737.207 744.54 735.38 744.327C699.802 740.225 673.012 709.989 650.751 684.641C626.513 657.063 603.187 625.732 569.871 608.544C556.908 601.858 541.035 597.54 526.751 602.401C513.631 606.86 503.322 617.127 494.069 627.056C481.423 640.648 469.631 654.997 456.857 668.464C425.331 701.768 389.122 729.04 352.367 756.12C312.751 785.305 277.608 822.075 229.394 836.163C198.207 845.275 165.464 851.788 132.821 849.942C93.1794 847.716 54.6479 833.015 21.455 810.989C-0.654104 796.318 -25.2299 776.783 -36.2984 751.857" stroke="#184994" stroke-width="0.8" stroke-miterlimit="10"/>
<path d="M1944.35 681.318C1935.25 708.955 1912.98 733.294 1889.11 748.707C1862.63 765.811 1835.97 784.795 1805.27 792.957C1789.09 797.242 1772.48 798.032 1756.54 792.48C1714.29 777.771 1675.7 743.112 1628.73 742.579C1615.4 742.432 1602.19 743.101 1589.49 747.191C1569.3 753.686 1549.43 762.082 1528.7 767.584C1503.3 774.315 1477.15 777.746 1450.95 777.832C1404.54 777.975 1357.74 770.296 1315.39 751.036C1293.41 741.039 1273.38 727.038 1251.34 717.073C1235.99 710.116 1219.88 704.955 1203.58 700.775C1192.01 697.816 1180.57 694.294 1168.95 691.527C1155.14 688.245 1141.33 687.213 1127.22 688.26C1108.97 689.625 1091.93 689.864 1077.34 677.644C1072.09 673.228 1066.96 669.052 1060.63 666.255C1049 661.098 1035.89 660.137 1023.42 659.833C1010.13 659.515 996.7 660.928 983.466 662.21C940.196 666.41 895.127 676.217 855.582 694.923C841.135 701.762 828.615 710.334 816.956 721.181C807.687 729.796 798.061 738.2 787.152 744.7C773.84 752.623 758.928 756.994 743.414 756.746C741.563 756.71 739.734 756.588 737.901 756.396C702.463 752.631 675.93 722.119 654.301 696.641C630.105 668.133 607.113 634.525 573.612 616.139C560.128 608.739 544.608 603.964 529.441 608.772C516.158 612.982 505.609 623.115 496.191 632.977C483.035 646.754 470.871 661.463 457.811 675.313C426.386 708.666 390.616 736.447 354.821 764.748C316.113 795.349 281.145 832.579 232.169 846.164C200.547 854.93 167.767 861.065 134.976 858.744C94.9511 855.887 56.0555 840.743 22.816 817.947C0.485858 802.642 -24.1847 782.002 -34.3043 756.021" stroke="#184994" stroke-width="0.8" stroke-miterlimit="10"/>
<path d="M1945.29 692.045C1936.67 720.798 1914.93 746.588 1891.24 763.889C1865.45 782.737 1839.25 803.178 1808.25 812.018C1792.43 816.514 1776.11 817.405 1760.46 811.999C1718.32 797.388 1681.4 761.82 1634.93 758.986C1621.41 758.169 1607.95 758.219 1594.92 761.9C1574.33 767.738 1554.11 775.901 1533.21 781.448C1507.49 788.256 1481.06 792.279 1454.51 793.167C1407.58 794.734 1359.9 789.849 1317.47 768.822C1305.24 762.767 1293.31 755.829 1281.74 748.461C1271.2 741.734 1261.19 734.252 1250.34 727.994C1234.39 718.808 1217.29 711.795 1199.57 706.914C1173.41 699.728 1148.04 693.212 1120.73 695.988C1102.87 697.801 1085.3 698.979 1070.81 686.9C1065.73 682.643 1060.82 678.551 1054.7 675.833C1043.23 670.717 1030.21 669.827 1017.87 669.558C1004.73 669.28 991.382 670.554 978.248 671.633C936.223 675.133 891.139 684.224 853.713 704.715C829.321 718.058 813.298 741.52 789.722 756.024C776.492 764.153 761.609 768.761 746.033 768.658C744.197 768.649 742.341 768.543 740.53 768.357C704.807 764.883 678.315 733.532 657.054 707.624C644.143 691.9 631.882 675.638 618.462 660.353C606.396 646.624 593.133 632.988 577.169 623.776C563.552 615.927 547.823 610.729 532.24 615.288C518.221 619.415 507.066 630.098 497.166 640.382C484.072 654.015 471.938 668.526 459.024 682.345C427.792 715.751 392.515 744.007 357.799 773.517C320.024 805.608 284.415 842.919 235.026 856.072C203.161 864.543 170.124 870.265 137.196 867.424C96.7615 863.952 57.5601 848.405 24.2684 824.86C1.68003 808.889 -22.9938 787.145 -32.1973 760.146" stroke="#184994" stroke-width="0.8" stroke-miterlimit="10"/>
<path d="M1946.2 702.79C1938.02 732.854 1916.68 760.201 1893.18 779.593C1868.61 799.851 1842.35 821.905 1811.24 831.061C1795.58 835.667 1779.64 836.753 1764.21 831.474C1742.38 824 1722.55 810.858 1702.39 799.191C1683.5 788.277 1663.16 777.663 1641.16 775.633C1627.46 774.356 1613.78 773.703 1600.45 777.05C1579.54 782.296 1558.93 790.426 1537.88 796.164C1511.81 803.267 1485.29 807.908 1458.43 810.298C1435.54 812.351 1412.42 813.834 1389.43 811.794C1364.93 809.599 1341.24 802.961 1319.66 791.464C1294.89 778.261 1274.02 759.902 1251.51 743.125C1235.03 730.836 1216.7 720.873 1197.21 714.439C1170.33 705.567 1143.41 699.785 1115.04 703.517C1097.32 705.85 1079.32 707.65 1064.64 695.815C1059.72 691.858 1055 687.86 1049.2 685.25C1037.73 680.09 1024.62 679.291 1012.3 679.097C999.24 678.885 986.051 680.34 973.027 681.264C950.18 682.914 927.345 686.749 905.237 692.938C887.283 697.942 869.315 704.459 853.523 714.521C830.668 729.079 815.344 752.844 792.279 767.415C779.117 775.723 764.252 780.52 748.657 780.573C746.815 780.585 744.959 780.479 743.137 780.336C707.538 777.171 681.248 745.667 660.494 719.665C636.296 689.364 614.122 653.127 580.76 631.906C567.289 623.338 550.843 617.902 535.012 622.188C520.863 626.028 509.467 636.578 499.466 646.812C485.927 660.647 473.486 675.535 460.35 689.754C444.857 706.513 428.675 722.582 411.81 737.94C395.186 753.086 377.736 767.368 361.197 782.538C324.697 816.049 287.332 853.396 237.882 866.004C205.795 874.186 172.443 879.456 139.431 876.156C98.6353 872.059 59.0741 856.14 25.7458 831.873C2.88351 815.208 -21.7138 792.405 -30.0929 764.386" stroke="#184994" stroke-width="0.8" stroke-miterlimit="10"/>
<path d="M1947.11 713.577C1939.29 745.117 1918.31 774.144 1894.98 795.789C1871.75 817.345 1844.97 840.527 1814.21 850.049C1798.77 854.831 1782.99 856.028 1767.68 850.874C1746.04 843.565 1726.57 830.176 1706.94 818.098C1688.47 806.744 1668.72 795.186 1647.01 792.247C1633.35 790.405 1619.42 789.478 1605.97 792.495C1584.73 797.262 1563.79 805.419 1542.62 811.537C1515.87 819.286 1488.49 825.145 1461.12 829.971C1437.9 834.047 1414.27 837.396 1390.58 836.474C1365.95 835.51 1342.13 829.364 1320.76 817.419C1295.4 803.232 1274.44 783.219 1253.34 763.235C1236.43 747.197 1218.41 733.117 1196.86 724.016C1169.07 712.281 1140.62 706.183 1110.51 711.011C1092.64 713.879 1074.25 716.055 1059.11 704.375C1054.01 700.435 1049.18 696.501 1043.18 693.93C1031.81 689.074 1018.98 688.419 1006.88 688.325C993.943 688.218 980.869 689.589 967.98 690.779C929.476 694.348 885.861 700.524 854.065 724.705C832.804 740.861 817.652 763.73 795.047 778.47C781.934 787.021 766.88 792.181 751.15 792.313C749.308 792.325 747.462 792.267 745.618 792.118C710.24 789.242 684.245 757.84 663.927 731.84C639.518 700.61 617.794 663.551 584.611 640.632C570.992 631.244 554.202 625.118 537.684 629.22C523.411 632.751 511.84 643.185 501.71 653.384C487.769 667.434 475.063 682.71 461.732 697.314C431.259 730.716 397.512 760.554 364.757 791.576C328.437 825.963 290.646 863.609 240.558 875.771C208.261 883.621 174.581 888.482 141.464 884.718C100.317 880.044 60.3847 863.796 27.0414 838.812C3.84074 821.437 -20.5668 797.582 -28.1543 768.58" stroke="#184994" stroke-width="0.8" stroke-miterlimit="10"/>
<path d="M1948 724.427C1940.62 756.98 1920.27 789.464 1896.63 812.267C1873.62 834.456 1848.13 858.924 1817.05 868.958C1801.75 873.893 1786.07 875.21 1770.84 870.144C1729.17 856.326 1696.63 817.177 1652.43 808.905C1638.97 806.383 1624.74 805.468 1611.35 808.2C1589.78 812.606 1568.51 820.903 1547.31 827.586C1519.32 836.407 1490.83 844.885 1462.47 852.133C1415.23 864.186 1364.97 871.248 1321.05 845.959C1295.36 831.18 1274.09 809.589 1254.51 787.279C1238.39 768.928 1220.74 748.329 1198.99 736.555C1170.21 720.95 1140.16 712.768 1107.58 718.912C1089.12 722.4 1070.57 724.396 1054.6 712.863C1049.31 709.034 1044.27 705.112 1038.16 702.604C1026.77 697.946 1014.02 697.406 1001.93 697.431C989.145 697.455 976.257 698.899 963.544 700.206C926.56 704.021 884.129 709.64 855.381 735.739C835.92 753.412 819.635 775.104 797.574 789.784C784.519 798.465 769.495 803.771 753.752 804.036C751.904 804.07 750.058 804.013 748.229 803.891C712.67 801.264 686.7 769.341 666.655 743.092C642.489 711.468 621.371 674.295 588.95 650.156C575.056 639.821 557.97 632.743 540.513 636.662C526.137 639.89 514.368 650.202 504.186 660.342C489.849 674.584 476.926 690.239 463.432 705.282C433.356 738.744 400.654 769.574 368.465 800.885C332.419 835.966 294.073 873.969 243.369 885.598C210.809 893.056 176.84 897.541 143.66 893.323C102.189 888.058 61.8887 871.55 28.5188 845.893C4.96422 827.78 -19.1893 802.89 -26.0181 772.942" stroke="#184994" stroke-width="0.8" stroke-miterlimit="10"/>
<path d="M1948.87 735.345C1941.83 769.551 1921.97 803.221 1898.38 828.243C1876.2 851.802 1851.02 877.202 1819.76 887.696C1804.86 892.691 1788.83 894.373 1773.64 889.227C1731.48 874.955 1700.81 835.869 1657.28 825.482C1643.95 822.305 1629.82 821.349 1616.39 823.908C1594.35 828.118 1572.18 836.518 1550.74 843.897C1521.15 854.059 1492.33 866.515 1462.66 876.169C1416.22 891.261 1364.95 901.982 1320.66 876.181C1294.66 861.042 1273.79 838.112 1255.18 814.407C1238.55 793.255 1222.71 771.049 1201.93 753.817C1187.6 741.94 1171.98 732.749 1153.75 728.032C1138.15 723.993 1122.22 724.164 1106.58 727.511C1087.22 731.657 1068.38 732.84 1051.42 721.361C1045.79 717.558 1040.43 713.572 1034.04 711.081C1022.55 706.605 1009.79 706.199 997.684 706.358C985.092 706.525 972.386 708.064 959.864 709.513C939.213 711.888 918.115 714.902 898.37 721.793C883.06 727.136 870.189 735.04 858.229 745.899C838.441 763.851 822.312 786.16 799.934 801.167C786.992 809.856 772.102 815.175 756.458 815.582C754.605 815.637 752.754 815.601 750.925 815.479C715.663 813.116 689.92 781.46 670.256 755.337C645.913 722.999 625.135 685.067 592.903 659.623C578.828 648.504 561.674 640.65 543.478 644.326C528.853 647.28 516.842 657.642 506.502 667.855C491.947 682.223 478.913 698.123 465.393 713.434C435.725 747.006 403.993 778.67 372.248 810.215C336.304 845.943 297.427 884.126 246.156 895.213C213.392 902.317 179.064 906.338 145.805 901.732C104.041 895.928 63.3467 879.177 29.9602 852.896C6.0302 834.039 -17.8107 808.153 -23.9138 777.297" stroke="#184994" stroke-width="0.8" stroke-miterlimit="10"/>
<path d="M1949.72 746.345C1943 782.107 1923.69 816.982 1900.29 844.144C1878.92 868.933 1853.84 895.395 1822.26 906.239C1807.36 911.369 1791.26 913.125 1776 908.075C1733.58 894.078 1704.23 854.336 1661.42 841.888C1648.07 838.016 1634.45 836.875 1620.81 839.404C1565.35 849.668 1514.43 881.25 1461.82 901.536C1416.38 919.078 1364.39 933.119 1319.73 907.221C1293.51 892.024 1273.09 868.203 1255.36 843.63C1238.53 820.31 1223.86 795.271 1204.14 774.255C1190.84 760.08 1175.3 745.745 1156.51 739.269C1140.61 733.793 1123.86 733.332 1107.6 737.158C1086.98 742.02 1067.73 741.646 1049.58 730.013C1043.6 726.183 1037.82 722.109 1031.12 719.58C1019.37 715.148 1006.43 714.809 994.073 715.131C981.667 715.463 969.185 717.107 956.855 718.7C936.949 721.298 916.218 724.57 897.418 731.966C883.597 737.411 871.846 746.027 860.95 755.999C841.137 774.128 825.107 796.671 802.789 811.97C789.816 820.857 774.826 826.379 759.063 826.892C757.21 826.947 755.352 826.932 753.523 826.81C718.231 824.646 692.561 792.803 673.109 766.575C648.673 733.638 628.171 695.022 596.013 668.702C581.95 657.196 564.943 648.876 546.424 652.212C531.092 654.977 518.532 665.928 507.791 676.607C493.481 690.834 480.676 706.566 467.432 721.79C438.138 755.508 407.279 787.864 375.918 819.604C340.029 855.899 300.65 894.154 248.833 904.704C215.856 911.407 181.185 914.991 147.845 909.996C105.784 903.676 64.7418 886.763 31.3172 859.851C7.00028 840.293 -16.4795 813.401 -21.9054 781.647" stroke="#184994" stroke-width="0.8" stroke-miterlimit="10"/>
<path d="M1950.52 757.403C1944.07 794.569 1925.41 830.789 1902.25 859.969C1881.62 885.965 1856.51 913.406 1824.51 924.599C1809.51 929.84 1793.26 931.648 1777.85 926.697C1735.1 913.002 1706.86 872.567 1664.79 858.135C1651.46 853.558 1638.18 851.932 1624.35 854.48C1599.58 859.037 1575.69 870.768 1552.96 881.937C1522 897.152 1491.75 914.026 1460.2 927.82C1415.78 947.242 1363.76 963.85 1318.51 938.389C1264.2 907.84 1241.82 845.012 1205.78 797.39C1183.07 767.351 1151.61 737.909 1110.93 748.408C1088.89 754.087 1068.83 751.083 1049.45 739.074C1042.73 734.909 1036.18 730.536 1028.68 727.887C1016.78 723.668 1003.85 723.399 991.425 723.886C979.205 724.383 966.948 726.133 954.847 727.902C936.02 730.674 916.168 734.182 898.627 741.938C885.668 747.682 874.063 756.613 863.712 766.179C843.722 784.629 827.647 807.595 805.055 823.143C792.207 831.995 777.336 837.502 761.689 838.093C759.83 838.169 757.973 838.155 756.144 838.033C721.166 836.067 695.725 804.745 676.608 778.722C651.977 745.227 631.764 706.046 599.85 678.642C585.743 666.526 568.545 657.374 549.494 660.384C534.092 662.809 521.405 673.633 510.654 684.264C496.039 698.685 483.088 714.791 469.768 730.386C440.831 764.314 410.761 797.158 379.655 829.058C343.79 865.864 303.869 904.088 251.545 914.044C218.353 920.345 183.329 923.444 149.926 918.087C107.597 911.305 66.2018 894.252 32.7377 866.801C8.01818 846.515 -15.0203 818.661 -19.8021 786.045" stroke="#184994" stroke-width="0.8" stroke-miterlimit="10"/>
<path d="M1951.33 768.554C1945.25 806.991 1927.11 844.706 1904.3 875.657C1884.27 902.848 1859.06 931.251 1826.53 942.736C1811.08 948.18 1794.95 949.72 1779.22 945.05C1757.44 938.577 1738.51 924.735 1720.67 910.587C1703.88 897.269 1687.1 882.327 1667.01 874.467C1653.84 869.311 1640.13 867.043 1626.34 870.313C1600.48 876.439 1575.77 890.385 1552.29 903.259C1520.94 920.438 1490.24 939.054 1458.06 954.448C1414.58 975.225 1362.76 993.517 1317.27 968.843C1261.83 938.77 1238.99 873.501 1206.99 822.733C1187.09 791.147 1157.6 751.23 1114.73 761.784C1091.43 767.517 1071.15 760.941 1051.25 748.745C1043.75 744.163 1036.37 739.362 1027.99 736.477C1015.76 732.237 1002.61 731.98 989.86 732.656C977.852 733.302 965.792 735.174 953.935 737.146C935.95 740.12 917.154 743.979 900.703 752.211C888.074 758.526 876.694 766.874 866.359 776.467C846.334 795.046 830.336 818.24 807.72 833.965C794.876 842.886 780.036 848.448 764.373 849.103C762.514 849.179 760.656 849.165 758.838 849.091C723.777 847.265 698.402 815.776 679.427 789.654C654.893 755.886 634.973 716.553 603.414 688.509C589.436 676.084 572.024 666.185 552.714 668.873C537.079 671.052 524.209 681.873 513.344 692.588C498.609 707.115 485.606 723.414 472.336 739.252C457.582 756.852 442.606 774.254 427.423 791.486C413.194 807.641 398.368 823.108 383.44 838.617C347.546 875.875 307.104 913.983 254.257 923.316C220.683 929.239 185.51 931.609 151.997 926.062C109.569 919.047 67.7099 901.754 34.1947 873.807C9.06115 852.836 -13.5146 824.026 -17.6422 790.598" stroke="#184994" stroke-width="0.8" stroke-miterlimit="10"/>
<path d="M1952.11 779.743C1946.35 819.37 1928.86 858.705 1906.36 891.233C1886.8 919.493 1861.57 948.853 1828.29 960.622C1812.76 966.113 1796.31 967.567 1780.16 963.428C1757.56 957.631 1738.3 944.919 1720.26 930.418C1703.51 916.95 1687.27 901.187 1667.48 892.557C1654.33 886.831 1640.63 884.499 1626.71 888.1C1600.01 894.967 1574.53 911.419 1550.7 925.579C1519.2 944.3 1488.29 964.307 1455.68 980.872C1412.99 1002.55 1361.94 1021.23 1316.32 997.719C1260.14 968.781 1236.24 902.24 1207.85 849.68C1190.41 817.446 1162.67 766.808 1118.16 776.764C1105.92 779.505 1093.33 778.962 1081.63 774.245C1072.11 770.41 1063.74 764.355 1055.04 758.994C1046.8 753.893 1038.4 748.683 1029.23 745.424C1016.49 740.911 1002.87 740.55 989.561 741.421C977.751 742.188 965.925 744.215 954.27 746.379C922.112 752.336 893.148 764.134 869.015 786.643C848.983 805.334 833.009 828.696 810.386 844.534C797.573 853.51 782.749 859.099 767.074 859.796C765.215 859.873 763.352 859.88 761.539 859.785C726.88 858.089 701.7 827.158 682.974 801.308C658.409 767.395 638.817 728.127 607.912 699.27C593.886 686.166 575.918 675.084 556.005 677.45C540.364 679.305 527.373 689.98 516.525 700.63C501.518 715.314 488.423 731.956 475.104 748.148C460.461 765.938 445.632 783.564 430.685 801.112C416.87 817.355 401.918 832.605 387.174 848.025C351.204 885.653 310.21 923.59 256.895 932.269C222.778 937.817 187.904 939.073 153.969 933.642C111.457 926.857 68.8615 908.794 35.571 880.608C10.0177 858.973 -12.0097 829.23 -15.5646 795.036" stroke="#184994" stroke-width="0.8" stroke-miterlimit="10"/>
<path d="M1952.87 790.976C1947.42 831.745 1930.61 872.571 1908.46 906.639C1889.35 936.053 1863.83 966.324 1829.84 978.269C1814.24 983.743 1796.93 985.678 1780.54 982.531C1757.32 978.086 1737.34 966.007 1718.99 951.399C1702.09 937.94 1686.26 921.618 1666.69 912.313C1653.56 906.087 1639.83 903.722 1625.77 907.585C1613.89 910.838 1602.52 916.915 1591.58 922.853C1576.86 930.861 1562.6 939.679 1548.44 948.616C1517.05 968.448 1486.12 989.461 1453.33 1006.73C1411.22 1028.91 1361.54 1046.33 1315.96 1024.41C1259.13 997.093 1234.18 931.396 1208.47 877.83C1197.38 854.762 1185.82 830.232 1167.9 811.513C1155.61 798.69 1139.41 790.012 1121.28 793.43C1108.87 795.759 1096.41 794.169 1085.19 788.34C1075.73 783.419 1067.71 776.309 1059.23 769.95C1050.79 763.625 1041.77 758.409 1031.82 754.804C1018.59 749.997 1004.51 749.445 990.654 750.469C979.025 751.331 967.424 753.464 955.964 755.841C924.265 762.403 895.365 774.562 871.558 796.884C851.644 815.561 835.834 838.828 813.413 854.766C800.555 863.913 785.61 869.608 769.805 870.363C767.941 870.461 766.083 870.446 764.264 870.373C729.701 868.748 704.569 837.899 685.956 812.057C661.304 777.867 641.883 738.3 611.083 708.966C597.311 695.861 579.241 684.385 559.437 686.343C543.785 687.897 530.721 698.414 519.875 708.973C504.645 723.803 491.464 740.767 478.086 757.265C463.811 774.878 449.404 792.387 434.981 809.869C421.278 826.464 405.781 841.866 390.942 857.467C354.837 895.427 313.32 933.086 259.526 941.063C225.062 946.196 190.102 946.74 155.875 941.024C113.052 933.857 70.2275 915.962 36.9431 887.41C10.9642 865.133 -10.5046 834.506 -13.4712 799.574" stroke="#184994" stroke-width="0.8" stroke-miterlimit="10"/>
<path d="M1953.65 802.191C1948.5 844.094 1932.37 886.342 1910.56 921.88C1891.82 952.404 1866.21 983.109 1831.46 995.564C1815.22 1001.39 1797.72 1004.34 1780.51 1002.1C1756.79 999.032 1735.89 987.832 1717.01 973.29C1699.75 959.987 1684.13 943.378 1664.87 933.282C1651.78 926.448 1637.97 924.243 1623.75 928.34C1611.5 931.861 1599.89 938.381 1588.74 944.838C1574.06 953.337 1559.81 962.617 1545.66 971.969C1514.64 992.475 1484.03 1014.03 1451.3 1031.48C1409.54 1053.71 1361.83 1068.09 1316.48 1048.1C1259.24 1022.85 1232.8 960.5 1208.93 906.486C1197.95 881.654 1187.03 855.391 1169.74 834.151C1158.43 820.258 1142.81 808.817 1124.02 811.53C1111.42 813.35 1099.08 810.62 1088.41 803.697C1079.03 797.625 1071.36 789.347 1063.1 781.9C1055 774.584 1046.2 768.139 1035.9 764.302C1022.38 759.259 1007.4 758.557 993.137 759.725C981.669 760.676 970.293 762.823 959.061 765.123C927.103 771.708 897.807 784.658 873.889 807.225C854.094 825.887 838.392 849.092 816.091 865.016C803.221 874.206 788.276 879.901 772.444 880.671C770.579 880.769 768.716 880.776 766.903 880.681C732.544 879.065 707.493 848.513 688.964 822.786C664.424 788.695 645.231 749.396 615.062 719.679C601.455 706.296 582.909 693.682 562.856 695.367C547.079 696.704 533.832 707.217 522.892 717.866C507.602 732.75 494.435 749.832 481.151 766.493C467.153 784.02 453.409 801.798 439.018 818.989C425.132 835.581 409.47 851.169 394.56 866.866C358.283 905.124 316.245 942.414 262 949.673C227.295 954.328 192.065 954.248 157.722 948.111C114.74 940.419 71.7141 923.021 38.2699 894.036C11.854 871.16 -8.98204 839.714 -11.399 804.102" stroke="#184994" stroke-width="0.8" stroke-miterlimit="10"/>
<path d="M1954.44 813.358C1952.42 831.703 1947.93 849.958 1942.57 867.569C1931.21 904.868 1913.93 941.505 1888.6 971.412C1873.45 989.296 1854.98 1004.39 1833.1 1012.96C1811.85 1021.28 1788.69 1024.69 1766.06 1019.96C1746.32 1015.83 1728.7 1005.85 1712.79 993.779C1686.65 973.986 1657.89 938.581 1621.07 950.043C1602.31 955.89 1585.29 967.186 1568.96 977.816C1547.59 991.715 1526.79 1006.5 1505.62 1020.68C1468.53 1045.56 1427.9 1072.55 1382.32 1077.23C1360.67 1079.45 1338.47 1076.36 1318.34 1068.14C1276.76 1051.18 1249.05 1016.63 1228.99 977.582C1217.37 954.968 1208.16 931.253 1197.91 907.993C1189.46 888.823 1180.53 869.064 1167.33 852.598C1157.31 840.082 1143.43 829.338 1126.56 830.909C1095.07 833.852 1079.96 806.604 1059.91 787.844C1049.71 778.291 1037.66 771.803 1023.83 769.457C1003.59 766.015 982.49 769.809 962.734 774.077C930.587 781.025 901.044 794.299 876.886 816.986C856.961 835.706 841.272 859.12 818.871 875.156C806.017 884.373 791.073 890.068 775.209 890.784C740.242 892.382 713.937 862.827 694.982 837.146C669.19 802.238 649.97 761.576 619.307 730.441C605.268 716.184 587.361 704.017 566.554 704.742C546.049 705.456 529.274 722.882 516.429 737.042C498.161 757.216 481.892 779.189 465.031 800.543C456.826 810.936 448.818 821.451 439.79 831.142C430.602 840.996 421.595 851.037 412.504 860.963C393.576 881.627 374.181 902.142 352.024 919.415C326.491 939.344 296.98 954.212 264.556 958.076C211.57 964.408 157.027 959.388 106.95 940.172C68.4358 925.406 31.6013 901.188 9.37313 865.671C-1.36616 848.53 -8.20972 828.939 -9.26447 808.67" stroke="#184994" stroke-width="0.8" stroke-miterlimit="10"/>
</g>
</svg>
