<svg width="1920" height="1743" viewBox="0 0 1920 1743" fill="none" xmlns="http://www.w3.org/2000/svg">
<g style="mix-blend-mode:overlay" opacity="0.5">
<path d="M1908.54 594.568C1900.39 582.624 1889.23 572.375 1878.06 563.359C1848.9 539.843 1814.18 524.418 1778.26 514.725C1757.62 509.147 1735.64 508.553 1715.16 515.334C1694.97 522.034 1677.69 534.986 1662.13 549.162C1645.86 563.993 1631.3 580.621 1614.78 595.17C1602.62 605.864 1587.02 617.925 1569.76 615.646C1544.08 612.247 1517.39 606.759 1491.73 613.207C1458.42 621.607 1433.68 648.376 1411.91 673.234C1387.99 700.541 1353.39 725.093 1314.98 718.417C1294.64 714.867 1276.38 703.531 1260.92 690.288C1237.59 670.335 1219.12 645.153 1203.41 619.08C1173.08 568.832 1145.05 516.119 1108.6 469.679C1078.21 430.968 1040.43 398.066 992.16 384.671C963.544 376.722 933.085 375.753 903.746 378.268C844.582 383.351 782.248 395.85 733.183 431.741C714.129 445.693 697.568 463.312 681.804 480.802C665.708 498.651 650.743 517.487 636.82 537.049C613.332 570.024 594.195 605.821 573.411 640.494C561.709 660.019 554.362 679.894 548.431 701.858C542.596 723.559 537.456 745.709 528.094 766.228C519.116 785.903 505.473 804.619 484.743 812.833C442.75 829.487 392.671 814.687 351.683 801.821C303.847 786.806 257.402 767.085 208.752 754.72C187.285 749.264 164.776 744.949 142.534 746.521C109.906 748.84 65.6061 752.376 46.2047 783.261C30.1164 808.849 37.0774 842.632 39.8881 870.778C41.7798 889.574 41.6547 909.119 34.8157 926.998C27.2741 946.716 13.0138 960.951 -5.80036 970.072C-29.3958 981.519 -55.8032 986.95 -81.5346 991.036C-111.032 995.719 -140.914 998.298 -170.741 999.393C-213.645 1000.96 -255.366 990.636 -297.118 982.197C-333.504 974.852 -376.162 966.749 -409.311 988.612" stroke="#184994" stroke-width="0.8" stroke-miterlimit="10"/>
<path d="M1909.06 610.497C1901.01 598.999 1889.99 589.209 1879.04 580.566C1850.15 557.807 1815.97 542.791 1780.58 533.712C1754.62 527.052 1728.68 530.844 1705.48 544.321C1680.92 558.588 1661.47 580.142 1642.24 600.652C1630.89 612.746 1619.57 625.242 1606.29 635.238C1596.5 642.592 1584.67 649.111 1571.99 647.531C1546.54 644.376 1520.15 638.998 1494.7 645C1462.48 652.585 1437.87 677.155 1415.56 699.92C1403.25 712.467 1389.11 723.522 1372.73 730.322C1348.17 740.538 1319.72 741.237 1295.15 730.635C1257.75 714.493 1229.92 680.412 1208.28 647.278C1168.74 586.721 1133.53 520.798 1083.79 467.564C1060.67 442.798 1033.95 421.198 1002.45 407.897C969.764 394.096 934.638 390.404 899.678 393.072C852.176 396.673 802.757 405.47 760.739 429.196C735.749 443.296 714.369 462.888 694.197 483.277C674.452 503.254 656.375 524.862 639.898 547.477C632.748 557.274 626.024 567.447 619.465 577.691C607.094 597.063 595.626 616.993 583.975 636.821C577.991 646.982 572.032 656.755 567.902 667.86C563.507 679.657 560.492 691.902 557.737 704.164C548.287 746.054 541.461 805.383 497.968 826.951C496.208 827.822 494.388 828.624 492.507 829.358C450.075 845.683 399.57 829.427 358.694 815.749C310.469 799.63 263.74 778.806 214.638 765.374C193.105 759.478 170.463 754.681 148.073 755.819C116.721 757.4 71.0889 760.606 53.8292 792.143C39.3109 818.651 47.1153 852.528 49.5392 880.94C51.4767 903.695 49.3726 927.289 36.6587 946.858C20.8254 971.198 -7.86729 980.939 -34.6805 987.787C-78.6756 999.037 -125.265 1003.07 -170.664 1004.81C-213.291 1006.42 -254.688 996.658 -296.182 988.236C-331.909 980.988 -374.11 972.455 -406.991 993.416" stroke="#184994" stroke-width="0.8" stroke-miterlimit="10"/>
<path d="M1909.51 626.827C1901.5 615.921 1890.61 606.768 1879.86 598.734C1851.09 577.216 1817.32 563.415 1782.47 555.56C1722.38 542.055 1680.13 592.242 1643.94 632.03C1632.73 644.342 1621.41 657.023 1608.03 667.073C1598.31 674.391 1586.55 680.744 1574 679.253C1548.77 676.237 1522.74 670.927 1497.41 676.172C1466.42 682.612 1441.93 704.478 1418.93 724.61C1406.31 735.678 1392.03 744.277 1375.98 749.27C1351.45 756.915 1322.52 757.723 1298.1 748.425C1262.56 734.885 1235.03 703.7 1213.53 673.708C1170.53 613.778 1132.96 548.488 1083.17 493.687C1059.05 467.153 1031.44 443.157 998.832 427.403C966.506 411.776 931.287 405.481 895.745 407.967C849.742 411.179 801.499 419.712 761.505 444.137C714.963 472.573 675.373 514.369 643.005 557.704C635.79 567.351 629.037 577.438 622.406 587.557C609.973 606.57 598.687 626.312 587.034 645.85C573.789 668.094 569.017 693.394 564.617 718.584C557.099 761.518 550.251 821.815 505.515 843.208C503.737 844.048 501.899 844.819 500.025 845.527C480.521 852.701 459.09 852.228 438.786 849.214C413.726 845.48 389.355 837.798 365.526 829.367C317.359 812.343 270.78 790.664 221.738 776.221C199.752 769.757 176.656 764.391 153.62 765.093C132.473 765.722 111.363 767.492 91.6059 775.808C79.6188 780.863 67.4963 788.881 61.6419 800.918C48.4627 828.127 57.1923 862.384 59.0329 891.007C60.5147 914.087 56.8371 937.365 42.6234 956.244C25.15 979.435 -7.23509 987.924 -34.1033 993.994C-78.646 1004.04 -125.17 1008.22 -170.836 1010.08C-213.12 1011.78 -254.217 1002.57 -295.409 994.205C-330.485 987.08 -372.179 978.13 -404.737 998.177" stroke="#184994" stroke-width="0.8" stroke-miterlimit="10"/>
<path d="M1909.94 643.416C1901.97 633.282 1891.13 624.987 1880.59 617.745C1851.75 597.946 1818.25 585.741 1784.11 579.63C1723.73 568.809 1681.4 624.267 1645.57 663.937C1634.49 676.208 1623.16 688.753 1609.74 698.581C1600.04 705.696 1588.34 711.643 1575.97 710.173C1550.94 707.21 1525.26 701.862 1500 706.153C1470.27 711.196 1445.92 729.993 1422.11 746.856C1408.89 756.237 1393.98 762.168 1378.27 766.198C1353.26 772.608 1324.67 773.298 1299.83 765.122C1265.52 753.834 1239.51 725.135 1218.37 697.319C1173.7 638.602 1132.91 575.551 1083.48 520.664C1034.46 466.202 969.166 418.277 892.405 423.309C847.69 426.234 801.615 434.927 763.305 459.75C717.938 489.105 678.827 525.082 646.122 567.906C638.828 577.453 632.039 587.477 625.329 597.497C618.968 607.004 612.917 616.727 606.983 626.506C600.852 636.628 594.018 646.719 589.109 657.484C578.313 681.199 575.62 707.977 572.152 733.522C566.169 777.604 558.912 838.054 512.767 859.201C510.971 860.01 509.108 860.774 507.223 861.427C487.57 868.272 466.077 867.44 445.81 864.094C420.701 859.952 396.33 851.875 372.526 843.056C324.152 825.134 277.477 802.536 228.174 787.102C205.949 780.153 182.615 774.301 159.173 774.553C129.008 774.847 85.3742 779.14 70.1509 810.249C64.3933 822.023 64.2287 836.11 64.6646 848.937C65.2522 866.409 67.7659 883.766 68.3845 901.221C69.1931 924.358 63.9231 948.078 48.0039 965.658C38.8508 975.76 25.2246 982.218 12.7527 987.116C-2.32583 993.001 -18.1298 996.876 -33.9529 1000.03C-78.8419 1009.02 -125.283 1013.38 -171.118 1015.37C-213.088 1017.19 -253.813 1008.55 -294.679 1000.24C-329.054 993.252 -370.255 983.934 -402.464 1003.08" stroke="#184994" stroke-width="0.8" stroke-miterlimit="10"/>
<path d="M1910.34 660.128C1902.36 650.808 1891.63 643.464 1881.25 637.107C1852.22 619.309 1818.98 609.359 1785.48 605.287C1725.15 597.926 1683.07 656.503 1647.04 695.701C1630.25 713.969 1605.91 743.058 1577.84 739.65C1552.99 736.628 1527.64 731.212 1502.42 734.276C1474.01 737.725 1449.71 753.113 1425.09 766.103C1410.75 773.658 1395.31 778.631 1379.42 782.06C1353.64 787.606 1326.01 787.868 1300.42 780.808C1267.22 771.66 1241.94 745.076 1221.58 718.839C1177.08 661.481 1133.59 601.919 1084.88 547.987C1058.07 518.313 1028.57 490.074 993.953 469.44C963.262 451.146 926.111 437.122 890.123 439.305C866.285 440.74 842.114 444.111 819.007 450.979C800.277 456.544 782.646 464.982 765.921 474.952C720.498 502.056 681.705 536.354 649.23 577.924C641.851 587.396 635.001 597.351 628.207 607.295C615.546 625.88 601.032 645.783 593.599 667.161C584.546 693.211 583.154 721.522 580.269 748.723C575.432 794.426 567.243 853.338 519.625 874.486C517.773 875.306 515.855 876.082 513.926 876.697C493.896 883.283 472.095 882.026 451.618 878.282C426.702 873.717 402.539 865.355 378.968 856.256C330.374 837.486 283.572 813.985 234.055 797.678C211.75 790.339 187.874 783.658 164.754 783.89C135.797 784.192 92.9631 788.252 79.0498 819.58C73.6818 831.669 73.7175 845.204 74.3057 858.151C75.0929 875.861 77.4786 893.499 77.4632 911.258C77.4546 934.202 70.5437 959.431 52.0275 974.421C28.191 993.75 -4.8673 1000.43 -34.2571 1005.69C-79.378 1013.77 -125.68 1018.3 -171.536 1020.47C-213.127 1022.44 -253.472 1014.35 -294.012 1006.11C-327.717 999.27 -368.345 989.579 -400.181 1007.82" stroke="#184994" stroke-width="0.8" stroke-miterlimit="10"/>
<path d="M1910.76 676.819C1902.76 668.386 1892.1 662.061 1881.94 656.682C1852.6 641.198 1819.56 633.828 1786.77 631.945C1726.94 628.483 1685.34 688.319 1648.58 726.74C1631.4 744.694 1607.53 770.646 1579.77 767.058C1554.94 763.833 1529.97 758.201 1504.78 759.854C1477.54 761.639 1451.78 772.717 1427.07 783.208C1411.96 789.61 1395.98 793.728 1379.83 796.746C1353.57 801.613 1326.07 802.173 1300 795.641C1267.73 787.557 1243.62 764.55 1223.56 739.206C1179.61 683.682 1135.52 627.459 1087.51 575.24C1036.52 519.777 969.24 456.638 889.577 456.682C848.327 456.693 805.269 469.456 768.876 489.477C723.314 514.544 684.681 547.359 652.384 587.871C644.896 597.261 637.99 607.228 631.097 617.146C617.299 637.03 603.872 656.804 598.224 680.66C591.753 707.98 591.358 736.4 588.987 764.238C585.014 811.041 575.385 869.041 526.173 889.157C524.224 889.951 522.269 890.665 520.254 891.309C500.171 897.697 478.235 896.061 457.817 892.096C432.973 887.262 408.932 878.642 385.464 869.255C336.813 849.812 290.048 825.584 240.471 808.419C218.381 800.769 194.804 793.563 171.218 793.96C142.079 794.45 101.058 797.443 88.2071 829.028C83.1352 841.486 83.3999 855.346 84.1075 868.535C85.0569 886.131 87.0988 903.677 86.3021 921.305C85.2264 945.385 75.7717 968.906 55.2763 982.736C29.1367 1000.34 -4.40897 1006.28 -34.8287 1011.17C-80.016 1018.41 -126.118 1023.18 -171.953 1025.57C-213.146 1027.72 -253.13 1020.15 -293.277 1012.01C-326.306 1005.3 -366.324 995.302 -397.781 1012.62" stroke="#184994" stroke-width="0.8" stroke-miterlimit="10"/>
<path d="M1911.18 693.379C1903.1 685.876 1892.53 680.625 1882.56 676.272C1852.85 663.292 1820.02 658.768 1787.94 659.129C1759.65 659.423 1734.85 674.969 1713.87 692.854C1690.97 712.353 1671.61 735.512 1650.16 756.429C1632.41 773.756 1608.88 795.693 1581.79 791.759C1557.03 788.184 1532.24 782.363 1507.05 782.358C1479.78 782.373 1453.78 789.938 1428.28 798.664C1412.51 804.075 1396.14 807.589 1379.7 810.319C1353.13 814.76 1325.19 816.016 1298.75 809.94C1267.45 802.773 1244.17 782.937 1224.41 758.542C1181.38 705.419 1138.65 651.457 1091.42 601.711C1061.63 570.317 1030.31 539.538 994.361 515.021C964.176 494.442 928.159 475.986 890.958 475.422C868.593 475.094 845.625 479.182 823.876 484.518C806.016 488.895 788.516 494.974 772.127 503.297C726.367 526.547 687.743 558.049 655.467 597.698C647.856 607.055 640.87 617.027 633.879 626.918C627.058 636.566 619.791 646.41 614.717 657.104C609.458 668.196 606.465 680.263 604.471 692.334C599.689 721.211 600.171 750.682 598.087 779.807C594.637 827.803 582.938 884.196 532.188 902.979C530.171 903.729 528.125 904.392 526.042 904.992C481.826 917.656 432.45 898.466 391.876 881.789C343.307 861.842 296.742 837.062 247.351 819.105C225.255 811.085 201.648 803.792 177.964 803.768C149.229 803.734 109.253 806.56 97.3996 838.254C92.747 850.719 92.9691 864.541 93.685 877.601C94.68 895.419 96.3777 913.268 94.6588 931.097C92.2193 956.338 79.9803 977.772 57.6794 990.381C29.5447 1006.3 -4.42307 1011.65 -35.8678 1016.23C-81.0136 1022.83 -126.872 1027.77 -172.545 1030.44C-213.322 1032.81 -252.938 1025.73 -292.71 1017.67C-325.063 1011.09 -364.422 1000.79 -395.507 1017.2" stroke="#184994" stroke-width="0.8" stroke-miterlimit="10"/>
<path d="M1911.63 709.656C1903.49 703.107 1892.98 698.98 1883.24 695.661C1853.09 685.38 1820.54 683.772 1789.14 686.29C1760.77 688.562 1736.35 705.341 1715.38 723.596C1693.31 742.819 1673.82 764.866 1651.93 784.135C1633.37 800.457 1610.28 817.486 1584.02 813.14C1559.23 809.059 1534.53 802.71 1509.34 801.23C1481.93 799.603 1455.22 805.189 1429 812.566C1412.69 817.147 1395.97 820.329 1379.24 822.93C1352.29 827.137 1324.18 829.112 1297.16 823.828C1266.72 817.865 1243.77 800.563 1224.26 777.158C1182.21 726.691 1141.22 674.694 1095.7 627.011C1065.34 595.2 1033.15 564.216 997.131 538.681C966.978 517.294 932.069 497.845 894.509 495.475C854.953 492.992 811.712 499.654 775.659 516.634C753.642 527.004 732.409 539.162 713.074 554.065C692.784 569.686 674.785 588.051 658.543 607.624C650.803 616.973 643.705 626.968 636.61 636.857C629.552 646.705 623.191 656.502 619.183 668.034C614.792 680.7 612.666 694.052 611.374 707.337C608.503 736.647 609.552 766.164 607.594 795.507C605.841 821.722 602.031 848.938 589.34 872.356C578.157 892.993 559.98 908.68 537.612 916.034C535.503 916.733 533.365 917.345 531.216 917.901C486.269 929.264 438.541 910.699 397.557 893.492C348.995 873.125 302.526 847.792 253.104 829.458C231.415 821.389 208.218 813.943 184.923 813.55C156.386 813.069 117.75 815.805 106.624 847.537C102.144 860.337 102.504 874.433 103.085 887.799C103.859 905.558 105.288 923.23 102.487 940.874C100.595 952.762 96.3081 964.351 89.3908 974.263C82.0062 984.838 70.8263 992.187 59.3497 997.694C29.5081 1012.02 -4.84575 1016.85 -37.2616 1021.23C-82.2873 1027.28 -127.81 1032.44 -173.199 1035.42C-213.524 1038.07 -252.814 1031.45 -292.18 1023.44C-323.838 1017.02 -362.557 1006.39 -393.213 1021.89" stroke="#184994" stroke-width="0.8" stroke-miterlimit="10"/>
<path d="M1912.16 725.584C1903.89 720.002 1893.53 717.018 1883.96 714.694C1853.38 707.218 1821.16 708.489 1790.38 713.039C1762.14 717.244 1738.15 734.714 1717.06 753.097C1695.87 771.582 1676.39 792.341 1653.99 809.264C1634.39 824.07 1612.15 835.089 1586.93 830.366C1561.87 825.657 1536.9 819.341 1511.43 817.129C1483.7 814.732 1456.43 818.644 1429.46 825.083C1412.7 829.096 1395.7 832.044 1378.69 834.728C1351.37 839.021 1323.04 841.701 1295.52 837.334C1282.79 835.322 1270.18 831.813 1258.85 825.545C1245.07 817.934 1233.54 807.007 1223.35 795.227C1182.01 747.374 1142.77 697.027 1099.05 650.984C1069.01 619.339 1037.19 588.743 1001.83 562.911C971.47 540.731 936.793 520.318 899.048 515.004C859.727 509.478 816.054 513.525 779.412 529.558C757.32 539.223 736 550.726 716.519 565.09C696.021 580.208 677.843 598.263 661.531 617.606C653.63 626.965 646.352 637.042 639.225 646.95C614.626 681.128 618.82 730.46 618.546 770.622C618.271 811.968 618.174 859.336 592.417 894.098C580.059 910.763 562.163 922.551 542.302 928.209C540.109 928.832 537.879 929.393 535.614 929.892C490.142 939.772 443.273 921.148 401.966 903.67C354.087 883.407 308.279 858.356 259.681 839.795C238.162 831.588 215.179 823.831 192.018 823.131C163.692 822.259 126.246 824.972 115.756 856.69C111.524 869.451 111.824 883.373 112.135 896.667C112.56 914.648 113.758 932.89 109.686 950.562C103.52 977.332 85.1856 994.398 60.2973 1004.58C29.019 1017.39 -5.71122 1021.85 -38.9688 1026.03C-83.7468 1031.65 -128.873 1037.1 -173.921 1040.38C-213.813 1043.28 -252.729 1037.13 -291.713 1029.17C-322.688 1022.85 -360.737 1011.98 -390.989 1026.56" stroke="#184994" stroke-width="0.8" stroke-miterlimit="10"/>
<path d="M1912.74 741.03C1904.3 736.456 1894.12 734.548 1884.76 733.146C1853.83 728.525 1822.05 732.492 1791.75 738.906C1736.53 750.573 1702.5 803.382 1656.5 831.149C1636.34 843.331 1613.73 848.751 1590.21 844.167C1564.72 839.211 1539.27 833.084 1513.37 830.519C1485.24 827.727 1457.43 830.44 1429.88 836.302C1412.77 839.933 1395.51 842.889 1378.23 845.765C1350.6 850.368 1322.09 853.896 1294.09 850.532C1281.18 848.998 1268.02 846.054 1256.34 840.242C1243.02 833.626 1231.81 823.703 1221.98 812.835C1181.05 767.591 1143.45 718.579 1101.53 673.861C1072.05 642.391 1040.8 612.027 1006.31 585.901C975.981 562.914 941.694 541.631 904.059 533.742C864.784 525.492 820.982 526.872 783.452 542.194C761.252 551.277 739.744 562.204 720.098 576.103C699.324 590.778 680.977 608.577 664.557 627.734C656.551 637.091 648.672 646.955 642.85 657.791C633.23 675.636 630.262 696.657 628.998 716.818C627.548 740.035 628.477 763.309 628.519 786.557C628.605 827.342 627.487 874.199 599.971 907.175C586.254 923.608 566.882 934.422 546.248 939.425C543.938 939.991 541.655 940.458 539.366 940.846C493.807 948.597 447.773 930.486 406.466 913.008C359.463 893.111 314.492 868.574 266.931 849.975C245.44 841.564 222.48 833.524 199.294 832.528C171.01 831.299 135.012 834.11 124.905 865.772C120.724 878.837 121.001 893.042 120.999 906.62C120.998 924.62 121.051 942.712 116.194 960.07C108.663 987.027 86.2025 1002.2 60.7486 1011.15C28.266 1022.56 -6.8293 1026.72 -40.7877 1030.76C-85.215 1036.05 -129.872 1041.81 -174.499 1045.39C-213.963 1048.56 -252.54 1042.81 -291.125 1034.93C-321.449 1028.73 -358.789 1017.58 -388.614 1031.26" stroke="#184994" stroke-width="0.8" stroke-miterlimit="10"/>
<path d="M1913.38 755.937C1904.82 752.329 1894.81 751.466 1885.66 750.937C1854.47 749.142 1823.18 755.503 1793.29 763.528C1740.22 777.796 1708.74 828.526 1659.7 849.107C1638.61 857.963 1616.12 859.47 1593.71 855.206C1567.83 850.28 1541.7 844.364 1515.33 841.699C1486.8 838.826 1458.41 840.833 1430.38 846.459C1412.99 849.937 1395.47 853.037 1378 856.255C1350.1 861.366 1321.48 865.835 1293.05 863.568C1279.96 862.536 1266.67 860.058 1254.49 855.009C1241.27 849.523 1230.04 840.334 1220.29 830.17C1179.43 787.603 1143.25 739.577 1103.15 695.95C1074.35 664.608 1043.89 634.325 1010.35 607.9C980.246 584.159 946.528 562.028 909.239 551.863C869.893 541.121 826.255 539.729 787.672 554.558C765.314 563.152 743.566 573.594 723.694 587.063C702.63 601.345 684.052 618.925 667.48 637.962C659.118 647.566 652.818 657.826 648.047 669.654C640.322 688.875 638.562 710.298 638.03 730.971C637.439 754.812 638.767 778.667 638.836 802.5C638.95 843.082 636.241 889.488 606.166 920.226C591.121 935.619 570.82 945.184 549.801 948.874C547.45 949.297 545.039 949.652 542.647 949.933C496.756 955.385 452.215 938.778 410.526 921.251C364.078 901.74 319.687 877.594 272.808 859.099C251.741 850.776 229.275 842.762 206.517 841.539C178.313 840.015 143.582 843.008 133.798 874.546C129.765 887.545 129.806 901.555 129.404 915.053C128.861 933.407 127.959 951.823 121.69 969.144C111.951 996.089 86.6618 1009.24 60.4406 1017.22C26.9731 1027.39 -8.38889 1031.27 -42.9697 1035.28C-86.9676 1040.34 -131.12 1046.57 -175.196 1050.36C-214.287 1053.71 -252.391 1048.45 -290.717 1040.59C-320.382 1034.49 -357.046 1023.07 -386.436 1035.81" stroke="#184994" stroke-width="0.8" stroke-miterlimit="10"/>
<path d="M1914.11 770.238C1905.42 767.596 1895.64 767.637 1886.65 767.889C1855.4 768.787 1824.6 777.173 1795.02 786.572C1768.41 795.027 1745.82 812.139 1723.81 828.798C1705.22 842.874 1686.21 857.468 1663.41 863.366C1641.81 868.951 1619.31 868.034 1597.46 863.922C1571.02 858.95 1544.32 853.567 1517.4 851.072C1488.43 848.395 1459.55 850.085 1431.09 855.809C1413.47 859.358 1395.74 862.768 1378.15 866.428C1350.11 872.264 1321.37 877.755 1292.58 876.653C1279.24 876.135 1265.88 874.113 1253.24 869.728C1239.87 865.097 1228.64 857.171 1218.58 847.453C1201.17 830.607 1185.29 811.751 1169.45 793.248C1147.77 767.92 1126.23 742.367 1103.96 717.591C1075.92 686.349 1046.39 656.074 1013.86 629.314C983.977 604.738 951.075 582.116 914.427 569.753C875.221 556.522 831.755 552.519 791.988 566.953C745.836 583.703 700.195 609.854 670.517 648.645C662.94 658.564 658.351 670.493 654.723 682.574C641.71 725.879 649.572 773.799 649.335 818.444C649.141 858.602 644.329 903.523 612.304 931.713C595.637 946.383 574.484 954.115 552.68 956.805C550.226 957.121 547.743 957.351 545.272 957.532C523.214 959.206 501.443 957.247 480.061 951.576C457.204 945.511 434.982 937.273 413.169 928.198C368.353 909.57 325.44 886.584 280.393 868.526C259.211 860.041 236.632 851.76 213.718 850.337C185.449 848.559 152.145 851.829 142.487 883.19C138.446 896.318 138.239 910.368 137.392 923.956C136.203 942.559 134.164 961.091 126.55 978.132C114.791 1004.46 86.0249 1016.05 59.6293 1023.01C25.4405 1032.04 -10.1654 1035.74 -45.2392 1039.72C-88.7538 1044.65 -132.247 1051.28 -175.748 1055.37C-214.443 1059.01 -252.244 1054.1 -290.207 1046.26C-306.969 1042.8 -323.718 1038.89 -340.745 1036.91C-355.137 1035.22 -370.507 1034.81 -384.18 1040.36" stroke="#184994" stroke-width="0.8" stroke-miterlimit="10"/>
<path d="M1914.94 783.83C1906.14 782.105 1896.62 782.976 1887.81 783.909C1856.65 787.251 1826.21 797.209 1797.07 807.749C1751.46 824.25 1716.08 866.912 1667.6 874.485C1646.17 877.829 1623.04 874.663 1601.55 870.754C1545.19 860.456 1488.87 852.435 1432.18 864.601C1414.39 868.418 1396.5 872.234 1378.81 876.472C1326.56 888.959 1261.56 903.824 1217.26 864.782C1199.54 849.17 1183.68 831.055 1168.06 813.166C1146.64 788.589 1125.72 763.49 1104.26 739.01C1076.97 707.836 1048.4 677.48 1016.95 650.324C987.703 625.05 955.536 601.65 919.595 587.53C880.338 572.128 837.456 565.254 796.479 579.39C773.714 587.243 751.37 596.867 730.842 609.635C709.897 622.686 687.722 639.25 675.402 660.399C669.06 671.306 665.733 683.836 662.931 696.27C652.848 741.017 660.998 788.356 660.08 833.872C659.245 874.068 651.704 917.285 617.234 942.61C599.215 955.839 576.991 961.574 554.993 963.317C552.467 963.51 549.899 963.664 547.368 963.776C525.162 964.622 502.601 962.766 481.121 956.964C459.127 951.024 437.649 943.249 416.574 934.661C372.5 916.705 330.329 894.391 286.144 876.748C265.409 868.461 243.364 860.35 220.957 858.8C192.557 856.829 160.726 860.493 151.022 891.631C146.847 905.066 146.369 919.437 144.944 933.319C143.037 952.045 139.698 970.519 130.796 987.056C117.423 1011.84 84.1252 1022.56 58.3627 1028.53C23.6227 1036.58 -12.1599 1040.16 -47.5367 1044.19C-90.465 1049.09 -133.249 1056.11 -176.126 1060.53C-214.481 1064.47 -251.984 1059.83 -289.626 1051.96C-305.951 1048.54 -322.262 1044.67 -338.811 1042.48C-352.997 1040.6 -368.217 1039.74 -381.872 1044.93" stroke="#184994" stroke-width="0.8" stroke-miterlimit="10"/>
<path d="M1915.88 796.66C1907.02 795.84 1897.77 797.339 1889.09 798.884C1858.21 804.327 1828.34 815.516 1799.36 826.731C1756.49 843.308 1719.58 878.637 1672.25 882.574C1650.45 884.369 1627.49 879.961 1605.93 876.217C1548.81 866.295 1490.65 859.569 1433.68 873.081C1415.77 877.34 1397.75 881.727 1379.98 886.654C1328.18 900.998 1262.98 918.887 1216.57 882.308C1198.41 867.972 1182.28 850.629 1166.73 833.309C1145.33 809.502 1124.89 784.769 1104.09 760.492C1053.38 701.26 996.753 637.657 924.473 605.494C885.337 588.071 842.985 578.235 800.92 592.106C756.74 606.7 702.051 629.087 682.139 673.387C676.889 685.034 674.571 698.019 672.4 710.753C664.656 756.205 672.809 802.939 670.745 848.806C668.946 889.06 658.055 930.828 620.956 952.502C601.644 963.78 578.658 967.837 556.618 968.753C554.007 968.87 551.385 968.931 548.8 968.95C526.841 969.072 503.691 967.349 482.408 961.599C461.101 955.843 440.239 948.522 419.748 940.406C376.579 923.298 335.306 901.856 292.175 884.706C271.739 876.578 250.038 868.558 227.997 866.921C212.251 865.759 194.842 865.599 180.355 873.011C169.501 878.552 162.782 888.411 159.177 899.815C149.3 931.012 155.235 968.626 133.813 995.259C115.59 1017.91 84.4106 1028.09 56.5863 1033.8C21.472 1040.98 -14.3843 1044.54 -49.948 1048.67C-92.1982 1053.6 -134.244 1061.11 -176.442 1065.84C-214.462 1070.11 -251.729 1065.66 -289.067 1057.74C-305.33 1054.29 -321.559 1050.31 -338.038 1047.95C-351.698 1045.98 -366.377 1044.87 -379.628 1049.53" stroke="#184994" stroke-width="0.8" stroke-miterlimit="10"/>
<path d="M1916.91 808.725C1908.07 808.701 1899.05 810.734 1890.51 812.738C1860.09 819.884 1830.82 831.89 1801.98 843.355C1761.24 859.554 1722.3 887.629 1677.17 888.654C1655.06 889.156 1632.47 884.452 1610.57 880.906C1552.66 871.482 1492.83 866.257 1435.69 881.672C1417.71 886.516 1399.63 891.598 1381.83 897.308C1329.74 914.046 1266.23 934.153 1217.01 900.24C1198.18 887.28 1181.58 870.651 1165.87 853.895C1144.27 830.85 1124.1 806.478 1103.82 782.339C1053.84 722.83 999.656 658.855 929.149 623.903C890.363 604.679 848.353 591.697 805.397 605.357C782.128 612.733 759.044 621.58 737.726 633.663C715.263 646.386 699.305 663.324 690.703 687.495C686.357 699.7 684.806 712.968 683.099 725.932C677.031 771.517 684.941 817.686 681.324 863.453C678.165 903.475 663.474 942.331 625.035 960.357C604.182 970.116 580.461 973.082 557.668 973.271C555.003 973.294 552.351 973.269 549.682 973.212C520.879 972.449 492.093 968.375 464.515 959.888C438.012 951.715 412.15 941.635 386.679 930.685C360.308 919.363 334.384 907.056 307.858 896.114C284.653 886.534 260.021 876.678 234.89 874.687C219.447 873.475 202.321 873.338 188.149 880.754C177.342 886.414 170.744 896.411 167.041 907.788C156.616 939.654 160.791 977.455 135.863 1002.73C114.906 1023.99 83.1231 1032.98 54.3847 1038.76C19.2722 1045.83 -16.7917 1048.89 -52.29 1053.18C-93.8081 1058.22 -135.042 1066.24 -176.474 1071.25C-214.203 1075.81 -251.299 1071.51 -288.383 1063.53C-304.258 1060.1 -320.044 1056.14 -336.093 1053.55C-349.539 1051.37 -364.076 1049.82 -377.296 1054.07" stroke="#184994" stroke-width="0.8" stroke-miterlimit="10"/>
<path d="M1918.07 819.955C1909.3 820.635 1900.55 823.03 1892.13 825.406C1862.46 833.779 1833.93 846.038 1805.06 856.546C1764.67 871.259 1726.38 894.116 1682.26 893.543C1660 893.24 1637.53 888.754 1615.45 885.42C1556.76 876.607 1495.44 872.93 1438.25 890.699C1420.22 896.294 1402.1 902.128 1384.39 908.728C1331.2 928.568 1271.65 949.548 1218.95 918.679C1199.33 907.191 1181.98 891.364 1165.88 875.132C1143.82 852.912 1123.67 828.837 1103.71 804.783C1054.19 745.133 1002.43 680.464 933.562 642.926C895.413 622.109 853.414 605.841 809.772 619.211C786.749 626.259 762.069 633.889 741.449 646.711C720.579 659.677 707.576 679.538 700.925 702.52C697.301 715.076 696.314 728.495 694.852 741.63C686.657 815.908 719.351 933.314 627.779 967.327C605.711 975.525 581.513 977.521 558.146 977.003C555.451 976.94 552.739 976.846 550.04 976.702C521.773 975.214 492.912 971.226 465.693 963.072C439.885 955.348 414.611 945.925 389.74 935.583C363.969 924.869 338.604 913.133 312.725 902.627C290.05 893.426 266.071 883.981 241.568 882.001C226.391 880.78 209.561 880.722 195.678 888.138C184.869 893.902 178.379 904.086 174.504 915.417C169.76 929.304 167.944 944.054 164.576 958.31C162.475 967.142 159.925 975.881 156.462 984.296C152.196 994.627 145.456 1002.4 137.067 1009.55C113.777 1029.39 81.4674 1037.8 51.7513 1043.4C16.6277 1050.02 -19.2037 1053.19 -54.6137 1057.74C-95.3393 1062.97 -135.719 1071.53 -176.353 1076.81C-213.853 1081.69 -250.833 1077.45 -287.668 1069.33C-303.523 1065.82 -319.269 1061.71 -335.266 1058.93C-348.187 1056.66 -362.182 1054.86 -375.017 1058.55" stroke="#184994" stroke-width="0.8" stroke-miterlimit="10"/>
<path d="M1919.26 830.723C1910.64 831.887 1902.11 834.526 1893.84 837.101C1865.01 846.069 1836.99 857.621 1808.46 867.351C1768.43 881.004 1730.56 898.971 1687.41 897.896C1665.06 897.333 1642.62 893.433 1620.43 890.388C1560.97 882.233 1498.44 880.102 1441.39 900.593C1423.39 907.064 1405.27 913.712 1387.68 921.319C1361.19 932.754 1334.53 944.249 1305.64 948.122C1277.71 951.857 1249.24 948.473 1223.73 936.801C1174.64 914.372 1138.02 869.045 1104.13 828.185C1054.62 768.511 1005.11 702.893 937.748 662.888C900.435 640.717 858.13 620.972 814.018 634.032C791.346 640.752 767.61 647.609 748.227 661.709C729.005 675.695 718.186 695.957 712.66 718.371C709.52 731.083 708.903 744.602 707.569 757.745C703.049 802.165 709.807 847.525 701.517 891.673C697.811 911.418 690.486 930.72 676.695 945.659C663.903 959.524 647.048 968.407 629.051 973.589C606.146 980.195 581.801 981.362 558.161 980.192C555.431 980.066 552.689 979.885 549.979 979.686C521.526 977.517 492.208 973.169 464.728 965.103C440.225 957.913 416.164 949.367 392.457 939.89C367.899 930.053 343.765 919.225 319.176 909.406C296.486 900.359 272.494 890.963 248.065 889.003C232.962 887.802 216.234 887.851 202.576 895.511C191.98 901.464 185.637 911.687 181.623 922.849C176.614 936.744 174.273 951.486 170.265 965.675C167.683 974.826 164.856 984.701 160.173 993.052C154.976 1002.24 145.907 1009.86 137.615 1015.96C112.348 1034.54 79.6572 1042.5 49.0354 1048.04C14.0464 1054.36 -21.5214 1057.62 -56.6959 1062.47C-96.5929 1067.95 -136.051 1077.1 -175.85 1082.6C-213.188 1087.77 -250.088 1083.52 -286.772 1075.23C-302.281 1071.71 -317.651 1067.57 -333.267 1064.54C-346.031 1062.08 -359.877 1059.82 -372.673 1063.07" stroke="#184994" stroke-width="0.8" stroke-miterlimit="10"/>
<path d="M1920.53 841.138C1912.1 842.644 1903.82 845.349 1895.69 847.989C1867.63 857.03 1840.21 867.821 1812.08 876.634C1791 883.226 1770.26 891.15 1748.78 896.293C1730.33 900.698 1711.49 902.629 1692.58 902.382C1670.13 902.083 1647.74 899.195 1625.44 896.437C1565.24 888.98 1501.81 888.184 1445.1 911.715C1427.22 919.137 1409.35 926.881 1391.85 935.223C1341.49 959.217 1286.61 971.524 1232.75 952.37C1181.05 933.98 1140.23 894.133 1105.42 852.684C1055.42 793.144 1007.81 726.324 941.698 683.917C905.33 660.577 862.473 637.185 817.966 649.955C796.927 655.981 775.361 664.76 758.019 678.512C739.939 692.857 730.52 713.098 725.627 734.919C722.777 747.63 722.326 761.114 720.957 774.194C717.948 802.546 718.998 831.273 717.27 859.757C715.664 886.011 711.962 913.809 697.299 936.331C667.924 981.466 606.397 986.523 557.662 983.03C554.927 982.824 552.143 982.605 549.421 982.35C496.112 977.16 444.682 962.788 394.75 943.607C370.621 934.332 346.897 924.035 322.812 914.693C300.896 906.195 277.763 897.424 254.239 895.627C239.332 894.479 222.903 894.687 209.497 902.387C198.862 908.488 192.523 918.896 188.261 930.097C182.889 944.264 179.941 959.211 175.177 973.567C172.055 982.968 168.801 992.57 162.462 1000.32C155.387 1008.95 146.71 1016 137.439 1022.02C110.532 1039.45 77.5363 1047.17 46.1251 1052.7C11.3983 1058.83 -23.8568 1062.21 -58.704 1067.41C-97.7185 1073.23 -136.23 1082.97 -175.156 1088.65C-212.388 1094.11 -249.311 1089.75 -285.849 1081.21C-301.381 1077.58 -316.785 1073.27 -332.378 1069.96C-344.634 1067.37 -357.964 1064.85 -370.424 1067.54" stroke="#184994" stroke-width="0.8" stroke-miterlimit="10"/>
<path d="M1921.84 851.072C1913.62 852.871 1905.59 855.562 1897.59 858.185C1870.33 867.098 1843.42 877.077 1815.8 884.869C1795.15 890.71 1774.71 897.449 1753.66 901.76C1735.17 905.547 1716.37 907.226 1697.54 907.659C1674.98 908.172 1652.63 906.875 1630.21 904.4C1569.4 897.648 1505.34 897.896 1449.25 924.618C1432.36 932.65 1415.12 940.219 1398 947.845C1374.87 958.153 1350.81 966.817 1325.67 970.746C1298.61 974.976 1271.26 973.128 1245.04 965.742C1191.89 950.725 1147.47 915.863 1109.43 876.654C1054.79 820.292 1010.85 751.27 945.498 706.304C925.178 692.339 903.68 678.743 880.137 670.52C862.495 664.35 841.796 660.941 823.949 667.927C805.425 675.178 786.227 684.355 770.569 696.927C753.068 710.978 744.408 730.844 739.734 752.04C736.942 764.634 736.531 777.971 734.949 790.863C731.531 818.579 731.782 846.75 728.596 874.581C725.677 900.141 719.682 926.667 702.599 946.725C667.968 987.402 605.954 990.249 556.768 985.688C554.021 985.426 551.25 985.158 548.499 984.816C496.611 978.743 445.729 964.781 396.684 946.811C373.602 938.343 350.919 928.877 327.914 920.219C306.203 912.039 283.337 903.55 260.094 901.881C245.241 900.826 228.872 901.208 215.659 909.171C205.174 915.495 198.888 925.997 194.443 937.096C188.564 951.785 184.922 967.257 179.25 982.054C175.493 991.864 171.033 999.775 163.66 1007.35C155.742 1015.5 146.492 1022.13 136.765 1027.79C108.548 1044.21 75.2957 1051.8 43.2293 1057.43C8.84322 1063.46 -25.9878 1066.93 -60.4226 1072.55C-98.5186 1078.78 -135.986 1089.14 -174.05 1094.95C-211.293 1100.64 -248.298 1096.1 -284.758 1087.27C-300.184 1083.53 -315.443 1079.08 -330.908 1075.49C-342.859 1072.74 -355.85 1069.84 -368.123 1072.03" stroke="#184994" stroke-width="0.8" stroke-miterlimit="10"/>
<path d="M1923.23 860.573C1888.23 869.469 1854.71 883.599 1819.65 892.45C1799.35 897.57 1779.2 903.333 1758.62 907.221C1740.05 910.723 1721.26 912.667 1702.46 914.186C1679.75 916.028 1657.45 917.112 1634.78 914.885C1605.15 911.982 1575.01 910.623 1545.25 913.236C1513.22 916.058 1483.46 925.17 1454.21 938.286C1438.36 945.385 1422.09 951.478 1406.06 958.185C1384.21 967.336 1361.69 975.336 1338.26 979.38C1312.12 983.909 1285.66 982.957 1259.91 977.17C1206.19 965.054 1159.95 935.045 1119.19 898.609C1088.76 871.384 1061.28 840.873 1033.63 810.735C1007.49 782.238 980.994 753.278 949.735 730.517C929.892 716.047 908.985 701.715 885.934 692.544C870.137 686.263 850.665 681.42 834.642 688.473C818.054 695.769 800.29 705.487 785.576 716.601C768.095 729.79 759.881 748.774 754.777 769.513C751.754 781.888 751.297 795.002 749.357 807.561C743.198 847.78 745.572 892.309 726.662 929.614C708.136 966.181 668.635 982.764 629.924 988.139C605.32 991.553 580.177 990.98 555.564 988.234C552.806 987.917 550.048 987.6 547.303 987.233C496.674 980.392 446.54 966.393 398.327 949.54C376.085 941.771 354.241 933.003 332.096 924.97C310.766 917.234 288.483 909.322 265.695 907.722C251.174 906.704 235.132 907.436 222.324 915.165C211.552 921.676 205.045 932.513 200.251 943.835C193.962 958.677 189.659 974.262 183.345 989.098C174.715 1009.34 154.377 1023.37 135.709 1033.32C76.0924 1065.07 3.76249 1066.24 -61.7172 1078C-98.8276 1084.67 -135.296 1095.43 -172.388 1101.74C-209.512 1108.07 -247.144 1102.62 -283.493 1093.47C-298.658 1089.65 -313.657 1085.11 -328.816 1081.26C-340.645 1078.25 -353.493 1074.92 -365.8 1076.55" stroke="#184994" stroke-width="0.8" stroke-miterlimit="10"/>
<path d="M1924.64 869.841C1890.77 879.539 1857.96 892.072 1823.53 899.854C1803.52 904.368 1783.64 909.415 1763.48 913.254C1744.76 916.821 1725.86 919.553 1707.04 922.594C1684.51 926.222 1661.55 931.099 1638.71 928.882C1578.15 922.96 1517.88 927.169 1460.72 949.736C1445.71 955.665 1430.38 960.824 1415.38 966.784C1394.73 974.993 1373.64 982.504 1351.75 986.802C1326.73 991.738 1301.34 991.729 1276.37 987.256C1223.11 977.738 1175.82 952.052 1133.42 918.888C1101.44 893.882 1072.34 865.224 1043.69 836.371C1016.4 808.909 989.446 780.484 958.693 757.016C939.347 742.259 919.159 727.408 896.82 717.244C882.789 710.857 864.414 704.57 849.525 711.716C841.038 715.786 832.976 720.733 824.65 725.189C817.245 729.154 809.678 732.839 802.651 737.457C784.699 749.257 776.206 767.22 770.613 787.327C767.276 799.302 766.51 812.097 764.095 824.266C756.414 862.893 756.221 907.077 732.98 940.802C709.984 974.198 668.359 988.003 629.727 992.294C604.634 995.076 579.164 994.153 554.194 990.969C551.443 990.628 548.704 990.237 545.948 989.815C496.391 982.313 447.27 967.77 399.714 951.908C378.324 944.788 357.265 936.73 335.979 929.322C315.079 922.044 293.251 914.596 271.008 913.221C256.584 912.333 240.882 913.367 228.271 921.149C217.384 927.892 210.731 938.98 205.614 950.425C198.922 965.397 195.133 982.698 186.496 996.675C174.716 1015.71 153.766 1029.07 134.283 1038.72C73.6274 1068.75 2.91827 1070.74 -62.6133 1083.78C-98.7266 1090.95 -134.161 1102.97 -170.392 1109.01C-207.914 1115.25 -245.623 1109.21 -282.206 1099.66C-297.29 1095.72 -312.158 1091.09 -327.157 1086.94C-338.749 1083.73 -351.246 1080.07 -363.413 1081.08" stroke="#184994" stroke-width="0.8" stroke-miterlimit="10"/>
<path d="M1926.08 878.941C1893.39 889.429 1861.08 900.49 1827.37 907.359C1788.66 915.262 1749.56 923.269 1711.38 933.178C1688.83 939.038 1665.66 947.6 1642.28 945.971C1612.98 943.918 1583.5 940.474 1553.77 942.094C1524.65 943.67 1496.11 949.423 1468.6 958.955C1454.32 963.921 1439.78 968.372 1425.69 973.731C1406.11 981.174 1386.26 988.49 1365.74 993.132C1341.93 998.519 1317.73 999.541 1293.66 996.231C1241.67 989.076 1193.91 966.978 1150.85 937.373C1086.22 892.943 1032.79 834.326 972.691 784.292C953.727 768.506 933.778 752.561 911.312 741.89C898.467 735.794 881.22 729.519 867.533 736.697C852.371 744.665 836.432 751.109 821.294 759.083C802.566 768.964 793.291 785.718 786.839 805.2C783.053 816.687 781.788 829.085 778.771 840.75C769.07 878.074 765.381 921.059 737.85 950.846C709.911 981.077 667.503 992.988 627.689 996.383C602.693 998.508 577.401 997.317 552.596 993.809C549.883 993.424 547.126 993.002 544.426 992.569C495.76 984.49 447.853 968.956 400.862 953.93C380.296 947.372 360.002 939.993 339.508 933.165C319.039 926.344 297.684 919.391 275.998 918.297C261.534 917.557 245.926 918.931 233.469 927.018C222.633 934.064 215.903 945.341 210.552 956.777C203.258 972.324 198.77 990.175 187.895 1003.66C173.325 1021.71 153.375 1034.29 132.67 1043.98C71.5325 1072.56 2.25743 1075.49 -62.9019 1089.89C-98.205 1097.68 -132.803 1110.6 -168.272 1116.45C-205.967 1122.65 -244.122 1116.01 -280.849 1105.81C-295.768 1101.66 -310.492 1096.88 -325.352 1092.51C-336.75 1089.17 -348.87 1085.08 -360.922 1085.46" stroke="#184994" stroke-width="0.8" stroke-miterlimit="10"/>
<path d="M1927.52 888.009C1896.02 899.287 1864.07 909.103 1831.15 915.369C1791.91 922.812 1752.61 932.426 1715.31 946.493C1703.78 950.852 1692.38 956.169 1680.29 958.934C1669.24 961.476 1657.83 962.106 1646.6 960.914C1617.46 957.852 1588.73 953.163 1559.28 953.647C1531.52 954.11 1503.85 958.256 1477.34 966.424C1463.68 970.636 1449.82 974.555 1436.43 979.525C1417.75 986.472 1398.99 993.818 1379.64 998.929C1357.05 1004.88 1334.06 1006.99 1310.92 1004.72C1260.75 999.788 1213.06 980.416 1170.15 954.378C1104.62 914.576 1049.63 860.225 990.493 811.897C971.402 796.287 951.601 780.382 929.447 769.136C917.648 763.162 900.66 755.825 887.842 762.999C873.014 771.293 856.843 775.359 841.118 781.492C821.434 789.143 811.003 804.219 803.313 823.213C798.933 834.067 797.015 846.053 793.243 857.095C780.765 893.78 772.723 932.969 741.808 959.666C709.966 987.169 666.468 997.84 625.376 1000.6C600.529 1002.27 575.492 1000.91 550.914 997.146C548.207 996.737 545.513 996.279 542.819 995.821C494.815 987.234 448.319 970.263 401.762 955.879C381.972 949.766 362.402 943.028 342.676 936.774C322.637 930.41 301.754 923.952 280.618 923.163C266.385 922.642 251.204 924.289 239.008 932.287C227.804 939.63 220.795 951.359 215.012 963.126C207.099 979.218 201.724 995.858 189.541 1009.41C173.469 1027.27 152.454 1039.69 130.799 1049.4C69.6873 1076.8 1.73959 1080.77 -62.697 1096.6C-97.3522 1105.11 -131.111 1118.73 -166.211 1124.29C-204.279 1130.31 -242.715 1123.15 -279.573 1112.26C-294.426 1107.86 -309.096 1102.78 -323.839 1098.07C-334.969 1094.51 -346.73 1090.36 -358.536 1090.02" stroke="#184994" stroke-width="0.8" stroke-miterlimit="10"/>
<path d="M1928.94 897.126C1898.62 909.3 1866.9 918.151 1834.83 924.117C1794.22 931.668 1755.82 945.31 1718.9 962.689C1697.72 972.678 1675.11 976.205 1651.77 973.14C1623.22 969.367 1594.78 963.492 1565.73 962.978C1539.11 962.511 1512.32 965.42 1486.65 972.522C1473.46 976.175 1460.17 979.721 1447.4 984.46C1408.22 999.027 1370.18 1015.58 1327.55 1013.09C1279.44 1010.29 1232.38 992.878 1190.21 970.064C1124.91 934.743 1069.07 885.009 1011.01 839.177C991.688 823.927 971.944 808.301 950.041 796.806C938.894 790.954 922.047 782.892 909.713 789.932C894.838 798.398 878.009 800.103 861.664 804.228C841.083 809.429 829.079 822.61 819.769 841.065C814.662 851.198 811.931 862.677 807.32 873.021C799.62 890.381 792.943 908.54 783.502 925.223C773.675 942.566 760.251 956.92 743.928 968.339C709.048 992.739 665.249 1002.57 623.305 1004.97C598.58 1006.38 573.668 1004.95 549.247 1000.99C546.571 1000.56 543.908 1000.09 541.277 999.593C493.792 990.54 448.782 971.755 402.601 957.736C383.564 951.956 364.663 945.765 345.613 940.034C325.98 934.121 305.571 928.158 284.978 927.699C270.797 927.376 255.899 929.441 243.886 937.541C232.478 945.25 225.248 957.314 219.11 969.329C215.222 976.972 211.774 984.838 207.977 992.532C203.759 1001.11 197.071 1008.69 190.342 1015.44C172.97 1032.84 151.218 1045.07 128.879 1054.78C97.8043 1068.3 64.5039 1076.57 31.3878 1083.76C0.506257 1090.47 -31.5758 1095.17 -61.7481 1103.75C-95.5706 1113.38 -129.053 1127.05 -164.042 1132.29C-202.464 1138.06 -241.237 1130.39 -278.181 1118.74C-292.987 1114.06 -307.584 1108.71 -322.24 1103.57C-333.168 1099.75 -344.61 1095.3 -356.231 1094.26" stroke="#184994" stroke-width="0.8" stroke-miterlimit="10"/>
<path d="M1930.37 906.375C1901.27 919.586 1869.6 927.791 1838.39 933.857C1818.86 937.658 1799.62 943.165 1781.15 950.615C1761.15 958.656 1742.96 971.05 1723 978.364C1701.87 986.103 1679.83 987.124 1657.6 983.332C1629.51 978.548 1601.45 971.934 1572.76 970.544C1547.09 969.303 1521.09 971.238 1496.15 977.588C1483.33 980.84 1470.46 984.184 1458.14 988.888C1420.65 1003.17 1383.54 1020.28 1342.77 1021.82C1323.23 1022.56 1303.49 1019.1 1284.69 1013.72C1258.89 1006.37 1233.81 996.626 1209.81 984.887C1145.55 953.449 1091.03 907.147 1033.05 865.812C1013.62 851.954 994.135 837.633 973.113 826.19C962.244 820.281 944.628 810.276 932.267 817.02C916.982 825.349 899.304 825.012 882.413 827.148C874.075 828.206 865.815 830.152 858.478 834.452C848.707 840.178 841.833 849.338 835.863 858.66C829.917 867.99 826.209 878.892 820.698 888.469C811.358 904.678 802.744 921.714 791.228 936.71C778.943 952.711 762.877 965.726 745.569 975.908C708.418 997.779 664.298 1007.23 621.585 1009.56C596.879 1010.9 571.996 1009.55 547.628 1005.4C545.008 1004.96 542.376 1004.46 539.776 1003.95C492.607 994.51 449.124 973.555 403.269 959.597C385.085 954.072 366.965 948.406 348.709 943.151C329.348 937.6 309.172 932.041 288.931 931.939C274.629 931.874 259.822 934.384 247.952 942.838C236.537 950.966 229.123 963.323 222.729 975.506C218.661 983.233 215.389 991.62 210.459 998.826C204.695 1007.28 197.716 1014.97 190.158 1021.87C171.766 1038.65 149.611 1050.62 126.902 1060.33C67.3196 1085.85 1.88591 1093.7 -59.9875 1111.56C-93.9608 1121.36 -126.731 1135.62 -161.809 1140.59C-200.627 1146.07 -239.717 1137.82 -276.772 1125.4C-291.554 1120.44 -306.066 1114.77 -320.628 1109.19C-331.397 1105.07 -342.47 1100.31 -353.925 1098.56" stroke="#184994" stroke-width="0.8" stroke-miterlimit="10"/>
<path d="M1931.75 915.85C1903.88 930.26 1872.14 938.211 1841.76 944.815C1822.08 949.1 1802.92 955.786 1784.88 964.877C1765.8 974.506 1748.31 986.455 1727.66 992.007C1706.67 997.651 1685.11 996.67 1663.81 992.178C1636.15 986.353 1608.43 979.066 1580.06 976.893C1555.2 974.975 1529.79 976.174 1505.54 982.023C1492.98 985.058 1480.39 988.344 1468.43 993.116C1431.73 1007.79 1396.09 1027.44 1356.06 1031.38C1337.43 1033.21 1318.39 1030.58 1300.29 1025.84C1275.47 1019.33 1251.06 1009.93 1227.81 999.337C1165.73 971.062 1111.81 929.499 1055.47 891.497C1035.91 878.315 1016.45 864.555 995.632 853.35C984.677 847.47 967.239 837.487 954.749 843.828C938.765 851.917 920.169 849.703 902.777 849.968C893.764 850.108 884.656 851.091 876.307 854.751C866.043 859.267 858.232 867.307 851.319 875.825C844.45 884.275 839.6 894.529 833.11 903.239C821.908 918.24 811.125 934.038 797.475 947.173C782.12 961.957 764.181 974.102 745.115 983.577C706.092 1003 661.822 1012.23 618.479 1014.55C594.311 1015.84 569.969 1014.64 546.131 1010.47C543.567 1010.02 540.984 1009.54 538.439 1009.02C491.418 999.219 449.474 975.861 403.889 961.58C386.138 956.013 368.316 950.611 350.381 945.731C331.61 940.627 312.042 935.653 292.467 935.913C278.494 936.094 264.206 938.927 252.629 947.17C240.565 955.756 232.726 968.815 225.823 981.625C221.344 989.899 217.27 997.94 211.43 1005.4C205.066 1013.54 197.845 1020.95 189.969 1027.66C170.632 1044.14 147.941 1056.14 124.779 1065.97C66.2505 1090.8 2.4012 1099.82 -57.6709 1119.89C-91.2048 1131.1 -124.626 1144.44 -159.735 1149.05C-198.96 1154.18 -238.368 1145.34 -275.544 1132.1C-290.297 1126.83 -304.748 1120.83 -319.192 1114.81C-329.801 1110.39 -340.561 1105.35 -351.806 1102.82" stroke="#184994" stroke-width="0.8" stroke-miterlimit="10"/>
<path d="M1933.1 925.556C1906.51 941.387 1874.5 949.555 1844.97 957.123C1824.8 962.275 1806.32 970.934 1788.34 981.463C1771.01 991.614 1752.62 1000.72 1732.82 1004.21C1711.8 1007.89 1690.89 1005.48 1670.27 1000.3C1619.19 987.449 1567.3 973.741 1514.59 986.264C1502.16 989.227 1489.71 992.578 1478 997.575C1441.43 1013.23 1406.75 1035.61 1366.85 1042.29C1324.49 1049.38 1281.16 1030.91 1243.21 1014.07C1184.19 987.848 1131.7 950.563 1077.33 916.01C1057.78 903.593 1038.42 890.488 1017.88 879.701C1006.56 873.778 989.44 864.195 976.539 870.004C959.749 877.562 940.11 873.937 922.34 872.47C913.07 871.699 903.628 871.671 894.599 874.228C883.339 877.451 874.205 884.532 865.945 892.479C858.111 900.013 851.966 909.499 844.423 917.322C830.744 931.45 817.054 945.521 801.208 957.516C783.714 970.754 764.713 981.852 744.579 990.594C704.225 1008.11 659.879 1017.42 616.057 1020.06C592.324 1021.49 568.415 1020.54 545.022 1016.39C542.506 1015.95 540.004 1015.46 537.515 1014.93C512.298 1009.52 488.329 1000.24 464.776 989.695C444.89 980.794 425.411 970.764 404.69 963.902C387.281 958.137 369.698 952.825 351.949 948.232C333.733 943.514 314.723 939.109 295.815 939.732C281.682 940.212 267.491 943.571 256.024 952.186C243.896 961.308 235.878 974.74 228.693 987.816C206.089 1028.9 164.783 1054 122.918 1071.84C92.3385 1084.89 60.1739 1094.23 28.0898 1103.17C0.10144 1110.97 -27.3815 1119.53 -54.8634 1128.78C-88.6218 1140.14 -122.099 1153.49 -157.43 1157.74C-197.081 1162.5 -236.83 1153.07 -274.091 1138.96C-288.814 1133.39 -303.229 1127.06 -317.572 1120.56C-328.041 1115.81 -338.519 1110.51 -349.522 1107.17" stroke="#184994" stroke-width="0.8" stroke-miterlimit="10"/>
<path d="M1934.41 935.615C1909.1 953.077 1876.75 961.998 1847.95 970.971C1809.99 982.784 1778.8 1011.41 1738.21 1015.52C1717.35 1017.64 1696.82 1014.09 1676.75 1008.25C1626.86 993.711 1575.13 978.101 1523.01 990.701C1510.57 993.713 1498.15 997.255 1486.55 1002.62C1449.41 1019.84 1416.02 1048.69 1374.56 1055.07C1332.4 1061.54 1292.94 1047.4 1254.92 1029.83C1199.82 1004.37 1149.51 970.486 1097.51 939.252C1078.12 927.615 1059.02 915.211 1038.85 904.917C1027.01 898.881 1010.35 890.026 996.813 895.166C979 901.924 958.647 897.423 940.448 894.315C930.755 892.667 920.835 891.67 911.082 893.296C899.145 895.311 888.832 901.287 879.272 908.386C870.375 914.978 862.856 923.597 854.2 930.464C820.24 957.425 784.294 981.381 743.374 997.269C701.957 1013.34 657.317 1022.97 613.017 1026.11C590.077 1027.73 566.908 1027.16 544.24 1023.15C541.805 1022.71 539.352 1022.23 536.912 1021.71C511.991 1016.28 488.524 1006.5 465.648 995.296C445.818 985.593 426.419 974.085 405.628 966.599C388.657 960.477 371.364 955.164 353.852 950.766C336.021 946.282 317.336 942.334 298.878 943.34C284.716 944.128 270.739 947.965 259.447 956.811C246.794 966.713 239.404 980.656 231.201 994.091C206.524 1034.46 163.309 1059.71 121.185 1077.93C91.0252 1090.99 59.4646 1100.72 27.9793 1110.37C14.0995 1114.63 0.19501 1118.88 -13.5444 1123.6C-26.5268 1128.05 -39.0353 1133.67 -52.0112 1138.09C-85.8402 1149.62 -119.635 1162.78 -155.137 1166.59C-195.225 1170.91 -235.31 1160.87 -272.68 1145.89C-298.12 1135.71 -321.79 1121.38 -347.272 1111.45" stroke="#184994" stroke-width="0.8" stroke-miterlimit="10"/>
<path d="M1935.65 946.027C1930.02 950.546 1923.58 954.163 1917.26 957.604C1896.02 969.182 1873.12 977.761 1850.72 986.397C1815 1000.15 1783.47 1024.82 1743.75 1026.42C1722.99 1027.26 1702.78 1023.01 1683.1 1016.58C1634.17 1000.56 1582.42 982.737 1530.62 995.817C1518 998.993 1505.5 1002.83 1493.93 1008.68C1455.55 1028.06 1421.75 1061.12 1378.68 1070.17C1361.58 1073.78 1343.62 1074.5 1326.24 1071.79C1303.34 1068.24 1282.3 1058.13 1261.97 1047.56C1211.58 1021.42 1164.29 989.626 1115.07 961.293C1096.09 950.372 1077.46 938.648 1057.79 928.936C1045.28 922.772 1029.11 914.758 1014.92 919.171C995.647 925.196 975.418 919.149 956.327 915.144C946.284 913.035 936.301 910.994 925.952 911.698C913.332 912.53 901.921 917.397 891.07 923.518C881.09 929.136 872.095 936.781 862.302 942.685C823.316 966.196 783.977 989.06 740.577 1004.28C698.863 1018.91 654.728 1028.91 610.669 1032.83C588.451 1034.8 565.972 1034.7 544.009 1030.9C541.641 1030.51 539.268 1030.03 536.902 1029.53C512.24 1024.11 489.281 1013.81 467.002 1001.95C447.101 991.332 427.698 978.559 406.828 969.894C390.27 963.015 372.972 957.621 355.588 953.336C338.105 949.025 319.741 945.452 301.64 946.896C287.571 948.024 273.963 952.25 262.855 961.198C249.735 971.764 242.478 986.584 232.966 1000.09C205.081 1039.76 163.08 1065.09 119.569 1084.37C89.9451 1097.49 59.0621 1107.64 28.3477 1118.05C15.0933 1122.53 1.72929 1126.93 -11.2244 1132.25C-23.8865 1137.46 -36.148 1143.44 -49.1305 1147.89C-83.0349 1159.5 -117.201 1172.38 -152.851 1175.76C-193.393 1179.61 -233.831 1168.92 -271.279 1153.06C-296.765 1142.26 -320.225 1127.93 -345.037 1115.89" stroke="#184994" stroke-width="0.8" stroke-miterlimit="10"/>
<path d="M1936.86 956.85C1931.49 961.861 1925.13 965.948 1918.93 969.841C1898.25 982.779 1875.8 993.714 1853.34 1003.18C1819.16 1017.55 1787.08 1037.23 1749.31 1037.41C1728.83 1037.5 1708.63 1032.73 1689.27 1025.81C1641.03 1008.56 1589.08 988.255 1537.33 1002.03C1524.4 1005.47 1511.67 1009.69 1500 1016.12C1480.46 1026.84 1462.5 1040.76 1444.14 1053.59C1424.27 1067.43 1402.85 1078.51 1379.18 1083.65C1361.97 1087.38 1343.94 1088.74 1326.28 1087.06C1303.98 1084.94 1283.81 1077.48 1264.23 1067.03C1240.75 1054.46 1218.88 1038.92 1196.56 1024.26C1174.39 1009.7 1152.08 995.305 1129.02 982.238C1110.78 971.908 1092.86 960.77 1073.95 951.656C1061.02 945.404 1044.86 938.106 1030.22 941.871C1009.76 947.105 989.259 940.116 969.512 934.725C959.504 931.994 949.228 929.375 938.777 929.183C925.52 928.95 913.074 932.671 900.989 937.699C889.76 942.377 879.156 948.854 868.141 954.011C825.228 974.102 783.639 996.127 738.296 1010.94C696.351 1024.66 652.558 1035.25 608.654 1040.26C587.31 1042.7 565.665 1043.23 544.42 1039.7C542.101 1039.31 539.795 1038.88 537.558 1038.39C489.805 1028.08 451.127 996.646 408.545 974.195C392.813 965.905 374.955 960.441 357.756 956.153C340.434 951.832 322.12 948.562 304.204 950.397C289.771 951.902 276.095 956.873 265.033 966.438C252.225 977.509 244.597 992.73 234.527 1006.06C204.86 1045.3 162.355 1070.95 118.306 1091.05C89.34 1104.27 59.215 1114.84 29.3876 1126.07C16.4784 1130.93 3.79527 1135.93 -8.55478 1142.04C-20.7491 1148.07 -33.2182 1153.54 -46.0892 1157.97C-80.0937 1169.65 -114.648 1182.11 -150.407 1185.02C-220.906 1190.75 -283.691 1155.08 -342.679 1120.26" stroke="#184994" stroke-width="0.8" stroke-miterlimit="10"/>
<path d="M1938.01 968.103C1932.88 973.679 1926.61 978.316 1920.5 982.759C1900.56 997.183 1878.95 1010.06 1856.15 1019.3C1822.84 1032.83 1791.26 1049.61 1754.67 1048.84C1734.26 1048.4 1714.12 1043.59 1694.96 1036.3C1647.17 1018.17 1594.71 995.155 1542.85 1009.8C1529.47 1013.59 1516.38 1018.24 1504.48 1025.34C1484.02 1037.55 1465.9 1053.73 1445.78 1066.73C1425.16 1080.06 1402.66 1089.96 1378.66 1094.74C1340.04 1102.45 1299.16 1100.07 1263.5 1082.55C1240.96 1071.46 1219.63 1058.12 1199.13 1043.45C1179.18 1029.19 1159.61 1014.58 1138.42 1002.2C1121.3 992.196 1104.39 981.537 1086.48 972.903C1072.98 966.395 1057.18 960.058 1041.95 962.956C1020.36 967.098 999.86 959.61 979.563 952.835C969.632 949.519 959.426 946.445 948.933 945.426C935.133 944.074 921.674 946.761 908.577 950.65C895.939 954.398 883.804 960.202 871.488 965.011C825.843 982.818 781.527 1003.43 734.548 1017.96C692.82 1030.87 649.792 1042.14 606.514 1048.45C586.297 1051.4 565.826 1052.56 545.541 1049.47C543.314 1049.14 541.107 1048.73 538.912 1048.27C490.585 1038.34 452.132 1003.81 410.611 979.458C394.729 970.154 377.149 963.553 359.351 958.947C342.314 954.545 324.131 951.572 306.546 953.839C292.182 955.678 278.801 961.122 267.964 970.827C254.912 982.516 246.674 998.443 235.805 1012.01C204.627 1050.9 161.737 1076.99 117.285 1098.02C89.0753 1111.36 59.7755 1122.38 30.9825 1134.47C5.89733 1144.99 -17.1997 1159.49 -43.0155 1168.31C-77.1181 1179.97 -112.078 1191.98 -147.995 1194.4C-217.663 1199.09 -284.524 1164.09 -340.376 1124.64" stroke="#184994" stroke-width="0.8" stroke-miterlimit="10"/>
<path d="M1939.09 979.79C1934.17 985.973 1927.99 991.265 1921.95 996.308C1902.95 1012.22 1882.25 1025.55 1859.21 1034.64C1826.59 1047.52 1795.43 1062.07 1759.83 1061.04C1739.43 1060.45 1719.24 1055.94 1700.15 1048.46C1652.57 1029.85 1599.3 1004.07 1547.19 1019.57C1533.17 1023.74 1519.62 1028.93 1507.33 1036.79C1486.84 1049.91 1468.5 1066.5 1447.22 1078.86C1425.59 1091.41 1402.16 1100.17 1377.56 1104.26C1339.68 1110.57 1295.98 1110 1260.41 1094.01C1238.84 1084.32 1218.03 1073.06 1198.26 1059.98C1179.41 1047.49 1161.45 1033.68 1142.37 1021.57C1126.73 1011.63 1111.3 1001.13 1094.66 992.883C1080.76 986.005 1065.21 980.499 1049.53 982.538C1026.99 985.505 1006.73 977.713 986.12 969.539C976.365 965.665 966.413 962.133 956.012 960.375C941.601 957.965 927.22 959.668 913.166 962.906C899.644 966.023 886.432 971.328 873.211 975.684C825.417 991.39 778.884 1010.64 730.598 1025.14C689.44 1037.49 647.585 1049.5 605.341 1057.45C586.266 1061.06 566.867 1063.02 547.531 1060.42C545.395 1060.14 543.261 1059.75 541.158 1059.35C492.153 1049.78 453.775 1011.83 413.093 985.624C383.433 966.527 344.515 951.925 308.683 957.36C294.387 959.533 281.294 965.476 270.67 975.368C257.391 987.708 248.514 1004.25 236.863 1018.08C204.37 1056.67 161.318 1083.28 116.583 1105.36C89.1971 1118.87 60.8402 1130.3 33.1667 1143.31C21.2757 1148.89 10.2597 1156.02 -1.35004 1162.13C-13.7873 1168.67 -26.6382 1174.49 -39.9483 1178.98C-74.1984 1190.6 -109.551 1202.11 -145.589 1203.99C-187.584 1206.2 -229.058 1193.57 -266.731 1174.91C-292.015 1162.37 -316.429 1147.18 -338.119 1129.09" stroke="#184994" stroke-width="0.8" stroke-miterlimit="10"/>
<path d="M1940.1 991.927C1935.39 998.798 1929.26 1004.79 1923.33 1010.54C1905.79 1027.48 1885.03 1040.74 1862.39 1049.57C1830.33 1062.07 1799.47 1075.07 1764.61 1074.42C1744.18 1074.06 1723.82 1070.16 1704.71 1062.7C1657.02 1044.1 1602.66 1015.68 1550.23 1031.88C1535.65 1036.4 1522.19 1042.24 1509.64 1050.88C1489.77 1064.51 1470.32 1079.28 1448.72 1090.44C1425.99 1102.18 1401.59 1109.75 1376.29 1112.92C1336.3 1117.96 1293.11 1115.68 1255.68 1102.22C1234.88 1094.75 1214.07 1084.18 1194.68 1072.76C1176.74 1062.19 1159.82 1050.06 1142.16 1039.04C1114.36 1021.65 1086.7 998.619 1052.17 1000.38C1028.87 1001.56 1009.45 994.652 988.712 984.916C979.195 980.447 969.468 976.37 959.174 974.114C944.733 970.933 929.858 972.32 915.531 974.905C901.339 977.475 887.415 982.195 873.498 986.101C824.125 999.937 775.838 1017.88 726.649 1032.5C686.386 1044.46 646.067 1057.22 605.25 1067.21C587.254 1071.61 568.981 1074.48 550.435 1072.57C548.336 1072.35 546.256 1072.05 544.171 1071.68C519.705 1067.5 497.931 1054.54 478.186 1040.1C457.167 1024.71 437.334 1007.74 416.007 992.718C386.2 971.713 348.103 954.437 310.68 960.998C296.094 963.567 283.031 970.281 272.503 980.7C259.392 993.69 249.94 1010.32 237.77 1024.22C204.183 1062.57 161.103 1089.77 116.219 1112.99C89.8555 1126.62 61.7332 1137.67 35.9974 1152.49C12.0919 1166.28 -10.4532 1180.98 -36.8553 1189.83C-71.2641 1201.36 -106.971 1212.33 -143.186 1213.68C-185.671 1215.26 -227.528 1202 -265.241 1182.41C-290.381 1169.34 -315.488 1153.48 -335.852 1133.59" stroke="#184994" stroke-width="0.8" stroke-miterlimit="10"/>
<path d="M1941.08 1004.5C1924.72 1031.99 1894.67 1052.9 1865.64 1064.28C1834.02 1076.69 1803.32 1088.84 1768.96 1089.17C1748.43 1089.35 1727.82 1086.5 1708.54 1079.26C1660.87 1061.36 1605.39 1030.54 1553.02 1047.31C1538.86 1051.86 1525.14 1057.27 1512.57 1065.19C1492.34 1077.94 1472.41 1091.73 1450.45 1101.77C1426.6 1112.68 1401.19 1119.12 1375.15 1121.33C1333.4 1124.86 1289.66 1120.81 1249.85 1108.05C1210.36 1095.4 1174.66 1074.69 1138.99 1053.64C1111.08 1037.17 1085.1 1015.9 1051.12 1016.7C1038.96 1017 1026.76 1016.05 1015.08 1012.29C1005.67 1009.27 997.104 1004.5 988.46 999.822C979.633 995.038 970.638 990.683 960.931 988.006C946.086 983.874 931.105 984.575 916.064 986.68C901.382 988.723 886.837 992.909 872.378 996.381C821.837 1008.48 772.256 1025.26 722.475 1040.23C683.084 1052.08 644.348 1065.71 605.132 1078.08C588.2 1083.41 571.265 1087.09 553.429 1085.47C551.348 1085.29 549.237 1085.01 547.17 1084.67C495.573 1076.33 458.82 1031.02 419.406 1000.86C389.501 977.966 351.728 957.118 312.582 964.903C276.852 972.022 261.044 1005.71 238.583 1030.62C204.141 1068.82 161.099 1096.67 116.239 1121.08C90.7911 1134.92 63.7362 1146.71 39.583 1162.79C16.5902 1178.09 -7.37787 1192.3 -33.7275 1200.96C-68.3377 1212.35 -104.369 1222.76 -140.747 1223.55C-183.721 1224.49 -225.949 1210.56 -263.727 1190.02C-288.778 1176.42 -314.574 1159.7 -333.566 1138.12" stroke="#184994" stroke-width="0.8" stroke-miterlimit="10"/>
<path d="M1941.98 1017.48C1927.51 1045.58 1897.24 1067.48 1868.9 1078.97C1837.58 1091.64 1806.87 1103.6 1772.81 1105.48C1752.13 1106.61 1731.24 1105.01 1711.57 1098.44C1663.16 1082.21 1609.97 1049.24 1556.81 1063.56C1542.55 1067.4 1528.7 1072.12 1515.92 1079.46C1495.26 1091.32 1474.83 1104.14 1452.54 1113.17C1427.56 1123.28 1401.12 1128.75 1374.39 1129.97C1330.59 1131.95 1285.5 1126.25 1243.67 1112.98C1205.53 1100.87 1168.98 1084.4 1133.68 1065.61C1120.16 1058.42 1107.35 1049.72 1093.63 1042.79C1079.02 1035.4 1063.85 1031.48 1047.52 1031.63C1035.22 1031.76 1022.75 1030.95 1010.97 1026.98C1001.99 1023.94 993.945 1019.08 985.89 1014.16C977.61 1009.1 969.194 1004.45 959.905 1001.49C945.063 996.757 930.3 996.648 914.978 998.23C899.927 999.78 884.928 1003.5 870.081 1006.55C818.405 1017.19 767.451 1033 717.092 1048.65C679.455 1060.34 643.255 1074.62 606.829 1089.56C590.534 1096.25 574.152 1100.02 556.436 1098.65C554.348 1098.48 552.255 1098.24 550.157 1097.91C497.623 1089.93 461.639 1042.14 423.387 1010.01C393.773 985.135 355.17 960.013 314.469 968.986C299.755 972.231 286.319 980.24 276.769 991.92C264.393 1007.08 252.651 1022.73 239.368 1037.14C204.244 1075.24 161.388 1103.77 116.699 1129.41C91.8727 1143.69 66.8522 1157.01 43.2395 1173.25C20.2692 1189.04 -3.96287 1203.56 -30.527 1212.13C-65.2762 1223.35 -101.68 1233.19 -138.253 1233.42C-181.734 1233.71 -224.329 1219.17 -262.158 1197.65C-287.107 1183.48 -313.621 1165.8 -331.242 1142.64" stroke="#184994" stroke-width="0.8" stroke-miterlimit="10"/>
<path d="M1942.83 1030.53C1929.09 1059.03 1900.34 1081.78 1872.1 1093.85C1840.95 1107.17 1810.07 1119.67 1776.12 1123.58C1755.51 1125.96 1734.54 1126.42 1714.78 1119.69C1666.4 1103.19 1614.93 1068.59 1561.31 1080.08C1546.91 1083.17 1532.87 1087.13 1519.79 1093.89C1498.67 1104.84 1477.73 1116.79 1455.1 1124.94C1429.07 1134.29 1401.68 1138.93 1374.2 1139.34C1328.18 1140.05 1281.42 1132.63 1237.71 1118.12C1200.37 1105.7 1162.68 1091.93 1126.91 1075.38C1113.77 1069.31 1101.34 1061.64 1088.22 1055.5C1073.44 1048.59 1058.21 1045.1 1041.95 1045.25C1029.08 1045.35 1015.85 1044.73 1003.63 1040.22C995.606 1037.26 988.546 1032.66 981.507 1027.88C960.134 1013.42 938.262 1007.91 912.482 1009.72C897.186 1010.81 881.885 1014.08 866.743 1016.77C814.732 1026 763.16 1040.78 712.999 1057.16C692.665 1063.8 672.531 1071.07 653.001 1079.81C637.927 1086.57 623.788 1094.94 608.959 1102.16C593.496 1109.67 576.581 1113.17 559.422 1112.08C557.328 1111.94 555.228 1111.72 553.148 1111.43C528.147 1107.87 506.371 1093.54 487.422 1077.6C466.276 1059.83 447.641 1039.37 427.494 1020.53C398.569 993.472 358.736 963.31 316.368 973.495C300.894 977.221 289.555 985.949 279.416 997.866C266.328 1013.23 253.976 1029.19 240.157 1043.94C204.57 1081.99 161.901 1111.2 117.622 1138.16C104.694 1146.04 91.6398 1153.7 78.7836 1161.71C67.7351 1168.57 57.5864 1176.59 46.9713 1184.09C24.0186 1200.31 -0.451057 1215.02 -27.3033 1223.49C-62.321 1234.54 -98.962 1243.79 -135.747 1243.44C-179.704 1243.04 -222.684 1227.88 -260.578 1205.42C-285.523 1190.64 -312.641 1171.88 -328.925 1147.26" stroke="#184994" stroke-width="0.8" stroke-miterlimit="10"/>
<path d="M1943.73 1043.27C1931.01 1072.31 1903.13 1096.13 1875.19 1109.07C1844 1123.51 1812.86 1137.18 1778.85 1143.57C1758.51 1147.39 1738.25 1148.15 1718.56 1141.36C1670.17 1124.67 1620.41 1088.53 1566.44 1097.01C1551.86 1099.29 1537.56 1102.46 1524.18 1108.67C1502.54 1118.69 1481.15 1129.88 1458.19 1137.29C1431.19 1146.01 1403.02 1149.95 1374.78 1149.86C1326.57 1149.69 1277.91 1140.82 1232.59 1124.56C1211 1116.81 1189.85 1107.81 1167.98 1100.61C1151.65 1095.24 1135.38 1089.65 1119.39 1083.42C1106.51 1078.42 1094.25 1071.82 1081.46 1066.5C1066.49 1060.28 1051.15 1057.31 1034.96 1057.58C1022.11 1057.8 1008.72 1057.5 996.429 1053.06C988.778 1050.27 982.173 1045.74 975.665 1040.95C968.651 1035.78 961.503 1030.92 953.341 1027.68C939.278 1022.1 923.624 1020.6 908.719 1021.21C893.307 1021.85 877.78 1024.69 862.488 1027.05C810.578 1035.02 758.714 1048.82 709.092 1066.14C689.496 1072.97 670.149 1080.74 651.835 1090.55C638.189 1097.87 625.929 1107.48 612.205 1114.6C596.74 1122.62 579.75 1126.6 562.335 1125.67C560.234 1125.56 558.135 1125.34 556.048 1125.07C531.062 1121.75 509.4 1107.19 490.782 1090.99C469.646 1072.6 451.222 1051.35 431.492 1031.54C403.024 1002.98 362.349 967.012 318.296 978.377C302.346 982.503 291.86 992.669 281.238 1004.72C267.73 1020.08 255.008 1036.04 240.947 1050.91C205.021 1088.95 162.685 1118.88 118.97 1147.17C106.613 1155.18 93.9653 1162.9 81.9456 1171.42C71.2928 1178.96 61.2599 1187.44 50.6857 1195.08C27.7081 1211.69 3.01394 1226.55 -24.1445 1234.89C-59.4487 1245.73 -96.3021 1254.39 -133.299 1253.46C-177.751 1252.35 -221.097 1236.59 -259.062 1213.22C-284.052 1197.82 -311.687 1177.84 -326.666 1151.89" stroke="#184994" stroke-width="0.8" stroke-miterlimit="10"/>
<path d="M1944.72 1055.79C1932.85 1085.51 1905.85 1110.54 1878.13 1124.7C1847.15 1140.54 1815.46 1157.35 1781.35 1164.92C1761.78 1169.29 1741.84 1169.93 1722.74 1163.29C1674.34 1146.47 1626.3 1109 1572.22 1114.34C1557.41 1115.8 1542.85 1118.16 1529.12 1123.83C1506.99 1132.96 1485.11 1143.5 1461.88 1150.33C1434.02 1158.53 1405.13 1162.14 1376.23 1161.74C1326.03 1161.05 1275.49 1151.41 1228.77 1133.14C1206.28 1124.33 1184.68 1113.47 1161.61 1105.85C1145.06 1100.39 1128.28 1095.53 1111.75 1090.21C1098.95 1086.1 1086.64 1080.57 1073.93 1076.04C1058.72 1070.62 1043.27 1068.25 1027.16 1068.73C1014.8 1069.1 1001.8 1069.26 989.822 1065.45C981.888 1062.93 975.332 1058.41 968.854 1053.31C962.132 1048.03 955.423 1043.11 947.465 1039.79C933.719 1034.11 918.481 1032.82 903.94 1032.67C888.641 1032.49 872.854 1035.32 857.574 1037.34C806.22 1044.11 754.396 1056.98 705.855 1075.38C687.018 1082.52 668.488 1090.88 651.603 1101.94C639.183 1110.08 628.247 1120.16 615.146 1127.31C599.799 1135.67 582.821 1140 565.323 1139.29C563.215 1139.2 561.109 1139 559.016 1138.76C518.743 1133.74 488.096 1100.43 462.141 1072.12C434.368 1041.84 406.769 1006.58 368.384 989.205C353.379 982.425 336.542 979.34 320.422 983.709C304.902 987.896 293.525 1000.11 283.052 1011.7C269.18 1027.04 256.124 1043.07 241.887 1058.11C205.819 1096.19 163.855 1126.79 120.864 1156.42C109.048 1164.57 96.9874 1172.55 85.8157 1181.64C75.5192 1190.02 65.1868 1198.33 54.5042 1206.18C31.4903 1223.12 6.56029 1238.08 -20.8732 1246.26C-56.4818 1256.86 -93.5541 1264.97 -130.764 1263.45C-175.709 1261.63 -219.435 1245.32 -257.44 1221.02C-282.543 1204.96 -310.541 1183.78 -324.319 1156.49" stroke="#184994" stroke-width="0.8" stroke-miterlimit="10"/>
<path d="M1945.74 1068.2C1934.66 1098.78 1908.43 1125.18 1880.92 1140.92C1850.18 1158.54 1818.87 1178.15 1784.28 1186.61C1765.24 1191.25 1745.82 1192.02 1727.18 1185.53C1678.77 1168.65 1632.59 1130.03 1578.55 1132.3C1563.51 1132.93 1548.67 1134.49 1534.54 1139.65C1511.91 1147.91 1489.56 1157.93 1466.06 1164.4C1437.51 1172.25 1408.01 1175.86 1378.51 1175.52C1326.61 1174.91 1274.38 1165.19 1226.58 1144.93C1202.92 1134.88 1180.68 1121.51 1156.45 1112.52C1139.47 1106.22 1121.96 1101.32 1104.55 1096.55C1091.62 1093.01 1079.02 1088.38 1066.16 1084.59C1050.66 1080.05 1035.06 1078.27 1018.95 1079.06C1006.59 1079.67 993.491 1080.24 981.436 1076.7C973.751 1074.43 967.518 1070.19 961.408 1065.18C955.086 1059.99 948.838 1055.11 941.262 1051.84C927.747 1045.99 912.637 1044.81 898.166 1044.49C882.833 1044.15 867.317 1046.26 852.06 1047.99C801.186 1053.77 749.104 1065.83 701.781 1085.87C684.626 1093.12 667.81 1101.85 653.282 1113.65C641.879 1122.91 631.262 1132.78 618.416 1140.16C603.08 1148.97 585.997 1153.69 568.261 1153.18C566.147 1153.11 564.058 1152.95 561.965 1152.7C521.212 1148.01 490.526 1113.37 465.026 1084.34C437.262 1052.75 410.544 1016.86 372.382 997.171C357.533 989.513 339.352 984.567 322.989 990.134C307.961 995.243 296.153 1007 285.554 1018.38C271.068 1033.95 257.561 1050.38 242.929 1065.81C206.817 1103.96 165.341 1135.19 123.24 1166.21C77.8615 1199.64 37.6067 1241.76 -17.6204 1257.9C-53.3435 1268.34 -90.8493 1275.8 -128.24 1273.68C-173.648 1271.13 -217.785 1254.29 -255.806 1229.06C-281.131 1212.26 -309.281 1189.88 -321.96 1161.33" stroke="#184994" stroke-width="0.8" stroke-miterlimit="10"/>
<path d="M1946.79 1080.53C1936.37 1112.19 1910.85 1140.07 1883.52 1157.72C1853.19 1177.31 1822.65 1199.06 1787.48 1208.41C1768.95 1213.32 1749.91 1214.22 1731.66 1207.86C1683.27 1191.01 1639.06 1151.31 1585.27 1150.7C1569.99 1150.53 1554.86 1151.3 1540.31 1155.99C1517.19 1163.43 1494.42 1173.04 1470.68 1179.34C1441.58 1187.06 1411.63 1190.98 1381.62 1191.08C1328.46 1191.25 1274.85 1182.45 1226.35 1160.39C1201.17 1148.94 1178.22 1132.9 1152.98 1121.49C1135.39 1113.52 1116.94 1107.61 1098.27 1102.82C1085.02 1099.43 1071.91 1095.39 1058.6 1092.22C1042.78 1088.47 1026.97 1087.28 1010.8 1088.48C989.901 1090.05 970.376 1090.32 953.67 1076.32C947.654 1071.26 941.775 1066.48 934.525 1063.28C921.207 1057.37 906.182 1056.27 891.904 1055.92C876.681 1055.56 861.297 1057.17 846.137 1058.64C796.574 1063.45 744.95 1074.69 699.652 1096.11C683.104 1103.95 668.762 1113.77 655.408 1126.19C644.79 1136.06 633.764 1145.69 621.269 1153.13C606.02 1162.21 588.939 1167.21 571.169 1166.93C569.048 1166.89 566.953 1166.75 564.853 1166.53C524.26 1162.22 493.869 1127.27 469.093 1098.08C441.378 1065.43 415.042 1026.93 376.668 1005.87C361.222 997.394 343.444 991.925 326.071 997.432C310.856 1002.25 298.773 1013.86 287.984 1025.16C272.915 1040.94 258.982 1057.79 244.022 1073.65C208.026 1111.86 167.053 1143.68 126.051 1176.1C81.7128 1211.15 41.6589 1253.79 -14.4406 1269.36C-50.6629 1279.4 -88.211 1286.42 -125.772 1283.76C-171.618 1280.49 -216.172 1263.15 -254.246 1237.03C-279.824 1219.5 -308.083 1195.86 -319.675 1166.1" stroke="#184994" stroke-width="0.8" stroke-miterlimit="10"/>
<path d="M1947.87 1092.82C1938 1125.75 1913.09 1155.3 1885.96 1175.11C1856.41 1196.7 1826.4 1220.12 1790.89 1230.24C1772.77 1235.39 1754.07 1236.41 1736.15 1230.22C1687.88 1213.48 1645.59 1172.74 1592.36 1169.5C1576.87 1168.56 1561.46 1168.62 1546.54 1172.83C1522.95 1179.52 1499.79 1188.87 1475.84 1195.23C1446.38 1203.02 1416.11 1207.63 1385.7 1208.65C1331.94 1210.44 1277.32 1204.85 1228.73 1180.76C1214.71 1173.83 1201.05 1165.88 1187.8 1157.44C1175.73 1149.73 1164.26 1141.16 1151.83 1134C1133.56 1123.47 1113.97 1115.44 1093.67 1109.85C1063.71 1101.62 1034.65 1094.16 1003.37 1097.33C982.912 1099.41 962.783 1100.76 946.192 1086.92C940.364 1082.05 934.748 1077.36 927.738 1074.25C914.592 1068.39 899.677 1067.37 885.545 1067.06C870.495 1066.74 855.206 1068.2 840.161 1069.44C792.023 1073.45 740.382 1083.86 697.511 1107.33C669.572 1122.61 651.217 1149.49 624.212 1166.1C609.058 1175.41 592.01 1180.69 574.169 1180.58C572.066 1180.56 569.94 1180.44 567.865 1180.23C526.946 1176.25 496.601 1140.34 472.247 1110.66C457.458 1092.65 443.413 1074.02 428.042 1056.52C414.22 1040.79 399.028 1025.17 380.742 1014.62C365.144 1005.63 347.128 999.674 329.278 1004.9C313.22 1009.62 300.442 1021.86 289.102 1033.64C274.104 1049.26 260.205 1065.88 245.412 1081.71C209.637 1119.97 169.229 1152.34 129.463 1186.14C86.1937 1222.9 45.4043 1265.64 -11.1682 1280.7C-47.6687 1290.41 -85.5111 1296.96 -123.229 1293.71C-169.544 1289.73 -214.448 1271.92 -252.582 1244.95C-278.456 1226.66 -306.719 1201.75 -317.261 1170.82" stroke="#184994" stroke-width="0.8" stroke-miterlimit="10"/>
<path d="M1948.91 1105.13C1939.54 1139.56 1915.1 1170.89 1888.17 1193.1C1860.03 1216.31 1829.95 1241.57 1794.32 1252.06C1776.38 1257.33 1758.12 1258.58 1740.44 1252.53C1715.44 1243.97 1692.72 1228.91 1669.64 1215.55C1648 1203.05 1624.7 1190.89 1599.5 1188.56C1583.81 1187.1 1568.13 1186.35 1552.87 1190.19C1528.91 1196.2 1505.31 1205.51 1481.2 1212.08C1451.33 1220.22 1420.95 1225.53 1390.19 1228.27C1363.97 1230.62 1337.49 1232.32 1311.16 1229.99C1283.09 1227.47 1255.96 1219.87 1231.24 1206.7C1202.86 1191.58 1178.95 1170.55 1153.17 1151.33C1134.3 1137.25 1113.29 1125.84 1090.97 1118.47C1060.18 1108.31 1029.34 1101.68 996.847 1105.96C976.548 1108.63 955.938 1110.69 939.114 1097.14C933.484 1092.6 928.076 1088.02 921.428 1085.03C908.295 1079.12 893.273 1078.21 879.171 1077.99C864.206 1077.74 849.099 1079.41 834.18 1080.47C808.01 1082.36 781.854 1086.75 756.53 1093.84C735.964 1099.57 715.383 1107.04 697.294 1118.56C671.114 1135.24 653.562 1162.46 627.141 1179.15C612.064 1188.67 595.037 1194.16 577.174 1194.22C575.065 1194.24 572.939 1194.12 570.851 1193.95C530.074 1190.33 499.96 1154.24 476.188 1124.46C448.469 1089.75 423.07 1048.24 384.855 1023.93C369.425 1014.12 350.587 1007.89 332.453 1012.8C316.245 1017.2 303.192 1029.28 291.737 1041.01C276.228 1056.85 261.977 1073.91 246.93 1090.19C229.184 1109.39 210.648 1127.8 191.33 1145.39C172.288 1162.74 152.3 1179.1 133.355 1196.47C91.5462 1234.86 48.7455 1277.64 -7.89681 1292.08C-44.6509 1301.45 -82.8548 1307.49 -120.669 1303.71C-167.398 1299.02 -212.714 1280.78 -250.89 1252.98C-277.078 1233.9 -305.253 1207.78 -314.851 1175.68" stroke="#184994" stroke-width="0.8" stroke-miterlimit="10"/>
<path d="M1949.95 1117.48C1941 1153.61 1916.96 1186.86 1890.24 1211.65C1863.62 1236.34 1832.96 1262.9 1797.72 1273.81C1780.03 1279.28 1761.95 1280.65 1744.42 1274.75C1719.63 1266.38 1697.33 1251.04 1674.85 1237.21C1653.69 1224.2 1631.07 1210.96 1606.2 1207.6C1590.55 1205.49 1574.59 1204.42 1559.19 1207.88C1534.86 1213.34 1510.88 1222.68 1486.63 1229.69C1455.98 1238.57 1424.62 1245.28 1393.27 1250.81C1366.67 1255.48 1339.61 1259.31 1312.47 1258.26C1284.25 1257.15 1256.97 1250.11 1232.5 1236.43C1203.44 1220.18 1179.44 1197.25 1155.27 1174.36C1135.89 1155.99 1115.26 1139.86 1090.57 1129.44C1058.73 1116 1026.15 1109.01 991.659 1114.54C971.195 1117.83 950.128 1120.32 932.783 1106.94C926.937 1102.43 921.405 1097.92 914.533 1094.98C901.518 1089.42 886.821 1088.66 872.951 1088.56C858.138 1088.43 843.162 1090 828.398 1091.37C784.293 1095.46 734.335 1102.53 697.914 1130.23C673.56 1148.74 656.204 1174.93 630.311 1191.81C615.291 1201.61 598.047 1207.52 580.028 1207.67C577.919 1207.68 575.804 1207.62 573.692 1207.45C533.168 1204.15 503.392 1168.18 480.119 1138.4C452.159 1102.63 427.275 1060.18 389.265 1033.93C373.665 1023.17 354.433 1016.16 335.513 1020.85C319.163 1024.9 305.909 1036.85 294.306 1048.53C278.337 1064.63 263.783 1082.13 248.513 1098.85C213.607 1137.11 174.951 1171.29 137.433 1206.83C95.8287 1246.22 52.5413 1289.34 -4.83277 1303.27C-41.8273 1312.26 -80.406 1317.83 -118.34 1313.52C-165.472 1308.16 -211.213 1289.55 -249.407 1260.93C-275.982 1241.03 -303.94 1213.71 -312.631 1180.49" stroke="#184994" stroke-width="0.8" stroke-miterlimit="10"/>
<path d="M1950.97 1129.91C1942.51 1167.2 1919.21 1204.41 1892.13 1230.53C1865.77 1255.94 1836.58 1283.97 1800.97 1295.46C1783.45 1301.12 1765.49 1302.63 1748.04 1296.82C1700.31 1281 1663.04 1236.15 1612.41 1226.68C1596.99 1223.79 1580.69 1222.74 1565.35 1225.87C1540.65 1230.92 1516.28 1240.42 1491.99 1248.07C1459.94 1258.18 1427.31 1267.89 1394.81 1276.19C1340.71 1290 1283.14 1298.09 1232.82 1269.12C1203.4 1252.19 1179.04 1227.46 1156.61 1201.9C1138.15 1180.89 1117.93 1157.29 1093.01 1143.8C1060.05 1125.93 1025.62 1116.56 988.31 1123.59C967.156 1127.59 945.908 1129.87 927.623 1116.66C921.558 1112.28 915.785 1107.79 908.789 1104.91C895.74 1099.58 881.139 1098.96 867.285 1098.99C852.643 1099.02 837.881 1100.67 823.318 1102.17C780.954 1106.54 732.351 1112.97 699.421 1142.87C677.13 1163.11 658.476 1187.96 633.207 1204.77C618.253 1214.72 601.043 1220.8 583.01 1221.1C580.893 1221.14 578.779 1221.07 576.684 1220.93C535.953 1217.92 506.205 1181.36 483.245 1151.29C455.563 1115.07 431.373 1072.49 394.237 1044.84C378.322 1033 358.75 1024.89 338.754 1029.38C322.287 1033.08 308.806 1044.89 297.143 1056.5C280.72 1072.82 265.918 1090.75 250.461 1107.98C216.011 1146.31 178.551 1181.62 141.68 1217.49C100.39 1257.67 56.4671 1301.2 -1.61239 1314.53C-38.9079 1323.07 -77.8186 1328.2 -115.825 1323.37C-163.328 1317.34 -209.49 1298.43 -247.714 1269.04C-274.695 1248.3 -302.361 1219.79 -310.184 1185.48" stroke="#184994" stroke-width="0.8" stroke-miterlimit="10"/>
<path d="M1951.97 1142.42C1943.9 1181.6 1921.15 1220.17 1894.14 1248.83C1868.72 1275.81 1839.88 1304.91 1804.07 1316.93C1787.01 1322.65 1768.65 1324.58 1751.25 1318.68C1702.95 1302.33 1667.82 1257.56 1617.97 1245.66C1602.7 1242.02 1586.51 1240.93 1571.12 1243.86C1545.88 1248.68 1520.48 1258.31 1495.92 1266.76C1462.04 1278.4 1429.02 1292.67 1395.03 1303.72C1341.84 1321.01 1283.12 1333.29 1232.38 1303.74C1202.59 1286.4 1178.69 1260.13 1157.38 1232.98C1138.33 1208.75 1120.18 1183.31 1096.38 1163.57C1079.97 1149.97 1062.07 1139.44 1041.19 1134.04C1023.32 1129.41 1005.08 1129.61 987.155 1133.44C964.983 1138.19 943.405 1139.55 923.971 1126.4C917.53 1122.04 911.382 1117.48 904.065 1114.62C890.907 1109.5 876.291 1109.03 862.423 1109.21C848 1109.4 833.446 1111.17 819.103 1112.83C795.448 1115.55 771.281 1119 748.663 1126.89C731.126 1133.01 716.384 1142.07 702.684 1154.5C680.017 1175.07 661.542 1200.62 635.909 1217.81C621.084 1227.77 604.029 1233.86 586.11 1234.32C583.987 1234.39 581.866 1234.35 579.771 1234.21C539.38 1231.5 509.892 1195.24 487.368 1165.32C459.484 1128.27 435.684 1084.83 398.764 1055.68C382.642 1042.94 362.992 1033.95 342.15 1038.16C325.398 1041.54 311.639 1053.41 299.795 1065.11C283.123 1081.57 268.193 1099.78 252.706 1117.32C218.723 1155.77 182.376 1192.04 146.013 1228.18C104.84 1269.1 60.3092 1312.84 1.58006 1325.54C-35.9493 1333.68 -75.2707 1338.28 -113.368 1333C-161.206 1326.36 -207.82 1307.17 -246.063 1277.07C-273.474 1255.47 -300.783 1225.81 -307.774 1190.47" stroke="#184994" stroke-width="0.8" stroke-miterlimit="10"/>
<path d="M1952.94 1155.02C1945.24 1195.98 1923.12 1235.93 1896.32 1267.04C1871.84 1295.44 1843.12 1325.75 1806.94 1338.17C1789.87 1344.04 1771.43 1346.06 1753.95 1340.27C1705.36 1324.24 1671.74 1278.72 1622.7 1264.46C1607.41 1260.02 1591.81 1258.71 1576.19 1261.61C1512.66 1273.37 1454.33 1309.54 1394.07 1332.78C1342.02 1352.87 1282.47 1368.96 1231.31 1339.29C1201.28 1321.89 1177.89 1294.6 1157.58 1266.45C1138.3 1239.74 1121.5 1211.06 1098.91 1186.99C1083.67 1170.75 1065.88 1154.33 1044.36 1146.91C1026.13 1140.64 1006.96 1140.11 988.331 1144.49C964.703 1150.06 942.654 1149.63 921.873 1136.31C915.019 1131.92 908.397 1127.25 900.723 1124.36C887.263 1119.28 872.442 1118.89 858.287 1119.26C844.076 1119.64 829.779 1121.53 815.656 1123.35C792.854 1126.33 769.108 1130.07 747.572 1138.55C731.742 1144.78 718.281 1154.65 705.8 1166.07C683.106 1186.84 664.744 1212.66 639.179 1230.19C624.32 1240.37 607.149 1246.69 589.093 1247.28C586.97 1247.34 584.842 1247.33 582.748 1247.19C542.322 1244.71 512.918 1208.23 490.636 1178.19C462.646 1140.46 439.162 1096.23 402.326 1066.08C386.217 1052.9 366.736 1043.37 345.524 1047.19C327.962 1050.36 313.575 1062.9 301.272 1075.13C284.881 1091.43 270.212 1109.45 255.042 1126.89C221.487 1165.51 186.139 1202.58 150.216 1238.93C109.107 1280.51 64.0009 1324.32 4.64662 1336.41C-33.128 1344.09 -72.842 1348.19 -111.031 1342.47C-159.211 1335.23 -206.223 1315.86 -244.509 1285.03C-272.363 1262.63 -299.258 1231.83 -305.473 1195.45" stroke="#184994" stroke-width="0.8" stroke-miterlimit="10"/>
<path d="M1953.86 1167.68C1946.47 1210.25 1925.1 1251.74 1898.57 1285.17C1874.93 1314.95 1846.17 1346.38 1809.52 1359.2C1792.33 1365.2 1773.72 1367.27 1756.08 1361.6C1707.1 1345.91 1674.75 1299.6 1626.56 1283.07C1611.3 1277.82 1596.09 1275.96 1580.25 1278.88C1551.87 1284.1 1524.5 1297.54 1498.47 1310.33C1463.01 1327.76 1428.35 1347.09 1392.22 1362.89C1341.33 1385.13 1281.75 1404.16 1229.91 1374.99C1167.71 1340 1142.07 1268.04 1100.79 1213.49C1074.78 1179.08 1038.74 1145.35 992.141 1157.38C966.894 1163.88 943.914 1160.44 921.722 1146.69C914.023 1141.92 906.519 1136.91 897.934 1133.87C884.303 1129.04 869.487 1128.73 855.255 1129.29C841.257 1129.86 827.217 1131.86 813.356 1133.89C791.79 1137.07 769.051 1141.08 748.958 1149.97C734.115 1156.55 720.821 1166.78 708.965 1177.74C686.067 1198.87 667.654 1225.18 641.776 1242.99C627.059 1253.12 610.025 1259.43 592.102 1260.11C589.973 1260.2 587.845 1260.18 585.751 1260.04C545.685 1257.79 516.542 1221.91 494.645 1192.1C466.432 1153.74 443.278 1108.85 406.722 1077.47C390.563 1063.59 370.864 1053.1 349.041 1056.55C331.399 1059.33 316.866 1071.73 304.552 1083.91C287.812 1100.42 272.976 1118.87 257.718 1136.74C224.573 1175.6 190.128 1213.22 154.499 1249.76C113.417 1291.92 67.6881 1335.7 7.753 1347.11C-30.2669 1354.33 -70.385 1357.88 -108.647 1351.74C-157.133 1343.97 -204.549 1324.44 -242.881 1292.99C-271.196 1269.76 -297.586 1237.85 -303.063 1200.49" stroke="#184994" stroke-width="0.8" stroke-miterlimit="10"/>
<path d="M1954.79 1180.46C1947.82 1224.48 1927.04 1267.68 1900.92 1303.14C1877.97 1334.28 1849.1 1366.82 1811.83 1379.97C1794.13 1386.21 1775.65 1387.97 1757.63 1382.62C1732.69 1375.21 1711.01 1359.35 1690.58 1343.15C1671.34 1327.89 1652.12 1310.78 1629.11 1301.77C1614.03 1295.87 1598.32 1293.27 1582.53 1297.02C1552.9 1304.03 1524.6 1320.01 1497.7 1334.76C1461.79 1354.43 1426.63 1375.76 1389.77 1393.39C1339.96 1417.19 1280.61 1438.14 1228.5 1409.88C1164.99 1375.43 1138.83 1300.67 1102.17 1242.52C1079.38 1206.34 1045.61 1160.61 996.489 1172.7C969.804 1179.27 946.577 1171.74 923.783 1157.77C915.186 1152.52 906.734 1147.02 897.142 1143.71C883.123 1138.86 868.066 1138.56 853.461 1139.34C839.707 1140.08 825.893 1142.22 812.311 1144.48C791.71 1147.89 770.18 1152.31 751.336 1161.74C736.87 1168.97 723.834 1178.53 711.996 1189.52C689.058 1210.8 670.734 1237.37 644.828 1255.38C630.116 1265.6 613.117 1271.97 595.175 1272.72C593.046 1272.81 590.918 1272.79 588.835 1272.71C548.674 1270.62 519.609 1234.55 497.874 1204.62C469.77 1165.94 446.953 1120.89 410.803 1088.77C394.792 1074.54 374.848 1063.2 352.729 1066.28C334.82 1068.77 320.078 1081.17 307.632 1093.44C290.754 1110.08 275.86 1128.75 260.659 1146.89C243.76 1167.05 226.605 1186.99 209.213 1206.72C192.915 1225.23 175.933 1242.95 158.833 1260.71C117.717 1303.39 71.3927 1347.04 10.8587 1357.73C-27.5981 1364.51 -67.8876 1367.23 -106.276 1360.87C-154.874 1352.84 -202.823 1333.03 -241.213 1301.02C-270.002 1277 -295.862 1244 -300.59 1205.71" stroke="#184994" stroke-width="0.8" stroke-miterlimit="10"/>
<path d="M1955.68 1193.27C1949.08 1238.66 1929.04 1283.72 1903.28 1320.98C1880.87 1353.35 1851.97 1386.98 1813.85 1400.46C1796.06 1406.75 1777.21 1408.42 1758.72 1403.68C1732.83 1397.04 1710.77 1382.47 1690.11 1365.86C1670.91 1350.44 1652.32 1332.38 1629.64 1322.5C1614.58 1315.94 1598.9 1313.27 1582.95 1317.39C1552.36 1325.26 1523.18 1344.1 1495.88 1360.32C1459.79 1381.77 1424.39 1404.68 1387.04 1423.66C1338.14 1448.49 1279.67 1469.89 1227.41 1442.95C1163.06 1409.81 1135.68 1333.59 1103.16 1273.38C1083.19 1236.46 1051.41 1178.46 1000.43 1189.86C986.4 1193 971.984 1192.38 958.584 1186.98C947.678 1182.58 938.084 1175.65 928.12 1169.51C918.681 1163.66 909.065 1157.69 898.562 1153.96C883.968 1148.79 868.364 1148.38 853.119 1149.38C839.591 1150.26 826.046 1152.58 812.695 1155.06C775.859 1161.88 742.682 1175.39 715.038 1201.18C692.093 1222.59 673.796 1249.35 647.882 1267.49C633.205 1277.77 616.225 1284.17 598.27 1284.97C596.14 1285.06 594.006 1285.07 591.929 1284.96C552.229 1283.01 523.387 1247.58 501.937 1217.97C473.799 1179.13 451.357 1134.15 415.957 1101.09C399.891 1086.08 379.309 1073.39 356.499 1076.1C338.583 1078.23 323.702 1090.45 311.277 1102.65C294.087 1119.47 279.087 1138.53 263.831 1157.08C247.057 1177.46 230.071 1197.65 212.951 1217.75C197.126 1236.36 180 1253.82 163.111 1271.49C121.908 1314.59 74.9519 1358.04 13.8814 1367.99C-25.1975 1374.34 -65.145 1375.78 -104.016 1369.56C-152.712 1361.79 -201.503 1341.09 -239.636 1308.81C-268.906 1284.03 -294.137 1249.96 -298.209 1210.79" stroke="#184994" stroke-width="0.8" stroke-miterlimit="10"/>
<path d="M1956.55 1206.14C1950.31 1252.84 1931.05 1299.6 1905.68 1338.63C1883.79 1372.32 1854.56 1406.99 1815.63 1420.68C1797.76 1426.95 1777.92 1429.16 1759.15 1425.56C1732.56 1420.47 1709.67 1406.63 1688.65 1389.9C1669.29 1374.48 1651.16 1355.78 1628.74 1345.13C1613.7 1337.99 1597.97 1335.28 1581.87 1339.71C1568.26 1343.44 1555.24 1350.4 1542.7 1357.2C1525.85 1366.37 1509.51 1376.47 1493.29 1386.71C1457.34 1409.43 1421.91 1433.5 1384.34 1453.28C1336.11 1478.69 1279.21 1498.64 1226.99 1473.53C1161.9 1442.24 1133.32 1366.98 1103.87 1305.63C1091.17 1279.2 1077.92 1251.11 1057.39 1229.66C1043.32 1214.98 1024.77 1205.03 1004 1208.95C989.785 1211.62 975.506 1209.8 962.657 1203.12C951.821 1197.48 942.63 1189.34 932.919 1182.06C923.25 1174.81 912.925 1168.84 901.527 1164.71C886.366 1159.2 870.241 1158.57 854.371 1159.74C841.051 1160.73 827.762 1163.17 814.635 1165.89C778.325 1173.41 745.221 1187.34 717.951 1212.91C695.141 1234.3 677.031 1260.95 651.349 1279.21C636.621 1289.69 619.502 1296.21 601.398 1297.07C599.262 1297.19 597.135 1297.17 595.051 1297.08C555.46 1295.22 526.673 1259.89 505.352 1230.29C477.115 1191.12 454.869 1145.8 419.589 1112.2C403.813 1097.19 383.115 1084.04 360.43 1086.29C342.502 1088.07 327.537 1100.11 315.113 1112.21C297.668 1129.2 282.57 1148.63 267.246 1167.52C250.895 1187.7 234.392 1207.76 217.872 1227.78C202.176 1246.79 184.424 1264.43 167.426 1282.3C126.07 1325.78 78.5139 1368.92 16.8954 1378.06C-22.5827 1383.94 -62.6278 1384.56 -101.833 1378.01C-150.885 1369.8 -199.939 1349.31 -238.064 1316.6C-267.822 1291.08 -292.414 1256 -295.812 1215.99" stroke="#184994" stroke-width="0.8" stroke-miterlimit="10"/>
<path d="M1957.45 1218.99C1951.55 1266.98 1933.07 1315.38 1908.09 1356.08C1886.62 1391.05 1857.28 1426.22 1817.48 1440.49C1798.87 1447.16 1778.83 1450.54 1759.12 1447.97C1731.95 1444.46 1708.01 1431.63 1686.38 1414.97C1666.61 1399.73 1648.72 1380.71 1626.65 1369.14C1611.67 1361.32 1595.84 1358.79 1579.55 1363.48C1565.52 1367.52 1552.23 1374.99 1539.46 1382.38C1522.64 1392.12 1506.32 1402.75 1490.1 1413.46C1454.57 1436.95 1419.51 1461.64 1382.02 1481.63C1334.19 1507.09 1279.53 1523.56 1227.6 1500.66C1162.03 1471.74 1131.74 1400.32 1104.4 1338.45C1091.82 1310.01 1079.32 1279.92 1059.51 1255.6C1046.55 1239.68 1028.66 1226.58 1007.14 1229.68C992.707 1231.77 978.566 1228.64 966.343 1220.71C955.597 1213.76 946.816 1204.27 937.36 1195.74C928.074 1187.36 917.994 1179.98 906.194 1175.59C890.709 1169.81 873.552 1169.01 857.216 1170.34C844.079 1171.43 831.049 1173.89 818.183 1176.53C781.576 1184.07 748.02 1198.9 720.622 1224.75C697.948 1246.13 679.962 1272.71 654.417 1290.95C639.675 1301.48 622.556 1308 604.421 1308.88C602.285 1308.99 600.151 1309 598.074 1308.89C558.718 1307.04 530.023 1272.05 508.799 1242.58C480.689 1203.53 458.704 1158.51 424.146 1124.47C408.56 1109.14 387.317 1094.69 364.347 1096.62C346.275 1098.15 331.101 1110.2 318.57 1122.4C301.056 1139.44 285.974 1159.01 270.758 1178.1C254.724 1198.17 238.981 1218.54 222.496 1238.23C206.591 1257.23 188.65 1275.09 171.571 1293.07C130.017 1336.89 81.8641 1379.61 19.7288 1387.92C-20.024 1393.25 -60.378 1393.16 -99.717 1386.13C-148.951 1377.32 -198.235 1357.39 -236.544 1324.19C-266.802 1297.99 -290.669 1261.97 -293.438 1221.17" stroke="#184994" stroke-width="0.8" stroke-miterlimit="10"/>
<path d="M1958.34 1231.78C1956.04 1252.79 1950.89 1273.7 1944.75 1293.87C1931.73 1336.6 1911.95 1378.56 1882.93 1412.82C1865.57 1433.31 1844.42 1450.59 1819.36 1460.41C1795.01 1469.94 1768.49 1473.84 1742.56 1468.43C1719.96 1463.7 1699.77 1452.27 1681.55 1438.44C1651.61 1415.77 1618.66 1375.22 1576.48 1388.34C1555 1395.04 1535.51 1407.98 1516.8 1420.16C1492.32 1436.08 1468.49 1453.01 1444.24 1469.26C1401.76 1497.76 1355.22 1528.66 1303 1534.03C1278.21 1536.58 1252.79 1533.04 1229.72 1523.62C1182.09 1504.19 1150.36 1464.62 1127.37 1419.89C1114.07 1393.99 1103.52 1366.82 1091.78 1340.18C1082.1 1318.22 1071.86 1295.59 1056.75 1276.72C1045.27 1262.39 1029.37 1250.08 1010.04 1251.88C973.973 1255.25 956.663 1224.04 933.698 1202.55C922.018 1191.61 908.213 1184.18 892.376 1181.49C869.189 1177.55 845.019 1181.89 822.389 1186.78C785.566 1194.74 751.726 1209.95 724.054 1235.93C701.231 1257.38 683.26 1284.2 657.601 1302.56C642.877 1313.12 625.759 1319.64 607.588 1320.46C567.535 1322.3 537.403 1288.44 515.691 1259.03C486.147 1219.04 464.132 1172.46 429.009 1136.8C412.928 1120.47 392.416 1106.53 368.582 1107.36C345.094 1108.18 325.879 1128.14 311.167 1144.36C290.241 1167.47 271.606 1192.64 252.292 1217.1C242.893 1229 233.72 1241.05 223.379 1252.15C212.856 1263.44 202.538 1274.94 192.125 1286.31C170.443 1309.98 148.228 1333.48 122.848 1353.26C93.5999 1376.09 59.7972 1393.12 22.656 1397.55C-38.0371 1404.8 -100.514 1399.05 -157.875 1377.04C-201.991 1360.12 -244.183 1332.38 -269.645 1291.7C-281.946 1272.06 -289.785 1249.62 -290.993 1226.41" stroke="#184994" stroke-width="0.8" stroke-miterlimit="10"/>
</g>
</svg>
