<svg width="48" height="48" viewBox="0 0 48 48" fill="none" xmlns="http://www.w3.org/2000/svg">
<path d="M24 44H42C43.1046 44 44 43.1046 44 42V6C44 4.89543 43.1046 4 42 4H24M24 44H6C4.89543 44 4 43.1046 4 42V6C4 4.89543 4.89543 4 6 4H24M24 44V4M29 22H39M29 29H39M29 36H36M9 22H19M9 29H19M9 36H16M36 12C36 13.1046 35.1046 14 34 14C32.8954 14 32 13.1046 32 12C32 10.8954 32.8954 10 34 10C35.1046 10 36 10.8954 36 12ZM16 12C16 13.1046 15.1046 14 14 14C12.8954 14 12 13.1046 12 12C12 10.8954 12.8954 10 14 10C15.1046 10 16 10.8954 16 12Z" stroke="white" stroke-width="3"/>
</svg>
