<svg width="204" height="49" viewBox="0 0 204 49" fill="none" xmlns="http://www.w3.org/2000/svg">
<path d="M29.9343 33.0426C30.511 33.0426 30.4432 32.7372 30.4432 32.0927V29.1073C30.4432 28.4966 30.3753 28.2931 30.7485 28.2931C31.9698 28.2931 32.309 28.1574 32.309 27.1057V16.0463C32.309 13.027 30.1718 13.5358 29.5951 12.4503C28.7469 10.9576 31.1895 10.9576 30.3075 7.73473C30.07 7.02231 29.4933 6.54736 28.4077 6.54736C27.2882 6.54736 26.7454 6.98838 26.5079 7.73473C25.6259 10.9576 28.0684 10.9576 27.2203 12.4503C26.6097 13.5698 24.5063 13.0609 24.5063 16.0463V27.1057C24.5063 28.1913 24.8456 28.2931 26.0669 28.2931C26.4061 28.2931 26.3722 28.4966 26.3722 29.1073V32.0927C26.3722 32.7033 26.3044 33.0426 26.8811 33.0426H29.9343Z" fill="white"/>
<path d="M20.2654 9.09182C19.1798 10.2453 17.4497 12.9592 18.5692 15.1983C20.8421 16.0803 20.6725 7.97231 23.5222 8.10801C24.9131 9.39714 23.1151 13.2306 22.5384 14.9269C21.8599 16.9963 21.2832 21.3386 19.9601 23.442C18.8406 25.206 19.6887 30.7018 19.3155 32.6016C18.3656 33.5515 15.7874 32.873 14.7357 32.7034C14.7357 30.5322 14.4643 28.8021 14.0911 25.3417C14.0572 24.6293 13.3109 13.9091 13.9215 12.62C15.1428 9.90601 21.8599 4.78338 22.7758 3.79957C23.59 2.91752 26.4058 0 27.4914 0C28.2716 0.50887 27.7967 1.76408 27.6271 2.23903C26.5415 4.91908 21.826 7.56521 20.2654 9.09182Z" fill="white"/>
<path d="M36.5838 9.09182C37.6354 10.2453 39.3656 12.9592 38.2461 15.1983C35.9392 16.0803 36.1088 7.97231 33.2592 8.10801C31.9022 9.39714 33.7002 13.2306 34.2769 14.9269C34.9893 16.9963 35.5321 21.3386 36.8552 23.442C37.9408 25.206 37.1266 30.7018 37.4319 32.6016C38.4157 33.5515 40.9601 32.873 42.0457 32.7034C42.0457 30.5322 42.2831 28.8021 42.6563 25.3417C42.7241 24.6293 43.4705 13.9091 42.8598 12.62C41.6386 9.90601 34.9215 4.78338 34.0394 3.79957C33.1913 2.91752 30.4095 0 29.3239 0C28.5097 0.50887 29.0186 1.76408 29.1882 2.23903C30.3077 4.91908 35.0232 7.56521 36.5838 9.09182Z" fill="white"/>
<path d="M10.5293 5.46195C9.91866 6.00474 8.5956 6.41185 7.67963 7.63314C7.34038 6.95464 8.22242 5.36018 9.30801 4.41029C10.1222 3.7318 11.7167 2.64621 12.1577 2.54443C12.5309 3.3247 11.2417 4.57991 10.5293 5.46195Z" fill="white"/>
<path d="M8.66357 9.83815C7.64583 10.788 6.56024 11.1612 5.13541 12.8914C4.55869 10.822 4.69438 8.99003 4.96578 7.73482C5.47465 6.10643 6.25492 4.34234 7.64583 3.76562C7.37444 4.68159 6.89949 5.93681 6.79772 7.66697C6.18707 10.0078 5.84782 10.0756 5.98352 10.4149C6.11922 10.4149 6.89949 9.19358 7.84938 8.24369C8.9689 7.12417 10.3598 6.8867 11.2758 6.20821C11.1401 6.68315 10.3598 8.10799 8.66357 9.83815Z" fill="white"/>
<path d="M3.71042 19.5747C2.35343 17.0982 2.18381 15.3341 2.08203 13.2647C2.14988 11.8398 2.8623 8.48129 3.91397 8.00635C3.60864 11.0256 4.42284 11.297 4.08359 13.8075C4.08359 13.9432 3.74434 16.5554 3.74434 16.6911C4.15144 16.6232 3.77827 14.2824 8.59557 10.9578C7.54391 12.7897 8.01885 13.3325 6.11907 15.7751C3.91397 17.9124 3.60864 20.0496 3.71042 19.5747Z" fill="white"/>
<path d="M5.6443 21.8816C4.62656 23.3404 4.79618 24.0867 4.55871 24.7991C2.15006 23.4082 -0.597845 17.8106 0.419896 15.0288C1.06447 17.1321 1.94651 17.6071 2.55715 19.3712C3.64274 22.0173 3.47312 22.8315 4.18554 23.4082C4.04984 22.0512 4.49086 20.4228 4.96581 19.2355C5.6443 18.2177 6.15317 16.8947 6.66204 16.4197C7.13699 18.3534 6.76381 19.914 5.6443 21.8816Z" fill="white"/>
<path d="M7.81517 26.6646C7.81517 28.8018 7.442 29.7517 7.23845 31.3462C3.06571 29.9553 0.894531 25.2058 0.894531 22.8311C2.14975 25.7147 4.0156 25.6808 6.45818 29.7517C6.66173 28.1912 6.05109 29.3446 5.98324 26.461C6.05109 23.4078 6.69566 23.306 6.79743 21.4062C7.54377 22.2544 7.81517 25.6129 7.81517 26.6646Z" fill="white"/>
<path d="M11.2754 32.7375C11.5807 34.2981 11.7164 36.1978 11.9878 37.5548C9.61305 36.6728 9.0024 37.3513 6.15273 35.5533C4.86359 34.8409 2.52278 31.8894 2.65848 29.7861C5.47423 32.9072 5.94918 32.5679 7.34009 33.7213C8.5953 34.7391 9.61305 36.2318 10.529 36.0282C10.5969 35.1801 8.45961 33.3482 8.731 28.0898C9.30772 28.7005 10.8683 31.1091 11.2754 32.7375Z" fill="white"/>
<path d="M16.0253 36.6727C16.7717 37.7243 16.6021 38.1653 18.5018 40.3705C18.0269 40.574 15.3469 41.2864 13.5488 41.3543C12.3615 41.3543 8.15482 40.2347 6.72998 37.3511C9.13863 38.6403 9.20648 38.335 12.4293 39.0135C14.7362 39.5563 16.3985 40.2687 17.0431 40.2008C16.9074 39.8955 15.1094 39.1492 13.8881 37.5886C12.6668 35.9263 12.9382 34.0605 11.8526 32.7035C12.565 32.5338 15.4486 35.8924 16.0253 36.6727Z" fill="white"/>
<path d="M46.1496 5.46195C46.7264 6.00474 48.0834 6.41185 48.9654 7.63314C49.3386 6.95464 48.4226 5.36018 47.3031 4.41029C46.5228 3.7318 44.9623 2.64621 44.4534 2.54443C44.1142 3.3247 45.3694 4.57991 46.1496 5.46195Z" fill="white"/>
<path d="M48.016 9.83815C48.9998 10.788 50.0854 11.1612 51.4763 12.8914C52.0869 10.822 51.9173 8.99003 51.6459 7.73482C51.2049 6.10643 50.3568 4.34234 48.9659 3.76562C49.2712 4.68159 49.7122 5.93681 49.814 7.66697C50.3907 10.0078 50.7639 10.0756 50.6282 10.4149C50.4925 10.4149 49.7122 9.19358 48.7623 8.24369C47.6767 7.12417 46.2858 6.8867 45.3359 6.20821C45.4716 6.68315 46.3198 8.10799 48.016 9.83815Z" fill="white"/>
<path d="M52.9355 19.5747C54.3264 17.0982 54.4282 15.3341 54.5639 13.2647C54.496 11.8398 53.7836 8.48129 52.7658 8.00635C53.0372 11.0256 52.257 11.297 52.5962 13.8075C52.5962 13.9432 52.9355 16.5554 52.9355 16.6911C52.5284 16.6232 52.9015 14.2824 48.1182 10.9578C49.1359 12.7897 48.661 13.3325 50.5607 15.7751C52.7319 17.9124 53.0372 20.0496 52.9355 19.5747Z" fill="white"/>
<path d="M51.0355 21.8816C52.0193 23.3404 51.8497 24.0867 52.0871 24.7991C54.4958 23.4082 57.2776 17.8106 56.226 15.0288C55.6492 17.1321 54.7333 17.6071 54.1226 19.3712C53.0031 22.0173 53.1727 22.8315 52.4942 23.4082C52.6299 22.0512 52.155 20.4228 51.68 19.2355C51.0355 18.2177 50.4927 16.8947 49.9838 16.4197C49.5089 18.3534 49.8481 19.914 51.0355 21.8816Z" fill="white"/>
<path d="M48.7969 26.6646C48.7969 28.8018 49.204 29.7517 49.4075 31.3462C53.5463 29.9892 55.7514 25.2058 55.7514 22.8311C54.4623 25.7147 52.6304 25.6808 50.1539 29.7517C49.9503 28.1912 50.561 29.3446 50.6288 26.461C50.561 23.4078 49.9164 23.306 49.8146 21.4062C49.1022 22.2544 48.7969 25.6129 48.7969 26.6646Z" fill="white"/>
<path d="M45.3357 32.7375C45.0304 34.2981 44.8947 36.1978 44.6572 37.5548C46.998 36.6728 47.6087 37.3513 50.4583 35.5533C51.7475 34.8409 54.1222 31.8894 53.9865 29.7861C51.1708 32.9072 50.6619 32.5679 49.3049 33.7213C48.0497 34.7391 46.998 36.2318 46.0821 36.0282C46.0142 35.1801 48.1515 33.3482 47.914 28.0898C47.3033 28.7005 45.7428 31.1091 45.3357 32.7375Z" fill="white"/>
<path d="M40.5866 36.6727C39.8742 37.7243 40.0438 38.1653 38.144 40.3705C38.6529 40.574 41.299 41.2864 43.131 41.3543C44.2844 41.3543 48.4911 40.2347 49.9159 37.3511C47.5073 38.6403 47.4733 38.335 44.2166 39.0135C41.9097 39.5563 40.2813 40.2687 39.6028 40.2008C39.7385 39.8955 41.5704 39.1492 42.7578 37.5886C43.9791 35.9263 43.7077 34.0605 44.8272 32.7035C44.0809 32.5338 41.1973 35.8924 40.5866 36.6727Z" fill="white"/>
<path d="M22.335 46.5782L21.6226 46.2389C21.6226 46.2389 26.1006 40.811 33.7337 41.2181C41.4007 41.6252 40.8579 43.4232 44.9627 43.1518C45.4377 43.1179 44.6235 43.7285 44.6235 43.7285C44.6235 43.7285 40.6204 45.2891 35.6674 43.5928C30.7483 41.8627 27.5594 40.8449 22.335 46.5782Z" fill="white"/>
<path d="M34.446 46.5782L35.1584 46.2389C35.1584 46.2389 30.7482 40.811 23.0812 41.2181C15.3803 41.6252 15.9231 43.4232 11.8182 43.1518C11.3432 43.1179 12.1574 43.7285 12.1574 43.7285C12.1574 43.7285 16.1606 45.2891 21.1136 43.5928C26.0326 41.8627 29.2555 40.8449 34.446 46.5782Z" fill="white"/>
<path d="M88.7259 22.8991C88.7259 30.2269 84.7567 33.755 76.6827 33.755C68.6086 33.755 64.6055 30.2269 64.6055 22.8991V6.68311H72.7474V21.1011C72.7474 23.8151 72.7474 27.1736 76.7166 27.1736C80.584 27.1736 80.584 23.7812 80.584 21.1011V6.68311H88.7259V22.8991Z" fill="white"/>
<path d="M93.645 6.64941H101.957L109.691 20.8299H109.759V6.64941H117.46V33.1107H109.522L101.414 18.6588H101.346V33.1107H93.645V6.64941Z" fill="white"/>
<path d="M122.481 6.64941H130.623V15.843H138.256V6.64941H146.432V33.1107H138.256V22.6279H130.623V33.1107H122.481V6.64941Z" fill="white"/>
<path d="M167.295 16.5211C167.16 15.5712 166.413 12.6197 163.021 12.6197C159.187 12.6197 157.966 16.3175 157.966 19.8796C157.966 23.4417 159.187 27.1395 163.021 27.1395C165.769 27.1395 166.854 25.2058 167.329 22.7293H175.336C175.336 28.0555 170.993 33.7548 163.258 33.7548C154.709 33.7548 149.824 27.7162 149.824 19.8796C149.824 11.5341 155.083 6.00439 163.258 6.00439C170.518 6.03832 174.521 9.87181 175.234 16.4871H167.295V16.5211Z" fill="white"/>
<path d="M178.728 33.1104H186.87V23.8829H191.212C194.435 23.8829 194.639 26.529 194.876 29.0394C194.978 30.3964 195.114 31.7873 195.555 33.1104H203.697C202.95 31.8891 202.916 28.7341 202.815 27.445C202.509 24.1543 201.152 21.7117 198.913 20.8297C201.627 19.8459 202.882 16.9283 202.882 14.1804C202.882 9.19351 198.879 6.61523 194.266 6.61523H178.728V33.1104ZM186.904 12.9591H190.737C193.858 12.9591 194.774 13.909 194.774 15.6053C194.774 17.98 192.705 18.2514 191.178 18.2514H186.904V12.9591Z" fill="white"/>
<path d="M67.2516 39.217H64.6055V37.5547H71.8654V39.217H69.2192V46.443H67.2516V39.217Z" fill="white"/>
<path d="M72.4756 37.5547H74.2397V40.8793H74.2736C74.7146 40.1669 75.4949 39.8276 76.1395 39.8276C78.0053 39.8276 78.4803 40.8793 78.4803 42.4738V46.409H76.7162V42.7791C76.7162 41.7274 76.4108 41.2186 75.5967 41.2186C74.6468 41.2186 74.2397 41.7614 74.2397 43.0505V46.409H72.4756V37.5547Z" fill="white"/>
<path d="M83.8742 42.5416C83.7046 41.6596 83.3314 41.1846 82.4833 41.1846C81.3638 41.1846 81.0246 42.0667 81.0246 42.5416H83.8742ZM81.0246 43.6611C81.0585 44.7806 81.6352 45.2895 82.5851 45.2895C83.2975 45.2895 83.8743 44.8485 83.976 44.4414H85.5366C85.0277 45.968 83.976 46.6126 82.5173 46.6126C80.4818 46.6126 79.2266 45.2217 79.2266 43.2201C79.2266 41.2864 80.5496 39.8276 82.5173 39.8276C84.6884 39.8276 85.7401 41.6596 85.6383 43.6272H81.0246V43.6611Z" fill="white"/>
<path d="M97.1052 43.0842C97.1052 45.4928 95.6804 46.6463 93.3057 46.6463C90.931 46.6463 89.54 45.4928 89.54 43.0842V37.5884H91.5077V43.0842C91.5077 44.0341 91.7451 45.0179 93.3396 45.0179C94.7305 45.0179 95.1715 44.4072 95.1715 43.0842V37.5884H97.1392V43.0842H97.1052Z" fill="white"/>
<path d="M98.3945 37.5547H100.328L104.026 43.5254H104.06V37.5547H105.892V46.443H103.958L100.26 40.5061H100.226V46.443H98.3945V37.5547Z" fill="white"/>
<path d="M110.133 46.4427H112.1V42.9824H114.068C115.052 42.9824 115.391 43.3895 115.527 44.3055C115.628 45.0179 115.594 45.866 115.832 46.4427H117.766C117.426 45.9339 117.426 44.9161 117.392 44.3394C117.325 43.4573 117.053 42.5075 116.103 42.27V42.2361C117.087 41.829 117.494 41.0487 117.494 40.031C117.494 38.7079 116.476 37.5884 114.882 37.5884H110.099V46.4427H110.133ZM112.1 39.0811H114.237C115.086 39.0811 115.561 39.4542 115.561 40.3024C115.561 41.1844 115.086 41.5576 114.237 41.5576H112.1V39.0811Z" fill="white"/>
<path d="M124.788 43.6614C124.923 41.6937 123.872 39.8618 121.667 39.8618C119.699 39.8618 118.376 41.3206 118.376 43.2543C118.376 45.2219 119.631 46.6468 121.667 46.6468C123.125 46.6468 124.177 46.0022 124.686 44.4756H123.125C123.024 44.8827 122.447 45.3237 121.735 45.3237C120.751 45.3237 120.208 44.8148 120.174 43.6953H124.788V43.6614ZM120.14 42.5419C120.174 42.033 120.479 41.1849 121.599 41.1849C122.447 41.1849 122.854 41.6598 122.99 42.5419H120.14Z" fill="white"/>
<path d="M125.941 41.1846H124.89V39.9973H125.941V39.4884C125.941 38.3689 126.654 37.5547 128.079 37.5547C128.384 37.5547 128.723 37.5886 129.028 37.5886V38.9117C128.825 38.8778 128.587 38.8777 128.384 38.8777C127.909 38.8777 127.705 39.0813 127.705 39.6241V39.9973H128.927V41.1846H127.705V46.443H125.941V41.1846Z" fill="white"/>
<path d="M135.508 46.4428H133.812V45.5607H133.778C133.337 46.2731 132.556 46.6124 131.81 46.6124C129.944 46.6124 129.469 45.5607 129.469 43.9663V39.9971H131.233V43.627C131.233 44.6787 131.539 45.1875 132.353 45.1875C133.303 45.1875 133.71 44.6787 133.71 43.3556V39.9971H135.474V46.4428H135.508Z" fill="white"/>
<path d="M142.734 39.9973H141.038V40.8454H141.004C140.597 40.099 139.952 39.8276 139.104 39.8276C137.306 39.8276 136.356 41.3542 136.356 43.0166C136.356 44.7806 137.17 46.2394 139.104 46.2394C139.884 46.2394 140.63 45.9341 141.038 45.2556H141.071V46.1037C141.071 47.0197 140.63 47.6982 139.681 47.6982C139.07 47.6982 138.527 47.4607 138.358 46.8161H136.593C136.661 48.2749 138.154 48.8855 139.409 48.8855C142.361 48.8855 142.734 47.0875 142.734 46.0359V39.9973ZM139.579 44.9163C138.493 44.9163 138.154 43.9325 138.154 43.0166C138.154 42.0667 138.595 41.1846 139.579 41.1846C140.732 41.1846 141.071 42.1345 141.071 43.1523C141.071 44.0682 140.563 44.9163 139.579 44.9163Z" fill="white"/>
<path d="M150.027 43.6614C150.163 41.6937 149.112 39.8618 146.906 39.8618C144.939 39.8618 143.616 41.3206 143.616 43.2543C143.616 45.2219 144.871 46.6468 146.906 46.6468C148.365 46.6468 149.417 46.0022 149.926 44.4756H148.365C148.263 44.8827 147.687 45.3237 146.974 45.3237C145.99 45.3237 145.448 44.8148 145.414 43.6953H150.027V43.6614ZM145.38 42.5419C145.414 42.033 145.719 41.1849 146.839 41.1849C147.687 41.1849 148.094 41.6598 148.229 42.5419H145.38Z" fill="white"/>
<path d="M156.914 43.6614C157.05 41.6937 155.964 39.8618 153.793 39.8618C151.859 39.8618 150.502 41.3206 150.502 43.2543C150.502 45.2219 151.758 46.6468 153.793 46.6468C155.252 46.6468 156.304 46.0022 156.812 44.4756H155.252C155.15 44.8827 154.573 45.3237 153.861 45.3237C152.877 45.3237 152.334 44.8148 152.3 43.6953H156.914V43.6614ZM152.3 42.5419C152.334 42.033 152.64 41.1849 153.759 41.1849C154.607 41.1849 155.014 41.6598 155.15 42.5419H152.3Z" fill="white"/>
<path d="M160.646 46.4427H162.614L163.327 44.4751H166.651L167.33 46.4427H169.365L166.041 37.5884H164.039L160.646 46.4427ZM164.989 39.7596L166.142 43.0163H163.835L164.989 39.7596Z" fill="white"/>
<path d="M175.845 39.9973H174.148V40.8454H174.114C173.707 40.099 173.063 39.8276 172.215 39.8276C170.417 39.8276 169.467 41.3542 169.467 43.0166C169.467 44.7806 170.281 46.2394 172.215 46.2394C172.995 46.2394 173.741 45.9341 174.148 45.2556H174.182V46.1037C174.182 47.0197 173.741 47.6982 172.757 47.6982C172.147 47.6982 171.604 47.4607 171.434 46.8161H169.67C169.738 48.2749 171.231 48.8855 172.486 48.8855C175.438 48.8855 175.811 47.0875 175.811 46.0359V39.9973H175.845ZM172.656 44.9163C171.57 44.9163 171.231 43.9325 171.231 43.0166C171.231 42.0667 171.672 41.1846 172.656 41.1846C173.809 41.1846 174.148 42.1345 174.148 43.1523C174.148 44.0682 173.64 44.9163 172.656 44.9163Z" fill="white"/>
<path d="M183.104 43.6614C183.24 41.6937 182.188 39.8618 179.983 39.8618C178.015 39.8618 176.692 41.3206 176.692 43.2543C176.692 45.2219 177.948 46.6468 179.983 46.6468C181.442 46.6468 182.494 46.0022 182.968 44.4756H181.442C181.34 44.8827 180.763 45.3237 180.051 45.3237C179.067 45.3237 178.524 44.8148 178.49 43.6953H183.104V43.6614ZM178.456 42.5419C178.49 42.033 178.796 41.1849 179.915 41.1849C180.763 41.1849 181.17 41.6598 181.306 42.5419H178.456Z" fill="white"/>
<path d="M183.885 40.0312H185.547V40.9132H185.581C186.022 40.2008 186.802 39.8276 187.549 39.8276C189.414 39.8276 189.889 40.8793 189.889 42.4738V46.409H188.125V42.7791C188.125 41.7274 187.82 41.1846 187.006 41.1846C186.056 41.1846 185.649 41.7274 185.649 43.0166V46.3751H183.885V40.0312Z" fill="white"/>
<path d="M195.351 42.2702C195.25 41.5578 194.775 41.1507 194.062 41.1507C192.943 41.1507 192.569 42.3041 192.569 43.2201C192.569 44.1361 192.943 45.2556 194.028 45.2556C194.842 45.2556 195.317 44.7467 195.419 43.9664H197.115C196.912 45.6627 195.724 46.6126 194.028 46.6126C192.095 46.6126 190.771 45.2556 190.771 43.3219C190.771 41.3203 191.959 39.8276 194.062 39.8276C195.589 39.8276 196.98 40.6079 197.081 42.2702H195.351Z" fill="white"/>
<path d="M201.05 47.257C200.677 48.2747 200.066 48.7157 198.845 48.7157C198.472 48.7157 198.133 48.6818 197.76 48.6479V47.1891C198.099 47.223 198.438 47.257 198.777 47.257C199.388 47.1891 199.592 46.5445 199.388 46.0357L197.149 39.9971H199.049L200.507 44.4073H200.541L201.966 39.9971H203.798L201.05 47.257Z" fill="white"/>
<path d="M29.9343 33.0426C30.511 33.0426 30.4432 32.7372 30.4432 32.0927V29.1073C30.4432 28.4966 30.3753 28.2931 30.7485 28.2931C31.9698 28.2931 32.309 28.1574 32.309 27.1057V16.0463C32.309 13.027 30.1718 13.5358 29.5951 12.4503C28.7469 10.9576 31.1895 10.9576 30.3075 7.73473C30.07 7.02231 29.4933 6.54736 28.4077 6.54736C27.2882 6.54736 26.7454 6.98838 26.5079 7.73473C25.6259 10.9576 28.0684 10.9576 27.2203 12.4503C26.6097 13.5698 24.5063 13.0609 24.5063 16.0463V27.1057C24.5063 28.1913 24.8456 28.2931 26.0669 28.2931C26.4061 28.2931 26.3722 28.4966 26.3722 29.1073V32.0927C26.3722 32.7033 26.3044 33.0426 26.8811 33.0426H29.9343Z" fill="white"/>
<path d="M20.2654 9.09182C19.1798 10.2453 17.4497 12.9592 18.5692 15.1983C20.8421 16.0803 20.6725 7.97231 23.5222 8.10801C24.9131 9.39714 23.1151 13.2306 22.5384 14.9269C21.8599 16.9963 21.2832 21.3386 19.9601 23.442C18.8406 25.206 19.6887 30.7018 19.3155 32.6016C18.3656 33.5515 15.7874 32.873 14.7357 32.7034C14.7357 30.5322 14.4643 28.8021 14.0911 25.3417C14.0572 24.6293 13.3109 13.9091 13.9215 12.62C15.1428 9.90601 21.8599 4.78338 22.7758 3.79957C23.59 2.91752 26.4058 0 27.4914 0C28.2716 0.50887 27.7967 1.76408 27.6271 2.23903C26.5415 4.91908 21.826 7.56521 20.2654 9.09182Z" fill="white"/>
<path d="M36.5838 9.09182C37.6354 10.2453 39.3656 12.9592 38.2461 15.1983C35.9392 16.0803 36.1088 7.97231 33.2592 8.10801C31.9022 9.39714 33.7002 13.2306 34.2769 14.9269C34.9893 16.9963 35.5321 21.3386 36.8552 23.442C37.9408 25.206 37.1266 30.7018 37.4319 32.6016C38.4157 33.5515 40.9601 32.873 42.0457 32.7034C42.0457 30.5322 42.2831 28.8021 42.6563 25.3417C42.7241 24.6293 43.4705 13.9091 42.8598 12.62C41.6386 9.90601 34.9215 4.78338 34.0394 3.79957C33.1913 2.91752 30.4095 0 29.3239 0C28.5097 0.50887 29.0186 1.76408 29.1882 2.23903C30.3077 4.91908 35.0232 7.56521 36.5838 9.09182Z" fill="white"/>
<path d="M10.5293 5.46195C9.91866 6.00474 8.5956 6.41185 7.67963 7.63314C7.34038 6.95464 8.22242 5.36018 9.30801 4.41029C10.1222 3.7318 11.7167 2.64621 12.1577 2.54443C12.5309 3.3247 11.2417 4.57991 10.5293 5.46195Z" fill="white"/>
<path d="M8.66357 9.83815C7.64583 10.788 6.56024 11.1612 5.13541 12.8914C4.55869 10.822 4.69438 8.99003 4.96578 7.73482C5.47465 6.10643 6.25492 4.34234 7.64583 3.76562C7.37444 4.68159 6.89949 5.93681 6.79772 7.66697C6.18707 10.0078 5.84782 10.0756 5.98352 10.4149C6.11922 10.4149 6.89949 9.19358 7.84938 8.24369C8.9689 7.12417 10.3598 6.8867 11.2758 6.20821C11.1401 6.68315 10.3598 8.10799 8.66357 9.83815Z" fill="white"/>
<path d="M3.71042 19.5747C2.35343 17.0982 2.18381 15.3341 2.08203 13.2647C2.14988 11.8398 2.8623 8.48129 3.91397 8.00635C3.60864 11.0256 4.42284 11.297 4.08359 13.8075C4.08359 13.9432 3.74434 16.5554 3.74434 16.6911C4.15144 16.6232 3.77827 14.2824 8.59557 10.9578C7.54391 12.7897 8.01885 13.3325 6.11907 15.7751C3.91397 17.9124 3.60864 20.0496 3.71042 19.5747Z" fill="white"/>
<path d="M5.6443 21.8816C4.62656 23.3404 4.79618 24.0867 4.55871 24.7991C2.15006 23.4082 -0.597845 17.8106 0.419896 15.0288C1.06447 17.1321 1.94651 17.6071 2.55715 19.3712C3.64274 22.0173 3.47312 22.8315 4.18554 23.4082C4.04984 22.0512 4.49086 20.4228 4.96581 19.2355C5.6443 18.2177 6.15317 16.8947 6.66204 16.4197C7.13699 18.3534 6.76381 19.914 5.6443 21.8816Z" fill="white"/>
<path d="M7.81517 26.6646C7.81517 28.8018 7.442 29.7517 7.23845 31.3462C3.06571 29.9553 0.894531 25.2058 0.894531 22.8311C2.14975 25.7147 4.0156 25.6808 6.45818 29.7517C6.66173 28.1912 6.05109 29.3446 5.98324 26.461C6.05109 23.4078 6.69566 23.306 6.79743 21.4062C7.54377 22.2544 7.81517 25.6129 7.81517 26.6646Z" fill="white"/>
<path d="M11.2754 32.7375C11.5807 34.2981 11.7164 36.1978 11.9878 37.5548C9.61305 36.6728 9.0024 37.3513 6.15273 35.5533C4.86359 34.8409 2.52278 31.8894 2.65848 29.7861C5.47423 32.9072 5.94918 32.5679 7.34009 33.7213C8.5953 34.7391 9.61305 36.2318 10.529 36.0282C10.5969 35.1801 8.45961 33.3482 8.731 28.0898C9.30772 28.7005 10.8683 31.1091 11.2754 32.7375Z" fill="white"/>
<path d="M16.0253 36.6727C16.7717 37.7243 16.6021 38.1653 18.5018 40.3705C18.0269 40.574 15.3469 41.2864 13.5488 41.3543C12.3615 41.3543 8.15482 40.2347 6.72998 37.3511C9.13863 38.6403 9.20648 38.335 12.4293 39.0135C14.7362 39.5563 16.3985 40.2687 17.0431 40.2008C16.9074 39.8955 15.1094 39.1492 13.8881 37.5886C12.6668 35.9263 12.9382 34.0605 11.8526 32.7035C12.565 32.5338 15.4486 35.8924 16.0253 36.6727Z" fill="white"/>
<path d="M46.1496 5.46195C46.7264 6.00474 48.0834 6.41185 48.9654 7.63314C49.3386 6.95464 48.4226 5.36018 47.3031 4.41029C46.5228 3.7318 44.9623 2.64621 44.4534 2.54443C44.1142 3.3247 45.3694 4.57991 46.1496 5.46195Z" fill="white"/>
<path d="M48.016 9.83815C48.9998 10.788 50.0854 11.1612 51.4763 12.8914C52.0869 10.822 51.9173 8.99003 51.6459 7.73482C51.2049 6.10643 50.3568 4.34234 48.9659 3.76562C49.2712 4.68159 49.7122 5.93681 49.814 7.66697C50.3907 10.0078 50.7639 10.0756 50.6282 10.4149C50.4925 10.4149 49.7122 9.19358 48.7623 8.24369C47.6767 7.12417 46.2858 6.8867 45.3359 6.20821C45.4716 6.68315 46.3198 8.10799 48.016 9.83815Z" fill="white"/>
<path d="M52.9355 19.5747C54.3264 17.0982 54.4282 15.3341 54.5639 13.2647C54.496 11.8398 53.7836 8.48129 52.7658 8.00635C53.0372 11.0256 52.257 11.297 52.5962 13.8075C52.5962 13.9432 52.9355 16.5554 52.9355 16.6911C52.5284 16.6232 52.9015 14.2824 48.1182 10.9578C49.1359 12.7897 48.661 13.3325 50.5607 15.7751C52.7319 17.9124 53.0372 20.0496 52.9355 19.5747Z" fill="white"/>
<path d="M51.0355 21.8816C52.0193 23.3404 51.8497 24.0867 52.0871 24.7991C54.4958 23.4082 57.2776 17.8106 56.226 15.0288C55.6492 17.1321 54.7333 17.6071 54.1226 19.3712C53.0031 22.0173 53.1727 22.8315 52.4942 23.4082C52.6299 22.0512 52.155 20.4228 51.68 19.2355C51.0355 18.2177 50.4927 16.8947 49.9838 16.4197C49.5089 18.3534 49.8481 19.914 51.0355 21.8816Z" fill="white"/>
<path d="M48.7969 26.6646C48.7969 28.8018 49.204 29.7517 49.4075 31.3462C53.5463 29.9892 55.7514 25.2058 55.7514 22.8311C54.4623 25.7147 52.6304 25.6808 50.1539 29.7517C49.9503 28.1912 50.561 29.3446 50.6288 26.461C50.561 23.4078 49.9164 23.306 49.8146 21.4062C49.1022 22.2544 48.7969 25.6129 48.7969 26.6646Z" fill="white"/>
<path d="M45.3357 32.7375C45.0304 34.2981 44.8947 36.1978 44.6572 37.5548C46.998 36.6728 47.6087 37.3513 50.4583 35.5533C51.7475 34.8409 54.1222 31.8894 53.9865 29.7861C51.1708 32.9072 50.6619 32.5679 49.3049 33.7213C48.0497 34.7391 46.998 36.2318 46.0821 36.0282C46.0142 35.1801 48.1515 33.3482 47.914 28.0898C47.3033 28.7005 45.7428 31.1091 45.3357 32.7375Z" fill="white"/>
<path d="M40.5866 36.6727C39.8742 37.7243 40.0438 38.1653 38.144 40.3705C38.6529 40.574 41.299 41.2864 43.131 41.3543C44.2844 41.3543 48.4911 40.2347 49.9159 37.3511C47.5073 38.6403 47.4733 38.335 44.2166 39.0135C41.9097 39.5563 40.2813 40.2687 39.6028 40.2008C39.7385 39.8955 41.5704 39.1492 42.7578 37.5886C43.9791 35.9263 43.7077 34.0605 44.8272 32.7035C44.0809 32.5338 41.1973 35.8924 40.5866 36.6727Z" fill="white"/>
<path d="M22.335 46.5782L21.6226 46.2389C21.6226 46.2389 26.1006 40.811 33.7337 41.2181C41.4007 41.6252 40.8579 43.4232 44.9627 43.1518C45.4377 43.1179 44.6235 43.7285 44.6235 43.7285C44.6235 43.7285 40.6204 45.2891 35.6674 43.5928C30.7483 41.8627 27.5594 40.8449 22.335 46.5782Z" fill="white"/>
<path d="M34.446 46.5782L35.1584 46.2389C35.1584 46.2389 30.7482 40.811 23.0812 41.2181C15.3803 41.6252 15.9231 43.4232 11.8182 43.1518C11.3432 43.1179 12.1574 43.7285 12.1574 43.7285C12.1574 43.7285 16.1606 45.2891 21.1136 43.5928C26.0326 41.8627 29.2555 40.8449 34.446 46.5782Z" fill="white"/>
<path d="M88.7259 22.8991C88.7259 30.2269 84.7567 33.755 76.6827 33.755C68.6086 33.755 64.6055 30.2269 64.6055 22.8991V6.68311H72.7474V21.1011C72.7474 23.8151 72.7474 27.1736 76.7166 27.1736C80.584 27.1736 80.584 23.7812 80.584 21.1011V6.68311H88.7259V22.8991Z" fill="white"/>
<path d="M93.645 6.64941H101.957L109.691 20.8299H109.759V6.64941H117.46V33.1107H109.522L101.414 18.6588H101.346V33.1107H93.645V6.64941Z" fill="white"/>
<path d="M122.481 6.64941H130.623V15.843H138.256V6.64941H146.432V33.1107H138.256V22.6279H130.623V33.1107H122.481V6.64941Z" fill="white"/>
<path d="M167.295 16.5211C167.16 15.5712 166.413 12.6197 163.021 12.6197C159.187 12.6197 157.966 16.3175 157.966 19.8796C157.966 23.4417 159.187 27.1395 163.021 27.1395C165.769 27.1395 166.854 25.2058 167.329 22.7293H175.336C175.336 28.0555 170.993 33.7548 163.258 33.7548C154.709 33.7548 149.824 27.7162 149.824 19.8796C149.824 11.5341 155.083 6.00439 163.258 6.00439C170.518 6.03832 174.521 9.87181 175.234 16.4871H167.295V16.5211Z" fill="white"/>
<path d="M178.728 33.1104H186.87V23.8829H191.212C194.435 23.8829 194.639 26.529 194.876 29.0394C194.978 30.3964 195.114 31.7873 195.555 33.1104H203.697C202.95 31.8891 202.916 28.7341 202.815 27.445C202.509 24.1543 201.152 21.7117 198.913 20.8297C201.627 19.8459 202.882 16.9283 202.882 14.1804C202.882 9.19351 198.879 6.61523 194.266 6.61523H178.728V33.1104ZM186.904 12.9591H190.737C193.858 12.9591 194.774 13.909 194.774 15.6053C194.774 17.98 192.705 18.2514 191.178 18.2514H186.904V12.9591Z" fill="white"/>
<path d="M67.2516 39.217H64.6055V37.5547H71.8654V39.217H69.2192V46.443H67.2516V39.217Z" fill="white"/>
<path d="M72.4756 37.5547H74.2397V40.8793H74.2736C74.7146 40.1669 75.4949 39.8276 76.1395 39.8276C78.0053 39.8276 78.4803 40.8793 78.4803 42.4738V46.409H76.7162V42.7791C76.7162 41.7274 76.4108 41.2186 75.5967 41.2186C74.6468 41.2186 74.2397 41.7614 74.2397 43.0505V46.409H72.4756V37.5547Z" fill="white"/>
<path d="M83.8742 42.5416C83.7046 41.6596 83.3314 41.1846 82.4833 41.1846C81.3638 41.1846 81.0246 42.0667 81.0246 42.5416H83.8742ZM81.0246 43.6611C81.0585 44.7806 81.6352 45.2895 82.5851 45.2895C83.2975 45.2895 83.8743 44.8485 83.976 44.4414H85.5366C85.0277 45.968 83.976 46.6126 82.5173 46.6126C80.4818 46.6126 79.2266 45.2217 79.2266 43.2201C79.2266 41.2864 80.5496 39.8276 82.5173 39.8276C84.6884 39.8276 85.7401 41.6596 85.6383 43.6272H81.0246V43.6611Z" fill="white"/>
<path d="M97.1052 43.0842C97.1052 45.4928 95.6804 46.6463 93.3057 46.6463C90.931 46.6463 89.54 45.4928 89.54 43.0842V37.5884H91.5077V43.0842C91.5077 44.0341 91.7451 45.0179 93.3396 45.0179C94.7305 45.0179 95.1715 44.4072 95.1715 43.0842V37.5884H97.1392V43.0842H97.1052Z" fill="white"/>
<path d="M98.3945 37.5547H100.328L104.026 43.5254H104.06V37.5547H105.892V46.443H103.958L100.26 40.5061H100.226V46.443H98.3945V37.5547Z" fill="white"/>
<path d="M110.133 46.4427H112.1V42.9824H114.068C115.052 42.9824 115.391 43.3895 115.527 44.3055C115.628 45.0179 115.594 45.866 115.832 46.4427H117.766C117.426 45.9339 117.426 44.9161 117.392 44.3394C117.325 43.4573 117.053 42.5075 116.103 42.27V42.2361C117.087 41.829 117.494 41.0487 117.494 40.031C117.494 38.7079 116.476 37.5884 114.882 37.5884H110.099V46.4427H110.133ZM112.1 39.0811H114.237C115.086 39.0811 115.561 39.4542 115.561 40.3024C115.561 41.1844 115.086 41.5576 114.237 41.5576H112.1V39.0811Z" fill="white"/>
<path d="M124.788 43.6614C124.923 41.6937 123.872 39.8618 121.667 39.8618C119.699 39.8618 118.376 41.3206 118.376 43.2543C118.376 45.2219 119.631 46.6468 121.667 46.6468C123.125 46.6468 124.177 46.0022 124.686 44.4756H123.125C123.024 44.8827 122.447 45.3237 121.735 45.3237C120.751 45.3237 120.208 44.8148 120.174 43.6953H124.788V43.6614ZM120.14 42.5419C120.174 42.033 120.479 41.1849 121.599 41.1849C122.447 41.1849 122.854 41.6598 122.99 42.5419H120.14Z" fill="white"/>
<path d="M125.941 41.1846H124.89V39.9973H125.941V39.4884C125.941 38.3689 126.654 37.5547 128.079 37.5547C128.384 37.5547 128.723 37.5886 129.028 37.5886V38.9117C128.825 38.8778 128.587 38.8777 128.384 38.8777C127.909 38.8777 127.705 39.0813 127.705 39.6241V39.9973H128.927V41.1846H127.705V46.443H125.941V41.1846Z" fill="white"/>
<path d="M135.508 46.4428H133.812V45.5607H133.778C133.337 46.2731 132.556 46.6124 131.81 46.6124C129.944 46.6124 129.469 45.5607 129.469 43.9663V39.9971H131.233V43.627C131.233 44.6787 131.539 45.1875 132.353 45.1875C133.303 45.1875 133.71 44.6787 133.71 43.3556V39.9971H135.474V46.4428H135.508Z" fill="white"/>
<path d="M142.734 39.9973H141.038V40.8454H141.004C140.597 40.099 139.952 39.8276 139.104 39.8276C137.306 39.8276 136.356 41.3542 136.356 43.0166C136.356 44.7806 137.17 46.2394 139.104 46.2394C139.884 46.2394 140.63 45.9341 141.038 45.2556H141.071V46.1037C141.071 47.0197 140.63 47.6982 139.681 47.6982C139.07 47.6982 138.527 47.4607 138.358 46.8161H136.593C136.661 48.2749 138.154 48.8855 139.409 48.8855C142.361 48.8855 142.734 47.0875 142.734 46.0359V39.9973ZM139.579 44.9163C138.493 44.9163 138.154 43.9325 138.154 43.0166C138.154 42.0667 138.595 41.1846 139.579 41.1846C140.732 41.1846 141.071 42.1345 141.071 43.1523C141.071 44.0682 140.563 44.9163 139.579 44.9163Z" fill="white"/>
<path d="M150.027 43.6614C150.163 41.6937 149.112 39.8618 146.906 39.8618C144.939 39.8618 143.616 41.3206 143.616 43.2543C143.616 45.2219 144.871 46.6468 146.906 46.6468C148.365 46.6468 149.417 46.0022 149.926 44.4756H148.365C148.263 44.8827 147.687 45.3237 146.974 45.3237C145.99 45.3237 145.448 44.8148 145.414 43.6953H150.027V43.6614ZM145.38 42.5419C145.414 42.033 145.719 41.1849 146.839 41.1849C147.687 41.1849 148.094 41.6598 148.229 42.5419H145.38Z" fill="white"/>
<path d="M156.914 43.6614C157.05 41.6937 155.964 39.8618 153.793 39.8618C151.859 39.8618 150.502 41.3206 150.502 43.2543C150.502 45.2219 151.758 46.6468 153.793 46.6468C155.252 46.6468 156.304 46.0022 156.812 44.4756H155.252C155.15 44.8827 154.573 45.3237 153.861 45.3237C152.877 45.3237 152.334 44.8148 152.3 43.6953H156.914V43.6614ZM152.3 42.5419C152.334 42.033 152.64 41.1849 153.759 41.1849C154.607 41.1849 155.014 41.6598 155.15 42.5419H152.3Z" fill="white"/>
<path d="M160.646 46.4427H162.614L163.327 44.4751H166.651L167.33 46.4427H169.365L166.041 37.5884H164.039L160.646 46.4427ZM164.989 39.7596L166.142 43.0163H163.835L164.989 39.7596Z" fill="white"/>
<path d="M175.845 39.9973H174.148V40.8454H174.114C173.707 40.099 173.063 39.8276 172.215 39.8276C170.417 39.8276 169.467 41.3542 169.467 43.0166C169.467 44.7806 170.281 46.2394 172.215 46.2394C172.995 46.2394 173.741 45.9341 174.148 45.2556H174.182V46.1037C174.182 47.0197 173.741 47.6982 172.757 47.6982C172.147 47.6982 171.604 47.4607 171.434 46.8161H169.67C169.738 48.2749 171.231 48.8855 172.486 48.8855C175.438 48.8855 175.811 47.0875 175.811 46.0359V39.9973H175.845ZM172.656 44.9163C171.57 44.9163 171.231 43.9325 171.231 43.0166C171.231 42.0667 171.672 41.1846 172.656 41.1846C173.809 41.1846 174.148 42.1345 174.148 43.1523C174.148 44.0682 173.64 44.9163 172.656 44.9163Z" fill="white"/>
<path d="M183.104 43.6614C183.24 41.6937 182.188 39.8618 179.983 39.8618C178.015 39.8618 176.692 41.3206 176.692 43.2543C176.692 45.2219 177.948 46.6468 179.983 46.6468C181.442 46.6468 182.494 46.0022 182.968 44.4756H181.442C181.34 44.8827 180.763 45.3237 180.051 45.3237C179.067 45.3237 178.524 44.8148 178.49 43.6953H183.104V43.6614ZM178.456 42.5419C178.49 42.033 178.796 41.1849 179.915 41.1849C180.763 41.1849 181.17 41.6598 181.306 42.5419H178.456Z" fill="white"/>
<path d="M183.885 40.0312H185.547V40.9132H185.581C186.022 40.2008 186.802 39.8276 187.549 39.8276C189.414 39.8276 189.889 40.8793 189.889 42.4738V46.409H188.125V42.7791C188.125 41.7274 187.82 41.1846 187.006 41.1846C186.056 41.1846 185.649 41.7274 185.649 43.0166V46.3751H183.885V40.0312Z" fill="white"/>
<path d="M195.351 42.2702C195.25 41.5578 194.775 41.1507 194.062 41.1507C192.943 41.1507 192.569 42.3041 192.569 43.2201C192.569 44.1361 192.943 45.2556 194.028 45.2556C194.842 45.2556 195.317 44.7467 195.419 43.9664H197.115C196.912 45.6627 195.724 46.6126 194.028 46.6126C192.095 46.6126 190.771 45.2556 190.771 43.3219C190.771 41.3203 191.959 39.8276 194.062 39.8276C195.589 39.8276 196.98 40.6079 197.081 42.2702H195.351Z" fill="white"/>
<path d="M201.05 47.257C200.677 48.2747 200.066 48.7157 198.845 48.7157C198.472 48.7157 198.133 48.6818 197.76 48.6479V47.1891C198.099 47.223 198.438 47.257 198.777 47.257C199.388 47.1891 199.592 46.5445 199.388 46.0357L197.149 39.9971H199.049L200.507 44.4073H200.541L201.966 39.9971H203.798L201.05 47.257Z" fill="white"/>
</svg>
