<svg width="234" height="48" viewBox="0 0 234 48" fill="none" xmlns="http://www.w3.org/2000/svg">
<path d="M42.2947 12.9718C44.4151 10.7905 45.357 9.7814 45.2094 9.18409C45.0974 8.73611 44.6667 8.31971 43.9976 8.01072C43.2779 7.67933 42.2745 7.48118 41.7444 7.74537C41.5664 7.83267 41.2695 8.12271 40.5556 8.83087L39.8865 9.48677L39.8853 9.48562C39.5189 9.05541 39.1363 8.63929 38.7383 8.23816C35.9195 5.4193 32.3615 3.46368 28.4445 2.57518C26.9673 0.770039 24.941 -0.158666 22.8705 0.0222509C21.132 0.172727 19.5497 1.09626 18.401 2.62113C14.2945 3.56879 10.4936 5.62607 7.39098 8.58104V8.57874C6.75921 8.34211 5.32738 8.49546 4.40844 8.91932C3.88005 9.16341 3.56876 9.46781 3.47974 9.82505C3.41082 10.0967 3.49409 10.5344 4.50895 11.8668V11.8703C1.36732 16.1893 -0.227616 21.4462 0.0262414 26.6784C0.289288 32.0427 2.48326 37.0481 6.20784 40.7727C7.51796 42.0843 8.99571 43.2169 10.6027 44.1412C12.9132 45.469 15.4989 46.4627 18.2931 47.0341C24.1645 48.2333 29.9751 47.3632 34.853 44.9481L34.8673 44.9424C35.4887 44.6535 35.7547 43.9402 35.5019 43.2452L35.4256 43.0356C34.3964 40.2225 31.2605 31.6591 33.845 24.2203C34.9276 21.1073 37.65 17.8997 39.9829 15.3967H39.9841C42.0287 19.1115 42.9092 23.4231 42.4537 27.5669C42.0218 31.4943 40.474 35.0695 37.9527 37.9871V37.9883C37.8738 38.0711 37.83 38.1812 37.8303 38.2956C37.8303 38.3455 37.8447 38.3943 37.8533 38.4391L38.0514 39.002C38.0787 39.0732 38.1236 39.1363 38.1819 39.1854C38.2402 39.2345 38.31 39.268 38.3848 39.2827C38.4596 39.2975 38.5369 39.293 38.6095 39.2697C38.6821 39.2464 38.7476 39.2051 38.7998 39.1496L38.8142 39.1507C45.4288 31.8526 46.8807 21.2802 42.3102 12.9741V12.973L42.2947 12.9718ZM14.1751 29.0504C13.4945 31.8687 12.564 35.7214 12.7564 41.6526V41.6503C11.2341 40.7442 9.8297 39.6533 8.57526 38.4024C5.1591 34.9868 2.99959 30.5098 2.49417 25.7985C2.00886 21.2699 3.06564 16.7631 5.47097 13.0614V13.0603H5.47211L5.47097 13.0614C6.22737 13.9672 7.14631 15.0153 8.10833 16.1095C10.4648 18.7876 13.1355 21.8241 14.3887 23.9406C15.1153 25.1639 14.762 26.6273 14.1762 29.051L14.1751 29.0504ZM37.4386 11.7611C32.4603 16.1232 27.8943 18.3591 23.8796 18.3861C20.7897 18.408 17.5964 17.2679 14.3904 14.9975C11.7399 13.1212 9.74232 10.9599 8.54942 9.66941L8.42708 9.53846V9.53731V9.53846C10.8883 7.24528 13.9135 5.64559 17.1944 4.9024L17.1955 4.9001V4.90125C17.1944 4.9024 17.1955 4.9024 17.1955 4.9024C16.7665 6.14297 16.6114 7.49094 16.7303 8.85787C16.9457 11.312 18.0484 13.5404 19.7559 14.9734C21.0912 16.0945 22.7109 16.6344 24.3133 16.4954C25.9157 16.3547 27.4158 15.542 28.5375 14.205C29.9705 12.498 30.6695 10.1116 30.4541 7.6575C30.4153 7.2078 30.3458 6.76127 30.2462 6.32102V6.32216C32.5246 7.37723 34.5978 8.82787 36.3698 10.6067C36.7406 10.9785 37.0979 11.3636 37.4409 11.7611" fill="white"/>
<path d="M62.3765 27.5369C60.0918 26.5215 58.7323 26.1298 57.3941 26.1298C55.987 26.1298 55.0864 26.638 55.0864 27.422C55.0864 29.7981 63.0915 29.129 63.0915 34.6196C63.0915 37.6424 60.5541 39.3952 57.0478 39.3952C54.3025 39.3952 52.9413 38.6802 51.3722 37.8721V34.4806C53.6334 35.9808 55.0175 36.5109 56.748 36.5109C58.247 36.5109 59.0551 35.9808 59.0551 35.0578C59.0551 32.4733 51.0488 33.4193 51.0488 27.7678C51.0488 25.0454 53.4025 23.2466 57.0478 23.2466C58.8012 23.2466 60.3922 23.6153 62.3765 24.4699V27.5369ZM74.5065 37.157C74.1602 37.157 73.9523 36.9486 73.9523 36.419V31.5745C73.9523 29.2438 72.1299 28.345 69.4535 28.345C67.7695 28.345 66.2246 28.7832 64.8404 29.6361V32.3585C65.9012 31.2741 67.4232 30.582 68.7614 30.582C70.2145 30.582 70.6768 31.366 70.6068 32.3585C66.1556 33.7426 64.2862 34.2509 64.2862 36.7877C64.2862 38.126 65.5555 39.3952 67.2624 39.3952C68.4157 39.3952 69.4765 39.0725 70.7687 38.1949C71.0002 39.0495 71.5297 39.3952 72.637 39.3952C73.537 39.3952 74.8523 38.9789 75.7741 38.4263V36.5569C74.9901 37.1111 74.7363 37.157 74.5065 37.157ZM70.6068 36.604C70.0537 37.1111 69.3846 37.4109 68.7614 37.4109C68.1612 37.4109 67.6776 36.9026 67.6776 36.2812C67.6776 35.2198 68.6236 34.7575 70.6068 34.0424V36.604ZM75.3548 28.5517H78.9301L81.1901 34.4117L83.4748 28.5517H87.0271L82.1366 39.3952H80.2683L75.3548 28.5517ZM90.9211 34.4117H98.5569C98.7189 30.5361 96.1573 28.345 93.0663 28.345C89.7908 28.345 87.4607 30.6509 87.4607 33.9046C87.4607 37.226 89.8827 39.3952 93.6205 39.3952C94.4504 39.3952 96.4577 39.3952 98.3731 37.9881V35.8878C96.8035 37.0192 95.7656 37.4109 94.4274 37.4109C92.3282 37.4109 91.036 36.3042 90.9211 34.4117ZM93.2971 30.3282C94.5894 30.3282 95.4653 31.2052 95.6048 32.6583H90.99C91.129 31.1822 91.9819 30.3282 93.2971 30.3282ZM113.843 30.8365H109.967V35.2198C109.967 36.2582 110.567 36.9256 111.606 36.9256C112.298 36.9256 112.942 36.7648 113.843 36.3042V38.7261C112.667 39.2103 111.79 39.3952 110.751 39.3952C108.537 39.3952 106.622 38.3804 106.622 35.4036V30.837H105.1V30.1909L109.553 25.2068H109.967V28.5523H113.843V30.8365ZM118.498 30.1214H118.544C119.513 28.8981 120.597 28.345 121.912 28.345C123.849 28.345 125.81 29.5212 125.81 32.4056V39.1879H122.465V33.1195C122.465 31.5285 121.773 30.7905 120.735 30.7905C119.951 30.7905 119.282 31.2741 118.498 32.4056V39.1879H115.152V23.4545H118.498V30.1214ZM131.02 34.4117H138.655C138.816 30.5361 136.256 28.345 133.165 28.345C129.888 28.345 127.559 30.6509 127.559 33.9046C127.559 37.226 129.982 39.3952 133.718 39.3952C134.549 39.3952 136.556 39.3952 138.471 37.9881V35.8878C136.903 37.0192 135.864 37.4109 134.526 37.4109C132.427 37.4109 131.135 36.3042 131.02 34.4117ZM133.395 30.3282C134.687 30.3282 135.564 31.2052 135.702 32.6583H131.089C131.226 31.1822 132.081 30.3282 133.395 30.3282ZM161.346 37.8262C159.155 38.9559 157.494 39.3952 155.164 39.3952C149.051 39.3952 146.006 35.4266 146.006 31.366C146.006 27.1676 149.443 23.2466 155.463 23.2466C157.655 23.2466 159.616 23.7072 161.163 24.6307V28.1371C159.432 27.1676 157.679 26.5215 155.741 26.5215C152.395 26.5215 150.042 28.5058 150.042 31.2971C150.042 34.1113 152.372 36.1186 155.649 36.1186C157.702 36.1186 159.086 35.4725 161.346 34.3887V37.8262ZM167.022 30.1214H167.068C168.037 28.8981 169.121 28.345 170.436 28.345C172.374 28.345 174.335 29.5212 174.335 32.4056V39.1879H170.99V33.1195C170.99 31.5285 170.297 30.7905 169.259 30.7905C168.475 30.7905 167.806 31.2741 167.022 32.4056V39.1879H163.677V23.4545H167.022V30.1214ZM176.682 39.1873H180.027V28.5523H176.682V39.1873ZM180.189 25.0914C180.189 26.1068 179.359 26.9379 178.344 26.9379C177.329 26.9379 176.499 26.1068 176.499 25.0914C176.499 24.0759 177.329 23.2466 178.344 23.2466C179.359 23.2466 180.189 24.0765 180.189 25.0914ZM182.473 39.1873H185.818V23.4545H182.473V39.1873ZM195.554 23.4545V29.0141C194.653 28.5747 193.755 28.345 192.786 28.345C189.74 28.345 187.618 30.605 187.618 33.8586C187.618 37.0422 189.74 39.3952 192.6 39.3952C193.73 39.3952 194.608 39.0954 195.554 38.3344V39.1873H198.9V23.4545H195.554ZM195.554 36.2812C194.862 36.9026 194.285 37.157 193.57 37.157C192.002 37.157 191.009 35.8648 191.009 33.9275C191.009 31.8054 192.002 30.582 193.685 30.582C194.285 30.582 195.069 30.8594 195.554 31.2052V36.2812ZM204.615 31.5975H204.661C205.652 29.3834 206.76 28.345 208.052 28.345C208.721 28.345 209.298 28.5977 210.267 29.3127L209.344 32.2666C208.468 31.7123 207.891 31.4826 207.36 31.4826C206.137 31.4826 205.353 32.6353 204.615 34.5967V39.1873H201.27V28.5512H204.615V31.5975ZM213.982 34.4117H221.617C221.778 30.5361 219.218 28.345 216.127 28.345C212.85 28.345 210.521 30.6509 210.521 33.9046C210.521 37.226 212.943 39.3952 216.681 39.3952C217.511 39.3952 219.518 39.3952 221.432 37.9881V35.8878C219.864 37.0192 218.826 37.4109 217.488 37.4109C215.389 37.4109 214.097 36.3042 213.982 34.4117ZM216.358 30.3282C217.649 30.3282 218.526 31.2052 218.664 32.6583H214.051C214.19 31.1822 215.042 30.3282 216.358 30.3282ZM226.664 30.0737C227.726 28.8521 228.763 28.345 230.125 28.345C231.786 28.345 234 29.2898 234 32.4285V39.1879H230.655V32.7036C230.655 31.2046 229.94 30.5815 228.995 30.5815C228.163 30.5815 227.54 31.0197 226.664 32.3349V39.1868H223.319V28.5512H226.664V30.0737Z" fill="white"/>
<path d="M62.3765 27.5369C60.0918 26.5215 58.7323 26.1298 57.3941 26.1298C55.987 26.1298 55.0864 26.638 55.0864 27.422C55.0864 29.7981 63.0915 29.129 63.0915 34.6196C63.0915 37.6424 60.5541 39.3952 57.0478 39.3952C54.3025 39.3952 52.9413 38.6802 51.3722 37.8721V34.4806C53.6334 35.9808 55.0175 36.5109 56.748 36.5109C58.247 36.5109 59.0551 35.9808 59.0551 35.0578C59.0551 32.4733 51.0488 33.4193 51.0488 27.7678C51.0488 25.0454 53.4025 23.2466 57.0478 23.2466C58.8012 23.2466 60.3922 23.6153 62.3765 24.4699V27.5369ZM74.5065 37.157C74.1602 37.157 73.9523 36.9486 73.9523 36.419V31.5745C73.9523 29.2438 72.1299 28.345 69.4535 28.345C67.7695 28.345 66.2246 28.7832 64.8404 29.6361V32.3585C65.9012 31.2741 67.4232 30.582 68.7614 30.582C70.2145 30.582 70.6768 31.366 70.6068 32.3585C66.1556 33.7426 64.2862 34.2509 64.2862 36.7877C64.2862 38.126 65.5555 39.3952 67.2624 39.3952C68.4157 39.3952 69.4765 39.0725 70.7687 38.1949C71.0002 39.0495 71.5297 39.3952 72.637 39.3952C73.537 39.3952 74.8523 38.9789 75.7741 38.4263V36.5569C74.9901 37.1111 74.7363 37.157 74.5065 37.157ZM70.6068 36.604C70.0537 37.1111 69.3846 37.4109 68.7614 37.4109C68.1612 37.4109 67.6776 36.9026 67.6776 36.2812C67.6776 35.2198 68.6236 34.7575 70.6068 34.0424V36.604ZM75.3548 28.5517H78.9301L81.1901 34.4117L83.4748 28.5517H87.0271L82.1366 39.3952H80.2683L75.3548 28.5517ZM90.9211 34.4117H98.5569C98.7189 30.5361 96.1573 28.345 93.0663 28.345C89.7908 28.345 87.4607 30.6509 87.4607 33.9046C87.4607 37.226 89.8827 39.3952 93.6205 39.3952C94.4504 39.3952 96.4577 39.3952 98.3731 37.9881V35.8878C96.8035 37.0192 95.7656 37.4109 94.4274 37.4109C92.3282 37.4109 91.036 36.3042 90.9211 34.4117ZM93.2971 30.3282C94.5894 30.3282 95.4653 31.2052 95.6048 32.6583H90.99C91.129 31.1822 91.9819 30.3282 93.2971 30.3282ZM113.843 30.8365H109.967V35.2198C109.967 36.2582 110.567 36.9256 111.606 36.9256C112.298 36.9256 112.942 36.7648 113.843 36.3042V38.7261C112.667 39.2103 111.79 39.3952 110.751 39.3952C108.537 39.3952 106.622 38.3804 106.622 35.4036V30.837H105.1V30.1909L109.553 25.2068H109.967V28.5523H113.843V30.8365ZM118.498 30.1214H118.544C119.513 28.8981 120.597 28.345 121.912 28.345C123.849 28.345 125.81 29.5212 125.81 32.4056V39.1879H122.465V33.1195C122.465 31.5285 121.773 30.7905 120.735 30.7905C119.951 30.7905 119.282 31.2741 118.498 32.4056V39.1879H115.152V23.4545H118.498V30.1214ZM131.02 34.4117H138.655C138.816 30.5361 136.256 28.345 133.165 28.345C129.888 28.345 127.559 30.6509 127.559 33.9046C127.559 37.226 129.982 39.3952 133.718 39.3952C134.549 39.3952 136.556 39.3952 138.471 37.9881V35.8878C136.903 37.0192 135.864 37.4109 134.526 37.4109C132.427 37.4109 131.135 36.3042 131.02 34.4117ZM133.395 30.3282C134.687 30.3282 135.564 31.2052 135.702 32.6583H131.089C131.226 31.1822 132.081 30.3282 133.395 30.3282ZM161.346 37.8262C159.155 38.9559 157.494 39.3952 155.164 39.3952C149.051 39.3952 146.006 35.4266 146.006 31.366C146.006 27.1676 149.443 23.2466 155.463 23.2466C157.655 23.2466 159.616 23.7072 161.163 24.6307V28.1371C159.432 27.1676 157.679 26.5215 155.741 26.5215C152.395 26.5215 150.042 28.5058 150.042 31.2971C150.042 34.1113 152.372 36.1186 155.649 36.1186C157.702 36.1186 159.086 35.4725 161.346 34.3887V37.8262ZM167.022 30.1214H167.068C168.037 28.8981 169.121 28.345 170.436 28.345C172.374 28.345 174.335 29.5212 174.335 32.4056V39.1879H170.99V33.1195C170.99 31.5285 170.297 30.7905 169.259 30.7905C168.475 30.7905 167.806 31.2741 167.022 32.4056V39.1879H163.677V23.4545H167.022V30.1214ZM176.682 39.1873H180.027V28.5523H176.682V39.1873ZM180.189 25.0914C180.189 26.1068 179.359 26.9379 178.344 26.9379C177.329 26.9379 176.499 26.1068 176.499 25.0914C176.499 24.0759 177.329 23.2466 178.344 23.2466C179.359 23.2466 180.189 24.0765 180.189 25.0914ZM182.473 39.1873H185.818V23.4545H182.473V39.1873ZM195.554 23.4545V29.0141C194.653 28.5747 193.755 28.345 192.786 28.345C189.74 28.345 187.618 30.605 187.618 33.8586C187.618 37.0422 189.74 39.3952 192.6 39.3952C193.73 39.3952 194.608 39.0954 195.554 38.3344V39.1873H198.9V23.4545H195.554ZM195.554 36.2812C194.862 36.9026 194.285 37.157 193.57 37.157C192.002 37.157 191.009 35.8648 191.009 33.9275C191.009 31.8054 192.002 30.582 193.685 30.582C194.285 30.582 195.069 30.8594 195.554 31.2052V36.2812ZM204.615 31.5975H204.661C205.652 29.3834 206.76 28.345 208.052 28.345C208.721 28.345 209.298 28.5977 210.267 29.3127L209.344 32.2666C208.468 31.7123 207.891 31.4826 207.36 31.4826C206.137 31.4826 205.353 32.6353 204.615 34.5967V39.1873H201.27V28.5512H204.615V31.5975ZM213.982 34.4117H221.617C221.778 30.5361 219.218 28.345 216.127 28.345C212.85 28.345 210.521 30.6509 210.521 33.9046C210.521 37.226 212.943 39.3952 216.681 39.3952C217.511 39.3952 219.518 39.3952 221.432 37.9881V35.8878C219.864 37.0192 218.826 37.4109 217.488 37.4109C215.389 37.4109 214.097 36.3042 213.982 34.4117ZM216.358 30.3282C217.649 30.3282 218.526 31.2052 218.664 32.6583H214.051C214.19 31.1822 215.042 30.3282 216.358 30.3282ZM226.664 30.0737C227.726 28.8521 228.763 28.345 230.125 28.345C231.786 28.345 234 29.2898 234 32.4285V39.1879H230.655V32.7036C230.655 31.2046 229.94 30.5815 228.995 30.5815C228.163 30.5815 227.54 31.0197 226.664 32.3349V39.1868H223.319V28.5512H226.664V30.0737Z" fill="white"/>
<path d="M42.2947 12.9718C44.4151 10.7905 45.357 9.7814 45.2094 9.18409C45.0974 8.73611 44.6667 8.31971 43.9976 8.01072C43.2779 7.67933 42.2745 7.48118 41.7444 7.74537C41.5664 7.83267 41.2695 8.12271 40.5556 8.83087L39.8865 9.48677L39.8853 9.48562C39.5189 9.05541 39.1363 8.63929 38.7383 8.23816C35.9195 5.4193 32.3615 3.46368 28.4445 2.57518C26.9673 0.770039 24.941 -0.158666 22.8705 0.0222509C21.132 0.172727 19.5497 1.09626 18.401 2.62113C14.2945 3.56879 10.4936 5.62607 7.39098 8.58104V8.57874C6.75921 8.34211 5.32738 8.49546 4.40844 8.91932C3.88005 9.16341 3.56876 9.46781 3.47974 9.82505C3.41082 10.0967 3.49409 10.5344 4.50895 11.8668V11.8703C1.36732 16.1893 -0.227616 21.4462 0.0262414 26.6784C0.289288 32.0427 2.48326 37.0481 6.20784 40.7727C7.51796 42.0843 8.99571 43.2169 10.6027 44.1412C12.9132 45.469 15.4989 46.4627 18.2931 47.0341C24.1645 48.2333 29.9751 47.3632 34.853 44.9481L34.8673 44.9424C35.4887 44.6535 35.7547 43.9402 35.5019 43.2452L35.4256 43.0356C34.3964 40.2225 31.2605 31.6591 33.845 24.2203C34.9276 21.1073 37.65 17.8997 39.9829 15.3967H39.9841C42.0287 19.1115 42.9092 23.4231 42.4537 27.5669C42.0218 31.4943 40.474 35.0695 37.9527 37.9871V37.9883C37.8738 38.0711 37.83 38.1812 37.8303 38.2956C37.8303 38.3455 37.8447 38.3943 37.8533 38.4391L38.0514 39.002C38.0787 39.0732 38.1236 39.1363 38.1819 39.1854C38.2402 39.2345 38.31 39.268 38.3848 39.2827C38.4596 39.2975 38.5369 39.293 38.6095 39.2697C38.6821 39.2464 38.7476 39.2051 38.7998 39.1496L38.8142 39.1507C45.4288 31.8526 46.8807 21.2802 42.3102 12.9741V12.973L42.2947 12.9718ZM14.1751 29.0504C13.4945 31.8687 12.564 35.7214 12.7564 41.6526V41.6503C11.2341 40.7442 9.8297 39.6533 8.57526 38.4024C5.1591 34.9868 2.99959 30.5098 2.49417 25.7985C2.00886 21.2699 3.06564 16.7631 5.47097 13.0614V13.0603H5.47211L5.47097 13.0614C6.22737 13.9672 7.14631 15.0153 8.10833 16.1095C10.4648 18.7876 13.1355 21.8241 14.3887 23.9406C15.1153 25.1639 14.762 26.6273 14.1762 29.051L14.1751 29.0504ZM37.4386 11.7611C32.4603 16.1232 27.8943 18.3591 23.8796 18.3861C20.7897 18.408 17.5964 17.2679 14.3904 14.9975C11.7399 13.1212 9.74232 10.9599 8.54942 9.66941L8.42708 9.53846V9.53731V9.53846C10.8883 7.24528 13.9135 5.64559 17.1944 4.9024L17.1955 4.9001V4.90125C17.1944 4.9024 17.1955 4.9024 17.1955 4.9024C16.7665 6.14297 16.6114 7.49094 16.7303 8.85787C16.9457 11.312 18.0484 13.5404 19.7559 14.9734C21.0912 16.0945 22.7109 16.6344 24.3133 16.4954C25.9157 16.3547 27.4158 15.542 28.5375 14.205C29.9705 12.498 30.6695 10.1116 30.4541 7.6575C30.4153 7.2078 30.3458 6.76127 30.2462 6.32102V6.32216C32.5246 7.37723 34.5978 8.82787 36.3698 10.6067C36.7406 10.9785 37.0979 11.3636 37.4409 11.7611" fill="white"/>
</svg>
