<svg width="1920" height="1658" viewBox="0 0 1920 1658" fill="none" xmlns="http://www.w3.org/2000/svg">
<g opacity="0.1">
<path d="M1911.95 519.066C1904.84 508.638 1895.1 499.691 1885.35 491.82C1859.89 471.29 1829.58 457.823 1798.23 449.362C1780.2 444.492 1761.02 443.973 1743.14 449.894C1725.51 455.743 1710.42 467.049 1696.83 479.426C1682.64 492.373 1669.93 506.89 1655.5 519.591C1644.89 528.927 1631.27 539.456 1616.2 537.467C1593.78 534.499 1570.48 529.708 1548.08 535.338C1519 542.671 1497.39 566.041 1478.4 587.742C1457.51 611.582 1427.3 633.016 1393.77 627.188C1376.01 624.088 1360.07 614.192 1346.57 602.631C1326.21 585.211 1310.08 563.227 1296.37 540.465C1269.89 496.598 1245.42 450.579 1213.6 410.036C1187.07 376.241 1154.09 347.516 1111.95 335.823C1086.96 328.883 1060.37 328.037 1034.76 330.233C983.108 334.671 928.689 345.582 885.855 376.916C869.221 389.096 854.763 404.477 841.001 419.747C826.949 435.329 813.884 451.773 801.729 468.851C781.224 497.638 764.517 528.89 746.372 559.159C736.156 576.205 729.742 593.556 724.564 612.731C719.47 631.676 714.983 651.013 706.81 668.927C698.972 686.104 687.061 702.443 668.964 709.614C632.303 724.153 588.584 711.233 552.8 700C511.039 686.892 470.492 669.675 428.02 658.881C409.279 654.117 389.629 650.35 370.211 651.723C341.726 653.747 303.051 656.834 286.114 683.797C272.068 706.135 278.146 735.629 280.599 760.201C282.251 776.61 282.142 793.673 276.171 809.281C269.587 826.495 257.138 838.923 240.713 846.886C220.114 856.879 197.06 861.62 174.596 865.187C148.844 869.275 122.756 871.528 96.7172 872.484C59.2614 873.852 22.8385 864.838 -13.6117 857.471C-45.3769 851.058 -82.6181 843.984 -111.557 863.071" stroke="#FF004D" stroke-width="0.8" stroke-miterlimit="10"/>
<path d="M1912.41 532.972C1905.38 522.934 1895.76 514.387 1886.2 506.842C1860.98 486.973 1831.15 473.864 1800.25 465.937C1777.58 460.123 1754.93 463.434 1734.69 475.199C1713.25 487.654 1696.26 506.472 1679.47 524.377C1669.57 534.935 1659.68 545.844 1648.09 554.571C1639.54 560.992 1629.22 566.682 1618.14 565.303C1595.92 562.549 1572.89 557.854 1550.67 563.093C1522.54 569.715 1501.06 591.165 1481.58 611.039C1470.84 621.993 1458.49 631.644 1444.19 637.581C1422.75 646.5 1397.91 647.109 1376.46 637.854C1343.81 623.762 1319.51 594.008 1300.62 565.082C1266.1 512.216 1235.36 454.664 1191.94 408.19C1171.76 386.569 1148.43 367.711 1120.93 356.1C1092.39 344.051 1061.73 340.828 1031.21 343.157C989.738 346.3 946.594 353.981 909.912 374.694C888.096 387.003 869.431 404.107 851.82 421.907C834.582 439.347 818.801 458.212 804.416 477.955C798.174 486.507 792.304 495.389 786.578 504.332C775.778 521.244 765.766 538.643 755.595 555.953C750.371 564.824 745.168 573.356 741.562 583.05C737.726 593.349 735.094 604.04 732.688 614.744C724.439 651.315 718.479 703.11 680.509 721.939C678.973 722.7 677.384 723.4 675.742 724.04C638.698 738.293 594.607 724.101 558.921 712.16C516.82 698.088 476.025 679.908 433.159 668.181C414.36 663.035 394.593 658.846 375.047 659.84C347.676 661.22 307.838 664.019 292.77 691.551C280.095 714.693 286.909 744.269 289.025 769.072C290.716 788.937 288.88 809.535 277.78 826.62C263.957 847.869 238.908 856.373 215.5 862.352C177.092 872.172 136.418 875.689 96.7844 877.21C59.5702 878.621 23.4301 870.096 -12.7941 862.743C-43.9846 856.416 -80.8264 848.966 -109.532 867.265" stroke="#FF004D" stroke-width="0.8" stroke-miterlimit="10"/>
<path d="M1912.8 547.228C1905.82 537.708 1896.3 529.717 1886.92 522.703C1861.8 503.917 1832.32 491.869 1801.9 485.011C1749.44 473.221 1712.55 517.036 1680.96 551.77C1671.17 562.519 1661.29 573.59 1649.61 582.364C1641.12 588.752 1630.86 594.299 1619.9 592.997C1597.88 590.364 1575.15 585.728 1553.04 590.308C1525.98 595.93 1504.6 615.018 1484.52 632.594C1473.5 642.257 1461.04 649.764 1447.02 654.123C1425.61 660.797 1400.35 661.502 1379.04 653.385C1348.01 641.564 1323.98 614.34 1305.2 588.156C1267.66 535.837 1234.87 478.837 1191.4 430.995C1170.34 407.831 1146.24 386.882 1117.77 373.128C1089.55 359.486 1058.8 353.99 1027.77 356.16C987.613 358.965 945.496 366.414 910.581 387.738C869.949 412.562 835.386 449.051 807.129 486.883C800.83 495.305 794.934 504.111 789.145 512.945C778.291 529.544 768.438 546.779 758.265 563.836C746.702 583.255 742.536 605.343 738.695 627.334C732.132 664.816 726.153 717.456 687.098 736.132C685.546 736.865 683.941 737.538 682.305 738.157C665.278 744.42 646.568 744.006 628.843 741.375C606.965 738.115 585.689 731.409 564.886 724.049C522.836 709.186 482.172 690.261 439.357 677.652C420.163 672.009 400 667.324 379.889 667.937C361.427 668.485 342.998 670.031 325.75 677.291C315.285 681.704 304.702 688.703 299.591 699.213C288.085 722.966 295.706 752.872 297.313 777.861C298.607 798.011 295.396 818.333 282.987 834.814C267.733 855.06 239.46 862.471 216.004 867.771C177.118 876.544 136.501 880.192 96.6343 881.811C59.7203 883.302 23.8414 875.26 -12.1198 867.955C-42.7412 861.734 -79.1412 853.92 -107.564 871.422" stroke="#FF004D" stroke-width="0.8" stroke-miterlimit="10"/>
<path d="M1913.18 561.71C1906.22 552.863 1896.76 545.621 1887.56 539.299C1862.38 522.015 1833.13 511.36 1803.33 506.024C1750.62 496.578 1713.67 544.993 1682.38 579.625C1672.71 590.339 1662.82 601.291 1651.1 609.87C1642.63 616.082 1632.42 621.274 1621.62 619.99C1599.77 617.404 1577.35 612.735 1555.3 616.481C1529.34 620.884 1508.08 637.293 1487.3 652.015C1475.75 660.205 1462.74 665.382 1449.02 668.901C1427.19 674.497 1402.23 675.099 1380.54 667.961C1350.59 658.107 1327.89 633.053 1309.43 608.769C1270.44 557.507 1234.82 502.464 1191.67 454.546C1148.88 407 1091.87 365.162 1024.86 369.554C985.821 372.108 945.598 379.697 912.152 401.368C872.546 426.995 838.401 458.404 809.85 495.789C803.482 504.124 797.555 512.875 791.697 521.623C786.144 529.923 780.861 538.41 775.681 546.948C770.328 555.784 764.362 564.594 760.077 573.992C750.652 594.696 748.301 618.073 745.273 640.374C740.05 678.858 733.714 731.632 693.429 750.094C691.861 750.8 690.235 751.467 688.589 752.038C671.432 758.013 652.668 757.286 634.974 754.365C613.054 750.749 591.778 743.698 570.997 735.999C528.766 720.353 488.018 700.624 444.976 687.15C425.573 681.084 405.202 675.975 384.737 676.195C358.402 676.451 320.309 680.2 307.019 707.358C301.993 717.637 301.849 729.935 302.23 741.133C302.743 756.387 304.937 771.539 305.477 786.778C306.183 806.976 301.582 827.684 287.685 843.032C279.694 851.852 267.798 857.489 256.91 861.765C243.746 866.903 229.949 870.286 216.135 873.043C176.946 880.886 136.403 884.691 96.3885 886.432C59.7475 888.019 24.1941 880.478 -11.4825 873.225C-41.4921 867.122 -77.4612 858.988 -105.58 875.698" stroke="#FF004D" stroke-width="0.8" stroke-miterlimit="10"/>
<path d="M1913.53 576.301C1906.56 568.164 1897.2 561.753 1888.14 556.203C1862.79 540.665 1833.77 531.979 1804.53 528.424C1751.85 521.998 1715.12 573.136 1683.67 607.356C1669.01 623.305 1647.76 648.699 1623.25 645.724C1601.55 643.086 1579.43 638.357 1557.41 641.033C1532.61 644.044 1511.39 657.478 1489.9 668.818C1477.38 675.414 1463.9 679.755 1450.03 682.749C1427.52 687.591 1403.4 687.819 1381.06 681.655C1352.08 673.669 1330 650.461 1312.24 627.556C1273.38 577.481 1235.41 525.483 1192.89 478.4C1169.49 452.494 1143.73 427.841 1113.51 409.827C1086.72 393.856 1054.28 381.614 1022.87 383.519C1002.06 384.772 980.953 387.715 960.781 393.71C944.429 398.569 929.037 405.935 914.436 414.639C874.781 438.301 840.914 468.245 812.563 504.535C806.121 512.804 800.141 521.496 794.21 530.177C783.157 546.401 770.486 563.777 763.996 582.441C756.093 605.183 754.878 629.898 752.359 653.645C748.136 693.545 740.988 744.976 699.416 763.438C697.8 764.154 696.125 764.831 694.441 765.368C676.954 771.118 657.922 770.02 640.046 766.752C618.293 762.767 597.199 755.466 576.621 747.523C534.197 731.136 493.339 710.619 450.11 696.383C430.637 689.976 409.793 684.144 389.609 684.347C364.329 684.61 326.935 688.155 314.788 715.504C310.102 726.058 310.133 737.875 310.646 749.177C311.334 764.638 313.416 780.037 313.403 795.54C313.395 815.571 307.362 837.596 291.197 850.683C270.388 867.557 241.527 873.387 215.87 877.982C176.479 885.036 136.056 888.988 96.0234 890.885C59.7141 892.606 24.4919 885.544 -10.9003 878.345C-40.3251 872.376 -75.7934 863.916 -103.587 879.84" stroke="#FF004D" stroke-width="0.8" stroke-miterlimit="10"/>
<path d="M1913.9 590.872C1906.91 583.51 1897.61 577.988 1888.73 573.292C1863.12 559.774 1834.28 553.341 1805.65 551.696C1753.42 548.674 1717.1 600.912 1685.01 634.454C1670.01 650.128 1649.17 672.784 1624.94 669.652C1603.26 666.836 1581.46 661.92 1559.47 663.363C1535.69 664.921 1513.2 674.592 1491.63 683.751C1478.43 689.34 1464.49 692.936 1450.38 695.57C1427.46 699.819 1403.46 700.308 1380.69 694.605C1352.52 687.547 1331.47 667.463 1313.96 645.337C1275.59 596.864 1237.1 547.78 1195.18 502.192C1150.67 453.773 1091.94 398.651 1022.39 398.69C986.377 398.699 948.787 409.842 917.015 427.32C877.24 449.204 843.512 477.852 815.317 513.219C808.779 521.417 802.75 530.118 796.733 538.776C784.687 556.136 772.965 573.399 768.034 594.225C762.385 618.076 762.04 642.887 759.97 667.19C756.501 708.05 748.095 758.685 705.133 776.246C703.431 776.939 701.724 777.562 699.965 778.125C682.433 783.701 663.282 782.274 645.457 778.812C623.768 774.591 602.779 767.067 582.292 758.872C539.819 741.897 498.992 720.746 455.711 705.761C436.426 699.082 415.843 692.791 395.252 693.138C369.814 693.566 334.001 696.178 322.782 723.753C318.355 734.629 318.586 746.729 319.203 758.243C320.032 773.604 321.815 788.922 321.119 804.312C320.18 825.334 311.926 845.868 294.033 857.941C271.213 873.313 241.927 878.5 215.371 882.763C175.921 889.089 135.673 893.248 95.6589 895.334C59.6969 897.217 24.7904 890.608 -10.2587 883.5C-39.0931 877.643 -74.0291 868.912 -101.492 884.029" stroke="#FF004D" stroke-width="0.8" stroke-miterlimit="10"/>
<path d="M1914.26 605.329C1907.21 598.779 1897.98 594.195 1889.28 590.395C1863.34 579.062 1834.68 575.113 1806.68 575.428C1781.97 575.685 1760.32 589.257 1742.01 604.87C1722.01 621.893 1705.11 642.111 1686.39 660.372C1670.9 675.5 1650.35 694.65 1626.7 691.216C1605.09 688.095 1583.45 683.014 1561.46 683.008C1537.64 683.022 1514.94 689.626 1492.68 697.245C1478.92 701.968 1464.63 705.036 1450.27 707.419C1427.08 711.297 1402.68 712.393 1379.6 707.089C1352.28 700.831 1331.96 683.514 1314.7 662.217C1277.14 615.84 1239.83 568.73 1198.6 525.302C1172.6 497.894 1145.25 471.024 1113.87 449.62C1087.52 431.654 1056.07 415.541 1023.6 415.05C1004.07 414.763 984.019 418.332 965.031 422.99C949.439 426.812 934.162 432.118 919.854 439.385C879.905 459.682 846.186 487.184 818.008 521.798C811.363 529.967 805.264 538.672 799.161 547.308C793.207 555.73 786.862 564.324 782.433 573.66C777.842 583.344 775.229 593.878 773.488 604.417C769.314 629.627 769.734 655.355 767.915 680.782C764.903 722.683 754.689 771.915 710.384 788.313C708.623 788.967 706.837 789.546 705.019 790.07C666.418 801.126 623.311 784.372 587.89 769.814C545.488 752.399 504.837 730.766 461.718 715.089C442.427 708.088 421.818 701.721 401.142 701.7C376.056 701.671 341.156 704.137 330.808 731.807C326.746 742.689 326.94 754.756 327.565 766.157C328.434 781.713 329.916 797.295 328.415 812.86C326.285 834.896 315.601 853.608 296.132 864.615C271.57 878.51 241.915 883.185 214.464 887.186C175.051 892.947 135.016 897.255 95.1425 899.585C59.5435 901.658 24.9583 895.479 -9.76334 888.436C-38.0073 882.691 -72.3685 873.7 -99.506 888.031" stroke="#FF004D" stroke-width="0.8" stroke-miterlimit="10"/>
<path d="M1914.66 619.539C1907.55 613.822 1898.38 610.219 1889.87 607.321C1863.55 598.346 1835.13 596.942 1807.72 599.14C1782.95 601.123 1761.63 615.772 1743.33 631.709C1724.06 648.491 1707.05 667.738 1687.93 684.56C1671.73 698.809 1651.57 713.676 1628.64 709.882C1607.01 706.319 1585.44 700.777 1563.45 699.485C1539.52 698.064 1516.2 702.941 1493.31 709.381C1479.07 713.381 1464.47 716.158 1449.87 718.429C1426.34 722.102 1401.8 723.825 1378.22 719.213C1351.64 714.007 1331.6 698.902 1314.58 678.469C1277.86 634.411 1242.07 589.016 1202.34 547.389C1175.83 519.618 1147.73 492.568 1116.29 470.276C1089.96 451.605 1059.49 434.625 1026.7 432.556C992.163 430.389 954.413 436.205 922.938 451.029C903.716 460.081 885.18 470.695 868.3 483.706C850.586 497.343 834.873 513.377 820.694 530.464C813.936 538.626 807.74 547.351 801.546 555.985C795.384 564.582 789.831 573.135 786.332 583.203C782.499 594.26 780.643 605.917 779.515 617.515C777.008 643.103 777.924 668.871 776.214 694.488C774.684 717.374 771.358 741.134 760.278 761.578C750.515 779.595 734.647 793.29 715.119 799.71C713.278 800.32 711.412 800.854 709.536 801.34C670.296 811.26 628.629 795.052 592.849 780.03C550.454 762.25 509.886 740.134 466.74 724.128C447.806 717.084 427.554 710.583 407.217 710.24C382.304 709.82 348.574 712.209 338.861 739.911C334.95 751.086 335.264 763.392 335.771 775.06C336.447 790.565 337.695 805.992 335.249 821.396C333.597 831.774 329.855 841.891 323.816 850.544C317.369 859.777 307.609 866.193 297.59 871C271.538 883.508 241.546 887.725 213.247 891.545C173.939 896.829 134.197 901.33 94.572 903.934C59.3674 906.25 25.0666 900.468 -9.3005 893.475C-36.9383 887.868 -70.7401 878.591 -97.5038 892.126" stroke="#FF004D" stroke-width="0.8" stroke-miterlimit="10"/>
<path d="M1915.12 633.445C1907.9 628.571 1898.85 625.966 1890.5 623.938C1863.8 617.41 1835.67 618.52 1808.8 622.493C1784.15 626.163 1763.2 641.415 1744.8 657.463C1726.3 673.601 1709.29 691.724 1689.73 706.499C1672.62 719.424 1653.2 729.044 1631.19 724.921C1609.31 720.81 1587.51 715.296 1565.27 713.365C1541.06 711.272 1517.26 714.687 1493.72 720.309C1479.08 723.812 1464.24 726.386 1449.39 728.728C1425.54 732.477 1400.81 734.816 1376.78 731.004C1365.67 729.247 1354.66 726.184 1344.77 720.711C1332.74 714.068 1322.68 704.528 1313.78 694.243C1277.69 652.467 1243.43 608.514 1205.26 568.318C1179.04 540.691 1151.26 513.981 1120.39 491.428C1093.88 472.066 1063.61 454.244 1030.66 449.605C996.33 444.781 958.203 448.314 926.214 462.311C906.927 470.749 888.314 480.791 871.308 493.331C853.412 506.529 837.543 522.291 823.302 539.178C816.404 547.348 810.051 556.146 803.829 564.796C782.353 594.633 786.015 637.701 785.775 672.763C785.535 708.859 785.45 750.211 762.965 780.559C752.176 795.108 736.553 805.4 719.214 810.338C717.299 810.883 715.352 811.372 713.374 811.808C673.677 820.434 632.759 804.174 596.698 788.916C554.899 771.226 514.908 749.356 472.482 733.152C453.695 725.987 433.631 719.215 413.411 718.604C388.682 717.843 355.991 720.212 346.833 747.901C343.138 759.042 343.401 771.197 343.672 782.802C344.043 798.5 345.089 814.425 341.534 829.853C336.151 853.224 320.145 868.122 298.417 877.009C271.11 888.194 240.791 892.093 211.756 895.739C172.664 900.644 133.268 905.399 93.9408 908.266C59.1149 910.798 25.141 905.426 -8.89302 898.475C-35.9346 892.96 -69.1514 883.471 -95.5627 896.205" stroke="#FF004D" stroke-width="0.8" stroke-miterlimit="10"/>
<path d="M1915.62 646.929C1908.26 642.936 1899.37 641.27 1891.2 640.046C1864.2 636.012 1836.45 639.475 1810 645.075C1761.79 655.261 1732.08 701.363 1691.93 725.604C1674.33 736.239 1654.58 740.971 1634.05 736.969C1611.8 732.642 1589.58 727.293 1566.97 725.054C1542.41 722.617 1518.13 724.985 1494.08 730.103C1479.15 733.273 1464.07 735.854 1448.99 738.364C1424.87 742.383 1399.98 745.463 1375.54 742.526C1364.27 741.187 1352.78 738.616 1342.58 733.542C1330.95 727.767 1321.16 719.104 1312.58 709.616C1276.85 670.117 1244.02 627.329 1207.43 588.29C1181.69 560.816 1154.41 534.308 1124.3 511.499C1097.82 491.431 1067.89 472.851 1035.03 465.963C1000.74 458.761 962.506 459.966 929.741 473.342C910.36 481.272 891.583 490.811 874.433 502.945C856.296 515.757 840.279 531.296 825.944 548.02C818.955 556.189 812.077 564.8 806.994 574.26C798.595 589.84 796.004 608.191 794.901 625.792C793.635 646.06 794.446 666.379 794.483 686.674C794.558 722.28 793.581 763.187 769.56 791.976C757.585 806.322 740.672 815.763 722.659 820.13C720.642 820.624 718.649 821.033 716.651 821.371C676.877 828.138 636.689 812.327 600.628 797.069C559.593 779.698 520.333 758.277 478.812 742.039C460.049 734.697 440.005 727.678 419.763 726.808C395.071 725.735 363.644 728.189 354.821 755.831C351.17 767.236 351.413 779.638 351.411 791.492C351.41 807.205 351.456 823.001 347.216 838.154C340.641 861.687 321.033 874.932 298.811 882.745C270.454 892.706 239.815 896.337 210.169 899.865C171.383 904.485 132.397 909.51 93.4369 912.636C58.9841 915.406 25.3059 910.388 -8.37927 903.508C-34.8519 898.099 -67.4506 888.362 -93.4879 900.3" stroke="#FF004D" stroke-width="0.8" stroke-miterlimit="10"/>
<path d="M1916.18 659.943C1908.71 656.793 1899.97 656.039 1891.98 655.578C1864.76 654.011 1837.44 659.564 1811.34 666.57C1765.01 679.026 1737.53 723.314 1694.72 741.282C1676.31 749.013 1656.67 750.328 1637.1 746.606C1614.52 742.306 1591.7 737.141 1568.68 734.814C1543.77 732.306 1518.99 734.058 1494.51 738.97C1479.34 742.006 1464.04 744.713 1448.79 747.522C1424.43 751.983 1399.45 755.885 1374.63 753.906C1363.2 753.005 1351.6 750.842 1340.96 746.434C1329.42 741.645 1319.62 733.622 1311.1 724.749C1275.44 687.588 1243.85 645.66 1208.84 607.573C1183.69 580.212 1157.11 553.774 1127.82 530.704C1101.54 509.978 1072.11 490.658 1039.55 481.783C1005.21 472.405 967.108 471.19 933.424 484.136C913.905 491.639 894.92 500.755 877.571 512.514C859.181 524.982 842.963 540.329 828.495 556.949C821.196 565.333 815.696 574.291 811.53 584.616C804.786 601.397 803.25 620.099 802.785 638.147C802.269 658.961 803.428 679.786 803.489 700.593C803.588 736.022 801.223 776.534 774.967 803.369C761.833 816.808 744.109 825.158 725.76 828.379C723.708 828.749 721.603 829.058 719.515 829.304C679.451 834.064 640.566 819.566 604.171 804.264C563.622 787.23 524.867 766.151 483.942 750.005C465.55 742.738 445.936 735.742 426.069 734.674C401.446 733.344 371.125 735.957 362.584 763.49C359.063 774.838 359.098 787.07 358.748 798.853C358.273 814.876 357.486 830.954 352.013 846.076C343.511 869.599 321.433 881.08 298.542 888.047C269.324 896.928 238.453 900.312 208.263 903.81C169.852 908.231 131.306 913.673 92.8279 916.974C58.701 919.9 25.4357 915.315 -8.02353 908.449C-33.9214 903.125 -65.9295 893.156 -91.5872 904.276" stroke="#FF004D" stroke-width="0.8" stroke-miterlimit="10"/>
<path d="M1916.82 672.428C1909.23 670.122 1900.7 670.157 1892.85 670.377C1865.57 671.161 1838.67 678.482 1812.85 686.687C1789.62 694.069 1769.9 709.008 1750.68 723.551C1734.46 735.84 1717.86 748.581 1697.96 753.73C1679.09 758.606 1659.45 757.805 1640.38 754.215C1617.3 749.874 1593.99 745.175 1570.49 742.997C1545.19 740.66 1519.98 742.135 1495.13 747.132C1479.76 750.23 1464.28 753.208 1448.92 756.403C1424.44 761.498 1399.35 766.291 1374.21 765.33C1362.57 764.878 1350.91 763.112 1339.87 759.284C1328.2 755.241 1318.4 748.322 1309.62 739.837C1294.41 725.13 1280.55 708.669 1266.72 692.516C1247.8 670.405 1228.99 648.096 1209.55 626.466C1185.07 599.191 1159.29 572.761 1130.89 549.399C1104.8 527.944 1076.08 508.195 1044.08 497.402C1009.86 485.851 971.91 482.356 937.193 494.957C896.901 509.58 857.056 532.41 831.147 566.276C824.532 574.935 820.526 585.349 817.359 595.896C805.998 633.702 812.862 675.536 812.655 714.513C812.486 749.571 808.285 788.788 780.326 813.398C765.776 826.205 747.309 832.955 728.273 835.303C726.131 835.58 723.963 835.78 721.807 835.938C702.549 837.4 683.543 835.69 664.876 830.739C644.922 825.444 625.522 818.252 606.478 810.329C567.354 794.067 529.891 773.999 490.564 758.235C472.072 750.827 452.36 743.598 432.355 742.355C407.677 740.803 378.601 743.657 370.17 771.036C366.642 782.498 366.462 794.763 365.722 806.626C364.684 822.866 362.904 839.045 356.256 853.922C345.991 876.904 320.878 887.021 297.834 893.098C267.987 900.983 236.902 904.218 206.282 907.693C168.293 911.997 130.323 917.777 92.3465 921.35C58.5654 924.53 25.5642 920.245 -7.5776 913.395C-22.2113 910.374 -36.8333 906.966 -51.6984 905.238C-64.263 903.759 -77.6808 903.406 -89.6175 908.252" stroke="#FF004D" stroke-width="0.8" stroke-miterlimit="10"/>
<path d="M1917.55 684.294C1909.86 682.788 1901.55 683.549 1893.86 684.363C1866.65 687.28 1840.08 695.974 1814.64 705.176C1774.82 719.581 1743.94 756.825 1701.61 763.437C1682.91 766.356 1662.71 763.592 1643.95 760.18C1594.75 751.189 1545.58 744.186 1496.09 754.808C1480.56 758.14 1464.94 761.471 1449.5 765.171C1403.88 776.072 1347.14 789.05 1308.47 754.966C1292.99 741.337 1279.14 725.522 1265.51 709.905C1246.81 688.448 1228.54 666.536 1209.81 645.166C1185.98 617.95 1161.04 591.448 1133.58 567.742C1108.05 545.676 1079.97 525.248 1048.6 512.921C1014.32 499.475 976.888 493.474 941.114 505.815C921.239 512.671 901.733 521.073 883.812 532.219C865.527 543.613 846.168 558.073 835.412 576.537C829.875 586.059 826.97 596.998 824.524 607.853C815.722 646.918 822.837 688.245 822.036 727.981C821.306 763.073 814.723 800.802 784.63 822.911C768.9 834.46 749.498 839.467 730.293 840.988C728.088 841.156 725.846 841.291 723.636 841.389C704.251 842.127 684.554 840.508 665.802 835.442C646.601 830.257 627.851 823.469 609.452 815.971C570.974 800.296 534.158 780.815 495.585 765.413C477.483 758.178 458.237 751.097 438.676 749.743C413.881 748.023 386.093 751.221 377.621 778.405C373.976 790.134 373.559 802.681 372.315 814.799C370.65 831.147 367.735 847.275 359.964 861.713C348.289 883.353 319.219 892.71 296.728 897.924C266.4 904.945 235.161 908.07 204.277 911.589C166.8 915.869 129.448 921.999 92.0162 925.855C58.5322 929.298 25.7911 925.244 -7.07042 918.377C-21.3224 915.389 -35.5626 912.014 -50.01 910.1C-62.3944 908.462 -75.6816 907.708 -87.6023 912.236" stroke="#FF004D" stroke-width="0.8" stroke-miterlimit="10"/>
<path d="M1918.37 695.495C1910.63 694.78 1902.56 696.088 1894.98 697.437C1868.02 702.189 1841.94 711.956 1816.64 721.748C1779.22 736.22 1746.99 767.063 1705.67 770.499C1686.64 772.067 1666.6 768.218 1647.78 764.95C1597.91 756.288 1547.13 750.415 1497.4 762.212C1481.76 765.93 1466.03 769.759 1450.52 774.061C1405.3 786.584 1348.38 802.201 1307.86 770.267C1292 757.751 1277.92 742.611 1264.35 727.49C1245.66 706.707 1227.82 685.114 1209.66 663.92C1165.39 612.21 1115.96 556.683 1052.85 528.605C1018.69 513.394 981.714 504.807 944.991 516.917C906.421 529.658 858.677 549.202 841.293 587.876C836.71 598.044 834.687 609.38 832.791 620.497C826.03 660.177 833.149 700.977 831.346 741.019C829.776 776.162 820.268 812.626 787.88 831.547C771.02 841.393 750.953 844.935 731.712 845.735C729.432 845.837 727.143 845.89 724.887 845.906C705.716 846.013 685.506 844.509 666.926 839.489C648.325 834.464 630.112 828.073 612.223 820.987C574.535 806.052 538.504 787.333 500.849 772.36C483.009 765.264 464.063 758.263 444.821 756.834C431.075 755.82 415.877 755.68 403.23 762.15C393.754 766.988 387.888 775.595 384.741 785.551C376.118 812.786 381.299 845.624 362.598 868.875C346.689 888.647 319.469 897.534 295.177 902.519C264.522 908.786 233.219 911.894 202.172 915.507C165.287 919.808 128.58 926.363 91.7409 930.492C58.5484 934.22 26.0145 930.336 -6.58251 923.426C-20.7801 920.406 -34.9488 916.935 -49.3346 914.877C-61.2598 913.155 -74.075 912.183 -85.6435 916.254" stroke="#FF004D" stroke-width="0.8" stroke-miterlimit="10"/>
<path d="M1919.27 706.028C1911.55 706.007 1903.68 707.782 1896.22 709.531C1869.66 715.77 1844.11 726.251 1818.93 736.26C1783.37 750.402 1749.37 774.912 1709.97 775.807C1690.66 776.245 1670.94 772.138 1651.83 769.042C1601.27 760.815 1549.04 756.254 1499.15 769.711C1483.45 773.94 1467.67 778.377 1452.14 783.362C1406.65 797.974 1351.22 815.528 1308.24 785.921C1291.81 774.607 1277.31 760.089 1263.6 745.461C1244.74 725.343 1227.13 704.066 1209.43 682.993C1165.79 631.04 1118.49 575.189 1056.94 544.676C1023.08 527.893 986.4 516.559 948.899 528.484C928.585 534.924 908.432 542.647 889.822 553.196C870.211 564.303 856.279 579.091 848.77 600.192C844.976 610.847 843.621 622.431 842.132 633.748C836.834 673.544 843.739 713.85 840.581 753.806C837.824 788.745 824.998 822.667 791.441 838.404C773.235 846.924 752.527 849.514 732.628 849.678C730.302 849.699 727.987 849.676 725.656 849.627C700.511 848.961 675.38 845.405 651.305 837.995C628.167 830.86 605.589 822.06 583.353 812.501C560.33 802.616 537.698 791.872 514.541 782.319C494.282 773.956 472.779 765.351 450.838 763.613C437.357 762.555 422.406 762.435 410.033 768.91C400.599 773.851 394.839 782.578 391.606 792.511C382.504 820.33 386.149 853.331 364.387 875.395C346.091 893.954 318.344 901.804 293.255 906.851C262.601 913.027 231.117 915.696 200.127 919.438C163.881 923.842 127.883 930.839 91.7127 935.217C58.7745 939.196 26.3892 935.444 -5.98605 928.478C-19.8448 925.48 -33.6259 922.021 -47.6368 919.764C-59.376 917.862 -72.0666 916.51 -83.6076 920.221" stroke="#FF004D" stroke-width="0.8" stroke-miterlimit="10"/>
<path d="M1920.27 715.832C1912.62 716.426 1904.99 718.516 1897.63 720.59C1871.73 727.901 1846.83 738.603 1821.62 747.777C1786.35 760.621 1752.93 780.575 1714.41 780.075C1694.98 779.811 1675.36 775.894 1656.08 772.984C1604.85 765.29 1551.32 762.079 1501.39 777.592C1485.65 782.477 1469.83 787.57 1454.37 793.331C1407.93 810.652 1355.94 828.968 1309.93 802.019C1292.81 791.99 1277.66 778.173 1263.6 764.002C1244.34 744.603 1226.76 723.585 1209.33 702.586C1166.1 650.511 1120.91 594.054 1060.79 561.283C1027.48 543.11 990.819 528.907 952.719 540.58C932.619 546.732 911.074 553.393 893.072 564.587C874.852 575.907 863.501 593.246 857.694 613.309C854.53 624.271 853.669 635.986 852.392 647.453C845.237 712.298 873.78 814.796 793.836 844.49C774.571 851.647 753.445 853.389 733.046 852.937C730.693 852.882 728.326 852.799 725.969 852.674C701.292 851.375 676.096 847.893 652.333 840.774C629.802 834.031 607.738 825.805 586.026 816.777C563.527 807.423 541.383 797.177 518.79 788.005C498.994 779.972 478.061 771.727 456.669 769.999C443.42 768.933 428.726 768.883 416.606 775.356C407.17 780.389 401.505 789.279 398.121 799.171C393.98 811.295 392.394 824.172 389.454 836.618C387.62 844.328 385.394 851.957 382.37 859.303C378.646 868.323 372.762 875.11 365.438 881.351C345.106 898.675 316.899 906.012 290.957 910.899C260.293 916.682 229.012 919.451 198.098 923.421C162.544 927.987 127.293 935.459 91.8186 940.069C59.0804 944.332 26.7966 940.63 -5.36119 933.538C-19.2027 930.477 -32.9496 926.889 -46.9146 924.46C-58.1948 922.475 -70.4131 920.904 -81.6177 924.131" stroke="#FF004D" stroke-width="0.8" stroke-miterlimit="10"/>
<path d="M1921.32 725.232C1913.79 726.248 1906.35 728.552 1899.13 730.801C1873.96 738.629 1849.5 748.714 1824.59 757.209C1789.64 769.128 1756.58 784.814 1718.91 783.875C1699.4 783.384 1679.81 779.979 1660.44 777.32C1608.52 770.202 1553.94 768.341 1504.13 786.23C1488.42 791.879 1472.6 797.683 1457.24 804.324C1434.11 814.307 1410.84 824.342 1385.62 827.723C1361.24 830.984 1336.38 828.029 1314.11 817.84C1271.25 798.259 1239.29 758.688 1209.7 723.017C1166.47 670.92 1123.25 613.635 1064.44 578.71C1031.87 559.354 994.935 542.116 956.426 553.518C936.632 559.385 915.911 565.371 898.989 577.681C882.208 589.891 872.763 607.579 867.938 627.148C865.198 638.246 864.658 650.047 863.494 661.521C859.548 700.301 865.448 739.901 858.21 778.443C854.975 795.68 848.58 812.531 836.541 825.573C825.373 837.677 810.658 845.432 794.947 849.956C774.95 855.723 753.697 856.742 733.059 855.721C730.675 855.611 728.282 855.453 725.916 855.279C701.076 853.385 675.481 849.59 651.491 842.548C630.099 836.271 609.093 828.81 588.397 820.536C566.958 811.949 545.888 802.496 524.421 793.924C504.613 786.025 483.668 777.823 462.341 776.112C449.155 775.063 434.552 775.106 422.628 781.793C413.378 786.99 407.84 795.915 404.336 805.659C399.963 817.79 397.92 830.66 394.42 843.048C392.167 851.036 389.698 859.657 385.609 866.948C381.073 874.969 373.155 881.625 365.917 886.947C343.858 903.166 315.318 910.115 288.585 914.951C258.039 920.467 226.988 923.321 196.28 927.552C161.45 932.335 127.002 940.321 92.2575 945.127C59.6606 949.634 27.4468 945.927 -4.57934 938.687C-18.1192 935.614 -31.537 932 -45.1702 929.361C-56.3129 927.206 -68.4007 925.234 -79.5721 928.079" stroke="#FF004D" stroke-width="0.8" stroke-miterlimit="10"/>
<path d="M1922.42 734.325C1915.06 735.639 1907.84 738.001 1900.74 740.305C1876.24 748.199 1852.3 757.62 1827.75 765.313C1809.34 771.068 1791.24 777.986 1772.48 782.476C1756.38 786.321 1739.93 788.007 1723.42 787.792C1703.82 787.53 1684.27 785.009 1664.81 782.602C1612.25 776.091 1556.87 775.397 1507.37 795.939C1491.75 802.419 1476.16 809.18 1460.88 816.462C1416.92 837.409 1369 848.154 1321.98 831.432C1276.85 815.377 1241.21 780.59 1210.82 744.405C1167.17 692.425 1125.61 634.09 1067.89 597.068C1036.14 576.692 998.727 556.271 959.872 567.419C941.505 572.68 922.678 580.345 907.537 592.35C891.753 604.873 883.53 622.544 879.258 641.594C876.771 652.691 876.377 664.463 875.182 675.882C872.555 700.633 873.471 725.713 871.963 750.58C870.561 773.5 867.329 797.767 854.528 817.429C828.883 856.833 775.17 861.248 732.623 858.198C730.235 858.019 727.805 857.827 725.428 857.605C678.889 853.073 633.99 840.527 590.399 823.781C569.333 815.684 548.622 806.695 527.595 798.539C508.463 791.121 488.268 783.463 467.73 781.895C454.716 780.892 440.374 781.074 428.671 787.796C419.386 793.122 413.851 802.208 410.131 811.987C405.442 824.355 402.868 837.404 398.709 849.937C395.983 858.144 393.142 866.527 387.608 873.293C381.432 880.829 373.856 886.98 365.763 892.234C342.272 907.449 313.467 914.189 286.044 919.025C255.727 924.372 224.949 927.322 194.527 931.86C160.467 936.94 126.846 945.447 92.8628 950.41C60.3586 955.172 28.1251 951.368 -3.77363 943.909C-17.3334 940.739 -30.7812 936.979 -44.3941 934.093C-55.0934 931.826 -66.7309 929.63 -77.6087 931.98" stroke="#FF004D" stroke-width="0.8" stroke-miterlimit="10"/>
<path d="M1923.57 742.997C1916.4 744.568 1909.38 746.917 1902.4 749.207C1878.6 756.988 1855.11 765.7 1830.99 772.502C1812.97 777.602 1795.12 783.485 1776.74 787.249C1760.6 790.555 1744.19 792.021 1727.75 792.399C1708.05 792.846 1688.55 791.714 1668.97 789.553C1615.88 783.658 1559.96 783.875 1511 807.204C1496.25 814.216 1481.2 820.824 1466.25 827.482C1446.05 836.48 1425.05 844.044 1403.1 847.474C1379.48 851.167 1355.6 849.554 1332.71 843.106C1286.31 829.996 1247.53 799.56 1214.32 765.331C1166.62 716.126 1128.26 655.869 1071.21 616.613C1053.47 604.421 1034.7 592.551 1014.15 585.373C998.746 579.986 980.676 577.01 965.095 583.109C948.923 589.44 932.163 597.451 918.494 608.426C903.215 620.694 895.654 638.036 891.574 656.541C889.137 667.536 888.778 679.179 887.397 690.434C884.413 714.63 884.632 739.224 881.851 763.521C879.302 785.835 874.068 808.993 859.155 826.504C828.922 862.015 774.783 864.5 731.842 860.519C729.444 860.29 727.025 860.056 724.623 859.758C679.324 854.456 634.904 842.267 592.087 826.579C571.936 819.186 552.133 810.922 532.05 803.364C513.096 796.223 493.134 788.812 472.842 787.354C459.875 786.434 445.584 786.766 434.049 793.718C424.896 799.24 419.409 808.408 415.528 818.098C410.395 830.921 407.216 844.429 402.264 857.347C398.984 865.911 395.09 872.817 388.654 879.434C381.741 886.543 373.666 892.33 365.174 897.271C340.54 911.606 311.51 918.24 283.516 923.152C253.497 928.418 223.089 931.444 193.027 936.354C159.768 941.787 127.059 950.836 93.828 955.908C61.3151 960.875 29.0086 956.914 -2.82126 949.198C-16.288 945.938 -29.6098 942.05 -43.1109 938.919C-53.5442 936.516 -64.8854 933.986 -75.5998 935.897" stroke="#FF004D" stroke-width="0.8" stroke-miterlimit="10"/>
<path d="M1924.78 751.292C1894.23 759.058 1864.96 771.394 1834.35 779.121C1816.63 783.59 1799.04 788.622 1781.08 792.016C1764.86 795.073 1748.46 796.771 1732.04 798.096C1712.22 799.705 1692.75 800.651 1672.96 798.707C1647.1 796.172 1620.78 794.986 1594.8 797.267C1566.84 799.731 1540.86 807.686 1515.32 819.136C1501.48 825.334 1487.28 830.653 1473.28 836.509C1454.21 844.498 1434.55 851.481 1414.1 855.011C1391.28 858.965 1368.17 858.134 1345.7 853.083C1298.8 842.505 1258.43 816.306 1222.84 784.497C1196.28 760.73 1172.29 734.093 1148.15 707.782C1125.33 682.904 1102.2 657.622 1074.91 637.751C1057.58 625.119 1039.33 612.606 1019.21 604.6C1005.42 599.117 988.418 594.888 974.43 601.046C959.948 607.415 944.441 615.9 931.595 625.602C916.333 637.116 909.162 653.69 904.707 671.795C902.068 682.598 901.669 694.047 899.975 705.012C894.598 740.123 896.67 778.997 880.162 811.566C863.988 843.488 829.504 857.966 795.708 862.658C774.229 865.639 752.279 865.139 730.791 862.741C728.383 862.465 725.976 862.188 723.58 861.868C679.38 855.895 635.611 843.674 593.521 828.961C574.103 822.178 555.034 814.524 535.7 807.511C517.079 800.758 497.626 793.85 477.731 792.454C465.055 791.565 451.05 792.204 439.868 798.951C430.464 804.636 424.784 814.096 420.598 823.98C415.108 836.938 411.351 850.544 405.839 863.495C398.305 881.167 380.549 893.415 364.252 902.101C312.206 929.82 249.061 930.837 191.896 941.105C159.498 946.929 127.661 956.327 95.2788 961.833C62.8698 967.356 30.0164 962.605 -1.71739 954.616C-14.9567 951.279 -28.051 947.315 -41.2846 943.956C-51.6119 941.33 -62.8282 938.419 -73.5722 939.839" stroke="#FF004D" stroke-width="0.8" stroke-miterlimit="10"/>
<path d="M1926.01 759.384C1896.44 767.849 1867.8 778.791 1837.74 785.585C1820.28 789.526 1802.92 793.931 1785.32 797.283C1768.97 800.397 1752.48 802.782 1736.05 805.438C1716.38 808.604 1696.33 812.863 1676.39 810.927C1623.52 805.757 1570.9 809.431 1521 829.132C1507.9 834.309 1494.51 838.812 1481.42 844.016C1463.4 851.182 1444.98 857.74 1425.87 861.491C1404.03 865.801 1381.86 865.793 1360.06 861.888C1313.57 853.578 1272.28 831.154 1235.27 802.201C1207.35 780.371 1181.95 755.353 1156.93 730.163C1133.11 706.188 1109.58 681.373 1082.73 660.885C1065.84 648.002 1048.21 635.037 1028.71 626.164C1016.46 620.588 1000.42 615.099 987.423 621.338C980.015 624.891 972.976 629.21 965.707 633.1C959.242 636.561 952.636 639.778 946.502 643.81C930.83 654.112 923.415 669.793 918.532 687.348C915.619 697.802 914.95 708.972 912.842 719.595C906.136 753.317 905.968 791.891 885.678 821.333C865.603 850.489 829.263 862.54 795.537 866.286C773.63 868.715 751.395 867.909 729.596 865.13C727.194 864.831 724.803 864.49 722.397 864.122C679.133 857.572 636.25 844.876 594.732 831.029C576.059 824.813 557.674 817.778 539.091 811.311C520.845 804.957 501.789 798.454 482.37 797.254C469.778 796.479 456.07 797.382 445.06 804.175C435.556 810.063 429.748 819.742 425.281 829.734C419.438 842.804 416.131 857.909 408.59 870.111C398.306 886.725 380.016 898.393 363.008 906.82C310.054 933.033 248.324 934.773 191.114 946.155C159.587 952.419 128.652 962.907 97.0226 968.179C64.2647 973.631 31.3446 968.357 -0.59335 960.015C-13.7611 956.582 -26.741 952.533 -39.8357 948.913C-49.9555 946.113 -60.8655 942.917 -71.4875 943.795" stroke="#FF004D" stroke-width="0.8" stroke-miterlimit="10"/>
<path d="M1927.27 767.327C1898.73 776.483 1870.53 786.14 1841.09 792.137C1807.3 799.036 1773.17 806.027 1739.83 814.678C1720.15 819.793 1699.92 827.267 1679.51 825.846C1653.93 824.053 1628.19 821.046 1602.23 822.461C1576.82 823.836 1551.9 828.859 1527.88 837.18C1515.42 841.517 1502.73 845.402 1490.42 850.08C1473.33 856.579 1456 862.966 1438.09 867.017C1417.3 871.721 1396.17 872.613 1375.16 869.723C1329.77 863.477 1288.08 844.185 1250.48 818.339C1194.06 779.551 1147.42 728.378 1094.95 684.698C1078.39 670.916 1060.98 656.996 1041.36 647.68C1030.15 642.358 1015.09 636.88 1003.14 643.147C989.907 650.103 975.992 655.728 962.777 662.689C946.427 671.316 938.33 685.942 932.697 702.951C929.392 712.979 928.288 723.802 925.653 733.986C917.184 766.57 913.964 804.097 889.93 830.102C865.538 856.494 828.515 866.892 793.757 869.856C771.936 871.711 749.855 870.671 728.2 867.609C725.831 867.273 723.425 866.905 721.067 866.526C678.581 859.473 636.757 845.911 595.734 832.794C577.779 827.069 560.063 820.627 542.172 814.666C524.302 808.711 505.658 802.641 486.726 801.685C474.099 801.039 460.473 802.239 449.598 809.299C440.138 815.451 434.263 825.296 429.591 835.279C423.223 848.852 419.305 864.436 409.811 876.207C397.092 891.962 379.674 902.945 361.599 911.408C308.225 936.36 247.747 938.918 190.862 951.489C160.042 958.287 129.837 969.569 98.8725 974.674C65.9646 980.086 32.6545 974.294 0.591205 965.39C-12.4334 961.765 -25.2875 957.59 -38.2604 953.772C-48.2114 950.856 -58.7923 947.289 -69.3137 947.62" stroke="#FF004D" stroke-width="0.8" stroke-miterlimit="10"/>
<path d="M1928.53 775.243C1901.03 785.09 1873.13 793.659 1844.39 799.129C1810.14 805.628 1775.83 814.02 1743.27 826.301C1733.2 830.107 1723.24 834.748 1712.69 837.162C1703.05 839.381 1693.09 839.931 1683.28 838.891C1657.84 836.218 1632.76 832.124 1607.05 832.547C1582.81 832.951 1558.66 836.571 1535.52 843.701C1523.59 847.378 1511.49 850.8 1499.8 855.138C1483.49 861.203 1467.11 867.617 1450.23 872.078C1430.5 877.273 1410.43 879.114 1390.23 877.131C1346.43 872.828 1304.79 855.916 1267.33 833.184C1210.13 798.437 1162.12 750.988 1110.49 708.797C1093.82 695.169 1076.54 681.284 1057.2 671.466C1046.9 666.251 1032.07 659.846 1020.88 666.109C1007.93 673.349 993.812 676.899 980.085 682.253C962.9 688.933 953.793 702.094 947.08 718.676C943.257 728.151 941.581 738.615 938.289 748.256C927.395 780.282 920.374 814.494 893.385 837.802C865.587 861.811 827.612 871.128 791.738 873.541C770.047 874.994 748.189 873.807 726.732 870.521C724.369 870.164 722.017 869.765 719.665 869.365C677.758 861.869 637.166 847.052 596.521 834.495C579.244 829.159 562.159 823.276 544.937 817.816C527.443 812.26 509.213 806.623 490.761 805.933C478.335 805.479 465.082 806.917 454.434 813.899C444.653 820.31 438.534 830.549 433.486 840.822C426.577 854.871 421.885 869.397 411.249 881.23C397.218 896.818 378.871 907.667 359.967 916.138C306.615 940.062 247.296 943.527 191.042 957.347C160.787 964.779 131.315 976.67 100.673 981.517C67.439 986.773 33.8833 980.524 1.70613 971.016C-11.2611 967.177 -24.0677 962.738 -36.9388 958.627C-46.6551 955.52 -56.9229 951.899 -67.2293 951.598" stroke="#FF004D" stroke-width="0.8" stroke-miterlimit="10"/>
<path d="M1929.77 783.204C1903.3 793.831 1875.61 801.559 1847.6 806.767C1812.15 813.358 1778.63 825.269 1746.4 840.441C1727.91 849.161 1708.17 852.24 1687.79 849.565C1662.87 846.27 1638.04 841.142 1612.68 840.693C1589.44 840.285 1566.06 842.825 1543.65 849.025C1532.13 852.214 1520.52 855.31 1509.37 859.447C1475.18 872.164 1441.96 886.615 1404.74 884.44C1362.75 881.998 1321.66 866.796 1284.85 846.879C1227.84 816.043 1179.09 772.625 1128.4 732.613C1111.53 719.3 1094.3 705.658 1075.18 695.623C1065.44 690.514 1050.74 683.476 1039.97 689.622C1026.98 697.012 1012.29 698.501 998.021 702.102C980.054 706.643 969.574 718.15 961.447 734.262C956.988 743.107 954.604 753.129 950.578 762.16C943.856 777.315 938.027 793.168 929.785 807.733C921.205 822.873 909.486 835.404 895.236 845.374C864.785 866.675 826.548 875.255 789.931 877.353C768.345 878.583 746.596 877.333 725.277 873.877C722.941 873.505 720.616 873.089 718.319 872.658C676.864 864.755 637.569 848.356 597.253 836.117C580.633 831.071 564.133 825.666 547.502 820.663C530.362 815.501 512.544 810.295 494.566 809.894C482.187 809.612 469.18 811.415 458.693 818.486C448.734 825.216 442.421 835.749 437.063 846.237C433.668 852.91 430.658 859.777 427.344 866.494C423.661 873.986 417.822 880.602 411.948 886.495C396.782 901.688 377.792 912.364 358.29 920.836C331.161 932.642 302.09 939.862 273.179 946.137C246.219 951.993 218.211 956.097 191.87 963.589C162.342 971.996 133.112 983.929 102.566 988.503C69.0231 993.538 35.1734 986.844 2.92101 976.671C-10.0045 972.591 -22.7478 967.917 -35.5429 963.435C-45.0831 960.1 -55.0719 956.209 -65.2177 955.308" stroke="#FF004D" stroke-width="0.8" stroke-miterlimit="10"/>
<path d="M1931.01 791.278C1905.61 802.811 1877.96 809.974 1850.71 815.27C1833.67 818.588 1816.87 823.396 1800.74 829.9C1783.29 836.92 1767.41 847.74 1749.98 854.125C1731.53 860.881 1712.29 861.772 1692.88 858.462C1668.36 854.286 1643.87 848.511 1618.82 847.298C1596.41 846.215 1573.71 847.904 1551.94 853.448C1540.74 856.287 1529.51 859.206 1518.75 863.312C1486.03 875.779 1453.62 890.722 1418.04 892.063C1400.97 892.711 1383.74 889.684 1367.33 884.991C1344.8 878.571 1322.9 870.068 1301.96 859.82C1245.86 832.374 1198.26 791.952 1147.64 755.866C1130.68 743.768 1113.67 731.265 1095.32 721.275C1085.83 716.116 1070.45 707.382 1059.66 713.269C1046.31 720.541 1030.88 720.246 1016.13 722.111C1008.86 723.035 1001.64 724.734 995.24 728.488C986.709 733.487 980.708 741.483 975.496 749.622C970.305 757.767 967.068 767.284 962.257 775.645C954.102 789.797 946.583 804.669 936.529 817.761C925.804 831.729 911.778 843.092 896.668 851.981C864.234 871.074 825.717 879.327 788.428 881.36C766.86 882.525 745.137 881.351 723.863 877.724C721.576 877.342 719.278 876.91 717.008 876.464C675.828 868.221 637.868 849.927 597.836 837.741C581.961 832.918 566.142 827.971 550.204 823.383C533.301 818.537 515.688 813.685 498.017 813.595C485.531 813.538 472.605 815.73 462.242 823.11C452.276 830.206 445.804 840.994 440.222 851.63C436.67 858.375 433.814 865.698 429.51 871.989C424.478 879.372 418.385 886.08 411.786 892.102C395.73 906.757 376.389 917.202 356.563 925.679C304.547 947.962 247.423 954.818 193.406 970.408C163.747 978.964 135.138 991.408 104.515 995.754C70.6265 1000.54 36.4997 993.331 4.15068 982.49C-8.75462 978.162 -21.4235 973.209 -34.1367 968.335C-43.538 964.739 -53.2047 960.59 -63.2055 959.061" stroke="#FF004D" stroke-width="0.8" stroke-miterlimit="10"/>
<path d="M1932.22 799.549C1907.89 812.129 1880.18 819.07 1853.66 824.836C1836.48 828.577 1819.75 834.414 1804 842.351C1787.34 850.757 1772.07 861.188 1754.04 866.035C1735.72 870.963 1716.9 870.106 1698.3 866.185C1674.16 861.1 1649.96 854.738 1625.19 852.84C1603.49 851.166 1581.31 852.213 1560.13 857.319C1549.17 859.968 1538.18 862.838 1527.73 867.003C1495.69 879.815 1464.58 896.965 1429.63 900.405C1413.37 902.003 1396.75 899.713 1380.94 895.574C1359.28 889.89 1337.97 881.682 1317.67 872.435C1263.47 847.75 1216.4 811.465 1167.21 778.289C1150.14 766.781 1133.16 754.768 1114.98 744.986C1105.41 739.853 1090.19 731.137 1079.29 736.673C1065.33 743.735 1049.1 741.802 1033.91 742.034C1026.04 742.156 1018.09 743.014 1010.8 746.209C1001.84 750.151 995.024 757.17 988.989 764.607C982.993 771.984 978.758 780.936 973.092 788.54C963.313 801.636 953.9 815.427 941.983 826.895C928.578 839.801 912.917 850.404 896.272 858.676C862.204 875.632 823.555 883.688 785.717 885.713C764.618 886.842 743.367 885.794 722.556 882.154C720.317 881.761 718.063 881.341 715.841 880.885C674.791 872.332 638.173 851.939 598.377 839.472C582.88 834.612 567.321 829.896 551.663 825.636C535.276 821.18 518.193 816.837 501.104 817.064C488.905 817.222 476.432 819.696 466.325 826.892C455.793 834.388 448.949 845.788 442.923 856.971C439.013 864.195 435.456 871.215 430.357 877.73C424.802 884.835 418.497 891.303 411.622 897.159C394.741 911.547 374.93 922.027 354.71 930.606C303.614 952.285 247.873 960.154 195.429 977.681C166.153 987.466 136.976 999.114 106.326 1003.13C72.0816 1007.61 37.6779 999.896 5.22224 988.337C-7.65709 983.741 -20.2726 978.503 -32.8826 973.244C-42.1449 969.386 -51.5385 964.988 -61.3556 962.773" stroke="#FF004D" stroke-width="0.8" stroke-miterlimit="10"/>
<path d="M1933.4 808.023C1910.19 821.843 1882.24 828.974 1856.46 835.581C1838.85 840.079 1822.72 847.638 1807.02 856.83C1791.89 865.692 1775.84 873.64 1758.55 876.685C1740.2 879.906 1721.94 877.799 1703.94 873.279C1659.35 862.056 1614.05 850.089 1568.03 861.022C1557.18 863.608 1546.31 866.534 1536.09 870.896C1504.17 884.566 1473.89 904.099 1439.05 909.936C1402.08 916.12 1364.25 899.998 1331.12 885.295C1279.59 862.404 1233.77 829.854 1186.3 799.689C1169.23 788.848 1152.33 777.408 1134.4 767.991C1124.52 762.82 1109.57 754.453 1098.31 759.525C1083.65 766.124 1066.5 762.959 1050.99 761.678C1042.9 761.005 1034.66 760.981 1026.77 763.213C1016.94 766.026 1008.97 772.208 1001.76 779.146C994.919 785.723 989.554 794.005 982.969 800.834C971.027 813.168 959.075 825.453 945.242 835.925C929.969 847.481 913.381 857.17 895.804 864.802C860.574 880.091 821.859 888.222 783.602 890.524C762.883 891.779 742.01 890.947 721.587 887.318C719.392 886.937 717.207 886.513 715.034 886.046C693.019 881.325 672.094 873.22 651.532 864.017C634.171 856.246 617.166 847.49 599.076 841.499C583.877 836.466 568.527 831.829 553.032 827.819C537.13 823.7 520.533 819.855 504.026 820.399C491.689 820.818 479.299 823.75 469.289 831.271C458.701 839.234 451.701 850.961 445.428 862.377C425.695 898.24 389.634 920.153 353.085 935.732C326.389 947.126 298.309 955.278 270.299 963.08C245.865 969.887 221.872 977.364 197.88 985.438C168.408 995.354 139.182 1007.01 108.338 1010.73C73.7221 1014.88 39.02 1006.64 6.49063 994.33C-6.36273 989.465 -18.9466 983.937 -31.4689 978.265C-40.608 974.118 -49.7553 969.487 -59.3617 966.571" stroke="#FF004D" stroke-width="0.8" stroke-miterlimit="10"/>
<path d="M1934.54 816.805C1912.44 832.049 1884.21 839.837 1859.06 847.671C1825.92 857.983 1798.69 882.971 1763.26 886.56C1745.05 888.415 1727.12 885.318 1709.6 880.214C1666.05 867.523 1620.89 853.895 1575.39 864.895C1564.52 867.525 1553.68 870.617 1543.55 875.304C1511.13 890.333 1481.98 915.521 1445.79 921.089C1408.98 926.742 1374.53 914.396 1341.34 899.057C1293.24 876.831 1249.32 847.247 1203.92 819.98C1186.99 809.82 1170.31 798.991 1152.7 790.005C1142.37 784.735 1127.83 777.005 1116.01 781.492C1100.46 787.392 1082.69 783.462 1066.8 780.749C1058.34 779.311 1049.68 778.44 1041.16 779.859C1030.74 781.619 1021.74 786.836 1013.39 793.033C1005.63 798.788 999.061 806.312 991.505 812.307C961.857 835.845 930.475 856.759 894.752 870.629C858.595 884.66 819.623 893.066 780.949 895.809C760.922 897.225 740.695 896.727 720.906 893.222C718.78 892.837 716.638 892.425 714.508 891.969C692.752 887.225 672.265 878.686 652.293 868.906C634.982 860.436 618.046 850.389 599.895 843.854C585.079 838.509 569.982 833.871 554.694 830.031C539.127 826.117 522.815 822.67 506.701 823.548C494.338 824.236 482.135 827.586 472.278 835.309C461.231 843.954 454.779 856.125 447.618 867.855C426.074 903.096 388.348 925.137 351.573 941.047C325.243 952.446 297.69 960.946 270.203 969.371C258.085 973.088 245.947 976.8 233.952 980.918C222.618 984.799 211.698 989.71 200.37 993.57C170.837 1003.63 141.334 1015.12 110.339 1018.45C75.3424 1022.22 40.3477 1013.45 7.72319 1000.38C-14.4867 991.493 -35.1507 978.978 -57.3966 970.312" stroke="#FF004D" stroke-width="0.8" stroke-miterlimit="10"/>
<path d="M1935.63 825.895C1930.71 829.839 1925.08 832.997 1919.57 836.001C1901.03 846.109 1881.03 853.598 1861.48 861.138C1830.3 873.146 1802.77 894.679 1768.09 896.078C1749.97 896.81 1732.33 893.098 1715.15 887.488C1672.43 873.503 1627.25 857.942 1582.03 869.362C1571.01 872.134 1560.1 875.484 1550 880.591C1516.49 897.513 1486.98 926.372 1449.39 934.274C1434.46 937.422 1418.78 938.05 1403.6 935.687C1383.61 932.588 1365.24 923.766 1347.49 914.535C1303.51 891.71 1262.22 863.957 1219.25 839.222C1202.68 829.688 1186.42 819.453 1169.24 810.974C1158.32 805.592 1144.2 798.596 1131.82 802.449C1114.99 807.708 1097.33 802.43 1080.66 798.933C1071.9 797.092 1063.18 795.31 1054.15 795.925C1043.13 796.651 1033.17 800.9 1023.69 806.244C1014.98 811.148 1007.13 817.822 998.578 822.977C964.543 843.502 930.2 863.463 892.31 876.754C855.894 889.52 817.364 898.251 778.899 901.671C759.503 903.394 739.878 903.309 720.704 899.992C718.637 899.645 716.565 899.229 714.499 898.791C692.969 894.061 672.926 885.067 653.476 874.714C636.102 865.446 619.163 854.296 600.943 846.731C586.487 840.725 571.386 836.016 556.21 832.276C540.947 828.512 524.915 825.392 509.112 826.653C496.83 827.638 484.95 831.327 475.253 839.139C463.799 848.363 457.463 861.301 449.16 873.093C424.815 907.722 388.148 929.84 350.163 946.666C324.3 958.122 297.339 966.986 270.525 976.074C258.953 979.984 247.287 983.822 235.978 988.468C224.924 993.021 214.219 998.242 202.885 1002.12C173.286 1012.26 143.459 1023.5 112.336 1026.45C76.942 1029.82 41.6388 1020.48 8.94634 1006.63C-13.3032 997.209 -33.7841 984.697 -55.4449 974.19" stroke="#FF004D" stroke-width="0.8" stroke-miterlimit="10"/>
<path d="M1936.68 835.344C1931.99 839.717 1926.44 843.286 1921.03 846.684C1902.98 857.979 1883.37 867.526 1863.76 875.786C1833.93 888.339 1805.92 905.514 1772.95 905.671C1755.07 905.755 1737.43 901.586 1720.53 895.545C1678.42 880.482 1633.06 862.76 1587.88 874.788C1576.6 877.788 1565.48 881.473 1555.29 887.085C1538.24 896.443 1522.55 908.601 1506.53 919.796C1489.19 931.878 1470.49 941.553 1449.82 946.038C1434.79 949.298 1419.06 950.484 1403.64 949.022C1384.17 947.164 1366.56 940.659 1349.47 931.535C1328.97 920.557 1309.87 906.991 1290.39 894.194C1271.04 881.48 1251.56 868.915 1231.43 857.507C1215.5 848.489 1199.86 838.765 1183.35 830.809C1172.06 825.351 1157.96 818.979 1145.17 822.266C1127.31 826.835 1109.41 820.734 1092.17 816.028C1083.44 813.643 1074.47 811.357 1065.34 811.189C1053.77 810.986 1042.9 814.234 1032.35 818.624C1022.55 822.708 1013.29 828.363 1003.68 832.865C966.211 850.404 929.904 869.632 890.319 882.561C853.7 894.538 815.468 903.786 777.139 908.16C758.506 910.294 739.609 910.75 721.062 907.669C719.038 907.334 717.025 906.956 715.072 906.525C673.382 897.525 639.617 870.085 602.442 850.486C588.707 843.249 573.117 838.478 558.102 834.735C542.98 830.963 526.992 828.107 511.35 829.71C498.75 831.024 486.811 835.363 477.154 843.713C465.972 853.379 459.313 866.667 450.522 878.304C424.622 912.563 387.514 934.954 349.059 952.504C323.771 964.045 297.472 973.271 271.432 983.071C260.162 987.314 249.09 991.679 238.308 997.017C227.662 1002.28 216.776 1007.06 205.54 1010.92C175.854 1021.12 145.688 1032 114.469 1034.53C52.9223 1039.54 -1.88986 1008.4 -53.3867 978.003" stroke="#FF004D" stroke-width="0.8" stroke-miterlimit="10"/>
<path d="M1937.68 845.167C1933.21 850.035 1927.74 854.083 1922.4 857.962C1904.99 870.555 1886.12 881.793 1866.23 889.86C1837.14 901.672 1809.57 916.324 1777.63 915.653C1759.81 915.27 1742.23 911.069 1725.5 904.708C1683.78 888.877 1637.98 868.784 1592.71 881.57C1581.02 884.875 1569.6 888.937 1559.2 895.138C1541.35 905.796 1525.52 919.917 1507.96 931.274C1489.96 942.904 1470.32 951.546 1449.37 955.724C1415.65 962.458 1379.96 960.373 1348.83 945.079C1329.15 935.401 1310.53 923.754 1292.64 910.946C1275.22 898.495 1258.13 885.744 1239.63 874.933C1224.69 866.201 1209.92 856.895 1194.29 849.357C1182.51 843.676 1168.71 838.144 1155.41 840.673C1136.57 844.29 1118.67 837.753 1100.95 831.838C1092.28 828.943 1083.37 826.259 1074.21 825.37C1062.16 824.189 1050.41 826.535 1038.98 829.93C1027.94 833.203 1017.35 838.27 1006.6 842.467C966.749 858.013 928.06 876.007 887.047 888.691C850.618 899.961 813.055 909.801 775.272 915.309C757.622 917.89 739.75 918.896 722.042 916.2C720.098 915.91 718.17 915.555 716.255 915.157C674.065 906.483 640.494 876.338 604.246 855.08C590.381 846.957 575.033 841.195 559.495 837.174C544.622 833.331 528.748 830.736 513.396 832.714C500.856 834.32 489.174 839.073 479.713 847.545C468.318 857.75 461.127 871.654 451.638 883.495C424.419 917.447 386.976 940.23 348.168 958.582C323.541 970.231 297.962 979.856 272.825 990.404C250.925 999.589 230.761 1012.25 208.224 1019.95C178.452 1030.13 147.932 1040.62 116.575 1042.72C55.7539 1046.82 -2.61626 1016.26 -51.3756 981.825" stroke="#FF004D" stroke-width="0.8" stroke-miterlimit="10"/>
<path d="M1938.63 855.37C1934.33 860.768 1928.94 865.388 1923.67 869.79C1907.08 883.683 1889.01 895.317 1868.89 903.256C1840.42 914.497 1813.21 927.201 1782.13 926.302C1764.32 925.785 1746.69 921.847 1730.03 915.32C1688.49 899.077 1641.98 876.566 1596.49 890.097C1584.26 893.737 1572.43 898.266 1561.7 905.135C1543.81 916.589 1527.8 931.072 1509.22 941.858C1490.34 952.817 1469.88 960.46 1448.4 964.038C1415.33 969.544 1377.18 969.049 1346.13 955.086C1327.3 946.622 1309.13 936.797 1291.87 925.378C1275.42 914.472 1259.73 902.417 1243.08 891.847C1229.43 883.163 1215.96 873.997 1201.43 866.801C1189.3 860.796 1175.72 855.989 1162.03 857.769C1142.35 860.359 1124.66 853.557 1106.67 846.421C1098.16 843.039 1089.47 839.955 1080.39 838.42C1067.81 836.316 1055.25 837.803 1042.98 840.63C1031.18 843.351 1019.64 847.983 1008.1 851.785C966.376 865.497 925.752 882.306 883.598 894.96C847.667 905.743 811.127 916.225 774.247 923.169C757.594 926.316 740.659 928.032 723.778 925.764C721.913 925.518 720.05 925.18 718.215 924.827C675.433 916.476 641.928 883.34 606.412 860.463C580.518 843.791 546.542 831.044 515.26 835.788C502.78 837.686 491.349 842.873 482.075 851.51C470.482 862.283 462.732 876.726 452.561 888.798C424.194 922.488 386.609 945.716 347.554 964.99C323.646 976.785 298.89 986.769 274.731 998.129C264.35 1003 254.733 1009.23 244.598 1014.55C233.74 1020.26 222.521 1025.35 210.901 1029.26C181 1039.41 150.137 1049.46 118.675 1051.1C82.0124 1053.03 45.8056 1042 12.9165 1025.71C-9.15725 1014.77 -30.4711 1001.5 -49.4063 985.708" stroke="#FF004D" stroke-width="0.8" stroke-miterlimit="10"/>
<path d="M1939.51 865.966C1935.4 871.964 1930.05 877.194 1924.87 882.216C1909.56 897.002 1891.43 908.576 1871.67 916.29C1843.68 927.199 1816.74 938.551 1786.31 937.986C1768.47 937.668 1750.7 934.266 1734.01 927.755C1692.37 911.51 1644.92 886.701 1599.15 900.846C1586.42 904.79 1574.67 909.892 1563.71 917.434C1546.37 929.334 1529.38 942.224 1510.53 951.971C1490.69 962.214 1469.39 968.826 1447.3 971.597C1412.39 975.99 1374.68 974.007 1342 962.25C1323.84 955.736 1305.68 946.508 1288.75 936.531C1273.08 927.308 1258.32 916.716 1242.9 907.098C1218.63 891.917 1194.48 871.808 1164.34 873.341C1144 874.376 1127.04 868.345 1108.94 859.845C1100.63 855.944 1092.14 852.384 1083.15 850.415C1070.54 847.638 1057.56 848.848 1045.05 851.106C1032.66 853.349 1020.5 857.47 1008.35 860.88C965.249 872.959 923.094 888.623 880.151 901.388C845.001 911.828 809.802 922.967 774.168 931.693C758.458 935.528 742.505 938.036 726.314 936.367C724.482 936.175 722.666 935.918 720.846 935.592C699.486 931.942 680.477 920.628 663.239 908.019C644.89 894.585 627.575 879.773 608.957 866.656C582.934 848.319 549.675 833.237 517.005 838.965C504.271 841.208 492.867 847.069 483.676 856.164C472.23 867.505 463.978 882.021 453.353 894.155C424.031 927.636 386.422 951.385 347.238 971.658C324.222 983.555 299.671 993.202 277.203 1006.14C256.333 1018.18 236.651 1031.01 213.602 1038.74C183.562 1048.8 152.389 1058.38 120.773 1059.56C83.6837 1060.94 47.1416 1049.36 14.2175 1032.26C-7.73 1020.85 -29.6484 1007.01 -47.4268 989.637" stroke="#FF004D" stroke-width="0.8" stroke-miterlimit="10"/>
<path d="M1940.36 876.946C1926.08 900.944 1899.85 919.192 1874.51 929.134C1846.9 939.963 1820.1 950.569 1790.1 950.856C1772.18 951.021 1754.19 948.525 1737.36 942.206C1695.74 926.586 1647.31 899.677 1601.59 914.318C1589.22 918.29 1577.25 923.011 1566.27 929.929C1548.61 941.053 1531.21 953.096 1512.04 961.864C1491.22 971.386 1469.04 977.003 1446.3 978.934C1409.85 982.021 1371.67 978.484 1336.91 967.344C1302.44 956.301 1271.27 938.217 1240.13 919.843C1215.76 905.463 1193.09 886.896 1163.42 887.592C1152.8 887.851 1142.15 887.023 1131.95 883.742C1123.74 881.107 1116.26 876.946 1108.72 872.858C1101.01 868.682 1093.16 864.88 1084.68 862.542C1071.72 858.935 1058.64 859.547 1045.51 861.385C1032.7 863.169 1020 866.823 1007.37 869.854C963.252 880.419 919.966 895.068 876.508 908.132C842.118 918.477 808.301 930.377 774.066 941.177C759.284 945.835 744.499 949.045 728.928 947.634C727.111 947.47 725.268 947.229 723.464 946.93C678.419 939.651 646.333 900.094 611.924 873.769C585.816 853.777 552.84 835.577 518.666 842.373C487.473 848.589 473.672 877.999 454.063 899.744C423.995 933.094 386.419 957.404 347.256 978.716C325.039 990.803 301.419 1001.09 280.333 1015.13C260.26 1028.49 239.336 1040.9 216.332 1048.45C186.117 1058.4 154.662 1067.49 122.903 1068.17C85.3864 1069 48.5201 1056.83 15.5395 1038.91C-6.33041 1027.03 -28.8502 1012.44 -45.4305 993.594" stroke="#FF004D" stroke-width="0.8" stroke-miterlimit="10"/>
<path d="M1941.15 888.275C1928.52 912.806 1902.1 931.924 1877.35 941.956C1850.01 953.015 1823.2 963.46 1793.46 965.102C1775.41 966.083 1757.17 964.693 1740 958.949C1697.74 944.788 1651.31 916.001 1604.9 928.504C1592.44 931.855 1580.35 935.972 1569.19 942.381C1551.16 952.739 1533.32 963.93 1513.86 971.816C1492.06 980.637 1468.97 985.416 1445.64 986.476C1407.4 988.209 1368.03 983.231 1331.52 971.642C1298.22 961.076 1266.31 946.699 1235.5 930.296C1223.69 924.011 1212.51 916.423 1200.53 910.367C1187.77 903.921 1174.54 900.492 1160.28 900.627C1149.54 900.739 1138.65 900.03 1128.36 896.564C1120.53 893.915 1113.5 889.669 1106.47 885.375C1099.24 880.959 1091.9 876.901 1083.79 874.317C1070.83 870.183 1057.94 870.087 1044.56 871.468C1031.43 872.822 1018.33 876.071 1005.37 878.735C960.255 888.025 915.772 901.825 871.808 915.488C838.95 925.692 807.347 938.162 775.546 951.199C761.321 957.04 747.019 960.333 731.553 959.134C729.73 958.99 727.903 958.777 726.071 958.494C680.208 951.524 648.794 909.804 615.399 881.751C589.545 860.036 555.845 838.104 520.312 845.938C507.466 848.771 495.737 855.762 487.4 865.959C476.596 879.195 466.344 892.854 454.748 905.441C424.084 938.7 386.67 963.605 347.656 985.99C325.983 998.453 304.139 1010.09 283.525 1024.26C263.472 1038.05 242.317 1050.72 219.126 1058.21C188.79 1068 157.009 1076.59 125.08 1076.8C87.1207 1077.04 49.9344 1064.35 16.9088 1045.57C-4.872 1033.19 -28.0184 1017.76 -43.4022 997.537" stroke="#FF004D" stroke-width="0.8" stroke-miterlimit="10"/>
<path d="M1941.89 899.663C1929.9 924.549 1904.8 944.41 1880.15 954.95C1852.95 966.577 1825.99 977.488 1796.36 980.903C1778.36 982.978 1760.05 983.384 1742.8 977.504C1700.56 963.096 1655.63 932.897 1608.83 942.928C1596.25 945.626 1583.99 949.077 1572.58 954.981C1554.14 964.542 1535.86 974.972 1516.1 982.088C1493.37 990.248 1469.47 994.302 1445.47 994.657C1405.3 995.275 1364.47 988.804 1326.32 976.133C1293.72 965.292 1260.81 953.268 1229.59 938.822C1218.11 933.523 1207.27 926.829 1195.81 921.465C1182.9 915.436 1169.61 912.384 1155.42 912.514C1144.18 912.607 1132.63 912.065 1121.96 908.13C1114.95 905.542 1108.79 901.526 1102.65 897.354C1083.99 884.733 1064.89 879.92 1042.39 881.5C1029.03 882.451 1015.67 885.308 1002.45 887.651C957.049 895.714 912.026 908.611 868.234 922.918C850.483 928.711 832.906 935.057 815.856 942.692C802.696 948.588 790.352 955.898 777.406 962.196C763.907 968.76 749.14 971.814 734.16 970.86C732.331 970.738 730.499 970.546 728.683 970.29C706.857 967.181 687.846 954.672 671.303 940.756C652.842 925.247 636.574 907.384 618.985 890.936C593.733 867.315 558.959 840.983 521.971 849.875C508.461 853.127 498.563 860.747 489.711 871.151C478.285 884.564 467.501 898.494 455.437 911.369C424.37 944.589 387.119 970.089 348.463 993.628C337.176 1000.51 325.78 1007.2 314.556 1014.19C304.911 1020.17 296.051 1027.18 286.784 1033.72C266.746 1047.89 245.383 1060.73 221.941 1068.13C191.37 1077.77 159.382 1085.84 127.268 1085.54C88.893 1085.19 51.3713 1071.95 18.2892 1052.35C-3.48826 1039.44 -27.163 1023.07 -41.3788 1001.57" stroke="#FF004D" stroke-width="0.8" stroke-miterlimit="10"/>
<path d="M1942.68 910.785C1931.58 936.138 1907.23 956.938 1882.84 968.235C1855.61 980.842 1828.43 992.771 1798.74 998.355C1780.98 1001.69 1763.29 1002.35 1746.1 996.419C1703.86 981.849 1660.42 950.302 1613.3 957.701C1600.57 959.691 1588.08 962.461 1576.41 967.881C1557.52 976.632 1538.84 986.404 1518.79 992.87C1495.22 1000.48 1470.64 1003.92 1445.98 1003.84C1403.89 1003.7 1361.41 995.953 1321.84 981.757C1303 974.989 1284.53 967.129 1265.44 960.847C1251.19 956.158 1236.98 951.276 1223.02 945.838C1211.78 941.474 1201.07 935.713 1189.9 931.07C1176.83 925.642 1163.44 923.045 1149.31 923.284C1138.1 923.474 1126.4 923.215 1115.67 919.333C1108.99 916.902 1103.23 912.946 1097.55 908.76C1091.42 904.25 1085.18 900.006 1078.06 897.18C1065.78 892.308 1052.11 890.994 1039.1 891.531C1025.65 892.088 1012.09 894.57 998.74 896.625C953.422 903.586 908.144 915.634 864.824 930.756C847.716 936.722 830.826 943.503 814.838 952.066C802.924 958.457 792.221 966.849 780.24 973.061C766.739 980.061 751.906 983.534 736.703 982.727C734.869 982.626 733.036 982.434 731.214 982.199C709.401 979.301 690.49 966.589 674.236 952.451C655.784 936.393 639.7 917.844 622.475 900.552C597.622 875.613 562.112 844.214 523.654 854.137C509.729 857.738 500.574 866.613 491.301 877.134C479.508 890.541 468.402 904.477 456.126 917.456C424.763 950.666 387.803 976.795 349.639 1001.5C338.851 1008.49 327.81 1015.23 317.316 1022.67C308.016 1029.25 299.257 1036.65 290.026 1043.32C269.966 1057.82 248.408 1070.8 224.698 1078.08C193.877 1087.54 161.704 1095.1 129.405 1094.29C90.5981 1093.32 52.7565 1079.56 19.6122 1059.16C-2.20485 1045.71 -26.3306 1028.27 -39.4072 1005.61" stroke="#FF004D" stroke-width="0.8" stroke-miterlimit="10"/>
<path d="M1943.55 921.72C1933.18 947.662 1909.61 969.519 1885.41 981.88C1858.36 995.706 1830.7 1010.38 1800.92 1016.99C1783.83 1020.81 1766.43 1021.36 1749.75 1015.57C1707.5 1000.88 1665.56 968.173 1618.35 972.836C1605.42 974.106 1592.71 976.172 1580.72 981.119C1561.4 989.088 1542.3 998.288 1522.02 1004.25C1497.7 1011.41 1472.47 1014.56 1447.24 1014.22C1403.42 1013.61 1359.3 1005.2 1318.51 989.247C1298.87 981.556 1280.01 972.075 1259.87 965.42C1245.43 960.658 1230.78 956.415 1216.35 951.771C1205.18 948.183 1194.43 943.354 1183.33 939.395C1170.05 934.669 1156.56 932.598 1142.5 933.015C1131.71 933.342 1120.37 933.476 1109.9 930.148C1102.98 927.949 1097.26 924.005 1091.6 919.551C1085.73 914.947 1079.87 910.646 1072.93 907.752C1060.93 902.794 1047.62 901.668 1034.93 901.533C1021.57 901.38 1007.79 903.848 994.45 905.607C949.618 911.526 904.375 922.757 861.998 938.821C845.553 945.055 829.376 952.35 814.635 962.004C803.792 969.118 794.245 977.912 782.808 984.155C769.409 991.457 754.588 995.232 739.311 994.612C737.471 994.533 735.632 994.362 733.805 994.149C698.646 989.769 671.891 960.691 649.232 935.971C624.985 909.54 600.891 878.762 567.381 863.589C554.281 857.67 539.582 854.977 525.509 858.791C511.96 862.447 502.028 873.112 492.885 883.232C480.775 896.623 469.376 910.618 456.948 923.74C425.46 956.985 388.824 983.707 351.292 1009.57C340.977 1016.69 330.448 1023.65 320.695 1031.59C311.706 1038.9 302.686 1046.16 293.36 1053.01C273.268 1067.8 251.504 1080.86 227.554 1088.01C196.467 1097.26 164.103 1104.33 131.618 1103.01C92.3803 1101.42 54.2073 1087.18 21.0279 1065.97C-0.887271 1051.94 -25.3295 1033.46 -37.3585 1009.63" stroke="#FF004D" stroke-width="0.8" stroke-miterlimit="10"/>
<path d="M1944.44 932.551C1934.76 959.253 1911.86 982.299 1887.85 996.042C1861.01 1011.42 1833.67 1028.54 1803.48 1035.92C1786.86 1039.97 1769.9 1040.65 1753.63 1034.99C1711.36 1020.25 1671.05 986.531 1623.87 988.513C1610.74 989.064 1597.78 990.421 1585.46 994.932C1565.69 1002.14 1546.19 1010.89 1525.67 1016.54C1500.74 1023.39 1474.99 1026.54 1449.24 1026.24C1403.92 1025.71 1358.33 1017.23 1316.6 999.536C1295.94 990.768 1276.53 979.092 1255.37 971.247C1240.55 965.741 1225.27 961.465 1210.06 957.304C1198.78 954.215 1187.78 950.167 1176.55 946.863C1163.02 942.897 1149.4 941.341 1135.33 942.033C1124.55 942.569 1113.11 943.068 1102.58 939.975C1095.87 937.996 1090.43 934.288 1085.1 929.919C1079.58 925.386 1074.13 921.124 1067.51 918.274C1055.71 913.162 1042.52 912.136 1029.89 911.856C1016.5 911.558 1002.96 913.399 989.637 914.911C945.223 919.954 899.754 930.481 858.441 947.979C843.464 954.308 828.784 961.934 816.101 972.231C806.146 980.318 796.877 988.933 785.662 995.373C772.273 1003.07 757.36 1007.19 741.876 1006.74C740.03 1006.68 738.207 1006.54 736.38 1006.33C700.802 1002.23 674.012 971.989 651.751 946.641C627.513 919.063 604.187 887.732 570.871 870.544C557.908 863.858 542.035 859.54 527.751 864.401C514.631 868.86 504.322 879.127 495.069 889.056C482.423 902.648 470.631 916.997 457.857 930.464C426.331 963.768 390.122 991.04 353.367 1018.12C313.751 1047.31 278.608 1084.07 230.394 1098.16C199.207 1107.27 166.464 1113.79 133.821 1111.94C94.1794 1109.72 55.6479 1095.01 22.455 1072.99C0.345896 1058.32 -24.2299 1038.78 -35.2984 1013.86" stroke="#FF004D" stroke-width="0.8" stroke-miterlimit="10"/>
<path d="M1945.35 943.318C1936.25 970.955 1913.98 995.293 1890.11 1010.71C1863.63 1027.81 1836.97 1046.8 1806.27 1054.96C1790.09 1059.24 1773.48 1060.03 1757.54 1054.48C1715.29 1039.77 1676.7 1005.11 1629.73 1004.58C1616.4 1004.43 1603.19 1005.1 1590.49 1009.19C1570.3 1015.69 1550.43 1024.08 1529.7 1029.58C1504.3 1036.32 1478.15 1039.75 1451.95 1039.83C1405.54 1039.98 1358.74 1032.3 1316.39 1013.04C1294.41 1003.04 1274.38 989.038 1252.34 979.073C1236.99 972.116 1220.88 966.955 1204.58 962.775C1193.01 959.816 1181.57 956.293 1169.95 953.527C1156.14 950.245 1142.33 949.213 1128.22 950.26C1109.97 951.625 1092.93 951.864 1078.34 939.643C1073.09 935.228 1067.96 931.051 1061.63 928.255C1050 923.098 1036.89 922.137 1024.42 921.833C1011.13 921.515 997.7 922.928 984.466 924.21C941.196 928.41 896.127 938.217 856.582 956.923C842.135 963.762 829.615 972.333 817.956 983.18C808.687 991.796 799.061 1000.2 788.152 1006.7C774.84 1014.62 759.928 1018.99 744.414 1018.75C742.563 1018.71 740.734 1018.59 738.901 1018.4C703.463 1014.63 676.93 984.119 655.301 958.641C631.105 930.133 608.113 896.525 574.612 878.139C561.128 870.739 545.608 865.964 530.441 870.772C517.158 874.982 506.609 885.115 497.191 894.976C484.035 908.754 471.871 923.463 458.811 937.312C427.386 970.666 391.616 998.446 355.821 1026.75C317.113 1057.35 282.145 1094.58 233.169 1108.16C201.547 1116.93 168.767 1123.07 135.976 1120.74C95.9511 1117.89 57.0555 1102.74 23.816 1079.95C1.48586 1064.64 -23.1847 1044 -33.3043 1018.02" stroke="#FF004D" stroke-width="0.8" stroke-miterlimit="10"/>
<path d="M1946.29 954.045C1937.67 982.798 1915.93 1008.59 1892.24 1025.89C1866.45 1044.74 1840.25 1065.18 1809.25 1074.02C1793.43 1078.51 1777.11 1079.41 1761.46 1074C1719.32 1059.39 1682.4 1023.82 1635.93 1020.99C1622.41 1020.17 1608.95 1020.22 1595.92 1023.9C1575.33 1029.74 1555.11 1037.9 1534.21 1043.45C1508.49 1050.26 1482.06 1054.28 1455.51 1055.17C1408.58 1056.73 1360.9 1051.85 1318.47 1030.82C1306.24 1024.77 1294.31 1017.83 1282.74 1010.46C1272.2 1003.73 1262.19 996.252 1251.34 989.993C1235.39 980.808 1218.29 973.795 1200.57 968.914C1174.41 961.728 1149.04 955.212 1121.73 957.988C1103.87 959.801 1086.3 960.979 1071.81 948.9C1066.73 944.643 1061.82 940.551 1055.7 937.833C1044.23 932.717 1031.21 931.827 1018.87 931.558C1005.73 931.28 992.382 932.554 979.248 933.633C937.223 937.133 892.139 946.224 854.713 966.714C830.321 980.058 814.298 1003.52 790.722 1018.02C777.492 1026.15 762.609 1030.76 747.033 1030.66C745.197 1030.65 743.341 1030.54 741.53 1030.36C705.807 1026.88 679.315 995.531 658.054 969.624C645.143 953.9 632.882 937.638 619.462 922.352C607.396 908.624 594.133 894.988 578.169 885.776C564.552 877.927 548.823 872.729 533.24 877.287C519.221 881.415 508.066 892.098 498.166 902.382C485.072 916.015 472.938 930.526 460.024 944.345C428.792 977.751 393.515 1006.01 358.799 1035.52C321.024 1067.61 285.415 1104.92 236.026 1118.07C204.161 1126.54 171.124 1132.26 138.196 1129.42C97.7615 1125.95 58.5601 1110.4 25.2684 1086.86C2.68003 1070.89 -21.9938 1049.14 -31.1973 1022.15" stroke="#FF004D" stroke-width="0.8" stroke-miterlimit="10"/>
<path d="M1947.2 964.79C1939.02 994.853 1917.68 1022.2 1894.18 1041.59C1869.61 1061.85 1843.35 1083.9 1812.24 1093.06C1796.58 1097.67 1780.64 1098.75 1765.21 1093.47C1743.38 1086 1723.55 1072.86 1703.39 1061.19C1684.5 1050.28 1664.16 1039.66 1642.16 1037.63C1628.46 1036.36 1614.78 1035.7 1601.45 1039.05C1580.54 1044.3 1559.93 1052.43 1538.88 1058.16C1512.81 1065.27 1486.29 1069.91 1459.43 1072.3C1436.54 1074.35 1413.42 1075.83 1390.43 1073.79C1365.93 1071.6 1342.24 1064.96 1320.66 1053.46C1295.89 1040.26 1275.02 1021.9 1252.51 1005.12C1236.03 992.835 1217.7 982.873 1198.21 976.439C1171.33 967.567 1144.41 961.785 1116.04 965.517C1098.32 967.849 1080.32 969.65 1065.64 957.815C1060.72 953.858 1056 949.86 1050.2 947.25C1038.73 942.09 1025.62 941.291 1013.3 941.097C1000.24 940.885 987.051 942.34 974.027 943.264C951.18 944.914 928.345 948.749 906.237 954.938C888.283 959.942 870.315 966.458 854.523 976.521C831.668 991.079 816.344 1014.84 793.279 1029.42C780.117 1037.72 765.252 1042.52 749.657 1042.57C747.815 1042.59 745.959 1042.48 744.137 1042.34C708.538 1039.17 682.248 1007.67 661.494 981.665C637.296 951.364 615.122 915.127 581.76 893.906C568.289 885.338 551.843 879.902 536.012 884.188C521.863 888.027 510.467 898.577 500.466 908.811C486.927 922.647 474.486 937.535 461.35 951.754C445.857 968.513 429.675 984.582 412.81 999.939C396.186 1015.09 378.736 1029.37 362.197 1044.54C325.697 1078.05 288.332 1115.4 238.882 1128C206.795 1136.19 173.443 1141.46 140.431 1138.16C99.6353 1134.06 60.0741 1118.14 26.7458 1093.87C3.88351 1077.21 -20.7138 1054.4 -29.0929 1026.39" stroke="#FF004D" stroke-width="0.8" stroke-miterlimit="10"/>
<path d="M1948.11 975.577C1940.29 1007.12 1919.31 1036.14 1895.98 1057.79C1872.75 1079.34 1845.97 1102.53 1815.21 1112.05C1799.77 1116.83 1783.99 1118.03 1768.68 1112.87C1747.04 1105.56 1727.57 1092.18 1707.94 1080.1C1689.47 1068.74 1669.72 1057.19 1648.01 1054.25C1634.35 1052.4 1620.42 1051.48 1606.97 1054.5C1585.73 1059.26 1564.79 1067.42 1543.62 1073.54C1516.87 1081.29 1489.49 1087.14 1462.12 1091.97C1438.9 1096.05 1415.27 1099.4 1391.58 1098.47C1366.95 1097.51 1343.13 1091.36 1321.76 1079.42C1296.4 1065.23 1275.44 1045.22 1254.34 1025.24C1237.43 1009.2 1219.41 995.117 1197.86 986.016C1170.07 974.281 1141.62 968.183 1111.51 973.011C1093.64 975.879 1075.25 978.055 1060.11 966.375C1055.01 962.435 1050.18 958.501 1044.18 955.93C1032.81 951.074 1019.98 950.419 1007.88 950.325C994.943 950.218 981.869 951.589 968.98 952.779C930.476 956.348 886.861 962.524 855.065 986.705C833.804 1002.86 818.652 1025.73 796.047 1040.47C782.934 1049.02 767.88 1054.18 752.15 1054.31C750.308 1054.32 748.462 1054.27 746.618 1054.12C711.24 1051.24 685.245 1019.84 664.927 993.84C640.518 962.61 618.794 925.551 585.611 902.632C571.992 893.244 555.202 887.118 538.684 891.22C524.411 894.751 512.84 905.185 502.71 915.384C488.769 929.434 476.063 944.71 462.732 959.314C432.259 992.716 398.512 1022.55 365.757 1053.58C329.437 1087.96 291.646 1125.61 241.558 1137.77C209.261 1145.62 175.581 1150.48 142.464 1146.72C101.317 1142.04 61.3847 1125.8 28.0414 1100.81C4.84074 1083.44 -19.5668 1059.58 -27.1543 1030.58" stroke="#FF004D" stroke-width="0.8" stroke-miterlimit="10"/>
<path d="M1949 986.427C1941.62 1018.98 1921.27 1051.46 1897.63 1074.27C1874.62 1096.46 1849.13 1120.92 1818.05 1130.96C1802.75 1135.89 1787.07 1137.21 1771.84 1132.14C1730.17 1118.33 1697.63 1079.18 1653.43 1070.9C1639.97 1068.38 1625.74 1067.47 1612.35 1070.2C1590.78 1074.61 1569.51 1082.9 1548.31 1089.59C1520.32 1098.41 1491.83 1106.89 1463.47 1114.13C1416.23 1126.19 1365.97 1133.25 1322.05 1107.96C1296.36 1093.18 1275.09 1071.59 1255.51 1049.28C1239.39 1030.93 1221.74 1010.33 1199.99 998.555C1171.21 982.95 1141.16 974.768 1108.58 980.912C1090.12 984.4 1071.57 986.396 1055.6 974.863C1050.31 971.034 1045.27 967.112 1039.16 964.604C1027.77 959.946 1015.02 959.406 1002.93 959.431C990.145 959.455 977.257 960.899 964.544 962.205C927.56 966.021 885.129 971.64 856.381 997.739C836.92 1015.41 820.635 1037.1 798.574 1051.78C785.519 1060.46 770.495 1065.77 754.752 1066.04C752.904 1066.07 751.058 1066.01 749.229 1065.89C713.67 1063.26 687.7 1031.34 667.655 1005.09C643.489 973.468 622.371 936.295 589.95 912.156C576.056 901.821 558.97 894.743 541.513 898.662C527.137 901.89 515.368 912.202 505.186 922.342C490.849 936.584 477.926 952.239 464.432 967.281C434.356 1000.74 401.654 1031.57 369.465 1062.89C333.419 1097.97 295.073 1135.97 244.369 1147.6C211.809 1155.06 177.84 1159.54 144.66 1155.32C103.189 1150.06 62.8887 1133.55 29.5188 1107.89C5.96422 1089.78 -18.1893 1064.89 -25.0181 1034.94" stroke="#FF004D" stroke-width="0.8" stroke-miterlimit="10"/>
<path d="M1949.87 997.345C1942.83 1031.55 1922.97 1065.22 1899.38 1090.24C1877.2 1113.8 1852.02 1139.2 1820.76 1149.7C1805.86 1154.69 1789.83 1156.37 1774.64 1151.23C1732.48 1136.95 1701.81 1097.87 1658.28 1087.48C1644.95 1084.3 1630.82 1083.35 1617.39 1085.91C1595.35 1090.12 1573.18 1098.52 1551.74 1105.9C1522.15 1116.06 1493.33 1128.51 1463.66 1138.17C1417.22 1153.26 1365.95 1163.98 1321.66 1138.18C1295.66 1123.04 1274.79 1100.11 1256.18 1076.41C1239.55 1055.25 1223.71 1033.05 1202.93 1015.82C1188.6 1003.94 1172.98 994.749 1154.75 990.031C1139.15 985.993 1123.22 986.164 1107.58 989.511C1088.22 993.657 1069.38 994.84 1052.42 983.361C1046.79 979.558 1041.43 975.572 1035.04 973.081C1023.55 968.604 1010.79 968.198 998.684 968.358C986.092 968.525 973.386 970.063 960.864 971.513C940.213 973.888 919.115 976.902 899.37 983.792C884.06 989.136 871.189 997.04 859.229 1007.9C839.441 1025.85 823.312 1048.16 800.934 1063.17C787.992 1071.86 773.102 1077.17 757.458 1077.58C755.605 1077.64 753.754 1077.6 751.925 1077.48C716.663 1075.12 690.92 1043.46 671.256 1017.34C646.913 984.998 626.135 947.067 593.903 921.623C579.828 910.504 562.674 902.65 544.478 906.326C529.853 909.28 517.842 919.642 507.502 929.854C492.947 944.222 479.913 960.123 466.393 975.434C436.725 1009.01 404.993 1040.67 373.248 1072.21C337.304 1107.94 298.427 1146.13 247.156 1157.21C214.392 1164.32 180.064 1168.34 146.805 1163.73C105.041 1157.93 64.3467 1141.18 30.9602 1114.9C7.0302 1096.04 -16.8107 1070.15 -22.9138 1039.3" stroke="#FF004D" stroke-width="0.8" stroke-miterlimit="10"/>
<path d="M1950.72 1008.35C1944 1044.11 1924.69 1078.98 1901.29 1106.14C1879.92 1130.93 1854.84 1157.39 1823.26 1168.24C1808.36 1173.37 1792.26 1175.13 1777 1170.07C1734.58 1156.08 1705.23 1116.34 1662.42 1103.89C1649.07 1100.02 1635.45 1098.87 1621.81 1101.4C1566.35 1111.67 1515.43 1143.25 1462.82 1163.54C1417.38 1181.08 1365.39 1195.12 1320.73 1169.22C1294.51 1154.02 1274.09 1130.2 1256.36 1105.63C1239.53 1082.31 1224.86 1057.27 1205.14 1036.25C1191.84 1022.08 1176.3 1007.74 1157.51 1001.27C1141.61 995.793 1124.86 995.331 1108.6 999.158C1087.98 1004.02 1068.73 1003.65 1050.58 992.013C1044.6 988.183 1038.82 984.108 1032.12 981.58C1020.37 977.148 1007.43 976.809 995.073 977.131C982.667 977.463 970.185 979.107 957.855 980.7C937.949 983.298 917.218 986.57 898.418 993.966C884.597 999.41 872.846 1008.03 861.95 1018C842.137 1036.13 826.107 1058.67 803.789 1073.97C790.816 1082.86 775.826 1088.38 760.063 1088.89C758.21 1088.95 756.352 1088.93 754.523 1088.81C719.231 1086.65 693.561 1054.8 674.109 1028.58C649.673 995.638 629.171 957.022 597.013 930.702C582.95 919.195 565.943 910.875 547.424 914.212C532.092 916.977 519.532 927.927 508.791 938.607C494.481 952.833 481.676 968.566 468.432 983.79C439.138 1017.51 408.279 1049.86 376.918 1081.6C341.029 1117.9 301.65 1156.15 249.833 1166.7C216.856 1173.41 182.185 1176.99 148.845 1172C106.784 1165.68 65.7418 1148.76 32.3172 1121.85C8.00028 1102.29 -15.4795 1075.4 -20.9054 1043.65" stroke="#FF004D" stroke-width="0.8" stroke-miterlimit="10"/>
<path d="M1951.52 1019.4C1945.07 1056.57 1926.41 1092.79 1903.25 1121.97C1882.62 1147.97 1857.51 1175.41 1825.51 1186.6C1810.51 1191.84 1794.26 1193.65 1778.85 1188.7C1736.1 1175 1707.86 1134.57 1665.79 1120.13C1652.46 1115.56 1639.18 1113.93 1625.35 1116.48C1600.58 1121.04 1576.69 1132.77 1553.96 1143.94C1523 1159.15 1492.75 1176.03 1461.2 1189.82C1416.78 1209.24 1364.76 1225.85 1319.51 1200.39C1265.2 1169.84 1242.82 1107.01 1206.78 1059.39C1184.07 1029.35 1152.61 999.909 1111.93 1010.41C1089.89 1016.09 1069.83 1013.08 1050.45 1001.07C1043.73 996.909 1037.18 992.536 1029.68 989.887C1017.78 985.668 1004.85 985.399 992.425 985.886C980.205 986.383 967.948 988.133 955.847 989.902C937.02 992.674 917.168 996.182 899.627 1003.94C886.668 1009.68 875.063 1018.61 864.712 1028.18C844.722 1046.63 828.647 1069.6 806.055 1085.14C793.207 1093.99 778.336 1099.5 762.689 1100.09C760.83 1100.17 758.973 1100.15 757.144 1100.03C722.166 1098.07 696.725 1066.74 677.608 1040.72C652.977 1007.23 632.764 968.046 600.85 940.642C586.743 928.526 569.545 919.374 550.494 922.384C535.092 924.809 522.405 935.633 511.654 946.264C497.039 960.685 484.088 976.791 470.768 992.386C441.831 1026.31 411.761 1059.16 380.655 1091.06C344.79 1127.86 304.869 1166.09 252.545 1176.04C219.353 1182.34 184.329 1185.44 150.926 1180.09C108.597 1173.31 67.2018 1156.25 33.7377 1128.8C9.01818 1108.51 -14.0203 1080.66 -18.8021 1048.05" stroke="#FF004D" stroke-width="0.8" stroke-miterlimit="10"/>
<path d="M1952.33 1030.55C1946.25 1068.99 1928.11 1106.71 1905.3 1137.66C1885.27 1164.85 1860.06 1193.25 1827.53 1204.74C1812.08 1210.18 1795.95 1211.72 1780.22 1207.05C1758.44 1200.58 1739.51 1186.73 1721.67 1172.59C1704.88 1159.27 1688.1 1144.33 1668.01 1136.47C1654.84 1131.31 1641.13 1129.04 1627.34 1132.31C1601.48 1138.44 1576.77 1152.39 1553.29 1165.26C1521.94 1182.44 1491.24 1201.05 1459.06 1216.45C1415.58 1237.22 1363.76 1255.52 1318.27 1230.84C1262.83 1200.77 1239.99 1135.5 1207.99 1084.73C1188.09 1053.15 1158.6 1013.23 1115.73 1023.78C1092.43 1029.52 1072.15 1022.94 1052.25 1010.74C1044.75 1006.16 1037.37 1001.36 1028.99 998.477C1016.76 994.236 1003.61 993.98 990.86 994.656C978.852 995.302 966.792 997.174 954.935 999.146C936.95 1002.12 918.154 1005.98 901.703 1014.21C889.074 1020.53 877.694 1028.87 867.359 1038.47C847.334 1057.05 831.336 1080.24 808.72 1095.96C795.876 1104.89 781.036 1110.45 765.373 1111.1C763.514 1111.18 761.656 1111.16 759.838 1111.09C724.777 1109.26 699.402 1077.78 680.427 1051.65C655.893 1017.89 635.973 978.553 604.414 950.509C590.436 938.084 573.024 928.185 553.714 930.873C538.079 933.052 525.209 943.873 514.344 954.588C499.609 969.115 486.606 985.414 473.336 1001.25C458.582 1018.85 443.606 1036.25 428.423 1053.49C414.194 1069.64 399.368 1085.11 384.44 1100.62C348.546 1137.87 308.104 1175.98 255.257 1185.32C221.683 1191.24 186.51 1193.61 152.997 1188.06C110.569 1181.05 68.7099 1163.75 35.1947 1135.81C10.0612 1114.84 -12.5146 1086.03 -16.6422 1052.6" stroke="#FF004D" stroke-width="0.8" stroke-miterlimit="10"/>
<path d="M1953.11 1041.74C1947.35 1081.37 1929.86 1120.7 1907.36 1153.23C1887.8 1181.49 1862.57 1210.85 1829.29 1222.62C1813.76 1228.11 1797.31 1229.57 1781.16 1225.43C1758.56 1219.63 1739.3 1206.92 1721.26 1192.42C1704.51 1178.95 1688.27 1163.19 1668.48 1154.56C1655.33 1148.83 1641.63 1146.5 1627.71 1150.1C1601.01 1156.97 1575.53 1173.42 1551.7 1187.58C1520.2 1206.3 1489.29 1226.31 1456.68 1242.87C1413.99 1264.55 1362.94 1283.23 1317.32 1259.72C1261.14 1230.78 1237.24 1164.24 1208.85 1111.68C1191.41 1079.45 1163.67 1028.81 1119.16 1038.76C1106.92 1041.5 1094.33 1040.96 1082.63 1036.24C1073.11 1032.41 1064.74 1026.35 1056.04 1020.99C1047.8 1015.89 1039.4 1010.68 1030.23 1007.42C1017.49 1002.91 1003.87 1002.55 990.561 1003.42C978.751 1004.19 966.925 1006.21 955.27 1008.38C923.112 1014.34 894.148 1026.13 870.015 1048.64C849.983 1067.33 834.009 1090.7 811.386 1106.53C798.573 1115.51 783.749 1121.1 768.074 1121.8C766.215 1121.87 764.352 1121.88 762.539 1121.78C727.88 1120.09 702.7 1089.16 683.974 1063.31C659.409 1029.39 639.817 990.127 608.912 961.27C594.886 948.165 576.918 937.084 557.005 939.45C541.364 941.305 528.373 951.98 517.525 962.63C502.518 977.314 489.423 993.956 476.104 1010.15C461.461 1027.94 446.632 1045.56 431.685 1063.11C417.87 1079.35 402.918 1094.6 388.174 1110.02C352.204 1147.65 311.21 1185.59 257.895 1194.27C223.778 1199.82 188.904 1201.07 154.969 1195.64C112.457 1188.86 69.8615 1170.79 36.571 1142.61C11.0177 1120.97 -11.0097 1091.23 -14.5646 1057.04" stroke="#FF004D" stroke-width="0.8" stroke-miterlimit="10"/>
<path d="M1953.87 1052.98C1948.42 1093.74 1931.61 1134.57 1909.46 1168.64C1890.35 1198.05 1864.83 1228.32 1830.84 1240.27C1815.24 1245.74 1797.93 1247.68 1781.54 1244.53C1758.32 1240.09 1738.34 1228.01 1719.99 1213.4C1703.09 1199.94 1687.26 1183.62 1667.69 1174.31C1654.56 1168.09 1640.83 1165.72 1626.77 1169.58C1614.89 1172.84 1603.52 1178.91 1592.58 1184.85C1577.86 1192.86 1563.6 1201.68 1549.44 1210.62C1518.05 1230.45 1487.12 1251.46 1454.33 1268.73C1412.22 1290.91 1362.54 1308.33 1316.96 1286.41C1260.13 1259.09 1235.18 1193.4 1209.47 1139.83C1198.38 1116.76 1186.82 1092.23 1168.9 1073.51C1156.61 1060.69 1140.41 1052.01 1122.28 1055.43C1109.87 1057.76 1097.41 1056.17 1086.19 1050.34C1076.73 1045.42 1068.71 1038.31 1060.23 1031.95C1051.79 1025.62 1042.77 1020.41 1032.82 1016.8C1019.59 1012 1005.51 1011.45 991.654 1012.47C980.025 1013.33 968.424 1015.46 956.964 1017.84C925.265 1024.4 896.365 1036.56 872.558 1058.88C852.644 1077.56 836.834 1100.83 814.413 1116.77C801.555 1125.91 786.61 1131.61 770.805 1132.36C768.941 1132.46 767.083 1132.45 765.264 1132.37C730.701 1130.75 705.569 1099.9 686.956 1074.06C662.304 1039.87 642.883 1000.3 612.083 970.966C598.311 957.861 580.241 946.384 560.437 948.343C544.785 949.897 531.721 960.414 520.875 970.973C505.645 985.803 492.464 1002.77 479.086 1019.27C464.811 1036.88 450.404 1054.39 435.981 1071.87C422.278 1088.46 406.781 1103.87 391.942 1119.47C355.837 1157.43 314.32 1195.09 260.526 1203.06C226.062 1208.2 191.102 1208.74 156.875 1203.02C114.052 1195.86 71.2275 1177.96 37.9431 1149.41C11.9642 1127.13 -9.50457 1096.51 -12.4712 1061.57" stroke="#FF004D" stroke-width="0.8" stroke-miterlimit="10"/>
<path d="M1954.65 1064.19C1949.5 1106.09 1933.37 1148.34 1911.56 1183.88C1892.82 1214.4 1867.21 1245.11 1832.46 1257.56C1816.22 1263.39 1798.72 1266.34 1781.51 1264.1C1757.79 1261.03 1736.89 1249.83 1718.01 1235.29C1700.75 1221.99 1685.13 1205.38 1665.87 1195.28C1652.78 1188.45 1638.97 1186.24 1624.75 1190.34C1612.5 1193.86 1600.89 1200.38 1589.74 1206.84C1575.06 1215.34 1560.81 1224.62 1546.66 1233.97C1515.64 1254.47 1485.03 1276.03 1452.3 1293.48C1410.54 1315.71 1362.83 1330.09 1317.48 1310.1C1260.24 1284.85 1233.8 1222.5 1209.93 1168.49C1198.95 1143.65 1188.03 1117.39 1170.74 1096.15C1159.43 1082.26 1143.81 1070.82 1125.02 1073.53C1112.42 1075.35 1100.08 1072.62 1089.41 1065.7C1080.03 1059.62 1072.36 1051.35 1064.1 1043.9C1056 1036.58 1047.2 1030.14 1036.9 1026.3C1023.38 1021.26 1008.4 1020.56 994.137 1021.73C982.669 1022.68 971.293 1024.82 960.061 1027.12C928.103 1033.71 898.807 1046.66 874.889 1069.22C855.094 1087.89 839.392 1111.09 817.091 1127.02C804.221 1136.21 789.276 1141.9 773.444 1142.67C771.579 1142.77 769.716 1142.78 767.903 1142.68C733.544 1141.07 708.493 1110.51 689.964 1084.79C665.424 1050.69 646.231 1011.4 616.062 981.679C602.455 968.296 583.909 955.682 563.856 957.367C548.079 958.703 534.832 969.217 523.892 979.866C508.602 994.75 495.435 1011.83 482.151 1028.49C468.153 1046.02 454.409 1063.8 440.018 1080.99C426.132 1097.58 410.47 1113.17 395.56 1128.87C359.283 1167.12 317.245 1204.41 263 1211.67C228.295 1216.33 193.065 1216.25 158.722 1210.11C115.74 1202.42 72.7141 1185.02 39.2699 1156.04C12.854 1133.16 -7.98204 1101.71 -10.399 1066.1" stroke="#FF004D" stroke-width="0.8" stroke-miterlimit="10"/>
<path d="M1955.44 1075.36C1953.42 1093.7 1948.93 1111.96 1943.57 1129.57C1932.21 1166.87 1914.93 1203.5 1889.6 1233.41C1874.45 1251.3 1855.98 1266.39 1834.1 1274.96C1812.85 1283.28 1789.69 1286.69 1767.06 1281.96C1747.32 1277.83 1729.7 1267.85 1713.79 1255.78C1687.65 1235.99 1658.89 1200.58 1622.07 1212.04C1603.31 1217.89 1586.29 1229.19 1569.96 1239.82C1548.59 1253.71 1527.79 1268.5 1506.62 1282.68C1469.53 1307.56 1428.9 1334.54 1383.32 1339.23C1361.67 1341.45 1339.47 1338.36 1319.34 1330.14C1277.76 1313.18 1250.05 1278.63 1229.99 1239.58C1218.37 1216.97 1209.16 1193.25 1198.91 1169.99C1190.46 1150.82 1181.53 1131.06 1168.33 1114.6C1158.31 1102.08 1144.43 1091.34 1127.56 1092.91C1096.07 1095.85 1080.96 1068.6 1060.91 1049.84C1050.71 1040.29 1038.66 1033.8 1024.83 1031.46C1004.59 1028.01 983.49 1031.81 963.734 1036.08C931.587 1043.03 902.044 1056.3 877.886 1078.99C857.961 1097.71 842.272 1121.12 819.871 1137.16C807.017 1146.37 792.073 1152.07 776.209 1152.78C741.242 1154.38 714.937 1124.83 695.982 1099.15C670.19 1064.24 650.97 1023.58 620.307 992.441C606.268 978.184 588.361 966.016 567.554 966.742C547.049 967.456 530.274 984.882 517.429 999.042C499.161 1019.22 482.892 1041.19 466.031 1062.54C457.826 1072.94 449.818 1083.45 440.79 1093.14C431.602 1103 422.595 1113.04 413.504 1122.96C394.576 1143.63 375.181 1164.14 353.024 1181.41C327.491 1201.34 297.98 1216.21 265.556 1220.08C212.57 1226.41 158.027 1221.39 107.95 1202.17C69.4358 1187.41 32.6013 1163.19 10.3731 1127.67C-0.366161 1110.53 -7.20972 1090.94 -8.26447 1070.67" stroke="#FF004D" stroke-width="0.8" stroke-miterlimit="10"/>
</g>
</svg>
