<svg width="208" height="37" viewBox="0 0 208 37" fill="none" xmlns="http://www.w3.org/2000/svg">
<path d="M17.3592 26.0146C15.7724 27.4956 13.6567 28.2361 11.0121 28.2361C8.36753 28.2361 6.24127 27.4956 4.63335 26.0146C3.02543 24.5336 2.22147 22.5343 2.22147 20.0166V5.73577H7.04523V19.2232C7.04523 20.6196 7.39431 21.688 8.09249 22.4285C8.79066 23.169 9.76388 23.5392 11.0121 23.5392C12.2604 23.5392 13.223 23.169 13.9 22.4285C14.5982 21.688 14.9473 20.6196 14.9473 19.2232V5.73577H19.7711V20.0166C19.7711 22.5343 18.9671 24.5336 17.3592 26.0146ZM29.7069 5.73577H33.7373L42.1471 27.4109V27.9504H37.1012L35.6731 23.9518H27.7393L26.3112 27.9504H21.2971V27.4109L29.7069 5.73577ZM34.3403 19.8262L31.7062 12.654L29.1039 19.8262H34.3403Z" fill="white"/>
<path d="M75.6706 0.00746351C71.723 0.00393637 68.0584 2.03131 66.0002 5.35701C64.2717 2.56178 61.3888 0.654689 58.1126 0.139383C54.8363 -0.375924 51.4961 0.552404 48.973 2.67889C46.4499 4.80576 44.9979 7.91738 45 11.1922C45 21.0325 55.2439 30.5485 66 37C76.7561 30.5479 87 21.0315 87 11.1922C87 8.22591 85.8063 5.38102 83.6816 3.28341C81.5569 1.18589 78.6751 0.00746351 75.67 0.00746351H75.6706Z" fill="url(#paint0_linear_54_196)"/>
<path d="M61.4764 11.74V20.22H63.6764V23H56.2364V20.22H58.4364V11.74H56.2564V9H63.6364V11.74H61.4764ZM70.7542 23.18C69.1409 23.18 67.8542 22.7733 66.8942 21.96C65.9476 21.1467 65.4276 20.0067 65.3342 18.54H68.3542C68.4609 19.7533 69.2609 20.36 70.7542 20.36C71.4476 20.36 71.9876 20.2333 72.3742 19.98C72.7609 19.7267 72.9542 19.38 72.9542 18.94C72.9542 18.4867 72.7476 18.1333 72.3342 17.88C71.9342 17.6267 71.2409 17.4133 70.2542 17.24C68.7209 16.9733 67.5476 16.52 66.7342 15.88C65.9342 15.2267 65.5342 14.2933 65.5342 13.08C65.5342 11.7733 66.0076 10.7333 66.9542 9.96C67.9009 9.18667 69.1276 8.8 70.6342 8.8C72.1009 8.8 73.2942 9.2 74.2142 10C75.1476 10.7867 75.6742 11.8533 75.7942 13.2H72.7742C72.6142 12.1333 71.8809 11.6 70.5742 11.6C69.9476 11.6 69.4542 11.7267 69.0942 11.98C68.7342 12.22 68.5542 12.5533 68.5542 12.98C68.5542 13.4067 68.7409 13.7333 69.1142 13.96C69.5009 14.1867 70.1876 14.38 71.1742 14.54C74.4142 15.0867 76.0342 16.5133 76.0342 18.82C76.0342 20.1667 75.5409 21.2333 74.5542 22.02C73.5809 22.7933 72.3142 23.18 70.7542 23.18Z" fill="white"/>
<path d="M107.764 5.73577V10.2739H99.0686V15.1611H107.002V19.6993H99.0686V27.9504H94.2449V5.73577H107.764ZM116.456 5.73577H120.486L128.896 27.4109V27.9504H123.85L122.422 23.9518H114.488L113.06 27.9504H108.046V27.4109L116.456 5.73577ZM121.089 19.8262L118.455 12.654L115.853 19.8262H121.089ZM142.664 16.3671L149.9 5.73577H153.581V27.9504H148.789V14.8755L143.902 21.889H141.363L136.444 14.8438V27.9504H131.621V5.73577H135.365L142.664 16.3671ZM165.851 10.0835V23.5392H169.342V27.9504H157.537V23.5392H161.027V10.0835H157.568V5.73577H169.279V10.0835H165.851ZM178.066 5.73577V23.3488H187.713V27.9504H173.242V5.73577H178.066ZM199.94 5.73577H205.271V6.33873L197.655 18.6837V27.9504H192.831V18.6837L185.215 6.27527V5.73577H190.514L193.022 10.02L195.243 13.8917L197.465 10.02L199.94 5.73577Z" fill="white"/>
<defs>
<linearGradient id="paint0_linear_54_196" x1="66" y1="0" x2="66" y2="37" gradientUnits="userSpaceOnUse">
<stop stop-color="#FF004D"/>
<stop offset="1" stop-color="#FF004D" stop-opacity="0.3"/>
</linearGradient>
</defs>
</svg>
