<svg width="187" height="263" viewBox="0 0 187 263" fill="none" xmlns="http://www.w3.org/2000/svg">
<path d="M23.8081 137.66C28.5759 141.811 33.7309 145.54 39.2125 148.765C40.6008 149.606 42.0263 150.389 43.4796 151.126C42.7147 151.133 41.9614 151.11 41.1873 151.14C39.1962 151.266 37.2261 151.437 35.1468 151.759C34.0806 151.938 33.0631 152.084 31.7187 152.547C31.276 152.744 31.021 152.802 30.4462 153.155C30.1449 153.354 29.8482 153.576 29.5794 153.815C29.1877 154.177 28.6592 155.027 28.483 155.718C28.2837 156.446 28.4065 157.556 28.7681 158.333C28.9744 158.759 28.942 158.655 29.037 158.84L29.438 159.547C33.9044 167.12 41.6601 171.556 48.9585 174.393C54.0763 176.377 59.4095 177.729 64.824 178.426C63.2293 179.068 61.6208 179.682 59.9635 180.158C58.9599 180.447 57.947 180.702 56.9225 180.925L55.3834 181.238C54.7785 181.47 54.2546 181.194 53.0609 182.302C52.748 182.601 52.6159 183.25 52.7758 183.841C52.9126 184.195 53.1049 184.439 53.2904 184.659C53.5917 184.937 53.9046 185.174 54.1665 185.32C54.7182 185.663 55.2374 185.887 55.7589 186.124C56.8019 186.574 57.838 186.935 58.8856 187.276C63.1157 188.669 67.5126 189.109 71.824 189.292L84.7458 189.531C76.2393 188.483 67.3898 188.467 59.609 185.271C58.6355 184.875 57.6643 184.457 56.7649 183.989C56.6653 183.936 56.5865 183.876 56.4868 183.822L57.4278 183.699C58.5219 183.544 59.6136 183.347 60.6983 183.118C65.035 182.2 69.2718 180.735 73.2794 178.748C73.8774 178.449 74.3086 177.854 74.3618 177.14C74.4453 176.06 73.634 175.116 72.5539 175.033L72.4033 175.024C65.0467 174.463 57.8035 172.388 51.1744 169.255C45.3589 166.589 40.3247 162.881 36.7669 158.249C38.3152 158.027 39.9539 157.874 41.5926 157.772C45.2478 157.635 49.0791 157.825 52.8108 157.832C56.5587 157.781 60.337 158.094 64.1198 158.414L67.8607 158.706C70.3733 158.998 72.902 159.195 75.4262 159.295L75.4493 159.297C75.5722 159.299 75.695 159.313 75.8156 159.318C77.5841 159.374 79.1162 158.025 79.2483 156.247C79.3851 154.42 78.0129 152.828 76.1841 152.694L68.3428 152.082C65.0631 151.69 61.811 151.087 58.64 150.065C53.0819 148.331 47.6141 146.09 42.561 143.024C37.478 140.034 32.6547 136.548 28.1766 132.649C27.4952 132.054 26.8277 131.425 26.1555 130.811C28.9531 131.671 31.7809 132.422 34.6477 132.971C38.6345 133.759 42.6766 134.251 46.7328 134.452C50.8307 134.652 54.764 134.636 59.0802 134.133C60.6193 133.954 61.8685 132.714 61.9984 131.113C62.149 129.288 60.7931 127.689 58.9689 127.541L58.7719 127.525C53.8465 127.124 48.9559 126.083 44.2784 124.208C39.6357 122.256 35.1832 119.764 31.0065 116.798C26.897 113.794 23.0216 110.424 19.4175 106.766C21.2347 107.374 23.0565 107.932 24.8829 108.431C31.8318 110.345 38.7481 111.803 45.8709 112.95C47.3589 113.189 48.8725 112.385 49.4659 110.929C50.1566 109.235 49.3453 107.302 47.651 106.606L47.3983 106.504C44.9322 105.498 42.3709 104.701 39.9813 103.54C37.6263 102.321 35.1764 101.254 33.0068 99.7247C28.4546 97.0036 24.4493 93.4712 20.866 89.6025C17.2641 85.7317 14.2529 81.309 11.8474 76.5834C11.3815 75.6818 10.9527 74.7454 10.5308 73.809C12.6331 75.3944 14.7841 76.8824 16.9742 78.2754C19.9318 80.1459 22.9725 81.8333 26.0485 83.4349C29.1498 85.0342 32.2118 86.5176 35.5033 87.9107C37.091 88.5782 38.9591 87.9199 39.7565 86.3623C40.5909 84.7283 39.9419 82.728 38.3102 81.8936L38.2638 81.8704C33.649 79.5108 29.8178 75.8857 27.2052 71.3126C24.5235 66.7859 22.9914 61.4829 22.1338 56.0613C21.3087 50.6608 21.158 45.0959 21.4755 39.5331C24.4006 47.6314 28.5123 55.2876 33.5535 62.1944C41.9627 73.7976 53.1554 83.8267 65.533 90.5787C77.7783 97.5228 90.1393 103.605 100.447 112.733C105.606 117.218 110.342 122.282 113.911 128.123C117.564 133.881 119.78 140.72 119.184 147.718C120.396 140.811 118.762 133.519 115.496 127.24C112.272 120.889 107.715 115.317 102.727 110.296C92.7554 100.097 80.3018 92.8222 68.8682 85.201C63.1988 81.2792 57.5082 77.5916 52.4391 73.2061C47.4326 68.8231 42.8895 63.6986 38.9305 58.2906C31.0126 47.4314 25.5566 34.7714 23.8507 21.5298L23.8438 21.4602C23.6676 20.1252 22.6849 18.9778 21.2941 18.6626C19.5094 18.257 17.7362 19.3742 17.3306 21.1589C15.9608 27.1691 15.2144 32.9913 14.8459 39.0062C14.5005 44.9838 14.6465 51.0403 15.5667 57.0784C16.4035 62.3445 17.8822 67.6409 20.3971 72.5753C14.9107 69.1194 9.61441 65.1399 6.03819 60.3929L5.91303 60.2237C5.18289 59.2572 3.94518 58.7357 2.67734 58.9744C0.892607 59.3128 -0.280237 61.035 0.0581602 62.8197C1.22401 68.9759 3.24751 74.3209 5.92923 79.6126C8.59706 84.8416 11.9394 89.7532 15.947 94.0735C18.2533 96.5652 20.7426 98.9015 23.3896 101.038C21.2271 100.364 19.09 99.6454 17.027 98.8295C13.9628 97.6172 10.9099 96.1084 8.9097 94.3167L8.81699 94.2309C7.69286 93.225 5.98925 93.0836 4.70283 93.9875C3.20321 95.0375 2.84161 97.105 3.8962 98.6023C7.18523 103.291 10.7247 107.362 14.5952 111.339C18.4636 115.27 22.6424 118.911 27.1396 122.191C28.8779 123.426 30.6882 124.574 32.5331 125.668C30.0136 125.07 27.515 124.388 25.0905 123.508C21.5419 122.325 18.1832 120.694 14.8734 118.988L14.7181 118.904C13.6055 118.332 12.2148 118.422 11.1694 119.243C9.73468 120.369 9.4844 122.446 10.6108 123.878C14.6624 129.068 19.0271 133.458 23.8061 137.661L23.8081 137.66Z" fill="#FF004D"/>
<path d="M183.044 141.089H182.953C181.426 141.083 178.45 139.562 176.647 137.877C176.181 137.455 175.75 137.003 175.474 136.621L174.431 134.81C173.471 133.153 172.315 131.623 170.949 130.291C168.212 127.648 164.559 125.824 160.612 125.395C156.62 125.103 153.185 125.968 149.873 127.266C143.374 130.04 138.33 134.669 134.133 139.676C129.893 144.68 126.444 150.229 123.582 155.998C127.198 150.674 131.421 145.797 136.033 141.491C140.625 137.193 145.916 133.598 151.519 131.902C152.912 131.482 154.34 131.276 155.726 131.125C157.119 131.158 158.563 130.989 159.71 131.311C162.142 131.837 164.341 133.364 166.196 135.175C167.125 136.088 167.973 137.101 168.657 138.204L170.097 140.524C170.678 141.319 171.283 141.94 171.9 142.524C169.373 143.343 166.933 144.585 164.851 146.182C159.534 150.115 156.419 155.965 154.029 161.097C151.538 166.278 149.285 171.688 147.391 177.162C145.453 182.656 144.058 188.321 142.472 193.6C140.873 198.894 138.961 203.938 136.027 208.161C133.132 212.407 129.17 215.703 124.472 217.972C119.797 220.274 114.589 221.505 109.19 222.17C103.82 222.824 98.3479 222.87 93.0283 222.2C92.1638 222.093 91.2344 222.325 90.5088 222.921L69.083 240.483C65.5599 243.45 62.0991 246.382 58.5021 248.999C56.7035 250.311 54.877 251.544 53.0019 252.671C52.3807 253.046 51.7433 253.389 51.1105 253.735C50.7651 252.163 50.1811 250.441 49.2076 248.914C48.2434 247.386 46.9338 245.884 45.0401 244.836C44.5511 244.577 44.113 244.354 43.4918 244.178C42.8637 244.028 42.0687 243.84 41.5448 243.865C40.3813 243.849 39.4611 244.025 38.5873 244.218C35.3168 245.091 32.7996 246.364 30.2962 247.344C29.0468 247.866 27.867 248.262 26.7615 248.57C26.7082 248.584 26.6618 248.591 26.6085 248.603C26.9515 248.114 27.3154 247.615 27.6909 247.126C29.3134 245.026 31.1028 242.94 32.9269 240.887C36.5891 236.784 40.4389 232.746 44.3166 228.827C44.852 228.285 45.2112 227.555 45.2692 226.734C45.406 224.901 44.0292 223.306 42.1981 223.165L42.0845 223.155L38.1998 222.866C36.9366 222.65 35.6501 222.506 34.4055 222.24C31.9323 221.667 29.4917 220.974 27.2732 219.887C25.1432 218.86 23.173 217.579 21.4787 216.033C24.9137 216.485 28.3629 216.77 31.8394 216.498C37.9909 216.253 44.0616 215.126 49.9395 213.585C55.8314 212.051 61.4894 209.786 66.8504 207.063C72.2069 204.335 77.248 200.988 81.6775 197.024C76.7706 200.378 71.3701 202.849 65.8975 204.912C60.4112 206.944 54.76 208.477 49.0233 209.279C43.3006 210.085 37.5363 210.481 31.8276 210.043C28.9743 209.944 26.1419 209.652 23.2908 209.524C20.4422 209.339 17.6422 208.704 14.8098 208.324L14.4413 208.273C13.9198 208.203 13.3704 208.263 12.8466 208.47C11.1847 209.121 10.3642 210.996 11.0155 212.656C11.7758 214.603 12.5639 215.775 13.5304 217.145C14.4737 218.448 15.5515 219.623 16.7035 220.701C19.0052 222.861 21.6545 224.558 24.4221 225.888C27.1942 227.237 30.1147 228.074 33.0354 228.741C33.6334 228.867 34.2314 228.964 34.8293 229.061C32.5069 231.49 30.2099 233.943 27.9546 236.467C26.0632 238.597 24.202 240.752 22.408 243.081C21.511 244.268 20.6325 245.448 19.7772 246.938C19.5617 247.365 19.3508 247.703 19.1352 248.262C19.0332 248.507 18.9266 248.758 18.827 249.175L18.6972 249.741C18.6577 249.956 18.6415 250.366 18.6508 250.67C18.674 251.013 18.6485 251.247 18.8803 251.882C19.0356 252.367 19.5015 253.076 19.6544 253.206C19.9071 253.451 20.1759 253.688 20.4541 253.917C21.0034 254.413 21.6014 254.731 22.2388 254.944C24.7977 255.834 26.7517 255.359 28.3719 255.011C29.9596 254.58 31.4314 254.059 32.7641 253.507C35.4528 252.425 37.9978 251.231 40.1444 250.672C40.6405 250.57 41.0948 250.496 41.3381 250.506C41.5143 250.482 41.3984 250.559 41.4586 250.506C41.5143 250.496 41.7136 250.591 41.8364 250.661C42.4043 250.962 43.0464 251.602 43.5586 252.432C44.0662 253.229 44.3953 254.14 44.6387 255.262L44.7244 255.684L44.7615 255.943L44.8287 256.868C44.9284 257.64 44.8311 258.599 45.6469 260.271L45.684 260.347C46.3748 261.756 48.039 262.431 49.5363 261.858C51.1379 261.246 52.1624 260.709 53.2355 260.155C54.3157 259.587 55.3796 258.991 56.4156 258.363C58.4924 257.114 60.4858 255.767 62.4098 254.362C66.2621 251.556 69.8406 248.517 73.3616 245.555L93.6518 228.924C99.1103 229.49 104.58 229.416 109.99 228.762C115.838 228.043 121.846 226.664 127.385 223.936C132.92 221.292 137.985 217.099 141.48 211.937C145.036 206.803 147.143 201.057 148.823 195.515C150.499 189.922 151.818 184.547 153.66 179.327C155.477 174.072 157.594 168.982 160.023 163.932C162.385 158.854 164.914 154.369 168.849 151.471C172.671 148.46 177.455 147.672 182.944 147.726H183.051C184.884 147.723 186.37 146.231 186.368 144.393C186.37 142.571 184.877 141.085 183.044 141.09L183.044 141.089ZM25.2737 250.833C25.2528 250.879 25.2598 250.865 25.2737 250.833V250.833Z" fill="#FF004D"/>
<path d="M83.6194 77.9137C84.6439 80.7971 86.0949 83.5298 87.7985 86.0214C89.516 88.527 91.7365 90.6108 94.0194 92.4511C92.128 90.1774 90.4429 87.7993 89.3141 85.1456C88.1645 82.5195 87.2304 79.8355 86.7529 77.0355C86.287 74.4835 86.0784 71.8992 86.0576 69.3241C87.2327 70.4761 88.431 71.5701 89.6804 72.5436C91.4837 73.9667 93.3356 75.274 95.2385 76.4746C97.16 77.6869 99.0328 78.7901 101.133 79.8703C102.238 80.4358 103.622 80.3547 104.667 79.5481C106.116 78.4309 106.385 76.3518 105.268 74.9032L105.159 74.7595C103.196 72.2075 101.311 69.5583 100.018 66.552C98.6782 63.5852 97.5864 60.4724 96.9375 57.216C96.46 54.963 96.1726 52.6614 95.9779 50.3436C96.9653 51.484 97.948 52.622 99.0073 53.6535C100.465 55.065 101.895 56.3561 103.56 57.6772C104.327 58.2822 105.367 58.5511 106.387 58.3054C108.163 57.8789 109.259 56.0964 108.833 54.321L108.782 54.1194C108.269 51.9893 107.688 49.8684 107.224 47.7336C106.934 45.578 106.413 43.434 106.299 41.2712C105.845 36.9438 106.021 32.614 106.55 28.3584C107.238 24.1283 108.411 19.9907 110.189 16.1297C110.314 15.8539 110.471 15.5803 110.603 15.3045C110.979 21.8939 112.657 28.3657 115.139 34.2739C117.179 39.1761 119.601 43.7309 122.536 48.1901C125.463 52.5569 128.68 56.4901 131.501 60.4817C134.391 64.4614 136.607 68.4993 138.292 72.9958C139.159 75.2232 139.678 77.5642 140.413 79.8563C141.148 82.1533 141.889 84.4781 142.429 86.8675C144.719 96.4148 145.54 106.484 145.633 116.61C147.663 106.687 148.727 96.4171 147.888 86.0125C147.705 83.4095 147.38 80.802 146.905 78.2038C146.407 75.6055 145.419 73.13 144.508 70.6383C142.67 65.6781 139.979 60.8128 136.927 56.6384C133.923 52.3991 130.748 48.5075 128.061 44.4905C125.447 40.5339 123.104 36.1394 121.279 31.7307C117.578 22.8925 115.985 13.2295 118.092 4.16468L118.132 3.99084C118.368 2.94088 118.081 1.80048 117.272 0.977663C116.006 -0.31107 113.932 -0.327269 112.643 0.93826C108.742 4.77663 106.28 8.82588 104.151 13.3367C102.09 17.8031 100.746 22.5546 99.9717 27.3733C99.3574 32.2037 99.1767 37.085 99.675 41.8853C99.7353 42.9329 99.8906 43.9621 100.053 44.9889C98.9495 43.6469 98.0016 42.2376 97.3154 40.8515C96.6201 39.4747 96.233 38.0933 96.3188 37.1268L96.3257 37.048C96.4764 35.3235 95.2618 33.7543 93.5281 33.4855C91.7179 33.2027 90.0189 34.4451 89.7361 36.2576C89.7199 36.3712 89.7199 36.4709 89.7037 36.5798H89.6944C89.6921 36.6053 89.6967 36.6308 89.6944 36.6563C89.1405 40.4251 88.999 43.8924 89.0895 47.5179C89.2054 51.2333 89.6481 54.9486 90.4246 58.6132C90.96 61.2811 91.7666 63.9095 92.7679 66.4753C91.5788 65.481 90.4477 64.4518 89.5438 63.3254C88.4034 61.8744 87.2978 60.5046 86.7369 59.2158L86.4286 58.5043C85.9789 57.4775 84.973 56.7427 83.7769 56.701C82.115 56.6407 80.7174 57.9364 80.6571 59.6029C80.5343 62.9591 80.8171 65.9193 81.2876 69.0066C81.8045 72.0453 82.5717 75.0376 83.6193 77.9142L83.6194 77.9137Z" fill="#FF004D"/>
</svg>
