<svg width="40" height="41" viewBox="0 0 40 41" fill="none" xmlns="http://www.w3.org/2000/svg">
<path d="M24.4726 12.6057L13.6396 18.5146M24.4726 28.3941L13.6396 22.4852" stroke="#0B1C59" stroke-width="3.33333"/>
<path d="M31.6667 10.5C31.6667 12.3409 30.1743 13.8333 28.3333 13.8333C26.4924 13.8333 25 12.3409 25 10.5C25 8.65905 26.4924 7.16667 28.3333 7.16667C30.1743 7.16667 31.6667 8.65905 31.6667 10.5ZM13.3333 20.5C13.3333 22.3409 11.8409 23.8333 10 23.8333C8.15905 23.8333 6.66667 22.3409 6.66667 20.5C6.66667 18.6591 8.15905 17.1667 10 17.1667C11.8409 17.1667 13.3333 18.6591 13.3333 20.5ZM31.6667 30.5C31.6667 32.3409 30.1743 33.8333 28.3333 33.8333C26.4924 33.8333 25 32.3409 25 30.5C25 28.659 26.4924 27.1667 28.3333 27.1667C30.1743 27.1667 31.6667 28.659 31.6667 30.5Z" stroke="#0B1C59" stroke-width="3.33333"/>
</svg>
