<svg width="40" height="41" viewBox="0 0 40 41" fill="none" xmlns="http://www.w3.org/2000/svg">
<path d="M33.3332 27.1667H21.6665C20.746 27.1667 19.9998 26.4205 19.9998 25.5V15.5C19.9998 14.5795 20.746 13.8333 21.6665 13.8333H33.3332M33.3332 27.1667C34.2536 27.1667 34.9998 26.4205 34.9998 25.5V15.5C34.9998 14.5795 34.2536 13.8333 33.3332 13.8333M33.3332 27.1667V32.1667C33.3332 33.0871 32.587 33.8333 31.6665 33.8333H8.33317C7.4127 33.8333 6.6665 33.0871 6.6665 32.1667V8.83334C6.6665 7.91286 7.4127 7.16667 8.33317 7.16667H31.6665C32.587 7.16667 33.3332 7.91286 33.3332 8.83334V13.8333" stroke="#0B1C59" stroke-width="3.33333"/>
<rect x="24.1665" y="18" width="5" height="5" rx="2.5" fill="#0B1C59"/>
</svg>
